/* XPM */
static char *ae6c1b9c018c425596821bf0007af6b89d9s0qPTOwbeasmR[] = {
/* columns rows colors chars-per-pixel */
"32 64 35 1 ",
"  c #517A99",
". c #52819E",
"X c #59ADBD",
"o c #5AB4C2",
"O c #5AB3C1",
"+ c #5387A2",
"@ c #58A7B9",
"# c #59AEBD",
"$ c #5AB2C0",
"% c #5386A2",
"& c #59ACBC",
"* c #52829F",
"= c #517B9A",
"- c #59A8BB",
"; c #58A0B5",
": c #517B9B",
"> c #507597",
", c #517597",
"< c #59A9BB",
"1 c #50608E",
"2 c #4E5387",
"3 c #4E4F84",
"4 c #4D4E83",
"5 c #579BB2",
"6 c #4E5286",
"7 c #4D467F",
"8 c #4D4880",
"9 c #50608F",
"0 c #4D4981",
"q c #4D477F",
"w c #5AB5C2",
"e c #59A7BA",
"r c #579BB3",
"t c #4F5588",
"y c white",
/* pixels */
" .XoOOOOOOOOOOOOOOOOOOOOOOOOOOOO",
".+@#$OOOOOOOOOOOOOOOOOOOOOOOOOOO",
"X@%+#oOOOOOOOOOOOOOOOOOOOOOOOOOO",
"o#+%@#$OOOOOOOOOOOOOOOOOOOOOOOOO",
"O$#@%+#oOOOOOOOOOOOOOOOOOOOOOOOO",
"OOo#+%@#$OOOOOOOOOOOOOOOOOOOOOOO",
"OOO$#@%+#oOOOOOOOOOOOOOOOOOOOOOO",
"OOOOo#+%@#$OOOOOOOOOOOOOOOOOOOOO",
"OOOOO$#@%+#oOOOOOOOOOOOOOOOOOOOO",
"OOOOOOo#+%@#$OOOOOOOOOOOOOOOOOOO",
"OOOOOOO$#@%+#oOOOOOOOOOOOOOOOOOO",
"OOOOOOOOo#+%@#$OOOOOOOOOOOOOOOOO",
"OOOOOOOOO$#@%+#oOOOOOOOOOOOOOOOO",
"OOOOOOOOOOo#+%@#$OOOOOOOOOOOOOOO",
"OOOOOOOOOOO$#@%+#oOOOOOOOOOOOOOO",
"OOOOOOOOOOOOo#+%@X&&&&&&&&&&&&&&",
"OOOOOOOOOOOOO$#@+.**************",
"OOOOOOOOOOOOOOoX. ==============",
"OOOOOOOOOOOOOOO&*===============",
"OOOOOOOOOOOOOOO&*===============",
"OOOOOOOOOOOOOOO&*===============",
"OOOOOOOOOOOOOOO&*===============",
"OOOOOOOOOOOOOOO&*===============",
"OOOOOOOOOOOOOOO&*===============",
"OOOOOOOOOOOOOOO&*===============",
"OOOOOOOOOOOOOOO&*===============",
"OOOOOOOOOOOOOOO&*===============",
"OOOOOOOOOOOOOOO&*===============",
"OOOOOOOOOOOOOOO&*===============",
"OOOOOOOOOOOOOOO&*===============",
"OOOOOOOOOOOOOOO&*===============",
"OOOOOOOOOOOOOOO&*===============",
"OOOOOOOOOOOOOOO&*===============",
"OOOOOOOOOOOOOOO&*===============",
"OOOOOOOOOOOOOOO&*===============",
"OOOOOOOOOOOOOOO&*===============",
"OOOOOOOOOOOOOOO&*===============",
"OOOOOOOOOOOOOOO&*===============",
"OOOOOOOOOOOOOOO&*===============",
"OOOOOOOOOOOOOOO&*===============",
"OOOOOOOOOOOOOOO&*===============",
"OOOOOOOOOOOOOOO&*===============",
"OOOOOOOOOOOOOOO&*===============",
"OOOOOOOOOOOOOOO&*===============",
"OOOOOOOOOOOOOOO&*===============",
"OOOOOOOOOOOOOOO&*===============",
"OOOOOOOOOOOOOOoX*===============",
"OOOOOOOOOOOOO$-;:>,,,,,,,,,,,,,,",
"OOOOOOOOOOOOo<123444444444444444",
"OOOOOOOOOOO$<5678888888888888888",
"OOOOOOOOOOo<96088888888888888888",
"OOOOOOOOO$<56q888888888888888888",
"OOOOOOOOo<9608888888888888888888",
"OOOOOOO$<56q88888888888888888888",
"OOOOOOo<960888888888888888888888",
"OOOOO$<56q8888888888888888888888",
"OOOOo<96088888888888888888888888",
"OOO$<56q888888888888888888888888",
"OOo<9608888888888888888888888888",
"O$<56q88888888888888888888888888",
"w<960888888888888888888888888888",
"er6q8888888888888888888888888888",
"t2088888888888888888888888888888",
"qq888888888888888888888888888888"
};
