/* XPM */
static char *_7284647aa5d4b118f2289dca4100ea2Wh9OfmANsx0tp4Kt[] = {
/* columns rows colors chars-per-pixel */
"32 64 36 1 ",
"  c #5AB3C1",
". c #5AB5C2",
"X c #59A7BA",
"o c #4F5588",
"O c #4D477F",
"+ c #5AB2C0",
"@ c #59A9BB",
"# c #579BB3",
"$ c #4E5387",
"% c #5AB4C2",
"& c #50608F",
"* c #4E5286",
"= c #4D4981",
"- c #4D4880",
"; c #579BB2",
": c #59A8BB",
"> c #50608E",
", c #59ACBC",
"< c #59ADBD",
"1 c #58A0B5",
"2 c #4D467F",
"3 c #52829F",
"4 c #517B9B",
"5 c #4E4F84",
"6 c #517B9A",
"7 c #507597",
"8 c #4D4E83",
"9 c #517597",
"0 c #517C9A",
"q c #4D4780",
"w c #507095",
"e c #4E5385",
"r c #4D4D83",
"t c #4D4980",
"y c #507195",
"u c white",
/* pixels */
"                            .XoO",
"                           +@#$O",
"                          %@&*=-",
"                         +@;*O--",
"                        %@&*=---",
"                       +@;*O----",
"                      %@&*=-----",
"                     +@;*O------",
"                    %@&*=-------",
"                   +@;*O--------",
"                  %@&*=---------",
"                 +@;*O----------",
"                %@&*=-----------",
"               +@;*O------------",
"              %:>*=-------------",
",,,,,,,,,,,,,,<1$2--------------",
"33333333333333345---------------",
"66666666666666678---------------",
"66666666666666698---------------",
"66666666666666698---------------",
"66666666666666698---------------",
"66666666666666698---------------",
"66666666666666698---------------",
"66666666666666698---------------",
"66666666666666698---------------",
"66666666666666698---------------",
"66666666666666698---------------",
"66666666666666698---------------",
"66666666666666698---------------",
"66666666666666698---------------",
"66666666666666698---------------",
"66666666666666698---------------",
"66666666666666698---------------",
"66666666666666698---------------",
"66666666666666698---------------",
"66666666666666698---------------",
"66666666666666698---------------",
"66666666666666698---------------",
"66666666666666698---------------",
"66666666666666698---------------",
"66666666666666698---------------",
"66666666666666698---------------",
"66666666666666698---------------",
"66666666666666698---------------",
"66666666666666698---------------",
"66666666666666698---------------",
"66666666666666098q--------------",
"999999999999999wert-------------",
"888888888888888eywrq------------",
"--------------qrwyert-----------",
"---------------treywrq----------",
"----------------qrwyert---------",
"-----------------treywrq--------",
"------------------qrwyert-------",
"-------------------treywrq------",
"--------------------qrwyert-----",
"---------------------treywrq----",
"----------------------qrwyert---",
"-----------------------treywrq--",
"------------------------qrwyert-",
"-------------------------treywrq",
"--------------------------qrwye8",
"---------------------------trew9",
"----------------------------q890"
};
