/* XPM */
static char *_9dbe191e01d44ecd402ae8c7c8787d9CZYrffnq04PtoIPE[] = {
/* columns rows colors chars-per-pixel */
"64 64 154 2 ",
"   c None",
".  c #000000",
"X  c #07080D",
"o  c #09090D",
"O  c #1D1201",
"+  c #131005",
"@  c #070712",
"#  c #0A0914",
"$  c #12111D",
"%  c #1F1B1A",
"&  c #291D0D",
"*  c #261C16",
"=  c #131224",
"-  c #5F3301",
";  c #5B3615",
":  c #5A361A",
">  c #603300",
",  c #60350A",
"<  c #603713",
"1  c #603813",
"2  c #5B3722",
"3  c #5B3821",
"4  c #56382E",
"5  c #7A4603",
"6  c #7E4801",
"7  c #77470A",
"8  c #7A4909",
"9  c #71471B",
"0  c #73491C",
"q  c #6E4722",
"w  c #684730",
"e  c #3B375F",
"r  c #3B3869",
"t  c #433F6A",
"y  c #423F74",
"u  c #574451",
"i  c #52445D",
"p  c #5F495E",
"a  c #5D4E54",
"s  c #67494C",
"d  c #775F43",
"f  c #785F42",
"g  c #614C5C",
"h  c #6F5B56",
"j  c #64555D",
"k  c #6C5B5A",
"l  c #705954",
"z  c #705D5A",
"x  c #776043",
"c  c #7B6A57",
"v  c #79675D",
"b  c #484267",
"n  c #44406C",
"m  c #4D456B",
"M  c #524565",
"N  c #554865",
"B  c #5B4962",
"V  c #51466A",
"C  c #554869",
"Z  c #584968",
"A  c #5F5365",
"S  c #444074",
"D  c #4C4577",
"F  c #4C477D",
"G  c #4D487E",
"H  c #514976",
"J  c #584C70",
"K  c #514979",
"L  c #57507C",
"P  c #5A527B",
"I  c #635563",
"U  c #695666",
"Y  c #665A65",
"T  c #685B64",
"R  c #63586B",
"E  c #655B74",
"W  c #61577A",
"Q  c #756767",
"!  c #776966",
"~  c #746768",
"^  c #6F637C",
"/  c #965606",
"(  c #9C5701",
")  c #955508",
"_  c #8C551D",
"`  c #915513",
"'  c #AF7E00",
"]  c #A47C0C",
"[  c #875325",
"{  c #8A5623",
"}  c #B98806",
"|  c #BE8E0A",
" . c #BA8E11",
".. c #AF8521",
"X. c #B58C26",
"o. c #AD8A3D",
"O. c #C69100",
"+. c #CB9705",
"@. c #CC9803",
"#. c #C5971B",
"$. c #D7A001",
"%. c #D9A200",
"&. c #D4A008",
"*. c #EFBB03",
"=. c #EEBB08",
"-. c #F0BD01",
";. c #C19522",
":. c #D4AB26",
">. c #DEB82F",
",. c #DEB731",
"<. c #E3B725",
"1. c #E5B824",
"2. c #E2B729",
"3. c #E3B92A",
"4. c #E0BA31",
"5. c #FFCA02",
"6. c #EFC427",
"7. c #EEC429",
"8. c #F0C62F",
"9. c #FFD32A",
"0. c #EEC531",
"q. c #F0C630",
"w. c #FFD434",
"e. c #FCD13B",
"r. c #CBA741",
"t. c #CAA842",
"y. c #D6B44B",
"u. c #D8B74A",
"i. c #D1B35B",
"p. c #E3BF46",
"a. c #E4BF46",
"s. c #E4BF4F",
"d. c #E4C047",
"f. c #E3C04F",
"g. c #E4C14F",
"h. c #E5C14F",
"j. c #E7C34E",
"k. c #E6C24E",
"l. c #E9C348",
"z. c #E9C346",
"x. c #4B4781",
"c. c #4A4681",
"v. c #4A4683",
"b. c #4B4781",
"n. c #4D4980",
"m. c #4D4981",
"M. c #5B5581",
"N. c #5D5781",
"B. c #5E5781",
"V. c #5C5782",
"C. c #5D5881",
"Z. c #5D5882",
"A. c #5E5881",
"S. c #6C6481",
/* pixels */
"            G G v.v.v.v.v.v.v.v.v.v.v.v.v.v.v.v.v.v.v.v.v.v.v.v.v.v.v.v.v.v.v.v.v.v.v.v.v.v.v.v.v.v.v.v.v.v.v.v.G G             ",
"            G K Y T T T T T T T T T T T T T T T T T T T T T T T T T T T T T T T T T T T T T T T T T T T T T T R G F             ",
"        G G v.Y ,.q.0.0.0.0.0.0.0.0.0.0.0.0.0.0.0.0.0.0.7.0.0.0.0.0.0.0.0.0.0.0.7.0.0.0.0.0.0.0.0.0.0.0.0.0.8.y.M.v.G F         ",
"        n.K Y c y.k.k.l.w.w.w.e.k.k.k.k.k.k.k.k.k.k.k.k.k.k.k.k.k.k.k.k.k.k.k.k.k.k.k.k.k.k.k.l.w.w.w.e.k.k.k.i.Q R G G         ",
"    G G v.Y >.u.S.N.N.! 0.w.w.k.S.N.N.Z.Z.Z.Z.Z.Z.Z.Z.Z.Z.Z.Z.Z.Z.Z.Z.Z.Z.Z.Z.Z.Z.Z.Z.Z.N.N.N.! 0.w.w.k.S.N.N.~ 3.y.M.v.G G     ",
"    G K Y c y.i.U Z F Y 0.w.w.f.N.D B B B B B B B B B B B B B B B B B B B B B B B B B B B Z F Y 0.w.w.f.N.D N l y.i.Q R K F     ",
"G G v.Y >.y.S.U ` [ K T 0.w.w.s.N.B ` ) ) ) / / / / / / / / / / / / / / / / / / / / ) ) ) [ K T 0.w.w.s.N.B ` { W ~ 4.y.M.v.G G ",
"n.K Y c u.i.U s / _ H Y 0.w.w.f.N.B ) ( ( / _ _ _ _ _ _ _ _ _ _ _ _ _ _ _ _ _ _ _ ` / ( ( _ H Y 0.w.w.f.N.B / ` p h y.i.Q R G n.",
"v.Y ,.y.S.U ` / ( _ K T 0.w.w.f.Z.B ) ( ( _ J K K K K K K K K K K K K K K K K K K g ) ( ( _ K T 0.w.w.f.Z.B ) ( / { W ~ 4.y.N.F ",
"v.T q.k.N.B ) ( ( _ K T 0.w.w.f.Z.B ) ( ( _ K K Y T T T T T T T T T T T T T T R n.B ) ( ( _ K T 0.w.w.f.Z.B ) ( ( _ K Y q.k.Z.F ",
"v.T 0.k.Z.B ) ( ( _ K T 0.w.w.f.Z.B ) ( ( _ K Y ,.0.0.0.0.0.0.0.0.0.0.0.0.0.0.y.M.B ) ( ( _ K T 0.w.w.f.Z.B ) ( ( _ K T 0.k.N.F ",
"v.T 6.d.N.B ) / / _ K T 7.9.9.p.N.B ) / / _ K T 7.w.k.k.k.k.k.k.k.k.k.k.k.z.9.d.Z.B ) / / _ K T 7.9.9.p.N.B ) / / _ K T 7.a.P F ",
"v.k *.2.P N 8 6 6 0 D k =.5.5.2.P N 8 6 6 0 D k *.3.^ N.N.N.N.N.N.N.N.Z.N.v -.2.P N 8 6 6 0 D k =.5.5.2.P N 8 6 6 0 D k *.2.P G ",
"v.k *.<.P N 7 5 5 9 D k *.5.5.<.P N 7 5 5 9 D k *.<.P D N N N N N N N C F k *.<.P N 7 5 5 9 D k *.5.5.<.P N 7 5 5 9 D k *.<.P G ",
"v.k -.1.P N 8 5 6 9 D k *.5.5.1.P N 8 5 6 9 D k -.1.P N 7 8 8 8 8 8 8 q D k -.1.P N 8 5 6 9 D k *.5.5.1.P N 8 5 6 9 D k -.1.P G ",
"v.I :.r.P C q 9 9 w D Y :.<.1.r.P C q 9 9 w D I :.t.P C q 9 9 9 9 9 9 w D I :.r.P C q 9 9 w D Y :.<.1.r.P C q 9 9 w D I :.t.P G ",
"G K P P n.G K K H K n.K P P P P m.G K K H K n.K P P n.G K H K K K K H K n.K P P n.G K K H K n.K P P P P n.G K K H K n.K P P n.G ",
"G F n t t t t t t t t t t t t t t t t t t t t t t t t t t t t t t t t t t t t t t t t t t t t t t t t t t t t t t t t t t n F G ",
"G n $ o o o o o o o o o o o o o o o o o o o o o o o o o o o o o o o o o o o o o o o o o o o o o o o o o o o o o o o o o o = S n.",
"G t o . . . . . . . . . . . . . . . . . . . . . . . . . . . . . . . . . . . . . . . . . . . . . . . . . . . . . . . . . . # S n.",
"G t X . . . . . . . . . . . . . . . . . . . . . . . . . . . . . . . . . . . . . . . . . . . . . . . . . . . . . . . . . . # S G ",
"G b & O . . . . . . . . . . . . . . . . . . . . . . . . . . . . . . . . . . . . . . . . . . . . . . . . . . . . . . . . O * S G ",
"x.j } ] + . . . . . . . . . . . . . . . . . . . . . . . . . . . . . . . . . . . . . . . . . . . . . . . . . . . . . . O ' ..L x.",
"v.j @. .% @ . . . . . . . . . . . . . . . . . . . . . . . . . . . . . . . . . . . . . . . . . . . . . . . . . . . . @ & O.;.P G ",
"v.j @.;.J e o . . . . . . . . . . . . . . . . . . . . . . . . . . . . . . . . . . . . . . . . . . . . . . . . . . # r a @.;.P G ",
"v.j @.;.P t o . . . . . . . . . . . . . . . . . . . . . . . . . . . . . . . . . . . . . . . . . . . . . . . . . . # S j @.;.P F ",
"v.j @.;.P t o . . . . . . . . . . . . . . . . . . . . . . . . . . . . . . . . . . . . . . . . . . . . . . . . . . # y j @.;.P F ",
"v.j @.;.P n $ # # # # # # # # # # # # # # # # # # # # # # # # # # # # # # # # # # # # # # # # # # # # # # # # # # = S j @.;.P F ",
"v.j @.;.P F S y y y y y y y y y y y y y y y y y y y y y y y y y y y y y y y y y y y y y y y y y y y y y y y y y y S v.j @.;.P F ",
"v.j @.#.k j j j j j j j j j j j j j j j j j j j j j j j j j j j j j j j j j j j j j j j j j j j j j j j j j j j j j j x @.;.P F ",
"v.j +.$.@.@.@.@.@.@.@.@.+.+.+.+.@.@.@.@.@.@.@.@.+.+.@.@.@.@.@.@.@.@.@.@.@.@.+.+.@.@.@.@.@.@.@.@.+.+.+.+.@.@.@.@.@.@.@.@.%.;.P F ",
"v.j +.&.;.;.;.;.;.;.;.#.$.%.%.&.;.;.;.;.;.;.;.#.$.&.;.;.;.;.;.;.;.;.;.;.;.#.$.&.;.;.;.;.;.;.;.#.$.%.%.&.;.;.;.;.;.;.;.#.$.;.P F ",
"v.j @.;.E P P P P P P k +.%.%.;.E P P P P P P k @.;.E P P P P P P P P P P k @.;.E P P P P P P k @.%.%.;.E P P P P P P k @.;.P F ",
"v.j @.;.P D C M M C F j +.%.%.;.P D C M M C F j @.;.P D M M M M M M M C F j @.;.P D C M M C F j +.%.%.;.P D C M M C F j @.;.P F ",
"v.j @.;.P C < , , 2 D j +.%.%.;.P C < , , 2 D j @.;.P M 1 , , , , , , 3 D j @.;.P C < , , 2 D j +.%.%.;.P C < , , 2 D j @.;.P F ",
"v.j @.;.P M , - - : D j +.%.%.;.P M , - - : D j @.;.P C 3 ; > - - - ; 4 D j @.;.P M , - - : D j +.%.%.;.P M , - - : D j @.;.P F ",
"v.j @.;.P M , > > : D j +.%.%.;.P M , > > : D j @.;.P F D i , > > : m D v.j @.;.P M , > - : D j +.%.%.;.P M , > - : D j @.;.P F ",
"v.j @.;.P M , > > : D j +.%.%.;.P M , > > : D j @.#.k A G C 2 : : 4 D H I d @.;.P M , > - : D j +.%.%.;.P M , > > : D j @.;.P F ",
"v.j @.;.P M , > > : D j +.%.%.;.P M , > > : D j @.$.@.X.L F D D D D v.j | @.%.;.P M , > > : D j +.%.%.;.P M , > > : D j @.;.P F ",
"v.j @.;.P M , > > : D j +.%.%.;.P M , > > : D A X.#.$.#.k j j j j j j f @.&.;.o.L M , > > : D j +.%.%.;.P M , > > : D j @.;.P F ",
"v.j @.;.P M , > > : D j +.%.%.;.P M , - > : D G L k @.%.@.+.+.+.+.+.+.@.%.#.E L n.M , > > : D j +.%.%.;.P M , > > : D j @.;.P F ",
"v.j @.;.P M , > > : D j +.%.%.;.P M , > > ; i C F A X.;.;.#.$.%.%.&.;.;.;.o.L D M u , > > : D j +.%.%.;.P M , > > : D j @.;.P F ",
"v.j @.;.P M , > > : D j +.%.%.;.P M , - - > , 2 D n.L P P k @.%.%.;.E P P L m.C 1 , > - > : D j +.%.%.;.P M , > > : D j @.;.P F ",
"v.j @.;.P M , > > : D j +.%.%.;.P M , > > - > ; i M M m F A X.;.;.o.L D M M M u , > - > > : D j +.%.%.;.P M , > > : D j @.;.P F ",
"v.j @.;.P M , > > : D j +.%.%.;.P M , > > > > > , , , 3 D G P P P L n.C 1 , , , > > > > > : D j +.%.%.;.P M , > > : D j @.;.P F ",
"v.j @.;.P M , > > : D j +.%.%.;.P C 2 ; > > > > > > > ; i M M M M M M u , > > > > > > - : 4 D j +.%.%.;.P M , > > : D j @.;.P F ",
"v.j @.;.P M , > > : D j @.%.%.;.P F D i , > > > > > > > , , , , , , , , > > > > > > > ; m D v.j +.%.%.;.P M , > > : D j @.;.P F ",
"v.j @.;.P M , > > : D I X.#.$.#.h A G V 3 : : : : : : : : : : : : : : : : : : : : : : 4 D H j f @.&.#.o.P M , > > : D j @.;.P F ",
"v.j @.;.P M , - > : D G L k @.%.@.X.L F D D D D D D D D D D D D D D D D D D D D D D D D v.I | @.%.#.E L n.M , > > : D j @.;.P F ",
"v.j @.;.P M , > > ; i C F A X.#.$.#.k j j j j j j j j j j j j j j j j j j j j j j j j j j d @.&.#.o.L D C u , > > : D j @.;.P F ",
"v.j @.;.P M , - - > , 2 D n.L z @.%.@.@.@.@.@.@.@.@.@.@.@.@.@.@.@.@.@.@.@.@.@.@.@.@.@.@.@.@.%.;.E L m.C 1 , > - > : D j @.;.P F ",
"v.j @.;.P M , > > - > ; i V F A X.;.;.;.;.;.;.;.;.;.;.;.;.;.;.;.;.;.;.;.;.;.;.;.;.;.;.;.;.;.;.o.L D C u , > - > > : D j @.;.P F ",
"v.j @.;.P M , > > > > > , 2 D G P P P P P P P P P P P P P P P P P P P P P P P P P P P P P P P L n.M 1 , > > > > > : D j @.;.P F ",
"v.j @.;.P M , > > > > > > ; i M M M M M M M M M M M M M M M M M M M M M M M M M M M M M M M M M M u , > > > > > > : D j @.;.P F ",
"v.j @.;.P M , > > > > > - > , , , , , , , , , , , , , , , , , , , , , , , , , , , , , , , , , , , , > - > > > > > : D j @.;.P F ",
"v.j @.;.P M , > > > > > > > > > > > > > > > > > > > > > > > > > > > > > > > > > > > > > > > > > > > - > > > > > > : D j @.;.P F ",
"v.j @.;.P M , > > > > > > > > > > > > > > > > > > > > > > > > > > > > > > > > > > > > > > > > > > > > > > > > > > : D j @.;.P F ",
"v.j @.;.P C 2 : : : : : : : : : : : : : : : : : : : : : : : : : : : : : : : : : : : : : : : : : : : : : : : : : : 4 D j @.;.P F ",
"v.j @.;.P F D D D D D D D D D D D D D D D D D D D D D D D D D D D D D D D D D D D D D D D D D D D D D D D D D D D D v.j @.;.P F ",
"v.j @.#.k j j j j j j j j j j j j j j j j j j j j j j j j j j j j j j j j j j j j j j j j j j j j j j j j j j j j j j x @.;.P x.",
"x.j @.%.@.@.@.@.@.@.@.@.@.@.@.@.@.@.@.@.@.@.@.@.@.@.@.@.@.@.@.@.@.@.@.@.@.@.@.@.@.@.@.@.@.@.@.@.@.@.@.@.@.@.@.@.@.@.@.@.%.;.P G ",
"x.A X.;.;.;.;.;.;.;.;.;.;.;.;.;.;.;.;.;.;.;.;.;.;.;.;.;.;.;.;.;.;.;.;.;.;.;.;.;.;.;.;.;.;.;.;.;.;.;.;.;.;.;.;.;.;.;.;.;.;.o.L F ",
"n.G P P P P P P P P P P P P P P P P P P P P P P P P P P P P P P P P P P P P P P P P P P P P P P P P P P P P P P P P P P P L n.G ",
"G G F G F F F F F F F F F F F F F F F F F F F F F F F F F F F F F F F F F F F F F F F F F F F F F F F F F F F F F F F x.G F G F "
};
