/* XPM */
static char *_bfdbe10100948aab64ed312dc5fce5dRjjCAW5TxthatBCP[] = {
/* columns rows colors chars-per-pixel */
"64 64 148 2 ",
"   c None",
".  c #5F3301",
"X  c #5B3615",
"o  c #5A361A",
"O  c #603300",
"+  c #60350A",
"@  c #603713",
"#  c #603813",
"$  c #5B3722",
"%  c #5A3821",
"&  c #56382E",
"*  c #7B4601",
"=  c #7D4902",
"-  c #774709",
";  c #79490A",
":  c #71471B",
">  c #72491D",
",  c #6E4722",
"<  c #694730",
"1  c #574451",
"2  c #52445D",
"3  c #775F44",
"4  c #765844",
"5  c #624C5F",
"6  c #694F5A",
"7  c #64555D",
"8  c #67585C",
"9  c #6B5B5A",
"0  c #6F5D57",
"q  c #705D5A",
"w  c #776043",
"e  c #796659",
"r  c #4E456B",
"t  c #524565",
"y  c #5B4962",
"u  c #51466A",
"i  c #5F5365",
"p  c #4C4577",
"a  c #4C477D",
"s  c #4D487E",
"d  c #504A77",
"f  c #524A79",
"g  c #584C71",
"h  c #57507C",
"j  c #5A537B",
"k  c #614C60",
"l  c #625563",
"z  c #675C64",
"x  c #685B64",
"c  c #6F5A69",
"v  c #745E60",
"b  c #705B68",
"n  c #665D74",
"m  c #635A79",
"M  c #6E6278",
"N  c #796D71",
"B  c #756B7C",
"V  c #975503",
"C  c #9C5701",
"Z  c #955508",
"A  c #995809",
"S  c #8C551D",
"D  c #8B551B",
"F  c #90581F",
"G  c #A05A02",
"H  c #BD6C07",
"J  c #B6690B",
"K  c #B3670D",
"L  c #B36C1D",
"P  c #AA6923",
"I  c #B16C20",
"U  c #C16E03",
"Y  c #C77001",
"T  c #C87100",
"R  c #BE8E0A",
"E  c #B58C26",
"W  c #AD8A3D",
"Q  c #CB9705",
"!  c #CC9803",
"~  c #D29D03",
"^  c #D49F09",
"/  c #C5971B",
"(  c #D6A001",
")  c #D9A200",
"_  c #D4A008",
"`  c #DDAE08",
"'  c #EAB705",
"]  c #EEBB03",
"[  c #F0BD03",
"{  c #E8B91D",
"}  c #C19522",
"|  c #C59924",
" . c #D3AA27",
".. c #DEB327",
"X. c #E3B726",
"o. c #E4B925",
"O. c #E2B729",
"+. c #E3B929",
"@. c #FFC901",
"#. c #FCC70A",
"$. c #EDC32A",
"%. c #EEC327",
"&. c #FFD32A",
"*. c #EEC532",
"=. c #EDC639",
"-. c #FFD434",
";. c #FFD63A",
":. c #CBA741",
">. c #E3BF47",
",. c #E3BF48",
"<. c #E3C04E",
"1. c #E4C254",
"2. c #DDC679",
"3. c #DFC87A",
"4. c #EDD371",
"5. c #EFD67F",
"6. c #FFE477",
"7. c #FFE478",
"8. c #4B4781",
"9. c #4D4981",
"0. c #504A80",
"q. c #5D5782",
"w. c #5D5884",
"e. c #5E5988",
"r. c #645B81",
"t. c #6C678D",
"y. c #70698B",
"u. c #D4BF92",
"i. c #D6C28B",
"p. c #D9C58B",
"a. c #D9C48B",
"s. c #D4C195",
"d. c #E6CE85",
"f. c #ECD380",
"g. c #EDD480",
"h. c #ECD481",
"j. c #EED581",
"k. c #EAD38E",
"l. c #E5CF92",
"z. c #E5D092",
"x. c #E6D092",
"c. c #E7D193",
"v. c #E7D293",
"b. c #E6D094",
"n. c #E9D292",
"m. c #FFE688",
"M. c #FFE789",
"N. c #FDE38A",
/* pixels */
"            s s a a a a a a a a a a a a a a a a a a a a a a a a a a a a a a a a a a a a a a a a a a a a a a a a s s             ",
"            s f n n n n n n n n n n n n n n n n n n n n n n n n n n n n n n n n n n n n n n n n n n n n n n n m f a             ",
"        s s 8.n 2.j.j.j.f.f.f.f.j.j.j.j.j.j.j.j.j.j.j.j.j.j.j.j.j.j.j.j.j.j.j.j.j.j.j.j.j.j.j.j.f.f.f.f.j.j.5.i.w.a s a         ",
"        9.f n N a.c.c.k.N.M.M.N.n.c.c.c.c.c.c.c.c.c.c.c.c.c.c.c.c.c.c.c.c.c.c.c.c.c.c.c.c.c.c.k.N.M.M.N.n.c.n.s.B m 0.s         ",
"    s s 8.n 2.p.t.e.e.B j.M.M.c.y.e.e.e.e.e.e.e.e.e.e.e.e.e.e.e.e.e.e.e.e.e.e.e.e.e.e.e.e.e.e.B j.M.M.c.y.e.e.B 3.i.w.a s s     ",
"    s f n N p.u.b y a n f.M.M.l.e.p k 5 5 5 5 5 5 5 5 5 5 5 5 5 5 5 5 5 5 5 5 5 5 5 5 5 5 y a n f.M.M.l.e.p y v a.s.B m f a     ",
"s s 8.n 2.p.t.c J P f n f.M.M.l.e.k K H H H H H H H H H H H H H H H H H H H H H H H H H H P f n f.M.M.l.e.k J P r.B 3.i.w.a s s ",
"9.f n N p.u.b 4 U L f n j.M.M.l.e.5 H T T T T T T T T T T T T T T T T T T T T T T T T T T I f n j.M.M.l.e.5 H L 6 v i.s.B m s 9.",
"8.n 2.p.t.b J U T I f n j.M.M.c.e.5 H T T T T T T T T T T T T T T T T T T T T T T T T T T I f n j.M.M.c.e.5 H Y H P m B 2.i.e.a ",
"a n j.c.e.5 H T T I f n j.M.M.c.e.5 H T T T T T T T T T T T T T T T T T T T T T T T T T T I f n j.M.M.c.e.5 H T T L f n j.c.e.a ",
"a n j.c.e.5 H T T I f n j.M.M.c.e.5 H T T T T T T T T T T T T T T T T T T T T T T T T T T I f n j.M.M.c.e.5 H T T I f n j.b.e.a ",
"a n 4.d.e.k J U U P f n 4.7.6.d.e.k J U U U U U U U U U U U U U U U U U U U U U U U U U U P f n 4.7.6.d.e.k J U U P f n 4.d.e.a ",
"8.x =.1.q.y A G G F f z =.;.;.1.q.y A G G G G G G G G G G G G G G G G G G G G G G G G G G F f z =.;.;.1.q.y A G G F f z =.1.q.a ",
"8.x *.<.q.y Z C C S f z *.-.-.<.q.y Z C C C C C C C C C C C C C C C C C C C C C C C C C C S f z *.-.-.<.q.y Z C C S f z *.<.q.a ",
"8.x *.<.q.y Z C C S f z *.-.-.<.q.y Z C C C C C C C C C C C C C C C C C C C C C C C C C C S f z *.-.-.<.q.y Z C C S f z *.<.q.a ",
"8.x *.<.q.y Z C C S f z *.-.-.<.q.y Z C C C C C C C C C C C C C C C C C C C C C C C C C C S f z *.-.-.<.q.y Z C C S f z *.<.q.a ",
"8.x *.<.q.y Z C C S f z *.-.-.<.q.y Z C C C C C C C C C C C C C C C C C C C C C C C C C C S f z *.-.-.<.q.y Z C C S f z *.<.q.a ",
"8.x *.<.q.y Z C C S f z *.-.-.<.q.y Z C C C C C C C C C C C C C C C C C C C C C C C C C C S f z *.-.-.<.q.y Z C C S f z *.<.q.a ",
"8.x *.<.q.y Z C C S f z *.-.-.<.q.y Z C C C C C C C C C C C C C C C C C C C C C C C C C C S f z *.-.-.<.q.y Z C C S f z *.<.q.a ",
"8.x *.<.q.y Z C C S f x *.-.-.<.q.y Z C C A S S S S S S S S S S S S S S S S S S S D V V C S f x *.-.-.<.q.y Z C C S f x *.<.q.s ",
"8.z *.<.q.y Z C C S f x =.-.-.<.q.y Z C C S g f f f f f f f f f f f f f f f f f f 5 Z C C S f x =.-.-.<.q.y Z C C S f z *.<.q.s ",
"8.z %.,.q.y Z V V S f z $.&.&.>.q.y Z V V S f d 8 9 9 9 9 9 9 9 9 9 9 9 9 9 9 l 9.y Z V V S f z $.&.&.>.q.y Z V V S f z $.<.q.a ",
"a 9 ] +.j t ; = = > p 9 ] @.@.O.j t ; = = > p 8 ` ] ] ] ] ] ] ] ] ] ] ] ] ] ]  .j t ; = = > p 9 ] @.@.O.j t ; = = > p 9 ] +.j a ",
"a 9 ] X.j t - * * : p 9 ] @.@.X.j t - * * : p 9 ] #.o.X.X.X.X.X.X.X.X.X.X.{ @.X.j t - * * : p 9 ] @.@.X.j t - * * : p 9 ] X.j a ",
"8.9 ] X.j t - * * : p 9 ] @.@.X.j t - * * : p 9 ] o.M j j j j j j j j j j e [ X.j t - * * : p 9 ] @.@.X.j t - * * : p 9 ] X.j a ",
"8.9 ] X.j t - * * : p 9 ] @.@.X.j t - * * : p 9 ] X.j p t t t t t t t u a 9 ] X.j t - * * : p 9 ] @.@.X.j t - * * : p 9 ] X.j a ",
"8.9 ] o.j t - * * : p 9 ] @.@.o.j t - * * : p 9 ] X.j t @ + + + + + + % p 9 ] o.j t - * * : p 9 ] @.@.o.j t - * * : p 9 ] X.j a ",
"8.9 ' ..j u , : : < p l  .X.o.:.j u , : : < p 9 ' ..j r % o o o o o o & p 9 ' O.j u , : : < p l  .X.o.:.j u , : : < p 9 ' ..j a ",
"8.7 ~ | j a p p p p 8.s j j j j 9.a p p p p 8.7 ~ | j a p p p p p p p p 8.7 ! | j a p p p p 8.s j j j j 9.a p p p p 8.7 ~ | j a ",
"8.7 ! / q 7 7 7 7 7 7 7 7 7 7 7 7 7 7 7 7 7 7 w ! / 0 7 7 7 7 7 7 7 7 7 7 3 ! / 0 7 7 7 7 7 7 7 7 7 7 7 7 7 7 7 7 7 7 w ! } j a ",
"8.7 Q ( ! ! ! ! ! ! ! ! Q Q Q Q ! ! ! ! ! ! ! ! ( ( ! ! ! ! ! ! ! ! ! ! ! ! ( ~ ! ! ! ! ! ! ! ! Q Q Q Q ! ! ! ! ! ! ! ! ) } j a ",
"8.7 Q _ } } } } } } } / ( ) ) _ } } } } } } } / ( ^ } } } } } } } } } } } / ~ ^ } } } } } } } / ( ) ) _ } } } } } } } / ( } j a ",
"8.7 ! } n j j j j j j 0 ! ) ) } n j j j j j j 0 ! } n j j j j j j j j j j 0 ! } n j j j j j j 0 ! ) ) } n j j j j j j 0 ! } j a ",
"8.7 ! } j p u t t u a 7 Q ) ) } j p u t t u a 7 ! } j p t t t t t t t u a 7 ! } j p u t t u a 7 Q ) ) } j p u t t u a 7 ! } j a ",
"8.7 ! } j u @ + + $ p 7 Q ) ) } j u @ + + $ p 7 ! } j t @ + + + + + + % p 7 ! } j u @ + + $ p 7 Q ) ) } j u @ + + $ p 7 ! } j a ",
"8.7 ! } j t + . . o p 7 Q ) ) } j t + . . o p 7 ! } j u % X O . . . X & p 7 ! } j t + . . o p 7 Q ) ) } j t + . . o p 7 ! } j a ",
"8.7 ! } j t + O O o p 7 Q ) ) } j t + O O o p 7 ! } j a p 2 + O O o r p 8.7 ! } j t + O O o p 7 Q ) ) } j t + O O o p 7 ! } j a ",
"8.7 ! } j t + O O o p 7 Q ) ) } j t + O O o p 7 ! / 0 i s u $ o o & p d l 3 ! } j t + O O o p 7 Q ) ) } j t + O O o p 7 ! } j a ",
"8.7 ! } j t + O O o p 7 Q ) ) } j t + O O o p 7 ! ( ! E h a p p p p 8.7 R ! ) } j t + O O o p 7 Q ) ) } j t + O O o p 7 ! } j a ",
"8.7 ! } j t + O O o p 7 Q ) ) } j t + O O o p i E / ( / 0 7 7 7 7 7 7 3 ! _ } W h t + O O o p 7 Q ) ) } j t + O O o p 7 ! } j a ",
"8.7 ! } j t + O O o p 7 Q ) ) } j t + . O o p s h 0 ! ) ! Q Q Q Q Q Q ! ) / n h 9.t + O O o p 7 Q ) ) } j t + O O o p 7 ! } j a ",
"8.7 ! } j t + O O o p 7 Q ) ) } j t + O O X 2 u a i E } } / ( ) ) _ } } } W h p t 1 + O O o p 7 Q ) ) } j t + O O o p 7 ! } j a ",
"8.7 ! } j t + O O o p 7 Q ) ) } j t + . . O + $ p 9.h j j 0 ! ) ) } n j j h 9.u @ + O . O o p 7 Q ) ) } j t + O O o p 7 ! } j a ",
"8.7 ! } j t + O O o p 7 Q ) ) } j t + O O . O X 2 t t r a i E } } W h p t t t 1 + O . O O o p 7 Q ) ) } j t + O O o p 7 ! } j a ",
"8.7 ! } j t + O O o p 7 Q ) ) } j t + O O O O O + + + % p s j j j h 9.u @ + + + O O O O O o p 7 Q ) ) } j t + O O o p 7 ! } j a ",
"8.7 ! } j t + O O o p 7 Q ) ) } j u $ X O O O O O O O X 2 t t t t t t 1 + O O O O O O . o & p 7 Q ) ) } j t + O O o p 7 ! } j a ",
"8.7 ! } j t + O O o p 7 ! ) ) } j a p 2 + O O O O O O O + + + + + + + + O O O O O O O X r p 8.7 Q ) ) } j t + O O o p 7 ! } j a ",
"8.7 ! } j t + O O o p l E / ( / 0 i s u % o o o o o o o o o o o o o o o o o o o o o o & p d 7 3 ! _ / W j t + O O o p 7 ! } j a ",
"8.7 ! } j t + . O o p s h 0 ! ) ! E h a p p p p p p p p p p p p p p p p p p p p p p p p 8.l R ! ) / n h 9.t + O O o p 7 ! } j a ",
"8.7 ! } j t + O O X 2 u a i E / ( / 0 7 7 7 7 7 7 7 7 7 7 7 7 7 7 7 7 7 7 7 7 7 7 7 7 7 7 3 ! _ / W h p u 1 + O O o p 7 ! } j a ",
"8.7 ! } j t + . . O + $ p 9.h q ! ) ! ! ! ! ! ! ! ! ! ! ! ! ! ! ! ! ! ! ! ! ! ! ! ! ! ! ! ! ) } n h 9.u @ + O . O o p 7 ! } j a ",
"8.7 ! } j t + O O . O X 2 u a i E } } } } } } } } } } } } } } } } } } } } } } } } } } } } } } W h p u 1 + O . O O o p 7 ! } j a ",
"8.7 ! } j t + O O O O O + $ p s j j j j j j j j j j j j j j j j j j j j j j j j j j j j j j j h 9.t @ + O O O O O o p 7 ! } j a ",
"8.7 ! } j t + O O O O O O X 2 t t t t t t t t t t t t t t t t t t t t t t t t t t t t t t t t t t 1 + O O O O O O o p 7 ! } j a ",
"8.7 ! } j t + O O O O O . O + + + + + + + + + + + + + + + + + + + + + + + + + + + + + + + + + + + + O . O O O O O o p 7 ! } j a ",
"8.7 ! } j t + O O O O O O O O O O O O O O O O O O O O O O O O O O O O O O O O O O O O O O O O O O O . O O O O O O o p 7 ! } j a ",
"8.7 ! } j t + O O O O O O O O O O O O O O O O O O O O O O O O O O O O O O O O O O O O O O O O O O O O O O O O O O o p 7 ! } j a ",
"8.7 ! } j u $ o o o o o o o o o o o o o o o o o o o o o o o o o o o o o o o o o o o o o o o o o o o o o o o o o o & p 7 ! } j a ",
"8.7 ! } j a p p p p p p p p p p p p p p p p p p p p p p p p p p p p p p p p p p p p p p p p p p p p p p p p p p p p 8.7 ! } j a ",
"8.7 ! / 0 7 7 7 7 7 7 7 7 7 7 7 7 7 7 7 7 7 7 7 7 7 7 7 7 7 7 7 7 7 7 7 7 7 7 7 7 7 7 7 7 7 7 7 7 7 7 7 7 7 7 7 7 7 7 w ! } j 8.",
"8.7 ! ) ! ! ! ! ! ! ! ! ! ! ! ! ! ! ! ! ! ! ! ! ! ! ! ! ! ! ! ! ! ! ! ! ! ! ! ! ! ! ! ! ! ! ! ! ! ! ! ! ! ! ! ! ! ! ! ! ) } j a ",
"8.i E } } } } } } } } } } } } } } } } } } } } } } } } } } } } } } } } } } } } } } } } } } } } } } } } } } } } } } } } } } W h a ",
"9.s j j j j j j j j j j j j j j j j j j j j j j j j j j j j j j j j j j j j j j j j j j j j j j j j j j j j j j j j j j j h 9.s ",
"s s a a a a a a a a a a a a a a a a a a a a a a a a a a a a a a a a a a a a a a a a a a a a a a a a a a a a a a a a a 8.a a s a "
};
