/* XPM */
static char *_20721599b0447e38f612ff8d0e51304x4XE1OVQGtzh5paF[] = {
/* columns rows colors chars-per-pixel */
"192 96 38 1 ",
"  c None",
". c #03E304",
"X c #04E104",
"o c #04E204",
"O c #03E404",
"+ c #03EA03",
"@ c #02EC03",
"# c #02ED03",
"$ c #02EE02",
"% c #02EF02",
"& c #02EE03",
"* c #02F002",
"= c #02F103",
"- c #01F202",
"; c #01F302",
": c #02F202",
"> c #01F701",
", c #01F402",
"< c #01F502",
"1 c #01F602",
"2 c #01F702",
"3 c #01F801",
"4 c #01F901",
"5 c #00FA01",
"6 c #01FA01",
"7 c #00FB01",
"8 c #01FB01",
"9 c #01F802",
"0 c #01F902",
"q c #01FA02",
"w c #00FB02",
"e c #00FC01",
"r c #01FC01",
"t c #00FD01",
"y c #00FE00",
"u c green",
"i c #00FE01",
"p c #00FF01",
/* pixels */
"                                                                                                                                                                                                ",
"                                                                                                                                                                                                ",
"                                                                                                                                                                                                ",
"                                                                                                                                                                                                ",
"                                                                                                                                                                                                ",
"                                                                                                                                                                                                ",
"                                                                                                                                                                                                ",
"                                                                                                                                                                                                ",
"                                                                                                                                                                                                ",
"                                                                                                                                                                                                ",
"                                                                                                                                                                                                ",
"                                                                                                                                                                                                ",
"                                                                                                                                                                                                ",
"                                                                                                                                                                                                ",
"                                                                                                                                                                                                ",
"                                                                                                                                                                                                ",
"                                                                                                                                                                                                ",
"                                                                                                                                                                                                ",
"                                                                                                                                                                                                ",
"                                                                                                                                                                                                ",
"                                                                                                                                                                                                ",
"                                                                                                                                                                                                ",
"                                                                                                                                                                                                ",
"                                                                                                                                                                                                ",
"                                                                                                                                                                                                ",
"                                                                                                                                                                                                ",
"                                                                                                                                                                                                ",
"                                                                                                                                                                                                ",
"                                                                                                                                                                                                ",
"                                                                                                                                                                                                ",
"                                                                                                                                                                                                ",
"                                                                                                                                                                                                ",
"                                                                                                                                                                                                ",
"                                                                                                                                                                                                ",
"                                                                                                                                                                                                ",
"                                                                                                                                                                                                ",
"                                                                                                                                                                                                ",
"                                                                                                                                                                                                ",
"                                                                                                                                                                                                ",
"                                                                                                                                                                                                ",
"                                                                                                                                                                                                ",
"                                                                                                                                                                                                ",
"                                                                                                                                                                                                ",
"                                                                                                                                                                                                ",
"           eee                                                          e                  ee                   e         e                                      eee                            ",
"          e  e7                                                         ee                 eee                  ee                                               eee                            ",
"         7    7                                                        eee                  ee                  ee                                               eee                            ",
"       ee7         eeee7e   eeeeeee    eeeeeee   ee  eee   eeeeee    eeeeeee  ee    ee      ee      eeeee     eeeeee     eee     7eeeee   eeeeeee     eeeee      eee                            ",
"       eee        e7   +ee  ee    ee  ee    ee   eee            ee      ee    ee    ee      ee          ee      ee        ee    ee-   <e  ee    ee   ee          ee                             ",
"       eee        e7    ee  ee    ee  ee    ee   ee         eeeeee      ee    ee    ee      ee      eeeeee      ee        ee    ee    <ee ee     ee  e77eee      ee                             ",
"        ee        ee    ee  ee    ee  7e   %ee   ee        7%%%-ee      ee    ee    ee      ee     e-%%%ee      ee        ee    ee    <ee ee     ee       e7                                    ",
"         ee   e   e7    ee  ee    ee   eeeeeee   ee       e7    ee      ee    ee    ee      ee    ee    ee      ee        ee     e-   <e  ee     ee        e                                    ",
"          eeeee    e777ee   ee    ee        ee   ee        e7ee7ee      e      eeeeeee   eeeeeee   ee7eeee      ee      eeeeee   7e777e   ee     ee  eeeeee      ee                             ",
"                                       eeeeee                                                                                                                                                   ",
"                                                                                                                                                                                                ",
"                                                                                                                                                                                                ",
"                                                                                                                                                                                                ",
"                                                                                                                                                                                                ",
"                                                                                                                                                                                                ",
"                                                                                                                                                                                                ",
"                                                                                                                                                                                                ",
"                                                                                                                                                                                                ",
"                                                                                                                                                                                                ",
"                                                                                                                                                                                                ",
"                                                                                                                                                                                                ",
"                                                                                                                                                                                                ",
"                                                                                                                                                                                                ",
"         ee   ee                                ee                                                                                           eee                  ee                     ee     ",
"         ee   ee                                ee                                                                                            ee                  ee                     ee     ",
"         ee   ee                                ee                                                                                            ee                  eee                   eee     ",
"         ee   e    e777<e   ee    ee            eee  7e        e7    ee   ee   e<777e              ee eee    7777<e   777ee<7%  ee777<77      ee     e7777e7     eeeee   7777777   <e7777ee     ",
"          7eee7   e7    ee  ee    ee            ee    ee        ee   ee   ee  e7    ee            ee        ee    7e  7  e7 7e- ee    <e      ee    ee-   7ee     ee    ee<    ee  e<    ee     ",
"           ee     ee    ee  ee    ee            ee    ee   eeeeeee   ee   ee  ee7777ee            ee        ee    7e  7  e7 ee< ee    <e      ee    ee7777eee     ee    eee7777ee ee<    ee     ",
"           ee     e7    ee  ee    ee            ee    ee  e7    ee    ee ee   ee                  ee        ee    7e  7  e7 ee< ee777777      ee    eee           ee    eee       ee<    ee     ",
"           ee     e7.O <e   ee   eee            ee    ee  77    ee     eee     e                   e<        e- O 7e  7  e7 ee< eee          7ee     e7           ee     ee        e<XOX%ee     ",
"            e      eeeee     eeeeee             e     ee   eeeeeee      e       eeeee               eeeeee    eeeee      7-  7  ee          eeeeee    eeeee        e      eeeee     eeeeee      ",
"                                                                                                                                ee                                                              ",
"                                                                                                                                                                                                ",
"            e     e                                                                        ee                                                                                                   ",
"           ee     ee                                                                      eeee                                                                                                  ",
"           eee    ee                                                                      eeee                                                                                                  ",
"         eeeeee   eeeeeee    e7e7e7              e7777ee   eeeeee   eeeeeee    e7e7ee     eee                                                                                                   ",
"           ee     ee    ee  e<    ee            e7    ee        e7  7 ee  ee  e7    ee    eee                                                                                                   ",
"           ee     ee    ee  e7<<<7ee            e7    ee   eeeeeee  e ee  ee  ee<<<<ee    ee                                                                                                    ",
"           ee     ee    ee  ee                   e   <ee  77    ee  e ee  ee  ee                                                                                                                ",
"           ee     ee    ee  ee                    eeeeee  e7    ee  e ee  ee  ee                                                                                                                ",
"           ee     e     ee   eeeee                    ee   e7777ee    ee  ee   eeeeee      e                                                                                                    ",
"                                                 eeeeee                                                                                                                                         ",
"                                                                                                                                                                                                ",
"                                                                                                                                                                                                ",
"                                                                                                                                                                                                ",
"                                                                                                                                                                                                ",
"                                                                                                                                                                                                ",
"                                                                                                                                                                                                ",
"                                                                                                                                                                                                ",
"                                                                                                                                                                                                "
};
