/* XPM */
static char *result[] = {
/* columns rows colors chars-per-pixel */
"128 64 122 2 ",
"   c #FCFEF3",
".  c #FDFDF7",
"X  c #FDFEF6",
"o  c #FCFFF7",
"O  c #FDFFF7",
"+  c #FEFEF7",
"@  c #FBF9FB",
"#  c #FBFDF9",
"$  c #FBFEF8",
"%  c #FBFDFA",
"&  c #FBFDFB",
"*  c #FBFEFB",
"=  c #FCFDF9",
"-  c #FDFDF9",
";  c #FCFEF8",
":  c #FDFEF8",
">  c #FDFFF8",
",  c #FCFEF9",
"<  c #FDFEF9",
"1  c #FCFFF9",
"2  c #FDFFF9",
"3  c #FEFEF8",
"4  c #FEFFF8",
"5  c #FEFEF9",
"6  c #FFFFF9",
"7  c #FCFDFA",
"8  c #FDFDFA",
"9  c #FCFDFB",
"0  c #FDFDFB",
"q  c #FCFEFA",
"w  c #FDFEFA",
"e  c #FCFFFA",
"r  c #FDFFFA",
"t  c #FCFEFB",
"y  c #FDFEFB",
"u  c #FCFFFB",
"i  c #FDFFFB",
"p  c #FEFEFA",
"a  c #FFFEFA",
"s  c #FEFFFA",
"d  c #FFFFFA",
"f  c #FEFEFB",
"g  c #FFFEFB",
"h  c #FEFFFB",
"j  c #FFFFFB",
"k  c #F8F8FD",
"l  c #F9F9FD",
"z  c #FAF9FD",
"x  c #F9FAFD",
"c  c #FAFAFD",
"v  c #FBF9FF",
"b  c #FBFAFE",
"n  c #FBFBFE",
"m  c #FBFAFF",
"M  c #FBFBFF",
"N  c #FCFAFE",
"B  c #FDFBFE",
"V  c #FCFAFF",
"C  c #FCFBFF",
"Z  c #FDFBFF",
"A  c #FEFBFF",
"S  c #FBFDFC",
"D  c #FBFDFD",
"F  c #FBFEFC",
"G  c #FBFEFD",
"H  c #FBFCFE",
"J  c #FBFDFE",
"K  c #FAFCFF",
"L  c #FBFCFF",
"P  c #FBFDFF",
"I  c #FBFEFF",
"U  c #FCFDFC",
"Y  c #FDFDFC",
"T  c #FCFCFD",
"R  c #FDFCFD",
"E  c #FCFDFD",
"W  c #FDFDFD",
"Q  c #FEFDFC",
"!  c #FEFDFD",
"~  c #FCFEFC",
"^  c #FDFEFC",
"/  c #FCFFFC",
"(  c #FDFFFC",
")  c #FCFEFD",
"_  c #FDFEFD",
"`  c #FDFFFD",
"'  c #FEFEFC",
"]  c #FFFEFC",
"[  c #FEFFFC",
"{  c #FFFFFC",
"}  c #FEFEFD",
"|  c #FFFEFD",
" . c #FEFFFD",
".. c #FFFFFD",
"X. c #FCFCFE",
"o. c #FDFCFE",
"O. c #FCFDFE",
"+. c #FDFDFE",
"@. c #FCFCFF",
"#. c #FDFCFF",
"$. c #FCFDFF",
"%. c #FDFDFF",
"&. c #FEFCFE",
"*. c #FEFDFE",
"=. c #FEFCFF",
"-. c #FEFDFF",
";. c #FCFEFE",
":. c #FDFEFE",
">. c #FCFFFE",
",. c #FDFFFE",
"<. c #FCFEFF",
"1. c #FDFEFF",
"2. c #FDFFFF",
"3. c #FEFEFE",
"4. c #FFFEFE",
"5. c #FEFFFE",
"6. c #FFFFFE",
"7. c #FEFEFF",
"8. c #FFFEFF",
"9. c #FEFFFF",
"0. c white",
"q. c None",
/* pixels */
"q.q.q.q.q.q.q.q.q.q.q.q.q.q.q.q.q.q.q.q.q.q.q.q.q.q.q.q.q.q.q.q.q.q.q.q.q.q.q.q.q.q.q.q.q.q.q.q.q.q.q.q.q.q.q.q.q.q.q.q.q.q.q.q.q.q.q.q.q.q.q.q.q.q.q.q.q.q.q.q.q.q.q.q.q.q.q.q.q.q.q.q.q.q.q.q.q.q.q.q.q.q.q.q.q.q.q.q.q.q.q.q.q.q.q.q.q.q.q.q.q.q.q.q.q.q.q.q.",
"q.q.q.q.q.q.q.q.q.q.q.q.q.q.q.q.q.q.q.q.q.q.q.q.q.q.q.q.q.q.q.q.q.q.q.q.q.q.q.q.q.q.q.q.q.q.q.q.q.q.q.q.q.q.q.q.q.q.q.q.q.q.q.q.q.q.q.q.q.q.q.q.q.q.q.q.q.q.q.q.q.q.q.q.q.q.q.q.q.q.q.q.q.q.q.q.q.q.q.q.q.q.q.q.q.q.q.q.q.q.q.q.q.q.q.q.q.q.q.q.q.q.q.q.q.q.q.q.",
"q.q.q.q.q.q.q.q.q.q.q.q.q.q.q.q.q.q.q.q.q.q.q.q.q.q.q.q.q.q.q.q.q.q.q.q.q.q.q.q.q.q.q.q.q.q.q.q.q.q.q.q.q.q.q.q.q.q.q.q.q.q.q.q.q.q.q.q.q.q.q.q.q.q.q.q.q.q.q.q.q.q.q.q.q.q.q.q.q.q.q.q.q.q.q.q.q.q.q.q.q.q.q.q.q.q.q.q.q.q.q.q.q.q.q.q.q.q.q.q.q.q.q.q.q.q.q.q.",
"q.q.q.q.q.q.q.q.q.q.q.q.q.q.q.q.q.q.q.q.q.q.q.q.q.q.q.q.q.q.q.q.q.q.q.q.q.q.q.q.q.q.q.q.q.q.q.q.q.q.q.q.q.q.q.q.q.q.q.q.q.q.q.q.q.q.q.q.q.q.q.q.q.q.q.q.q.q.q.q.q.q.q.q.q.q.q.q.q.q.q.q.q.q.q.q.q.q.q.q.q.q.q.q.q.q.q.q.q.q.q.q.q.q.q.q.q.q.q.q.q.q.q.q.q.q.q.q.",
"q.q.q.q.q.q.q.q.q.q.q.q.q.q.q.q.q.q.q.q.q.q.q.q.q.q.q.q.q.q.q.q.q.q.q.q.q.q.q.q.q.q.q.q.q.q.q.q.q.q.q.q.q.q.q.q.q.q.q.q.q.q.q.q.q.q.q.q.q.q.q.q.q.q.q.q.q.q.q.q.q.q.q.q.q.q.q.q.q.q.q.q.q.q.q.q.q.q.q.q.q.q.q.q.q.q.q.q.q.q.q.q.q.q.q.q.q.q.q.q.q.q.q.q.q.q.q.q.",
"q.q.q.q.q.q.q.q.q.q.q.q.q.q.q.q.q.q.q.q.q.q.q.q.q.q.q.q.q.q.q.q.q.q.q.q.q.q.q.q.q.q.q.q.q.q.q.q.q.q.q.q.q.q.q.q.q.q.q.q.q.q.q.q.q.q.q.q.q.q.q.q.q.q.q.q.q.q.q.q.q.q.q.q.q.q.q.q.q.q.q.q.q.q.q.q.q.q.q.q.q.q.q.q.q.q.q.q.q.q.q.q.q.q.q.q.q.q.q.q.q.q.q.q.q.q.q.q.",
"q.q.q.q.q.q.q.q.q.q.q.q.q.q.q.q.q.q.q.q.q.q.q.q.q.q.q.q.q.q.q.q.q.q.q.q.q.q.q.q.q.q.q.q.q.q.q.q.q.q.q.q.q.q.q.q.q.q.q.q.q.q.q.q.q.q.q.q.q.q.q.q.q.q.q.q.q.q.q.q.q.q.q.q.q.q.q.q.q.q.q.q.q.q.q.q.q.q.q.q.q.q.q.q.q.q.q.q.q.q.q.q.q.q.q.q.q.q.q.q.q.q.q.q.q.q.q.q.",
"q.q.q.q.q.q.q.q.q.q.q.q.q.q.q.q.q.q.q.q.q.q.q.q.q.q.q.q.q.q.q.q.q.q.q.q.q.q.q.q.q.q.q.q.q.q.q.q.q.q.q.q.q.q.q.q.q.q.q.q.q.q.q.q.q.q.q.q.q.q.q.q.q.q.q.q.q.q.q.q.q.q.q.q.q.q.q.q.q.q.q.q.q.q.q.q.q.q.q.q.q.q.q.q.q.q.q.q.q.q.q.q.q.q.q.q.q.q.q.q.q.q.q.q.q.q.q.q.",
"q.q.q.q.q.q.q.q.q.q.q.q.q.q.q.q.q.q.q.q.q.q.q.q.q.q.q.q.q.q.q.q.q.q.q.q.q.q.q.q.q.q.q.q.q.q.q.q.q.q.q.q.q.q.q.q.q.q.q.q.q.q.q.q.q.q.q.q.q.q.q.q.q.q.q.q.q.q.q.q.q.q.q.q.q.q.q.q.q.q.q.q.q.q.q.q.q.q.q.q.q.q.q.q.q.q.q.q.q.q.q.q.q.q.q.q.q.q.q.q.q.q.q.q.q.q.q.q.",
"q.q.q.q.q.q.q.q.q.q.q.q.q.q.q.q.q.q.q.q.q.q.q.q.q.q.q.q.q.q.q.q.q.q.q.q.q.q.q.q.q.q.q.q.q.q.q.q.q.q.q.q.q.q.q.q.q.q.q.q.q.q.q.q.q.q.q.q.q.q.q.q.q.q.q.q.q.q.q.q.q.q.q.q.q.q.q.q.q.q.q.q.q.q.q.q.q.q.q.q.q.q.q.q.q.q.q.q.q.q.q.q.q.q.q.q.q.q.q.q.q.q.q.q.q.q.q.q.",
"q.q.q.q.q.q.q.q.q.q.q.q.q.q.q.q.q.q.q.q.q.q.q.q.q.q.q.q.q.q.q.q.q.q.q.q.q.q.q.q.q.q.q.q.q.q.q.q.q.q.q.q.q.q.q.q.q.q.q.q.q.q.q.q.q.q.q.q.q.q.q.q.q.q.q.q.q.q.q.q.q.q.q.q.q.q.q.q.q.q.q.q.q.q.q.q.q.q.q.q.q.q.q.q.q.q.q.q.q.q.q.q.q.q.q.q.q.q.q.q.q.q.q.q.q.q.q.q.",
"q.q.q.q.q.q.q.q.q.q.q.q.q.q.q.q.q.q.q.q.q.q.q.q.q.q.q.q.q.q.q.q.q.q.q.q.q.q.q.q.q.q.q.q.q.q.q.q.q.q.q.q.q.q.q.q.q.q.q.q.q.q.q.q.q.q.q.q.q.q.q.q.q.q.q.q.q.q.q.q.q.q.q.q.q.q.q.q.q.q.q.q.q.q.q.q.q.q.q.q.q.q.q.q.q.q.q.q.q.q.q.q.q.q.q.q.q.q.q.q.q.q.q.q.q.q.q.q.",
"q.q.q.q.q.q.q.q.q.q.q.q.q.q.q.q.q.q.q.q.q.q.q.q.q.q.q.q.q.q.q.q.q.q.q.q.q.q.q.q.q.q.q.q.q.q.q.q.q.q.q.q.q.q.q.q.q.q.q.q.q.q.q.q.q.q.q.q.q.q.q.q.q.q.q.q.q.q.q.q.q.q.q.q.q.q.q.q.q.q.q.q.q.q.q.q.q.q.q.q.q.q.q.q.q.q.q.q.q.q.q.q.q.q.q.q.q.q.q.q.q.q.q.q.q.q.q.q.",
"q.q.q.q.q.q.q.q.q.q.q.q.q.q.q.q.q.q.q.q.q.q.q.q.q.q.q.q.q.q.q.q.q.q.q.q.q.q.q.q.q.q.q.q.q.q.q.q.q.q.q.q.q.q.q.q.q.q.q.q.q.q.q.q.q.q.q.q.q.q.q.q.q.q.q.q.q.q.q.q.q.q.q.q.q.q.q.q.q.q.q.q.q.q.q.q.q.q.q.q.q.q.q.q.q.q.q.q.q.q.q.q.q.q.q.q.q.q.q.q.q.q.q.q.q.q.q.q.",
"q.q.q.q.q.q.q.q.q.q.q.q.q.q.q.q.q.q.q.q.q.q.q.q.q.q.q.q.q.q.q.q.q.q.q.q.q.q.q.q.q.q.q.q.q.q.q.q.q.q.q.q.q.q.q.q.q.q.q.q.q.q.q.q.q.q.q.q.q.q.q.q.q.q.q.q.q.q.q.q.q.q.q.q.q.q.q.q.q.q.q.q.q.q.q.q.q.q.q.q.q.q.q.q.q.q.q.q.q.q.q.q.q.q.q.q.q.q.q.q.q.q.q.q.q.q.q.q.",
"q.q.q.q.q.q.q.q.q.q.q.q.q.q.q.q.q.q.q.q.q.q.q.q.q.q.q.q.q.q.q.q.q.q.q.q.q.q.q.q.q.q.q.q.q.q.q.q.q.q.q.q.q.q.q.q.q.q.q.q.q.q.q.q.q.q.q.q.q.q.q.q.q.q.q.q.q.q.q.q.q.q.q.q.q.q.q.q.q.q.q.q.q.q.q.q.q.q.q.q.q.q.q.q.q.q.q.q.q.q.q.q.q.q.q.q.q.q.q.q.q.q.q.q.q.q.q.q.",
"q.q.q.q.q.q.q.q.q.q.q.q.q.q.q.q.q.q.q.q.q.q.q.q.q.q.q.q.q.q.q.q.q.q.q.q.q.q.q.q.q.q.q.q.q.q.q.q.q.q.q.q.q.q.q.q.q.q.q.q.q.q.q.q.q.q.q.q.q.q.q.q.q.q.q.q.q.q.q.q.q.q.q.q.q.q.q.q.q.q.q.q.q.q.q.q.q.q.q.q.q.q.q.q.q.q.q.q.q.q.q.q.q.q.q.q.q.q.q.q.q.q.q.q.q.q.q.q.",
"q.q.q.q.q.q.q.q.q.q.q.q.q.q.q.q.q.q.q.q.q.q.q.q.q.q.q.q.q.q.q.q.q.q.q.q.q.q.q.q.q.q.q.q.q.q.q.q.q.q.q.q.q.q.q.q.q.q.q.q.q.q.q.q.q.q.q.q.q.q.q.q.q.q.q.q.q.q.q.q.q.q.q.q.q.q.q.q.q.q.q.q.q.q.q.q.q.q.q.q.q.q.q.q.q.q.q.q.q.q.q.q.q.q.q.q.q.q.q.q.q.q.q.q.q.q.q.q.",
"q.q.q.q.1.:.3.3.3.5.3.3.} ^ i ( %.z q.q.q.q.q.q.q.q.q.q.q.` f p f f f ( u G K q.q.q.q.q.q.q.q.q.q.q.;.O.C q.q.q.q.q.q.q.q.1.1.4.4.+.P q.q.q.q.q.q.q.q.~ ;.@.q.q.q.q.q.q.q.q.q.q.q.X.@.$.q.q.q.q.q.q.q.q.;.) ^ 5 3 p [ } 3.( ^ y ^ :.;.;.#.q.q.q.q.q.q.q.q.q.q.q.",
"q.q.q.q.3.s s [ [ [ ' } } } 3.3.W l q.q.q.q.q.q.q.q.q.q.q.^ } 3.3.3.3.f ; & M q.q.q.q.q.q.q.q.q.q.q.; # H q.q.q.q.q.q.q.q.,.h s 4 7 S q.q.q.q.q.q.q.q., & L q.q.q.q.q.q.q.q.q.q.q.7 U J q.q.q.q.q.q.q.q.1.:.3.} ' ' h } } s ' } 3.3.< , E q.q.q.q.q.q.q.q.q.q.q.",
"q.q.q.q.-.' ' *.*.3.} ' { ..4.4.3.z q.q.q.q.q.q.q.q.q.q.q.2 ' 7.} } 7.*.) O.m q.q.q.q.q.q.q.q.q.q.q., , O.q.q.q.q.q.q.q.q.,.j j 6 w ~ q.q.q.q.q.q.q.q.i :.#.q.q.q.q.q.q.q.q.q.q.q.w ^ ;.q.q.q.q.q.q.q.q.:.4.*.3.} -.f ' y p *.-.-.*.p r :.q.q.q.q.q.q.q.q.q.q.q.",
"q.q.q.q.q.q.q.q.q.q.q.-.7.4.4.8.7.z q.q.q.q.q.q.q.q.q.q.y w o.B q.q.q.q.q.q.q.q.q.q.q.q.q.q.q.q.q.q. . .%.q.q.q.q.q.q.q.q.2.6.6.4. .:.q.q.q.q.q.q.q.q.,.3.*.=.q.q.q.q.q.q.q.q.q.q.^ 3.2.q.q.q.q.q.q.q.q.5.4.=.q.q.q.@ o.+.+.q.q.q.q.}  .7.q.q.q.q.q.q.q.q.q.q.q.",
"W _ $.q.q.q.q.q.q.q.q.$.' d g | 3.z q.q.q.q.q.q.q.G o U 9 p W B q.q.q.q.q.q.q.= < *.q.q.q.q.q.q.q.q.9.8.=.q.q.q.q.q.q.q.q.5.6.8.8.3.3.q.q.q.q.q.q.q.q.2.} : Q p 9 L q.q.q.q.q.q.q._ 7.2.q.q.q.q.q.q.q.q.d ' Z q.q.q.q.<.~ E q.q.q.q.} { 7.q.q.q.q.q.q.q.q.$.:.} ",
"0 . E q.q.q.q.q.q.q.q.J i s } 3.3.z q.q.q.q.q.q.q.E   - *.W +.b q.q.q.q.q.q.q.W f } Z q.q.q.q.q.q.q.9.8.-.q.q.q.q.q.q.q.q...j 6.0.3.3.q.q.q.q.q.q.q.q.2.} + ' Y o.L q.q.q.q.q.q.q._ 7.2.q.q.q.q.q.q.q.q.' *.V q.q.q.q.) $ 9 q.q.q.q.Q h 3.q.q.q.q.q.q.q.q.J i h ",
"{ s +.q.q.q.q.q.q.q.q.M O.+.%.%.#.q.q.q.q.q.q.q.q.) r } 0.3.:.n q.q.q.q.q.q.q.+.3.3.=.q.q.q.q.q.q.q.0.8.%.q.q.q.q.q.q.q.q.4.6.6.6.} } q.q.q.q.q.q.q.q.2.3.| j f *.-.q.q.q.q.q.q.q.+.5.,.q.q.q.q.q.q.q.q.C C v q.q.q.q.3.^ +.q.q.q.q.n o.C q.q.q.q.q.q.q.q.M O.+.",
"..{ -.q.q.q.q.q.q.q.q.q.q.q.q.q.q.q.q.q.q.q.q.q.q.,.5.0.0.0.` X.q.q.q.q.q.q.q.3.0.7.&.q.q.q.q.q.q.q.8.8.%.q.q.q.q.q.q.q.q.8.0.0...} } q.q.q.q.q.q.q.q.2.3.8.{ ..8.} *.#.E q.q.q.q.%. .,.q.q.q.q.q.q.q.q.q.q.q.q.q.q.q.8.8.%.q.q.q.q.q.q.q.q.q.q.q.q.q.q.q.q.q.q.",
"..j -.q.q.q.q.q.q.q.q.q.q.q.q.q.q.q.q.q.q.q.q.q.q.,.5.0.0.0.` X.q.q.q.q.q.q.q.3.0.7.&.q.q.q.q.q.q.q.0.8.%.q.q.q.q.q.q.q.q.8.0.0...} } q.q.q.q.q.q.q.q.,.' 6.4.3.1.^ y W % q.q.q.q.%. .,.q.q.q.q.q.q.q.q.q.q.q.q.q.q.q.8.8.%.q.q.q.q.q.q.q.q.q.q.q.q.q.q.q.q.q.q.",
"..j -.q.q.q.q.q.q.q.q.q.q.q.q.q.q.q.q.q.q.q.q.q.q.,.5.0.0.0.` X.q.q.q.q.q.q.q.3.0.7.&.q.q.q.q.q.q.q.0.8.%.q.q.q.q.q.q.q.q.8.0.0...} } q.q.q.q.q.q.q.q.i 4 6 ' y ^ +.W W W q.q.q.q.%. .,.q.q.q.q.q.q.q.q.q.q.q.q.q.q.q.8.8.%.q.q.q.q.q.q.q.q.q.q.q.q.q.q.q.q.q.q.",
"..j -.q.q.q.q.q.q.q.q.q.q.q.q.q.q.q.q.q.q.q.q.q.q.,.5.0.0.0.` X.q.q.q.q.q.q.q.3.0.7.&.q.q.q.q.q.q.q.0.8.%.q.q.q.q.q.q.q.q.8.0.0...} } q.q.q.q.q.q.q.q.} ! *.q.q.q.q.*.f p q.q.q.q.'  .,.q.q.q.q.q.q.q.q.q.q.q.q.q.q.q.8.8.%.q.q.q.q.q.q.q.q.q.q.q.q.q.q.q.q.q.q.",
"..j -.q.q.q.q.q.q.q.q.q.q.q.q.q.q.q.q.q.q.q.q.q.q.,.5.0.0.0.` X.q.q.q.q.q.q.q.3.0.7.&.q.q.q.q.q.q.q.0.8.%.q.q.q.q.q.q.q.q.8.0.0...} } q.q.q.q.q.q.q.q.] 3.-.q.q.q.q.8 X < 3.7.3.p }  .,.q.q.q.q.q.q.q.q.q.q.q.q.q.q.q.8.8.%.q.q.q.q.q.q.q.q.q.q.q.q.q.q.q.q.q.q.",
"..j -.q.q.q.q.q.q.q.q.q.q.q.q.q.q.q.q.q.q.q.q.q.q.,.5.0.0.0.` X.q.q.q.q.q.q.q.3.0.7.&.q.q.q.q.q.q.q.0.8.%.q.q.q.q.q.q.q.q.8.0.0...} } q.q.q.q.q.q.q.q.6 ' :.q.q.q.q.~ 0 R 3...8.8.7. .,.q.q.q.q.q.q.q.q.q.q.q.q.q.q.q.8.8.%.q.q.q.q.q.q.q.q.q.q.q.q.q.q.q.q.q.q.",
"..{ -.q.q.q.q.q.q.q.q.q.q.q.q.q.q.q.q.q.q.q.q.q.q.` 5.0.0.6.` X.q.q.q.q.q.q.q.3.6.3.&.q.q.q.q.q.q.q.0.4.%.q.q.q.q.q.q.q.q.4.0.0...} } q.q.q.q.q.q.q.q.4 y ) q.q.q.q.@.Z A } 6 { 0.7. .,.q.q.q.q.q.q.q.q.q.q.q.q.q.q.q.8.8.%.q.q.q.q.q.q.q.q.q.q.q.q.q.q.q.q.q.q.",
"6. .1.q.q.q.q.q.q.q.q.q.q.q.q.q.q.q.q.q.q.q.q.q.q.6 j 8...f :.b q.q.q.q.q.q.q.W ' ] &.q.q.q.q.q.q.q.[ h -.q.q.q.q.q.q.q.q.d ..8.6.} } q.q.q.q.q.q.q.q.( _ :.q.q.q.q.q.q.q.5.[ ..0.7. .,.q.q.q.q.q.q.q.q.q.q.q.q.q.q.q.[ { %.q.q.q.q.q.q.q.q.q.q.q.q.q.q.q.q.q.q.",
"{ h 1.q.q.q.q.q.q.q.q.q.q.q.q.q.q.q.q.q.q.q.q.q.q.6 { 8.} Y +.N q.q.q.q.q.q.q.= 5 | =.q.q.q.q.q.q.q.i [ %.q.q.q.q.q.q.q.q.{ 4.4.{ 3.3.q.q.q.q.q.q.q.q.2.3.3.q.q.q.q.q.q.q.2.5...0.7. .,.q.q.q.q.q.q.q.q.q.q.q.q.q.q.q.h ] #.q.q.q.q.q.q.q.q.q.q.q.q.q.q.q.q.q.q.",
"{ d 3.q.q.q.q.q.q.q.q.q.q.q.q.q.q.q.q.q.q.q.q.q.q.j ..8.*.+.*.o.q.q.q.q.q.q.q.Y ' 7.=.q.q.q.q.q.q.q. .4.#.q.q.q.q.q.q.q.q.8.8.| d 3.7.q.q.q.q.q.q.q.q.2.3.3.q.q.q.q.q.q.q.2.5...0.7. .,.q.q.q.q.q.q.q.q.q.q.q.q.q.q.q.h ] -.q.q.q.q.q.q.q.q.q.q.q.q.q.q.q.q.q.q.",
"| j 3.q.q.q.q.q.q.q.q.q.q.q.q.q.q.q.q.q.q.q.q.q.q.j j 6.3.+.+.+.q.q.q.q.q.q.q.p h ,.o.q.q.q.q.q.q.q.6.4.%.q.q.q.q.q.q.q.7.8.8...d h _ q.q.q.q.q.q.q.q.2.3.3.q.q.q.q.q.q.q.2.5...0.7. .,.q.q.q.q.q.q.q.q.q.q.q.q.q.q.q. .{ } q.q.q.q.q.q.q.q.q.q.q.q.q.q.q.q.q.q.",
"} h +.q.q.q.q.q.q.q.q.:.u e ,.1.$.z q.q.q.q.q.q.q.r r ^ f 3.3.4...f f 3.-.+.3.^ ' _ X.q.q.q.q.q.q.q.p 5 +.q.q.q.q.( h s { 3.} } f w ~ q.q.q.q.q.q.q.q.2.3.3.q.q.q.q.q.q.q.2.5...0.7. .,.q.q.q.q.q.q.q.q.q.q.q.q.q.q.q.1.' p ' f > q.q.q.q.q.q.q.q.q.q.q.q.;./ ' ",
"E * O.q.q.q.q.q.q.q.q.^ O 4 6.7.1.z q.q.q.q.q.q.q.G D O.h ..6.6.6.....6.3.w t O.$.O.L q.q.q.q.q.q.q.q = T q.q.q.q.| { j | W w Y o.T J q.q.q.q.q.q.q.q.2.3.3.q.q.q.q.q.q.q.2.5...0.7. .,.q.q.q.q.q.q.q.q.q.q.q.q.q.q.q.1.o.' ..{ s q.q.q.q.q.q.q.q.q.q.q.q.O.t 2 ",
"@.O.M q.q.q.q.q.q.q.q.! p d ..0.:.c q.q.q.q.q.q.q.$.C @.} ....6.8.0.0.8.} q F L Z C q.q.q.q.q.q.q.q.O.X.C q.q.q.q.8.8.8.8.} 5 Q A Z M q.q.q.q.q.q.q.q.2.3.3.q.q.q.q.q.q.q.2.5...0.7. .,.q.q.q.q.q.q.q.q.q.q.q.q.q.q.q.:.#.*.4.8.8.q.q.q.q.q.q.q.q.q.q.q.q.C o.W ",
"q.q.q.q.+.' ' -.-.-.-.+.3.....{ } z q.q.q.q.q.q.q.q.q.q.q.6...8.5.h { 8.3.) H q.q.q.q.q.q.q.q.q.q.q.q.q.q.q.T 0 8 a | ..4.Q w *.q.q.q.q.q.q.q.q.q.q.q.2.3.3.q.q.q.q.q.q.q.2.5...0.7. .,.q.q.q.q.q.q.q.q.q.q.q.b $.$.% q +.f g ] | q.q.q.q.q.q.q.q.q.q.q.q.q.q.q.",
"q.q.q.q.1.i [ 7.} } W W 3.6...h ) x q.q.q.q.q.q.q.q.q.q.q.2.[  .i s { 6.3.$.C q.q.q.q.q.q.q.q.q.q.q.q.q.q.q.~ q y j { ..6.' ' #.q.q.q.q.q.q.q.q.q.q.q.i 1 :.q.q.q.q.q.q.q.1.,.( ,.( i :.q.q.q.q.q.q.q.q.q.q.q.n ~ ~ ^ y ' f j j { q.q.q.q.q.q.q.q.q.q.q.q.q.q.q.",
"q.q.q.q.:.r r ( ,.,.,.,.,.,.,.>.I k q.q.q.q.q.q.q.q.q.q.q.:./ ( ( ` 1.,._ ;.C q.q.q.q.q.q.q.q.q.q.q.q.q.q.q.;.;.;.:.` ,.1.( ~ Z q.q.q.q.q.q.q.q.q.q.q.E t X.q.q.q.q.q.q.q.q.:.u / ) ) @.q.q.q.q.q.q.q.q.q.q.q.b E ) ,.,.,.,.,.,.,.q.q.q.q.q.q.q.q.q.q.q.q.q.q.q.",
"q.q.q.q.q.q.q.q.q.q.q.q.q.q.q.q.q.q.q.q.q.q.q.q.q.q.q.q.q.q.q.q.q.q.q.q.q.q.q.q.q.q.q.q.q.q.q.q.q.q.q.q.q.q.q.q.q.q.q.q.q.q.q.q.q.q.q.q.q.q.q.q.q.q.q.q.q.q.q.q.q.q.q.q.q.q.q.q.q.q.q.q.q.q.q.q.q.q.q.q.q.q.q.q.q.q.q.q.q.q.q.q.q.q.q.q.q.q.q.q.q.q.q.q.q.q.q.q.",
"q.q.q.q.q.q.q.q.q.q.q.q.q.q.q.q.q.q.q.q.q.q.q.q.q.q.q.q.q.q.q.q.q.q.q.q.q.q.q.q.q.q.q.q.q.q.q.q.q.q.q.q.q.q.q.q.q.q.q.q.q.q.q.q.q.q.q.q.q.q.q.q.q.q.q.q.q.q.q.q.q.q.q.q.q.q.q.q.q.q.q.q.q.q.q.q.q.q.q.q.q.q.q.q.q.q.q.q.q.q.q.q.q.q.q.q.q.q.q.q.q.q.q.q.q.q.q.q.",
"q.q.q.q.q.q.q.q.q.q.q.q.q.q.q.q.q.q.q.q.q.q.q.q.q.q.q.q.q.q.q.q.q.q.q.q.q.q.q.q.q.q.q.q.q.q.q.q.q.q.q.q.q.q.q.q.q.q.q.q.q.q.q.q.q.q.q.q.q.q.q.q.q.q.q.q.q.q.q.q.q.q.q.q.q.q.q.q.q.q.q.q.q.q.q.q.q.q.q.q.q.q.q.q.q.q.q.q.q.q.q.q.q.q.q.q.q.q.q.q.q.q.q.q.q.q.q.q.",
"q.q.q.q.q.q.q.q.q.q.q.q.q.q.q.q.q.q.q.q.q.q.q.q.q.q.q.q.q.q.q.q.q.q.q.q.q.q.q.q.q.q.q.q.q.q.q.q.q.q.q.q.q.q.q.q.q.q.q.q.q.q.q.q.q.q.q.q.q.q.q.q.q.q.q.q.q.q.q.q.q.q.q.q.q.q.q.q.q.q.q.q.q.q.q.q.q.q.q.q.q.q.q.q.q.q.q.q.q.q.q.q.q.q.q.q.q.q.q.q.q.q.q.q.q.q.q.q.",
"q.q.q.q.q.q.q.q.q.q.q.q.q.q.q.q.q.q.q.q.q.q.q.q.q.q.q.q.q.q.q.q.q.q.q.q.q.q.q.q.q.q.q.q.q.q.q.q.q.q.q.q.q.q.q.q.q.q.q.q.q.q.q.q.q.q.q.q.q.q.q.q.q.q.q.q.q.q.q.q.q.q.q.q.q.q.q.q.q.q.q.q.q.q.q.q.q.q.q.q.q.q.q.q.q.q.q.q.q.q.q.q.q.q.q.q.q.q.q.q.q.q.q.q.q.q.q.q.",
"q.q.q.q.q.q.q.q.q.q.q.q.q.q.q.q.q.q.q.q.q.q.q.q.q.q.q.q.q.q.q.q.q.q.q.q.q.q.q.q.q.q.q.q.q.q.q.q.q.q.q.q.q.q.q.q.q.q.q.q.q.q.q.q.q.q.q.q.q.q.q.q.q.q.q.q.q.q.q.q.q.q.q.q.q.q.q.q.q.q.q.q.q.q.q.q.q.q.q.q.q.q.q.q.q.q.q.q.q.q.q.q.q.q.q.q.q.q.q.q.q.q.q.q.q.q.q.q.",
"q.q.q.q.q.q.q.q.q.q.q.q.q.q.q.q.q.q.q.q.q.q.q.q.q.q.q.q.q.q.q.q.q.q.q.q.q.q.q.q.q.q.q.q.q.q.q.q.q.q.q.q.q.q.q.q.q.q.q.q.q.q.q.q.q.q.q.q.q.q.q.q.q.q.q.q.q.q.q.q.q.q.q.q.q.q.q.q.q.q.q.q.q.q.q.q.q.q.q.q.q.q.q.q.q.q.q.q.q.q.q.q.q.q.q.q.q.q.q.q.q.q.q.q.q.q.q.q.",
"q.q.q.q.q.q.q.q.q.q.q.q.q.q.q.q.q.q.q.q.q.q.q.q.q.q.q.q.q.q.q.q.q.q.q.q.q.q.q.q.q.q.q.q.q.q.q.q.q.q.q.q.q.q.q.q.q.q.q.q.q.q.q.q.q.q.q.q.q.q.q.q.q.q.q.q.q.q.q.q.q.q.q.q.q.q.q.q.q.q.q.q.q.q.q.q.q.q.q.q.q.q.q.q.q.q.q.q.q.q.q.q.q.q.q.q.q.q.q.q.q.q.q.q.q.q.q.q.",
"q.q.q.q.q.q.q.q.q.q.q.q.q.q.q.q.q.q.q.q.q.q.q.q.q.q.q.q.q.q.q.q.q.q.q.q.q.q.q.q.q.q.q.q.q.q.q.q.q.q.q.q.q.q.q.q.q.q.q.q.q.q.q.q.q.q.q.q.q.q.q.q.q.q.q.q.q.q.q.q.q.q.q.q.q.q.q.q.q.q.q.q.q.q.q.q.q.q.q.q.q.q.q.q.q.q.q.q.q.q.q.q.q.q.q.q.q.q.q.q.q.q.q.q.q.q.q.q.",
"q.q.q.q.q.q.q.q.q.q.q.q.q.q.q.q.q.q.q.q.q.q.q.q.q.q.q.q.q.q.q.q.q.q.q.q.q.q.q.q.q.q.q.q.q.q.q.q.q.q.q.q.q.q.q.q.q.q.q.q.q.q.q.q.q.q.q.q.q.q.q.q.q.q.q.q.q.q.q.q.q.q.q.q.q.q.q.q.q.q.q.q.q.q.q.q.q.q.q.q.q.q.q.q.q.q.q.q.q.q.q.q.q.q.q.q.q.q.q.q.q.q.q.q.q.q.q.q.",
"q.q.q.q.q.q.q.q.q.q.q.q.q.q.q.q.q.q.q.q.q.q.q.q.q.q.q.q.q.q.q.q.q.q.q.q.q.q.q.q.q.q.q.q.q.q.q.q.q.q.q.q.q.q.q.q.q.q.q.q.q.q.q.q.q.q.q.q.q.q.q.q.q.q.q.q.q.q.q.q.q.q.q.q.q.q.q.q.q.q.q.q.q.q.q.q.q.q.q.q.q.q.q.q.q.q.q.q.q.q.q.q.q.q.q.q.q.q.q.q.q.q.q.q.q.q.q.q.",
"q.q.q.q.q.q.q.q.q.q.q.q.q.q.q.q.q.q.q.q.q.q.q.q.q.q.q.q.q.q.q.q.q.q.q.q.q.q.q.q.q.q.q.q.q.q.q.q.q.q.q.q.q.q.q.q.q.q.q.q.q.q.q.q.q.q.q.q.q.q.q.q.q.q.q.q.q.q.q.q.q.q.q.q.q.q.q.q.q.q.q.q.q.q.q.q.q.q.q.q.q.q.q.q.q.q.q.q.q.q.q.q.q.q.q.q.q.q.q.q.q.q.q.q.q.q.q.q.",
"q.q.q.q.q.q.q.q.q.q.q.q.q.q.q.q.q.q.q.q.q.q.q.q.q.q.q.q.q.q.q.q.q.q.q.q.q.q.q.q.q.q.q.q.q.q.q.q.q.q.q.q.q.q.q.q.q.q.q.q.q.q.q.q.q.q.q.q.q.q.q.q.q.q.q.q.q.q.q.q.q.q.q.q.q.q.q.q.q.q.q.q.q.q.q.q.q.q.q.q.q.q.q.q.q.q.q.q.q.q.q.q.q.q.q.q.q.q.q.q.q.q.q.q.q.q.q.q.",
"q.q.q.q.q.q.q.q.q.q.q.q.q.q.q.q.q.q.q.q.q.q.q.q.q.q.q.q.q.q.q.q.q.q.q.q.q.q.q.q.q.q.q.q.q.q.q.q.q.q.q.q.q.q.q.q.q.q.q.q.q.q.q.q.q.q.q.q.q.q.q.q.q.q.q.q.q.q.q.q.q.q.q.q.q.q.q.q.q.q.q.q.q.q.q.q.q.q.q.q.q.q.q.q.q.q.q.q.q.q.q.q.q.q.q.q.q.q.q.q.q.q.q.q.q.q.q.q.",
"q.q.q.q.q.q.q.q.q.q.q.q.q.q.q.q.q.q.q.q.q.q.q.q.q.q.q.q.q.q.q.q.q.q.q.q.q.q.q.q.q.q.q.q.q.q.q.q.q.q.q.q.q.q.q.q.q.q.q.q.q.q.q.q.q.q.q.q.q.q.q.q.q.q.q.q.q.q.q.q.q.q.q.q.q.q.q.q.q.q.q.q.q.q.q.q.q.q.q.q.q.q.q.q.q.q.q.q.q.q.q.q.q.q.q.q.q.q.q.q.q.q.q.q.q.q.q.q.",
"q.q.q.q.q.q.q.q.q.q.q.q.q.q.q.q.q.q.q.q.q.q.q.q.q.q.q.q.q.q.q.q.q.q.q.q.q.q.q.q.q.q.q.q.q.q.q.q.q.q.q.q.q.q.q.q.q.q.q.q.q.q.q.q.q.q.q.q.q.q.q.q.q.q.q.q.q.q.q.q.q.q.q.q.q.q.q.q.q.q.q.q.q.q.q.q.q.q.q.q.q.q.q.q.q.q.q.q.q.q.q.q.q.q.q.q.q.q.q.q.q.q.q.q.q.q.q.q.",
"q.q.q.q.q.q.q.q.q.q.q.q.q.q.q.q.q.q.q.q.q.q.q.q.q.q.q.q.q.q.q.q.q.q.q.q.q.q.q.q.q.q.q.q.q.q.q.q.q.q.q.q.q.q.q.q.q.q.q.q.q.q.q.q.q.q.q.q.q.q.q.q.q.q.q.q.q.q.q.q.q.q.q.q.q.q.q.q.q.q.q.q.q.q.q.q.q.q.q.q.q.q.q.q.q.q.q.q.q.q.q.q.q.q.q.q.q.q.q.q.q.q.q.q.q.q.q.q.",
"q.q.q.q.q.q.q.q.q.q.q.q.q.q.q.q.q.q.q.q.q.q.q.q.q.q.q.q.q.q.q.q.q.q.q.q.q.q.q.q.q.q.q.q.q.q.q.q.q.q.q.q.q.q.q.q.q.q.q.q.q.q.q.q.q.q.q.q.q.q.q.q.q.q.q.q.q.q.q.q.q.q.q.q.q.q.q.q.q.q.q.q.q.q.q.q.q.q.q.q.q.q.q.q.q.q.q.q.q.q.q.q.q.q.q.q.q.q.q.q.q.q.q.q.q.q.q.q.",
"q.q.q.q.q.q.q.q.q.q.q.q.q.q.q.q.q.q.q.q.q.q.q.q.q.q.q.q.q.q.q.q.q.q.q.q.q.q.q.q.q.q.q.q.q.q.q.q.q.q.q.q.q.q.q.q.q.q.q.q.q.q.q.q.q.q.q.q.q.q.q.q.q.q.q.q.q.q.q.q.q.q.q.q.q.q.q.q.q.q.q.q.q.q.q.q.q.q.q.q.q.q.q.q.q.q.q.q.q.q.q.q.q.q.q.q.q.q.q.q.q.q.q.q.q.q.q.q.",
"q.q.q.q.q.q.q.q.q.q.q.q.q.q.q.q.q.q.q.q.q.q.q.q.q.q.q.q.q.q.q.q.q.q.q.q.q.q.q.q.q.q.q.q.q.q.q.q.q.q.q.q.q.q.q.q.q.q.q.q.q.q.q.q.q.q.q.q.q.q.q.q.q.q.q.q.q.q.q.q.q.q.q.q.q.q.q.q.q.q.q.q.q.q.q.q.q.q.q.q.q.q.q.q.q.q.q.q.q.q.q.q.q.q.q.q.q.q.q.q.q.q.q.q.q.q.q.q.",
"q.q.q.q.q.q.q.q.q.q.q.q.q.q.q.q.q.q.q.q.q.q.q.q.q.q.q.q.q.q.q.q.q.q.q.q.q.q.q.q.q.q.q.q.q.q.q.q.q.q.q.q.q.q.q.q.q.q.q.q.q.q.q.q.q.q.q.q.q.q.q.q.q.q.q.q.q.q.q.q.q.q.q.q.q.q.q.q.q.q.q.q.q.q.q.q.q.q.q.q.q.q.q.q.q.q.q.q.q.q.q.q.q.q.q.q.q.q.q.q.q.q.q.q.q.q.q.q.",
"q.q.q.q.q.q.q.q.q.q.q.q.q.q.q.q.q.q.q.q.q.q.q.q.q.q.q.q.q.q.q.q.q.q.q.q.q.q.q.q.q.q.q.q.q.q.q.q.q.q.q.q.q.q.q.q.q.q.q.q.q.q.q.q.q.q.q.q.q.q.q.q.q.q.q.q.q.q.q.q.q.q.q.q.q.q.q.q.q.q.q.q.q.q.q.q.q.q.q.q.q.q.q.q.q.q.q.q.q.q.q.q.q.q.q.q.q.q.q.q.q.q.q.q.q.q.q.q."
};
