/* XPM */
static char *eed30fa568f14744ee3b78d6352dc018KZSmpIUfx9S1nSjA[] = {
/* columns rows colors chars-per-pixel */
"64 64 206 2 ",
"   c None",
".  c #75282E",
"X  c #782B29",
"o  c #7C2625",
"O  c #5F3D5E",
"+  c #603C5E",
"@  c #6A3950",
"#  c #7C3859",
"$  c #713955",
"%  c #5C3E63",
"&  c #513E6E",
"*  c #6F3D65",
"=  c #663F6B",
"-  c #693F69",
";  c #794D57",
":  c #6A525D",
">  c #78595C",
",  c #6E4F59",
"<  c #7C655B",
"1  c #7D6B59",
"2  c #7E6A57",
"3  c #5C4166",
"4  c #5A416A",
"5  c #53416D",
"6  c #4F4476",
"7  c #4C4976",
"8  c #4C467D",
"9  c #4D497D",
"0  c #514575",
"q  c #5D4373",
"w  c #534976",
"e  c #53457A",
"r  c #514B7A",
"t  c #5D4D72",
"y  c #5B527C",
"u  c #5C557E",
"i  c #4C517F",
"p  c #65416B",
"a  c #6A416B",
"s  c #724A6A",
"d  c #714867",
"f  c #665363",
"g  c #665A67",
"h  c #63576C",
"j  c #655A6A",
"k  c #685B69",
"l  c #6A5864",
"z  c #615C71",
"x  c #63557B",
"c  c #6A5978",
"v  c #634E75",
"b  c #76686B",
"n  c #756469",
"m  c #6C607A",
"M  c #8F1D09",
"N  c #8F1B07",
"B  c #931A01",
"V  c #9A1B04",
"C  c #921D09",
"Z  c #801F18",
"A  c #A11A09",
"S  c #A21A07",
"D  c #BE1F17",
"F  c #9B270B",
"G  c #852015",
"H  c #82221A",
"J  c #8B2117",
"K  c #953311",
"L  c #A22C07",
"P  c #BB2116",
"I  c #BA211A",
"U  c #A93B14",
"Y  c #802520",
"T  c #8D3125",
"R  c #BB2422",
"E  c #BC262C",
"W  c #B52C2F",
"Q  c #AB2D3A",
"!  c #AA2930",
"~  c #B22934",
"^  c #B72730",
"/  c #B9393C",
"(  c #A82C36",
")  c #CA1F1E",
"_  c #C41F1B",
"`  c #C3211C",
"'  c #CC201F",
"]  c #CA391F",
"[  c #CC1F20",
"{  c #C42326",
"}  c #CC2121",
"|  c #C62F23",
" . c #D12F26",
".. c #D12F28",
"X. c #CA3A21",
"o. c #C83824",
"O. c #D23128",
"+. c #CE4928",
"@. c #D2472A",
"#. c #D44031",
"$. c #CC5321",
"%. c #9C3144",
"&. c #9B2F45",
"*. c #845B44",
"=. c #80634D",
"-. c #DD870A",
";. c #ED9104",
":. c #EE960A",
">. c #FC9A02",
",. c #F49808",
"<. c #E2911B",
"1. c #EB8F06",
"2. c #FEA004",
"3. c #F7A10C",
"4. c #FCA20C",
"5. c #F9A711",
"6. c #F7A613",
"7. c #D18624",
"8. c #DD8E23",
"9. c #D38923",
"0. c #DB952B",
"q. c #C8843A",
"w. c #CF8625",
"e. c #E19526",
"r. c #EBBB3B",
"t. c #E4B43C",
"y. c #F5BF3C",
"u. c #E6A73D",
"i. c #FAC73D",
"p. c #FBC83D",
"a. c #F7C239",
"s. c #EC9E47",
"d. c #F19E49",
"f. c #DDAD42",
"g. c #D7B345",
"h. c #D9B444",
"j. c #CFAF5D",
"k. c #D8AB5A",
"l. c #CFB15C",
"z. c #D1B15C",
"x. c #DEBD5E",
"c. c #DEB554",
"v. c #EEA643",
"b. c #E6AA46",
"n. c #E7AB48",
"m. c #E7A746",
"M. c #E6B645",
"N. c #F3B84B",
"B. c #E2BE5E",
"V. c #E4BF57",
"C. c #E0A95A",
"Z. c #C8AD6F",
"A. c #DEBD60",
"S. c #C8AD70",
"D. c #D4AC68",
"F. c #E1BD60",
"G. c #E7C146",
"H. c #EAC246",
"J. c #E7C048",
"K. c #E8C048",
"L. c #F3C242",
"P. c #F7CB44",
"I. c #F9CE45",
"U. c #F6CD4B",
"Y. c #F9CF49",
"T. c #FBD147",
"R. c #FBD049",
"E. c #E3C05B",
"W. c #F6CD50",
"Q. c #4B4780",
"!. c #4C4B82",
"~. c #474F80",
"^. c #4B5283",
"/. c #5C5681",
"(. c #5C5983",
"). c #585A8A",
"_. c #504C84",
"`. c #615885",
"'. c #576F8F",
"]. c #4E7696",
"[. c #4F7B9A",
"{. c #4E7798",
"}. c #527396",
"|. c #527498",
" X c #507B9A",
".X c #506F94",
"XX c #6E6581",
"oX c #667198",
"OX c #5F87A3",
"+X c #638AA4",
"@X c #6A8CA3",
"#X c #6783A0",
"$X c #AED3D8",
"%X c #B5DCE3",
"&X c #BFF0EC",
"*X c #B5E2E3",
"=X c #D4E1E6",
"-X c #DDE4E6",
";X c #C1F2EF",
":X c #C0F2EF",
">X c #C2F2EE",
",X c #C2F2EE",
"<X c #C1F3F0",
"1X c #E6EFF2",
"2X c #EDF1F2",
"3X c #E7F0F3",
/* pixels */
"                            8 Q.Q.Q.Q.Q.Q.Q.Q.Q.!.9                                                                             ",
"                            - = p p p p 3 3 3 3 3 3                                                                             ",
"                    8 8 Q.= E { { { { R C M M M M Y 6 !.8 9                                                                     ",
"                    k k k ; { ' } } } ` S V B B B G O 3 3 3                                                                     ",
"                Q.k h.H.H.m...) [ [ } } ` P V B B B M M M Y 0 9                             >X>X>X>X                            ",
"                8 h l.F.A.k.+.] X.X.} } } ` A V V V B B B G O 3                             >X>X>X>X                            ",
"        9 9 9 9 8 9 u /./.n t.y.L.v. .) } } ` _ ` P V B B B M o 0 9                         >X>X>X>X                            ",
"        9 9 9 9 ^.^.^.~.~.z z.B.x.k.+.X.} } } } } ` A V B B B G + 3                         >X>X>X>X                            ",
"        9 9 9 ~.].{.{.{.{.}.(././.n t.v...[ } } } } ) I V B B B M Y 0 9                                     >X>X>X>X            ",
"        9 9 ^.^.{. X X X X|.^.~.~.z z.C.+.X.} } } } } ` A V B B B G O 3                                     >X>X>X>X            ",
"    9 9 8 ~.].{.[. X X X X[.{.{.{.}.(.n t.v...[ } } } } ` P V B B B M Y 0 9                             >X>X<X>X>X>X>X>X        ",
"    9 !.~.^.{. X X X X X[. X@X@X X|.^.z l.k.+.X.} } } } } ` A V B B B H 0 9                             >X>X>X>X>X>X>X>X        ",
"    9 ~.].{.[. X X X X[.[.@X-X=X+X[.{.}.(.n M.v.O.' } } } } ) I V B V H 0 9                         >X>X>X>X>X>X>X>X>X>X<X>X    ",
"    9 ^.{. X X X X X X[.[.@X=X=X+X[. X}.~.h l.k./ ~ ~ ^ } } } R H H H . 0 9                         >X>X>X>X>X>X>X>X>X>X&X>X    ",
"9 9 Q.^.{. X X X X X X X[. X+XOX X X[.}.!.9 u /.e e e * { ' ' ~ q 6 6 8 8 Q.9 9                     ,X<X>X>X>X>X>X>X>X>X&X>X    ",
"9 !.~.^.{. X X X X X X X X X[.[.[. X@X#X^.~.8 r k h 9 p Q ~ ~ %.e r k k k h 9 9                     %X%X&X>X>X>X>X>X>X>X>X>X    ",
"9 ~.].{. X X X X X X X X X X X X[.@X-X=XOX.X!.k h.z./.8 e e e e Q.j g.H.H.j./.Q.9 !.8 Q.9 9     !.!.).oX*X<X>X>X>X>X>X>X        ",
"9 ^.{. X X X X X X X X X X X X X[.@X2X3X+X}.!.k H.E.b g k k k k k 1 H.R.T.A./.Q.9 r k h 9 9     a = = c $X%X&X>X>X>X>X>X        ",
"9 ^.{. X X X X X X X X X X X X X[.@X2X1X+X}.!.g H.Y.H.H.J.J.J.J.H.H.Y.T.T.x./.Q.8 j h.z./.Q.Q.a E { { Q `.oX*X>X>X>X            ",
"9 ^.{. X X X X X X X X X X X X X[.@X2X1X+X}.!.h j.x.A.V.i.p.p.P.B.A.x.x.x.S./.r j 2 H.x./.e p # { ' ' ~ 0 ).%X>X>X>X            ",
"9 ^.{. X X X X X X X X X X X X X[.@X2X1X+X}.!.9 /././.< :.2.2.e.m /./.(././.!.g h.H.Y.x.(.= E { } } ) ~ e 9                     ",
"9 ^.{. X X X X X X X X X X X X X[.@X2X1X+X}.!.r j h !.f 7.8.8.q.y 8 3 % % 4 8 k H.U.B.Z./.p o.] } { ~ %.w 7                     ",
"9 ^.{. X X X X X X X X X X X X X[.@X2X3X+X}.!.k h.l.u 9 y y y y !.4 J M M o 6 k H.E.XX/.!.j h.v. .~ q w                         ",
"9 ^.{.[. X X X X X X X X X X X X[.@X=X=XOX}.!.k H.B.s = = = = = 3 @ M V V H 6 z l.S./.r h 1 H.N./ &.e 9                         ",
"9 ^.{. X X X X X X X X X X X X X X X+X+X X}.!.k J.N.o.{ { { { R F C B B B H 0 !././.Q.j h.H.Y.x.x e 8 Q.9 9                     ",
"9 ^.}.|. X X X X X X X X X X X X X X[. X|.'.j < n.d. .' } } ` P V B B N H . 6 9 8 e = ; m.N.Y.x./.9 k h 9 9                     ",
"    !.^.{. X X X X X X X X X X X X X X|.^.j h.n.O. .} } } ` V V B B V H 5 8 8 8 Q.p E { ..+.a.x./.j h.z./.Q.9 9                 ",
"    Q.^.{.[. X X X X X X X X X X X X[.}.!.k H.N.O.) } ' ` P V B B B V H 6 e p - = # { ' [ o.k.Z./.k H.E.b h 9 9                 ",
"    9 ^.{. X X X X X X X X X X X X X X}.!.k J.N.O.} } ` V V B B B B B H 6 p E { { { ' ' ) ~ x /.!.k M.U.H.j./.Q.9 9             ",
"    9 ^.}.|.[. X X X X X X X X X X X|.'.j < n.d...' ` P V B B B B N G . 8 p { } ' { ~ ~ ~ %.e 9 j 1 H.Y.R.E.b h 9 9             ",
"        !.^.{. X X X X X X X X[. X|.^.j h.n.#...} ` V V B B B B B G & 8 8 p { } ' ~ q e e e Q.j g.H.I.Y.Y.U.H.j./.Q.9 9         ",
"        9 i }.|. X X X X[. X|.}.}.'.j < n.d...) ` P V B B B B N H X f z 9 p { } ' ~ e w : : : =.r.p.I.Y.Y.Y.R.E.b h 9 9         ",
"            !.^.{.[.[.[. X|.^.!.!.j h.n.#...} ` V V B B B B B H & f h.l./.= { } ' ~ e f -.;.1.;.>.5.P.Y.Y.Y.Y.U.H.j./.Q.9 9     ",
"            8 ~..X}.}.}.|.'.j g k < n.d...) ` P V B B B B N G X f 1 H.F.(.= { { ~ ( , *.;.>.>.>.>.,.a.p.Y.Y.Y.Y.R.E.b h 9 9     ",
"            9 9 !.!.!.!.~.j h.K.H.n.#...} ` V V B B B B B G & f g.H.Y.x.(.= { ~ q : -.;.>.>.>.>.>.>.>.5.P.R.Y.Y.Y.U.H.j./.Q.9 9 ",
"            9 9 9 r k k k < b.N.N.s.| _ I P V B B N H H H X f 1 H.W.B.Z./.= { ~ e : ;.>.>.>.>.>.>.>.>.,.a.p.Y.Y.Y.Y.R.E.b h 9 9 ",
"                Q.k h.H.H.f.U F L F V V V V B B V H 5 6 6 f g.H.Y.B.XX/.Q.p { ~ e : ;.>.>.>.>.>.>.>.>.>.>.6.P.Y.Y.Y.Y.U.H.z.u 8 ",
"                8 k z.B.x.k.T Z H H H H H H H H H X f k k 2 r.p.p.c./.e p # { ~ e f w.<.>.>.>.>.>.>.>.>.>.3.P.Y.Y.Y.Y.U.B.S./.8 ",
"                    /./././.e 6 6 6 6 6 6 6 6 6 6 f g.J.J.r.4.>.>.0.y p E { } ~ e 9 y > ;.>.>.>.>.>.>.>.>.3.P.Y.Y.Y.T.E.XX/.!.9 ",
"                    8 9 8 r j k k k k k k k k k k 2 r.p.p.y.e.8.8.q.d # { ' ' ^ * = = ; 7.8.8.<.>.>.>.>.>.3.a.p.Y.U.E.Z./.8 9 9 ",
"                        Q.j h.H.H.H.H.J.J.K.K.H.J.r.4.>.2.e.c y y d E { } } } } { { { Q v y y > ;.>.>.>.>.>.>.5.P.B.XX/.9 9     ",
"                        - ; z.A.A.V.i.i.i.i.i.i.p.y.e.8.8.q.d = = # { } } } } } } } ' ~ e Q.Q.f 7.8.8.8.8.8.8.0.c.S./.8 9 7     ",
"                !.!.!.a E Q x (./.n :.2.>.>.>.>.>.e.c y y d E { { { } ' } } } } } } } ~ e Q.Q.9 y y y y y y y y /./.!.9         ",
"                a = p # { ^ * p % , w.8.8.8.8.8.8.q.d = = # { ' } } } } } } } } } } } ^ * = - - = = = = = = = p 8 8 9 7         ",
"            !.a E { { { } } { R C H t y y y y y y d E { { { } } } } } } } } } } } } } } { { { { { { { { { { { Q e 9             ",
"            j ; { } } } ` ` ` I H X % 3 3 3 3 3 3 $ R ` ` ` } } } } } } } } } } } } } } } } } } } } } } } } ' ~ e 9             ",
"    9 !.!.k h.m...[ } ` V V V J 5 % J M M M M M M C V V V A ` } } } } } } } } } } } } } } } } } } } } } } } } ~ e Q.9 r         ",
"    a p j 1 H.N.+.X.` I H H H . 0 3 Y H H G B B B B B B B V P ` } } } } } } } } } ' ` ` ` ` } { ~ ~ ~ ^ } } } W l h 9 9         ",
"!.a E o.M.H.Y.Y.L.u.L H 5 0 0 w     0 6 6 O C B B B B B B B V A ) } } } } } } } } ` V V V S ) ~ q e e * { ' ) X.t.l./.8         ",
"Q.p { X.v.N.B.A.x.k.T . 0 9 9 r     9 9 9 3 H H H H H G B B B V I ` ` ` ` ` } } } ` A C H J ! %.e 9 8 p Q W ] $.L.A./.8         ",
"Q.p { } O./ x /././.0 w                     0 0 0 0 6 + C V B V V V V V V A ` } } } ) ! 4 6 e e         e l M.L.Y.A.(.8         ",
"Q.p R ` ` ! e 8 9 8 8 r                     9 9 9 9 9 3 Y G B B B B B B B V P ` } { ~ %.e 8 9 9         !.k K.R.T.A.(.8         ",
"Q.3 C V V H 6 r                                         0 O C B B B B B B B V A ) ~ q e 9 9             !.k J.R.T.A./.8         ",
"9 3 H H H . 0 r                                         9 3 Y G B B B B B B B V D ! e 9 9 7             !.g r.p.Y.A./.8         ",
"    0 0 0 w                                                 8 + M B V V B V B B V H 6 9                 !.: :.5.P.x./.8         ",
"    9 9 9 r                                                 8 3 o H H H H G B B V H 6 9                 !.: 7.0.c.Z.u 8         ",
"                                                                0 0 0 0 6 + M B B H 0 !.!.!.!.!.            x y u u             ",
"                                                                9 9 9 9 !.3 M B B G O 3 g k k j             r 8 9 7             ",
"                                                                        !.3 M B B B M K f.K.H.z.`.!._.!.                        ",
"                                                                        !.4 o G B B B L r.p.p.M.> : : :                         ",
"                                                                        !.8 e + M V B L ;.2.>.>.;.;.;.9.x r                     ",
"                                                                        9 9 9 3 Y H H T 7.8.8.8.8.8.8.q.y 7                     ",
"                                                                                0 0 6 0 y y y y y y y y                         ",
"                                                                                !.!.!.!.9 8 8 8 Q.Q.Q.9                         "
};
