/* XPM */
static char *f8d81385ab3c48dec64b4fa2cdff6ffdxoKggh3hzw9KsdK8[] = {
/* columns rows colors chars-per-pixel */
"64 64 199 2 ",
"   c None",
".  c #7E2522",
"X  c #76282B",
"o  c #77272B",
"O  c #5E3B5E",
"+  c #693951",
"@  c #613D5D",
"#  c #7A395D",
"$  c #5C3F65",
"%  c #6D3D65",
"&  c #673F6B",
"*  c #673F66",
"=  c #7D5A4B",
"-  c #7B4D58",
";  c #6B525D",
":  c #74515D",
">  c #78575B",
",  c #714A4F",
"<  c #7D6B58",
"1  c #7A605E",
"2  c #5E4066",
"3  c #54416D",
"4  c #59426B",
"5  c #4F4476",
"6  c #4C467C",
"7  c #4D497D",
"8  c #4E4A77",
"9  c #514575",
"0  c #5C4473",
"q  c #53467A",
"w  c #514B7A",
"e  c #584C79",
"r  c #5B527C",
"t  c #5D547D",
"y  c #64416C",
"u  c #724869",
"i  c #63576B",
"p  c #655A69",
"a  c #675967",
"s  c #614973",
"d  c #615C71",
"f  c #695A76",
"g  c #62537C",
"h  c #675B77",
"j  c #73666D",
"k  c #76686A",
"l  c #796160",
"z  c #6C607B",
"x  c #8F1B06",
"c  c #8F1D09",
"v  c #931A01",
"b  c #9B1A04",
"n  c #921E0A",
"m  c #981D0E",
"M  c #811F19",
"N  c #A21907",
"B  c #A31A09",
"V  c #9F2B0B",
"C  c #852015",
"Z  c #8C2114",
"A  c #82221A",
"S  c #8E2019",
"D  c #8C2D1F",
"F  c #992F15",
"G  c #BC2117",
"H  c #BC2119",
"J  c #A02704",
"K  c #812621",
"L  c #802822",
"P  c #8A3722",
"I  c #A82A2F",
"U  c #BD2222",
"Y  c #B5292F",
"T  c #BC262D",
"R  c #AB2C39",
"E  c #AB2A34",
"W  c #B72731",
"Q  c #B32933",
"!  c #B93A3D",
"~  c #C41F1B",
"^  c #CA1F1E",
"/  c #C4211C",
"(  c #CC211E",
")  c #CA381F",
"_  c #C1371D",
"`  c #CC1E20",
"'  c #C42326",
"]  c #CC2121",
"[  c #CF2F28",
"{  c #D12F28",
"}  c #CC3722",
"|  c #CA3B20",
" . c #C63C24",
".. c #A64213",
"X. c #B24036",
"o. c #CE4929",
"O. c #C75127",
"+. c #D14B27",
"@. c #D17F29",
"#. c #9C3145",
"$. c #80624D",
"%. c #E98D08",
"&. c #EE9103",
"*. c #EE970B",
"=. c #FB9A02",
"-. c #F89907",
";. c #E2901C",
":. c #FEA004",
">. c #FDA40C",
",. c #CF8627",
"<. c #D38824",
"1. c #DD8F23",
"2. c #D18624",
"3. c #DF9123",
"4. c #DD9428",
"5. c #C4863D",
"6. c #CA8439",
"7. c #E19322",
"8. c #DDB23E",
"9. c #EAAD3A",
"0. c #E7B43B",
"q. c #F7BF38",
"w. c #FAC73D",
"e. c #FBC83C",
"r. c #F8C036",
"t. c #D7B246",
"y. c #DAB444",
"u. c #CFAF5D",
"i. c #DDAA59",
"p. c #D4AD58",
"a. c #CFB15C",
"s. c #DBB256",
"d. c #D2B15A",
"f. c #DEBE5E",
"g. c #DAB158",
"h. c #DCA846",
"j. c #EEA641",
"k. c #E7A747",
"l. c #E7BF47",
"z. c #E8B445",
"x. c #F2BC46",
"c. c #E4BE57",
"v. c #E1BE5E",
"b. c #E0B555",
"n. c #C8AE6F",
"m. c #CCB06B",
"M. c #CEB167",
"N. c #DFBD60",
"B. c #C8AE70",
"V. c #E0BD60",
"C. c #EAC246",
"Z. c #E7C048",
"A. c #E9C148",
"S. c #E7C047",
"D. c #F3C343",
"F. c #F9CE46",
"G. c #F7CD49",
"H. c #F9CF49",
"J. c #F7CD46",
"K. c #FAD048",
"L. c #FAD047",
"P. c #E4C05A",
"I. c #4B4781",
"U. c #4C4B81",
"Y. c #474F83",
"T. c #504B81",
"R. c #4B5383",
"E. c #4A5885",
"W. c #5C5681",
"Q. c #5B5A83",
"!. c #525484",
"~. c #526E94",
"^. c #4D7696",
"/. c #4F7B99",
"(. c #4F7B9A",
"). c #4E7798",
"_. c #527396",
"`. c #527498",
"'. c #507B9A",
"]. c #507A99",
"[. c #507B9A",
"{. c #6C6281",
"}. c #65859F",
"|. c #5F88A4",
" X c #6389A4",
".X c #698CA4",
"XX c #6586A0",
"oX c #D4E1E7",
"OX c #DDE3E6",
"+X c #C1F2EF",
"@X c #C0F2EF",
"#X c #C2F2ED",
"$X c #C4F1ED",
"%X c #C2F1EE",
"&X c #C0F2F0",
"*X c #E6EFF2",
"=X c #EEF1F1",
"-X c #E7F0F3",
";X c #F0F2F2",
/* pixels */
"                                                                            U.U.I.I.I.I.I.I.I.I.I.6                             ",
"                                                                            2 2 2 2 2 2 & y y y & y                             ",
"                                                                    7 I.I.2 Z c c c c n U ' ' ' ' E q 6 6 6                     ",
"                                                                    2 2 2 + n v v v b B ^ ] ] ] ( Y a p p a                     ",
"                            @X@X@X$X                            U.2 Z c c c v v v b ~ / ] ] ` ` ^ | 0.S.S.d.t 6                 ",
"                            @X@X@X$X                            2 + n v v v b b b B / ] ] ( ) | | O.s.N.v.n.W.6                 ",
"                            @X@X@X$X                        7 2 Z n v v v b ~ ^ ^ / ] ] ` ) 9.x.q.s.{.W.W.W.U.6 7 7 7 8         ",
"                            $X$X$X$X                        2 + c v v v b B ^ ] ] ] ] ] ) O.g.f.f.n.Q.U.U.R.R.U.U.7 7 7         ",
"            @X@X@X$X                                    U.2 Z n v v v b ~ ^ ] ] ] ] ` ) 9.s.{.W.W.Q.^.).).).).~.U.7 7 7         ",
"            @X@X@X$X                                    2 + n v v v b B ( ] ] ] ] ( ) O.g.n.Q.U.U.R.).(.'.'.[._.R.U.7 7         ",
"        @X@X&X@X@X@X@X$X                            7 2 Z n v v v b ~ ^ ] ] ] ] ` ) 9.s.{.Q.^.).).).(.'.'.'.'.(.).~.U.6 7 8     ",
"        @X@X@X@X@X@X@X@X                            U.2 c v v v b B ^ ] ] ] ] ] ) O.s.n.Q.R.).[. X X[.(.'.'.'.'.[._.R.U.7 7     ",
"    @X@X@X@X@X@X@X@X@X@X@X$X                        U.2 n v v b ~ ^ ] ] ] ] ` ) 9.s.{.Q.^.).(. XOXoX X(.'.'.'.'.'.'.).~.U.7     ",
"    @X@X@X@X@X@X@X@X@X@X@X$X                        7 4 . A A S ' ] ] ' Q Q Q X.p.B.W.U.).[.(. XoXoX X(.'.'.'.'.'.'.[.`.U.8     ",
"    @X@X@X@X@X@X@X@X@X@X@X$X                    7 7 I.6 5 5 5 % ' ( ( W 0 q q e t W.U.U.).(.'.[. X X[.'.'.'.'.'.'.'.[._.U.6 7 7 ",
"    $X@X@X@X@X@X@X@X@X@X@X$X                    U.w p p p d U.y R Q Q #.q w p i 7 7 U.E.}. X[.(.(.(.'.'.'.'.'.'.'.'.[._.R.U.U.U.",
"        @X@X@X@X@X@X@X$X            7 7 I.6 7 7 I.p t.S.S.u.W.6 q q q q I.i y.d.W.U.^.XXOXoX X(.'.'.'.'.'.'.'.'.'.'.'.'.).~.U.7 ",
"        @X@X@X@X@X@X$X$X            7 w p i 7 7 I.p S.K.K.P.k p p p p p p < C.V.W.U.)..X=X-X X(.'.'.'.'.'.'.'.'.'.'.'.'.[._.U.7 ",
"            @X@X@X$X            7 7 I.i y.a.t 6 I.p S.L.L.F.S.S.Z.Z.Z.Z.S.S.F.f.W.U.)..X=X*X X(.'.'.'.'.'.'.'.'.'.'.'.'.[._.U.7 ",
"            @X@X@X$X            U.w i < C.P.k i 7 i u.f.N.f.N.c.w.w.e.D.v.N.f.n.W.U.)..X=X*X X(.'.'.'.'.'.'.'.'.'.'.'.'.(._.U.7 ",
"                            7 7 I.p t.S.G.G.S.u.t 7 W.W.W.W.W.1 *.:.:.7.z W.W.W.7 R.)..X=X*X X(.'.'.'.'.'.'.'.'.'.'.'.'.(._.U.7 ",
"                            7 7 I.p S.K.H.H.K.N.W.5 2 $ $ 4 6 a ,.1.1.5.r 8 p i 7 R.)..X=X*X X(.'.'.'.'.'.'.'.'.'.'.'.'.(._.U.7 ",
"                        7 7 I.I.I.p l.K.H.H.K.f.W.2 Z c c . 5 7 r r r r 7 i y.d.W.U.)..X;X-X X(.'.'.'.'.'.'.'.'.'.'.'.'.(._.U.7 ",
"                        U.w p i 7 p l.K.H.H.K.f.W.$ c v v C @ 2 & & & & & > C.v.W.U.). XoXoX|.(.'.'.'.'.'.'.'.'.'.'.'.'.(._.U.7 ",
"                    7 7 I.i y.d.W.p S.K.H.H.K.N.Q.$ n v v v c m U ' ' ' '  .D.f.W.Y.).[. X X[.'.'.'.'.'.'.'.'.'.'.'.'.'.[._.U.7 ",
"                    7 w i < C.V.W.i u.c.w.w.e.z.1 , K C v v v b G / ( ] ` } j.i.j d _.`.(.(.'.'.'.'.'.'.'.'.'.'.'.'.'.'._.~.T.T.",
"                7 7 I.i t.S.F.f.W.U.W.l *.=.-.-.&.2.e O c v v v v N / ] ] ] { o.z.a.W.R.).'.'.'.'.'.'.'.'.'.'.'.'.'.'.`.!.U.    ",
"                U.w i < S.K.L.c.1 a 7 ; &.=.=.=.=.1.r $ n v v v v b G / ] ] ^ | x.f.W.U.).(.'.'.'.'.'.'.'.'.'.'.'.'.(.`.U.7     ",
"            7 U.I.i t.S.J.H.K.w.*.,.r ; &.=.=.=.=.1.r $ c v v v v v v N / ] ` | w.f.W.U.).[.'.'.'.'.'.'.'.'.'.'.'.'.[._.U.8     ",
"            7 w i < S.H.H.H.w.r.=.;.> = <.;.-.=.=.1.r 4 . C v v v v v b G / ` } j.i.j d _._.(.'.'.'.'.'.'.'.'.'.'.'.`.~.w 8     ",
"        7 7 I.i t.S.J.H.H.w.>.=.=.-.&.<.f > &.=.=.1.r 6 5 O c v v v v v v N / ] { o.0.d.Q.R.).[.[.'.'.'.'.'.'.(.[.`.R.7         ",
"        U.w i < S.K.H.H.H.w.=.=.=.=.=.1.r ; &.-.7.5.r 8 p : L C v v v v v b G / ^ } j.i.j d _._._.`.'.(.'.'.'.'._.~.w 8         ",
"    7 U.I.i t.S.G.H.H.H.H.w.=.=.=.=.=.1.r ; &.7.f r I.p y.d.r O c v v v v v v N / ] { o.0.a.Q.U.U.R.).[.(.(.(._.!.7             ",
"    7 w i < S.K.H.H.H.F.w.q.-.=.=.=.=.;.> = <.6.u & & : d.M.j ; K C v v v v v b G / ^ } j.i.j p p d _.`._._._.~.U.8             ",
"7 7 I.i t.S.J.H.H.H.K.w.>.-.=.=.=.=.=.=.&.2.h u T ' ' R g j y.d.r O c v v v v v v N / ] { o.z.S.S.a.W.U.U.U.U.U.U.8             ",
"7 w i < S.K.H.H.H.F.w.r.-.=.=.=.=.=.=.=.=.1.r & ' ] ] W % : d.m.j ; K A A C v v v b G / ~ _ 9.z.z.i.j p a i 7 7 8 8             ",
"I.p y.C.G.H.H.H.H.w.>.-.=.=.=.=.=.=.=.=.=.3.r & ' ] ] ] ' R g j y.d.r 5 5 O c v v v b b b b V V V ..8.S.C.d.W.7                 ",
"7 i a.P.G.H.H.H.H.w.-.=.=.=.=.=.=.=.=.-.3.5.r & ' ] ] ] ( W % : d.M.j p p : K A A A A A A A A A M P p.N.v.m.W.6                 ",
"7 7 W.k S.K.H.H.H.w.-.=.=.=.=.=.=.=.=.7.f r I.y ' ] ] ( ( ] ' R g j y.S.S.d.r 5 5 5 5 5 5 5 5 5 5 9 W.W.W.W.                    ",
"8 7 I.i u.P.G.F.w.r.-.=.=.=.=.-.3.1.1.6.u & y # ' ' Q Q Q W ] Y % - k.x.v.m.j p p p p p p p p p p d 7 6 7 6                     ",
"    7 7 W.k A.e.>.=.=.=.=.=.=.;.f r r u T ' ' ' ( Q 0 q q % ' ] ' ' { ! g j y.S.S.A.A.Z.S.S.S.S.C.d.W.7                         ",
"    8 7 6 i u.b.4.1.1.1.1.1.1.5.r 6 I.& ' ] ] ] ( W % y 7 y R Y / / ^ W % : d.c.w.e.w.w.w.D.v.N.v.m.W.6                         ",
"        7 7 t W.r r r r r r r r U.I.I.y ' ] ] ] ] ] ' R q 7 q * n N / ] ' R g l *.:.=.=.:.7.f W.W.W.                            ",
"        8 7 7 q & & & & & & & & & & y # ' ] ] ] ] ] ( W % y 7 4 . S H / ] W % - 2.1.1.1.1.5.r 6 6 6                             ",
"            7 y T ' ' ' ' ' ' ' ' ' ' ' ] ] ] ] ] ] ] ] ' R q 7 5 @ n N / ] ' R s r r r r r U.7                                 ",
"            7 & ' ] ] ] ] ] ] ] ] ] ] ] ] ] ] ] ] ] ] ] ( W % y 7 4 . S H / ( W % y 6 q & & & y                                 ",
"        T.U.I.& ' ] ] ] ] ] ] ] ] ] ] ] ] ] ] ] ] ] ] ] ] ] ' R q 7 5 @ n N / ] ' R q y T ' ' R e 7                             ",
"        U.w i - ' ] ] ' Q Q Q W ] ] / / / / ] ] ] ] ] ] ( ] ( Y @ 4 7 4 . S H / ( W % # R W ] W % y                             ",
"        I.p t.k.[ ^ ( Q 0 q q % ' / b b v N / ] ] ] ] ] ] ] ] / n . 9 U.5 @ n N / ] ' R 0 % ' ] ' R e w                         ",
"        I.p A.x.+. .Q #.e 8 7 y R I A C b B / ] ] ( / / / / / G v C @ 4 7 4 . S H / ( W % # R Y / I q 7                         ",
"        I.p S.F.D.p.g e         q q 5 % U ^ ] ] ] / b v b b b v v v n . 5 7 5 @ n N / ] ' R 0 * n A 5 7                         ",
"        I.p l.K.K.V.W.7         7 7 I.y R W ] ] / G v v v v v v v x A X 9 7 U.4 . S H / / I q 4 K o 5 8                         ",
"        I.p l.K.K.f.W.7             7 7 q % ' / b v v v v v v v v C 3 9     7 7 5 @ n b b A 5 7 5 9                             ",
"        I.p S.F.w.s.W.w             8 7 I.y U G b v v v v v v x C o 5 8     8 7 U.4 . A A o 5 7 7 8                             ",
"        I.p S.e.>.4.r 7                 I.2 n v v v v v v v v C 3 5             7 7 9 9 9 5                                     ",
"        6 p d.s.4.5.t w                 I.2 c v v x A A A A A X 5 8             8 7 7 7 7 8                                     ",
"            t W.r t             U.U.U.U.U.2 c v v A 3 9 9 9 9 9                                                                 ",
"            8 6 7 w             a p p i 2 + n v v A 9 7 7 8 7 8                                                                 ",
"                        U.T.U.p y.A.Z.h.F c v v v A 9 7                                                                         ",
"                        ; ; ; $.0.e.e.9.V v v x C X 5 7                                                                         ",
"                    U.; %.&.&.&.=.=.:.%.J v v C 3 5 7 7                                                                         ",
"                    6 ; <.1.1.1.1.1.3.,.D A A o 9 7 8 8                                                                         ",
"                        r r r r r r r r 9 9 9 9                                                                                 ",
"                        U.I.I.I.I.I.I.U.U.U.U.7                                                                                 "
};
