/* XPM */
static char *_488502497684deda31b8e098993da710fOhokLUATqDJZOz[] = {
/* columns rows colors chars-per-pixel */
"64 64 198 2 ",
"   c None",
".  c #7F2522",
"X  c #77272A",
"o  c #75292D",
"O  c #5F3C5E",
"+  c #693951",
"@  c #633B59",
"#  c #7D3859",
"$  c #7B3759",
"%  c #5D3F64",
"&  c #543F6B",
"*  c #6C3D64",
"=  c #663F6B",
"-  c #683F6A",
";  c #633E60",
":  c #794A51",
">  c #6A525D",
",  c #67505F",
"<  c #795C5B",
"1  c #785559",
"2  c #77524D",
"3  c #7A605E",
"4  c #7D6B58",
"5  c #5D4066",
"6  c #54416D",
"7  c #5B416A",
"8  c #4F4476",
"9  c #4C467C",
"0  c #4D497D",
"q  c #4E4A77",
"w  c #504575",
"e  c #5C4373",
"r  c #524A76",
"t  c #5B4D73",
"y  c #53467A",
"u  c #514B7A",
"i  c #594F7D",
"p  c #5B527B",
"a  c #5B547F",
"s  c #65406C",
"d  c #6B4E6A",
"f  c #694965",
"g  c #734B6C",
"h  c #645165",
"j  c #665A67",
"k  c #63576C",
"l  c #655A69",
"z  c #695966",
"x  c #625A70",
"c  c #6A5A76",
"v  c #625477",
"b  c #765279",
"n  c #604871",
"m  c #76686A",
"M  c #776365",
"N  c #6C607C",
"B  c #8F1B06",
"V  c #8F1D09",
"C  c #931A01",
"Z  c #9B1A05",
"A  c #911D09",
"S  c #981D0E",
"D  c #A41909",
"F  c #842116",
"G  c #8C2112",
"H  c #82221A",
"J  c #8F201A",
"K  c #983510",
"L  c #BA2116",
"P  c #B5231B",
"I  c #B92218",
"U  c #812621",
"Y  c #953631",
"T  c #AA292D",
"R  c #BD2223",
"E  c #BB262C",
"W  c #B92A2F",
"Q  c #AB2A34",
"!  c #AB2B38",
"~  c #B22934",
"^  c #B72730",
"/  c #AF3439",
"(  c #C41F1B",
")  c #CA1F1E",
"_  c #C3211C",
"`  c #CC211F",
"'  c #CA381F",
"]  c #CC331A",
"[  c #CC1E20",
"{  c #C42326",
"}  c #CC2121",
"|  c #D12C23",
" . c #CA3B20",
".. c #C73A24",
"X. c #B24036",
"o. c #EE7D0F",
"O. c #C75126",
"+. c #C65128",
"@. c #CE4928",
"#. c #D77F2D",
"$. c #9C3145",
"%. c #845B43",
"&. c #81624D",
"*. c #DE8809",
"=. c #EE9104",
"-. c #EE960B",
";. c #FB9A02",
":. c #F69809",
">. c #FA9D08",
",. c #F59504",
"<. c #E2901C",
"1. c #EE8C0C",
"2. c #FDA005",
"3. c #FCA30D",
"4. c #CF8627",
"5. c #D18625",
"6. c #DD8F23",
"7. c #D28824",
"8. c #DE9021",
"9. c #C5863C",
"0. c #C98439",
"q. c #E19424",
"w. c #DBB03D",
"e. c #EAAF39",
"r. c #E9B53A",
"t. c #F7BF37",
"y. c #FAC73D",
"u. c #FAC83D",
"i. c #F9C035",
"p. c #D7B246",
"a. c #D9B345",
"s. c #CFAF5D",
"d. c #D6AE59",
"f. c #CFB15C",
"g. c #DAB156",
"h. c #D1B15C",
"j. c #DEBD5E",
"k. c #DAB158",
"l. c #E6B948",
"z. c #E1BE5E",
"x. c #E4BE57",
"c. c #EFB241",
"v. c #CAAD6D",
"b. c #C7AF6F",
"n. c #DFBD60",
"m. c #C8AE70",
"M. c #E0BD60",
"N. c #EAC246",
"B. c #E7C048",
"V. c #EAC148",
"C. c #F7CD46",
"Z. c #F9CE46",
"A. c #F7CD49",
"S. c #F9CF49",
"D. c #F3C444",
"F. c #FAD049",
"G. c #FAD047",
"H. c #E4C05A",
"J. c #4B4781",
"K. c #4C4B81",
"L. c #474F83",
"P. c #514C82",
"I. c #4B5384",
"U. c #495885",
"Y. c #5C5681",
"T. c #5B5A83",
"R. c #525483",
"E. c #526E94",
"W. c #5F6291",
"Q. c #4D7596",
"!. c #4E7798",
"~. c #4F7B9A",
"^. c #4E7897",
"/. c #527397",
"(. c #527498",
"). c #507B9A",
"_. c #507A99",
"`. c #507B9A",
"'. c #576A8F",
"]. c #6C6281",
"[. c #65859F",
"{. c #638AA3",
"}. c #698CA4",
"|. c #6585A2",
" X c #D8D0DC",
".X c #D8DBE4",
"XX c #D5E1E7",
"oX c #DDE3E6",
"OX c #C1F2EF",
"+X c #C0F2EE",
"@X c #C2F2ED",
"#X c #C4F1ED",
"$X c #C6F0EB",
"%X c #C0F2F0",
"&X c #E6EFF2",
"*X c #E8E9F0",
"=X c #EEF1F2",
"-X c #E7F0F3",
/* pixels */
"            +X+X+X#X                                                        K.K.K.K.K.K.K.K.K.K.K.0                             ",
"            +X+X+X#X                                                        5 5 5 5 5 5 s s s s = s                             ",
"        +X+X%X+X+X+X+X#X                                            0 K.K.5 G V V V V A R { { { { Q y 9 9 9                     ",
"        +X+X+X+X+X+X+X+X                                            5 5 5 + A C C C Z D ) } } } ` W z j j j                     ",
"    +X+X+X+X+X+X+X+X+X+X+X#X                                    K.5 G V V V C C C Z ( _ } } [ [ )  .r.B.B.h.a 9                 ",
"    +X+X+X+X+X+X+X+X+X+X+X#X                                    5 + A C C C Z Z Z D _ } } ` '  . .+.g.n.z.b.Y.0                 ",
"    +X+X+X+X+X+X+X+X+X+X+X#X                                0 5 G A C C C Z ( ) ) _ } } [ ' e.c.t.g.].Y.Y.Y.K.9 0 0 0 q         ",
"    #X+X+X+X+X+X+X+X+X+X+X#X                                5 + V C C C Z D ) } } } } } ' O.k.j.z.b.T.L.L.I.I.L.K.0 0 0         ",
"        +X+X+X+X+X+X+X#X                                K.5 G A C C C Z ( ) } } } } [ ' e.g.].Y.Y.T.Q.!.!.!.!.E.K.0 0 0         ",
"        +X#X+X+X+X+X#X#X                                5 + A C C C Z D ` } } } } ` ' O.k.b.T.L.L.U.!.`.).).`./.I.L.0 0         ",
"            +X+X+X#X        +X+X+X#X                0 5 G A C C C Z ( ) } } } } [ ' e.g.].T.Q.!.!.!.^.).).).).^.!.E.K.9 0 q     ",
"            #X+X#X#X        +X+X+X+X                K.5 V C C C Z D ) } } } } } ' O.g.b.T.I.!.`.{.{.`.^.).).).).`./.I.L.0 0     ",
"                            +X+X+X+X                K.5 A C C Z ( ) } } } } [ ' e.g.].T.Q.!.^.{.oXXX{.^.).).).).).).!.E.K.0     ",
"                            #X+X+X$X                0 7 . H H J { } } { ~ ~ ~ X.k.m.Y.L.!.`.^.{.XXXX{.^.).).).).).).`.(.K.q     ",
"                                                0 0 J.9 8 8 8 * { ` ` ^ e y y y a Y.K.L.!.^.).`.{.{.`.).).).).).).).)./.K.9 0 0 ",
"                                                K.u j j j x K.s ! ~ ~ $.y u j k 0 0 L.U.[.{.`.^.^.^.).).).).).).).).)./.I.L.K.K.",
"                                    0 0 J.9 0 0 J.j p.B.B.s.Y.9 y y y y J.k a.h.Y.L.Q.|.oXXX{.^.).).).).).).).).).).).).^.E.K.0 ",
"                                    0 u j k 0 0 J.j B.F.F.H.m j j j j j j 4 N.M.Y.L.!.}.=X-X{.^.).).).).).).).).).).).).`./.K.0 ",
"                                0 0 J.k a.f.a 9 J.j B.G.G.Z.B.B.B.B.B.B.B.B.Z.j.Y.L.!.}.=X&X{.^.).).).).).).).).).).).).`./.K.0 ",
"                                K.u k 4 N.H.m k 0 k s.j.n.j.n.x.y.u.u.D.z.n.j.b.Y.L.!.}.=X&X{.^././././.^.^.).).).).).).~./.K.0 ",
"                            0 0 J.j p.B.A.A.B.f.a 0 Y.T.Y.Y.Y.3 -.2.2.q.c Y.Y.Y.0 I.!.}.=X&X{./.I.K.K.I.!.`.).).).).).).~./.K.0 ",
"                            0 0 J.j B.F.S.S.F.n.T.8 5 % % 7 9 h 4.6.6.9.i q j k 0 I.!.}.=X&X|.'.s = - n E.(.^.).).).).).~./.K.0 ",
"                        0 0 J.J.J.j l.F.S.F.F.j.Y.5 G V V . 8 0 p p p p 0 k a.h.a L.!.}.=X*XW.s E { { ! u I.!.`.).).).).~./.K.0 ",
"                        K.u j k 0 j l.F.S.F.F.j.Y.% V C C F @ 5 = = = = = 1 N.z.Y.L.!.{..X Xb $ { ` _ Q y I.!.).).).).).~./.K.0 ",
"                    0 0 J.k a.h.Y.j B.F.S.S.F.n.T.% A C C C V S R { { { { ..D.j.Y.L.!.(.W.b W { } _ Z H w I.!.`.).).).).`./.K.0 ",
"                    0 u k 4 N.M.Y.k s.x.y.y.y.l.3 : U F C C C Z L _ ` } [  .c.k.m x /.E.K.= { ` _ L Z H w I.!.`.).).).)./.E.P.0 ",
"                0 0 J.k p.B.Z.j.Y.K.Y.M -.>.>.>.=.5.t O V C C C C D _ } } } | @.l.h.T.K.K.s { _ Z C C H w I.!.`.).).).(.R.K.    ",
"                0 u k 4 B.F.G.x.3 h 0 > =.;.;.;.;.6.p % A C C C C Z L _ ` } ) ..g.b.T.y s # { _ Z B F o 0 I.!.`.).).~./.K.0     ",
"            0 K.J.k p.B.C.S.F.y.-.4.i > =.;.;.;.;.6.p % V C C C C C C D ) } ` ~ v Y.K.s E { } _ Z H & 0 Q.!.).).).).`./.K.0     ",
"            0 u k 4 B.S.S.S.u.i.>.<.< 2 7.<.,.;.;.6.p 7 . F C C C C C S Q ~ ~ $.y y s # { ` _ P F o 0 U.!.`.).).).).(.E.7 5     ",
"        0 0 J.k p.B.C.S.S.y.3.>.;.,.=.7.c < =.;.;.6.p 9 8 O V C C C C F 7 y y y K.s E { } _ Z F 6 0 Q.!.).).).^.`.(.I.7 G H w K.",
"        K.u k 4 B.F.S.S.S.y.>.;.;.;.;.6.p h 4.<.;.6.p q j > U F C B F o 8 y s - s # { ) _ P F o 0 I.!.).).).).)./.E.K.% A H 8 0 ",
"    0 K.J.k p.B.A.S.S.S.S.y.>.;.;.;.;.6.p 9 p < =.8.p j a.h.p @ B F 6 8 K.s E { { { } _ Z F 6 0 Q.^.~.~.~.~.~./.I.K.K.5 A H w K.",
"    0 u k 4 B.F.S.S.S.Z.u.t.>.;.;.;.;.<.< h 0 h 5.9.i j B.M.T.7 . o 8 y s # { ` } ` _ P F o 8 L.E././././././.E.K.y 7 + A H w K.",
"0 0 J.k p.B.C.S.S.S.F.u.3.>.;.;.;.;.;.;.=.4.p 0 p p K.j B.z.T.9 8 8 0 s E { } } } _ Z F 6 8 0 K.K.K.K.K.K.K.K.K.K.7 G V C H w K.",
"0 u k 4 B.F.S.S.S.Z.u.i.>.;.;.;.;.;.;.;.;.6.p y = s 9 k h.v.g = = - s # { ` } ` _ P F X % 5 5 5 % 5 j j j k 0 y 7 + V B F X w 0 ",
"J.j a.N.A.S.S.S.S.y.3.>.;.;.;.;.;.;.;.;.;.6.p = E ! y 0 Y.g E { { { { { } } ` _ Z F 6 % G A A V V K w.B.B.f.Y.7 G A C F 6 w     ",
"0 k f.H.A.S.S.S.S.y.>.,.;.;.;.;.;.;.;.:.8.9.p - { ^ * s = # { ` } } } } ` { ~ Q H o 8 7 . H H H H Y d.n.j.v.d @ H H H X w q     ",
"0 0 Y.m B.F.S.S.S.y.>.;.;.;.;.;.;.;.;.q.c i K.s { } { { { { } ` } } } } ` ~ e y 8 8 9 9 8 8 8 8 8 w Y.Y.T.d G H 6 w w w         ",
"q 0 J.x s.H.A.Z.y.t.>.;.;.;.;.:.8.6.6.0.g = s # { } ` } } } } } } { ~ ~ ~ ! z j j j j j j j j j j k 0 8 7 @ H o 8 K.0 q         ",
"    0 0 Y.m V.u.3.>.;.;.;.;.;.<.c p p g E { { { } } } } } } } } ` ~ e y y z a.B.B.B.B.B.B.B.B.B.B.f.Y.7 G H 6 8 0 q             ",
"    q 0 9 k s.l.>.;.;.:.8.6.6.9.p 9 K.= { } } } } } } } } } } { ~ ! > > > &.r.y.y.y.y.y.y.D.z.n.j.v.d + A H w K.q q             ",
"        0 0 Y.< =.;.;.q.c p p p K.K.K.s { } } } } } } } } } } ~ e > *.=.=.=.>.2.>.>.>.>.2.q.N Y.T.d G V C H w 0                 ",
"        q 0 0 > 7.6.6.9.p y = = - - s # { } } } } } } } } } } ^ * : o.1.6.6.6.6.6.6.6.6.6.9.f % 5 + A B F X w q                 ",
"                p p p p K.s E { { { { { } } } } } } } } } } } } { { | / v p p p p p p p p f G V V A C F 6 w                     ",
"                K.y = = s # { ` } } } } } } } } } } } } } } } } } ` _ T ; 5 5 5 5 5 5 5 5 @ U H H H H X w q                     ",
"            u 0 K.s E { { { } ` } } } } } } } } } } } } } } } } } _ Z Z V V V V V V V V A H 6 w w w w w                         ",
"            0 y s # { ` ` ` } } } } _ _ _ _ } } } } } } } } } } _ L C C C C C C C B F H H X w 0 0 0 0 q                         ",
"    u K.K.K.K.= E { } } } } ` ` } _ Z Z C D _ } } } } } } } } _ Z C C C C C C C C F 6 w w w                                     ",
"    0 u j j j 1 ] ] } } ` { ~ ~ ~ T H F Z D _ } } ` _ _ _ _ _ I Z C C B H H H H H X 8 0 q q                                     ",
"P.K.J.k p.V.B.r.,.o.| ` ) ~ e y y y 8 * R _ } } } _ Z C Z Z Z C C C C F 6 w w w w 8                                             ",
"K.u k 4 B.Z.u.i.q.#./ Q ~ $.r 0 0 K.K.s { } } } _ L C C C C C C C B F X w 0 0 0 0 q                                             ",
"0 j a.N.A.u.3.q.c i y y y t     0 0 K.s { } } _ Z C C C C C C C C F 6 w                                                         ",
"J.j r.u.y.t.q.9.p 9 q 0 0 u     0 y s # { ` _ L C C C C C C C B F X 8 q                                                         ",
"K.> -.>.>.q.c p                 K.s E { } _ Z C C C C C C C C F 6 8                                                             ",
"J.h 5.6.6.9.p 0                 K.s R _ _ L C C C B H H H H H X 8 q                                                             ",
"0 0 p p p v         P.P.K.K.K.K.K.5 A Z Z C C C C H 6 w w w w w                                                                 ",
"q q q q 9 u         0 r > > > > > : H H H H H H H o 8 0 0 q 0 q                                                                 ",
"            P.P.P.K.J., *.=.=.=.=.5.t 8 w w w w w 8 0 q                                                                         ",
"            0 r > > > %.=.:.q.8.8.9.p K.K.0 0 0 0 0 0 q                                                                         ",
"            J.> *.=.=.=.;.8.c p p p 0 0 0 0                                                                                     ",
"            J.h 5.8.6.6.8.9.p 9 q q q 0 q u                                                                                     ",
"            0 0 p p p p p p 0 0                                                                                                 ",
"            0 0 K.J.J.K.9 9 K.u                                                                                                 "
};
