/* XPM */
static char *_4f4937db084441aa6cc91fa4d2f8fd2qNMlxEQZdUzColUZ[] = {
/* columns rows colors chars-per-pixel */
"64 64 198 2 ",
"   c None",
".  c #75282D",
"X  c #782B29",
"o  c #7C2625",
"O  c #5F3D5E",
"+  c #653B57",
"@  c #7C3859",
"#  c #5D3E64",
"$  c #513E6E",
"%  c #6E3E65",
"&  c #663F6A",
"*  c #693F69",
"=  c #653E61",
"-  c #694E59",
";  c #794D57",
":  c #6A525D",
">  c #67515E",
",  c #78565C",
"<  c #7C645C",
"1  c #7C6B5A",
"2  c #7E6A57",
"3  c #5C4065",
"4  c #53416D",
"5  c #5A4169",
"6  c #4E4476",
"7  c #4C477D",
"8  c #4D497D",
"9  c #4E4977",
"0  c #504475",
"q  c #524976",
"w  c #53467A",
"e  c #504B7A",
"r  c #5B4876",
"t  c #5B527C",
"y  c #4B507F",
"u  c #65416B",
"i  c #694667",
"p  c #724B6A",
"a  c #714867",
"s  c #655263",
"d  c #665A67",
"f  c #63576D",
"g  c #655A6A",
"h  c #685B69",
"j  c #685965",
"k  c #614672",
"l  c #615D71",
"z  c #67587A",
"x  c #74666B",
"c  c #76686B",
"v  c #786161",
"b  c #6C607B",
"n  c #8F1B07",
"m  c #8F1D09",
"M  c #931A01",
"N  c #9A1B04",
"B  c #921E0A",
"V  c #9C1C0F",
"C  c #801F18",
"Z  c #A11A09",
"A  c #A11A07",
"S  c #BE1F17",
"D  c #9B270B",
"F  c #842016",
"G  c #82221A",
"H  c #8A2216",
"J  c #8D311A",
"K  c #A32C08",
"L  c #BB2117",
"P  c #BA211A",
"I  c #A93B14",
"U  c #802420",
"Y  c #8D3125",
"T  c #BB2422",
"R  c #BC252C",
"E  c #AC2932",
"W  c #AB2C39",
"Q  c #AE2730",
"!  c #B72731",
"~  c #B22934",
"^  c #B7373B",
"/  c #AE282C",
"(  c #C41F1B",
")  c #CA1F1E",
"_  c #C3211C",
"`  c #CD201F",
"'  c #C73B1D",
"]  c #CC1F20",
"[  c #C42326",
"{  c #CC2121",
"}  c #C62F23",
"|  c #D12E26",
" . c #D12F28",
".. c #CB3721",
"X. c #C83926",
"o. c #D23128",
"O. c #CE4928",
"+. c #D3462B",
"@. c #D44031",
"#. c #D87E2D",
"$. c #9B3146",
"%. c #80644E",
"&. c #DE8709",
"*. c #EC8F05",
"=. c #ED9104",
"-. c #EE960A",
";. c #E9980F",
":. c #FD9C03",
">. c #F19104",
",. c #E79513",
"<. c #F69513",
"1. c #FEA005",
"2. c #FBA20B",
"3. c #F8A611",
"4. c #CF8625",
"5. c #D18624",
"6. c #DD8F22",
"7. c #DB952B",
"8. c #DF9325",
"9. c #C7853A",
"0. c #E19425",
"q. c #E09824",
"w. c #EBBB3C",
"e. c #E3B43E",
"r. c #F4BD3A",
"t. c #E6A73D",
"y. c #FAC73D",
"u. c #FBC83C",
"i. c #F7C238",
"p. c #EC9E47",
"a. c #F19E49",
"s. c #D7B246",
"d. c #DAB444",
"f. c #CFAF5D",
"g. c #D7AA5A",
"h. c #CFB15C",
"j. c #D1B15B",
"k. c #DEBC5D",
"l. c #DEB554",
"z. c #DFAB42",
"x. c #EEA642",
"c. c #E6AA46",
"v. c #E7AB48",
"b. c #E6A747",
"n. c #E7B746",
"m. c #F4B64C",
"M. c #F5BA49",
"N. c #E1BD5D",
"B. c #E4BF57",
"V. c #EBAC4D",
"C. c #C8AC6F",
"Z. c #CEB068",
"A. c #DFBD60",
"S. c #C8AD70",
"D. c #C7AC70",
"F. c #DBA760",
"G. c #E1BD60",
"H. c #E7C146",
"J. c #E9C246",
"K. c #E7C048",
"L. c #E8C048",
"P. c #F4C343",
"I. c #F9CE45",
"U. c #F7CD4A",
"Y. c #F9CF49",
"T. c #F5CB45",
"R. c #FAD147",
"E. c #FAD049",
"W. c #E3C15A",
"Q. c #F6CD50",
"!. c #4B4780",
"~. c #4C4B82",
"^. c #474F80",
"/. c #4B5283",
"(. c #5C5581",
"). c #5D5983",
"_. c #605882",
"`. c #576F8F",
"'. c #4E7696",
"]. c #4F7B99",
"[. c #4F7B9A",
"{. c #4E7798",
"}. c #527396",
"|. c #527498",
" X c #507B9A",
".X c #517C9A",
"XX c #507B9A",
"oX c #506F94",
"OX c #6D6481",
"+X c #5F87A3",
"@X c #638AA4",
"#X c #6A8CA3",
"$X c #6783A0",
"%X c #D4E1E6",
"&X c #DDE4E6",
"*X c #E6EFF2",
"=X c #EDF1F2",
"-X c #E7F0F3",
/* pixels */
"                            7 !.!.!.!.!.!.~.~.~.~.8                                                                             ",
"                            * & u u u u 3 3 3 3 3 3                                                                             ",
"                    7 7 !.& R [ [ [ [ T B m m m m G 6 ~.7 8                                                                     ",
"                    h h h ; [ ` { { { _ A N M M M F O 3 3 3                                                                     ",
"                !.h d.J.J.b. .) ] ] { { _ L N M M M m m m U 0 8                                                                 ",
"                7 f h.G.A.g.O.' ....{ { { _ Z N N N M M M F O 3                                                                 ",
"        8 8 8 8 7 8 t (.(.x e.r.P.x.| ) { { _ ) _ L N M M M m o 0 8                                                             ",
"        8 8 8 8 /././.^.^.l j.N.k.g.O...{ { { { { _ Z N M M M F + 3                                                             ",
"        8 8 8 ^.'.{.{.{.{.}.).(.(.x e.x. .] { { { { ) L N M M M m U 0 8                                                         ",
"        8 8 /./.{..X X.X.X|./.^.^.l j.F.O...{ { { { { _ Z N M M M F O 3                                                         ",
"    8 8 7 ^.'.{.]. X X X X].{.{.{.}.).x e.x. .) { { { { _ L N M M M m U 0 8                                                     ",
"    8 ~.^./.{..X X X X X]..X#X#X.X|./.l h.g.O...{ { { { { _ Z N M M M G 0 8                                                     ",
"    8 ^.'.{.]. X X X X].].#X&X%X@X].{.}.).x n.x.o.` { { { { ) L N M N G 0 8                                                     ",
"    8 /.{..X X X X X X].].#X%X%X@X]..X}.^.f h.F.^ ~ ~ ! { { { T G G G . 0 8                                                     ",
"8 8 !./.{. X X X X X X X]..X@X+X.X X].}.~.8 t (.w w w % [ ` ` ~ 5 6 6 7 7 !.8 8                                                 ",
"8 ~.^./.{. X X X X X X X X X].].]..X#X$X/.^.7 e h f 8 u W ~ ~ $.w e h h h f 8 8                                                 ",
"8 ^.'.{. X X X X X X X X X X X X].#X&X%X+XoX~.h d.j.(.7 w w w w !.g s.J.J.f.(.!.8 ~.7 !.8 8                                     ",
"8 /.{..X X X X X X X X X X X X X].#X=X-X@X}.~.h J.W.c d h h h h h 1 J.E.R.A.(.!.8 e h f 8 8                                     ",
"8 /.{..X X X X X X X X X X X X X].#X=X*X@X}.~.d J.Y.J.J.K.K.K.H.J.J.Y.R.R.k.(.!.7 g d.f.(.!.8 8                                 ",
"8 /.{..X X X X X X X X X X X X X].#X=X*X@X}.~.f f.k.A.B.y.u.u.P.N.k.k.k.k.D.(.e g 1 J.W.c f 8 8                                 ",
"8 /.{..X X X X X X X X X X X X X].#X=X*X@X}.~.8 (.(.(.< -.1.1.0.b (.(.).(.(.~.d d.J.U.U.J.f.(.!.8 8                             ",
"8 /.{. X X X X X X X X X X X X X].#X=X*X@X}.~.e g f ~.s 5.6.6.9.t 7 3 # # 5 7 h J.E.Y.Y.R.A.(.!.8 8                             ",
"8 ^.{..X X X X X X X X X X X X X].#X=X-X@X}.~.h d.h.t 8 t t t t ~.5 H m m o 6 h H.E.Y.Y.R.A.(.!.!.!.8 8                         ",
"8 /.{.[. X X X X X X X X X X X X].#X%X%X+X}.~.h J.N.p & & & & & 3 + m M M G 6 h H.E.Y.Y.R.k.(.e h f 8 8                         ",
"8 /.{..X X X X X X X X X X X X X X.X@X@X.X}.~.h H.m.X.[ [ [ [ T D B M M N G 6 h K.E.Y.Y.R.N.(.g d.j.(.!.8 8                     ",
"7 /.}.|. X X X X X X X X X X X X X X]. X|.`.g < v.a.| ` { ` _ L N M M n F X - %.w.y.y.P.N.D.(.d J.W.c f 8 8                     ",
"    ~./.{. X X X X X X X X X X X X X X|./.g d.v.@.| { { { _ N N M M N G 4 - &.=.:.:.:.8.b (.~.h H.U.J.f.(.!.8 8                 ",
"    7 /.{.[. X X X X X X X X X X X X[.}.~.h J.m. .) { ` _ L N M M M N G 7 : =.:.:.:.:.6.t 9 > %.J.E.E.W.c f 8 8                 ",
"    8 /.{..X X X X X X X X X X X X X.X}.~.h H.m. .{ { _ N N M M M M M G 6 : =.:.:.:.:.6.t > &.;.T.E.Y.U.J.f.(.!.8 8             ",
"    8 /.}.|.]. X X X X X X X X X X X|.`.g < v.a. .` _ L N M M M M n F . 7 s 4.6.6.6.6.9.t : *.2.i.u.U.Y.E.W.c f 8 8             ",
"        ~./.{..X X X X X X X X[..X|./.g d.v.@. .{ _ N N M M M M M F $ 7 7 8 t t t t t t !.: =.:.:.3.I.R.R.Y.J.j.(.!.8 8         ",
"        7 y }.|. X X X X]. X|.}.}.`.g < v.a. .) _ L N M M M M n G X s l 8 w & & & & & & & ; 5.6.6.7.k.k.k.k.N.Z.x f 8 8         ",
"            ~./.{.[.[.[..X|./.~.~.g d.v.@. .{ _ N N M M M M M G $ s d.h.(.u R [ [ [ [ [ [ W k t t t (.(.(.).(.x d.j.(.!.8 8     ",
"            7 ^.oX}.}.}.|.`.g d h < v.a. .) _ L N M M M M n F X s 1 J.G.).& [ { { { { { ` ! % u d h h g u & & , j.Z.x f 8 8     ",
"            8 8 ~.~.~.~.^.g d.L.J.v.@. .{ _ N N M M N M M F $ s s.J.Y.k.).& [ { { { { { { { [ X.d.K.K.b.X.[ [ W z x d.j.(.!.8 8 ",
"            8 8 8 e h h h < c.m.m.p.} ( P L N M M n G G G X s 1 J.Q.N.C.(.& [ [ ~ ! _ _ _ _ ( ' r.u.u.x. .] ) ~ w h J.W.c f 8 8 ",
"                !.h d.J.J.z.I D K D N N N N M M N G 4 6 6 s s.J.Y.N.OX(.!.u [ ~ r = B N N N N K >.:.1.<.| { ` ~ w h n.U.J.j.t 7 ",
"                7 h j.N.k.g.Y C G G G G G G G G G . s h h 2 w.u.u.l.(.w u @ [ ~ w 5 o G G G o J 5.6.6.#.^ ~ ~ $.w h H.U.N.S.(.7 ",
"                    _.(.(.(.w 6 6 6 6 6 6 6 6 6 6 s s.H.K.w.2.:.:.8.t u R [ { ~ w 7 6 6 0 0 6 0 t t t t w w w w !.h J.W.OX(.~.~.",
"                    7 7 7 e g h h h h h h h h h h 2 w.u.u.r.0.6.6.9.a @ [ ` ` ! % u * u 8 ~.!.q : : : : : : : : h < j.C.(.7 8 8 ",
"                        !.g d.J.J.J.J.H.K.L.L.J.K.w.2.:.1.0.z t t a R [ { { { { [ [ [ W w 8 !.: &.=.=.=.=.=.*.;.w.j.OX(.8 8     ",
"                        * , j.A.A.B.y.y.y.y.y.y.u.r.0.6.6.9.a & & @ [ { { { { { { { ` ~ w 8 !.s 5.6.6.,.:.:.:.3.B.S.(.7 8 9     ",
"                !.!.!.u R W z ).(.v -.1.:.:.:.:.:.0.z t t a R [ [ [ { ` { { { { { { { ~ w !.!.8 t t t , =.:.:.0.z (.~.8         ",
"                * & u @ [ ! % u # ; 4.6.6.6.6.6.6.9.i # & @ [ ` { { { { { { { { { { { ! % & * & & k !.s 5.6.6.9.t 7 8 8         ",
"            !.& R [ [ [ { { [ T B G r t t t t t t i H V T [ { { { { { { { { { { { { { { [ [ [ [ [ W w 8 t t t t                 ",
"            h ; [ { { { _ _ _ P G X # 3 3 3 3 3 3 + m N L _ { { { { { { { { { { { { { { { { { { ` ! % u & u 7 8                 ",
"    7 7 !.h d.b. .] { _ N N N H 4 # H m m m m m m B M M N Z _ { { { { { { { { { { { { { { { { { { { [ [ [ W w ~.8 8             ",
"    * u g 1 J.M.O..._ P G G G . 0 3 G G G F M M M M M M M N L _ { { { { { { { { { ` _ _ _ _ { { { { ` [ ! $.w ~.8 8             ",
"!.u R X.n.J.Y.Y.P.t.K G 4 0 0 0     0 6 6 O B M N M M M M M N Z ) { { { { { { { { _ N N N Z ) { { { { ~ r w 7 !.!.!.~.~.~.8     ",
"!.u [ ..x.m.N.A.k.g.Y . 0 8 8 8     8 8 8 3 G G G G G F M M M N L _ _ _ _ _ { { { _ Z N N V Q ! { { { ~ w q : : d h h f 8 8     ",
"!.u [ { o.^ z (.(.(.0 q                     0 0 0 0 6 + B N M N N N N N N Z _ { { { _ ( ) Q r % [ ` ` ~ w : &.;.n.K.J.f.(.!.8 ~.",
"!.u T _ _ E w 7 8 7 7 8                     8 8 8 8 8 3 G F M M M M M M M N L P _ _ _ _ { ~ w u W ~ ~ $.w s 4.q.i.u.u.n.x f 8 8 ",
"~.3 B N N G 6 e                                         0 O B M M M M N M M N N N N N A ) ~ w 8 w w w w !.8 t , -.1.:.3.w.j.t 7 ",
"8 3 G G G . 0 e                                         ~.3 G G G G G G G F M M M M M N S / % u 7 e h h h f ~.s 5.6.6.7.k.S.(.7 ",
"    0 0 0 q                                                 0 0 0 0 0 0 0 O m M N N N N N Z [ W w h s.L.J.f.t 7 t t t t (.(.~.8 ",
"    8 8 8 8                                                 8 8 8 8 8 8 8 3 U G G G G G G H Q $.w d w.u.u.n.x h h h h h h f 8 8 ",
"                                                                            0 0 0 0 0 0 0 0 w w 7 : -.1.:.3.n.J.L.L.L.J.J.f.(.!.",
"                                                                            8 8 8 8 8 8 8 8 8 8 !.s 4.6.6.7.k.B.y.y.y.u.R.A.(.!.",
"                                                                                                ~.8 t t t t (.< -.1.:.3.I.k.(.!.",
"                                                                                                8 8 7 8 7 8 !.s 4.6.6.7.k.S.(.7 ",
"                                                                                                            8 8 t t t t (.(.~.8 ",
"                                                                                                            e 8 8 7 7 7 7 7 8 8 ",
"                                                                                                                                ",
"                                                                                                                                "
};
