/* XPM */
static char *d6e4edbed8894e739c05ad4aa83e25a87GW7PBkn1lOf9zYN[] = {
/* columns rows colors chars-per-pixel */
"64 64 202 2 ",
"   c None",
".  c #7F2522",
"X  c #77272B",
"o  c #76282B",
"O  c #5E3B5E",
"+  c #693951",
"@  c #613C5C",
"#  c #7D385A",
"$  c #5C3F65",
"%  c #6D3D65",
"&  c #663F6A",
"*  c #683F6A",
"=  c #633E61",
"-  c #7A4B55",
";  c #6B535C",
":  c #76585B",
">  c #7D6B59",
",  c #7A605E",
"<  c #5D4066",
"1  c #53416D",
"2  c #5A416A",
"3  c #4F4476",
"4  c #4C467D",
"5  c #4D497D",
"6  c #4E4A77",
"7  c #504575",
"8  c #54467A",
"9  c #514B7A",
"0  c #594877",
"q  c #5B527C",
"w  c #5D547D",
"e  c #65416C",
"r  c #694965",
"t  c #754C6D",
"y  c #724769",
"u  c #665A67",
"i  c #63576C",
"p  c #655A6A",
"a  c #685C6A",
"s  c #695665",
"d  c #614F75",
"f  c #614270",
"g  c #724F77",
"h  c #615C71",
"j  c #675875",
"k  c #75656B",
"l  c #76686B",
"z  c #6C607C",
"x  c #8F1B06",
"c  c #8F1D09",
"v  c #931A01",
"b  c #9B1A04",
"n  c #921D0A",
"m  c #981D0E",
"M  c #811F19",
"N  c #A31A09",
"B  c #A11A07",
"V  c #9F2B0B",
"C  c #842116",
"Z  c #8C2112",
"A  c #82221A",
"S  c #8E231B",
"D  c #992F15",
"F  c #BC2117",
"G  c #BB211A",
"H  c #A12D07",
"J  c #812621",
"K  c #802822",
"L  c #8B3822",
"P  c #BD2222",
"I  c #B9282E",
"U  c #AA2B39",
"Y  c #AB2B35",
"T  c #B72730",
"R  c #B22934",
"E  c #AA292E",
"W  c #C41F1B",
"Q  c #CA1E1E",
"!  c #C3211C",
"~  c #CC211E",
"^  c #CB381F",
"/  c #C1371D",
"(  c #CC1E20",
")  c #C42326",
"_  c #CC2121",
"`  c #CF2F29",
"'  c #D12F28",
"]  c #CA3A20",
"[  c #CA3725",
"{  c #D23027",
"}  c #A64213",
"|  c #B24136",
" . c #B5442F",
".. c #CE4929",
"X. c #D4472B",
"o. c #C85126",
"O. c #D17F29",
"+. c #9C3145",
"@. c #80624D",
"#. c #E98C09",
"$. c #EE9104",
"%. c #EE960A",
"&. c #FC9A02",
"*. c #F79B09",
"=. c #E2911D",
"-. c #FEA004",
";. c #FDA40C",
":. c #F7A412",
">. c #CF8626",
",. c #DD8E23",
"<. c #D28624",
"1. c #DF9323",
"2. c #DD9428",
"3. c #C5853C",
"4. c #C98439",
"5. c #E19424",
"6. c #DDB23E",
"7. c #EBAF39",
"8. c #E5AA3B",
"9. c #E7B43B",
"0. c #F7BF38",
"q. c #FAC73D",
"w. c #FBC83C",
"e. c #F7C137",
"r. c #D7B246",
"t. c #D9B345",
"y. c #CFAF5C",
"u. c #DDAA59",
"i. c #D6AB58",
"p. c #CFB15C",
"a. c #DBB256",
"s. c #D1B15C",
"d. c #DEBE5E",
"f. c #DAB158",
"g. c #DCA846",
"h. c #EEA641",
"j. c #E5A848",
"k. c #E7BE44",
"l. c #E6B648",
"z. c #F4BB47",
"x. c #E1BE5D",
"c. c #E2BA56",
"v. c #CAAD6E",
"b. c #C7AF6F",
"n. c #DEBD60",
"m. c #C8AE70",
"M. c #CCB06C",
"N. c #E0BD60",
"B. c #F09E4A",
"V. c #E7C146",
"C. c #EAC246",
"Z. c #E7C048",
"A. c #E9C248",
"S. c #F3C343",
"D. c #F9CE46",
"F. c #F7CD49",
"G. c #F9CF49",
"H. c #F7CD46",
"J. c #FBD049",
"K. c #FBD147",
"L. c #E4C059",
"P. c #4B4781",
"I. c #4C4B81",
"U. c #474F83",
"Y. c #504B81",
"T. c #4B5383",
"R. c #4A5885",
"E. c #5C5681",
"W. c #5B5A83",
"Q. c #545586",
"!. c #526E94",
"~. c #4D7696",
"^. c #4F7B9A",
"/. c #4E7798",
"(. c #527396",
"). c #527498",
"_. c #507B9A",
"`. c #507A99",
"'. c #507B9A",
"]. c #6C6281",
"[. c #676C9B",
"{. c #65859F",
"}. c #5F88A4",
"|. c #6389A4",
" X c #698CA4",
".X c #6586A0",
"XX c #B2CDD9",
"oX c #B6DDE5",
"OX c #B3D6E0",
"+X c #BFEFED",
"@X c #D4E1E7",
"#X c #DDE3E6",
"$X c #C1F2EF",
"%X c #C0F2EE",
"&X c #C2F2ED",
"*X c #C4F1ED",
"=X c #C2F2EE",
"-X c #C2F3F0",
";X c #E6EFF2",
":X c #EEF1F1",
">X c #E7F0F3",
",X c #F0F2F2",
/* pixels */
"                                                                            I.I.P.P.P.P.P.P.P.P.P.4                             ",
"                                                                            < < < < < < & e e e & e                             ",
"                                                                    5 P.P.< Z c c c c n P ) ) ) ) Y 8 4 4 4                     ",
"                                                                    < < < + n v v v b N Q _ _ _ ~ T s a a a                     ",
"                            %X%X%X*X                            I.< Z c c c v v v b W ! _ _ ( ( Q ] 9.C.C.s.w 4                 ",
"                            %X%X%X*X                            < + n v v v b b b N ! _ _ ~ ^ ] ] o.a.n.x.v.E.4                 ",
"                            %X%X%X*X                        5 < Z n v v v b W Q Q ! _ _ ( ^ 7.z.0.a.].E.E.E.I.4 5 5 5 6         ",
"                            *X*X*X*X                        < + c v v v b N Q _ _ _ _ _ ^ o.f.d.d.b.W.I.I.T.T.I.I.5 5 5         ",
"            %X%X%X*X                                    I.< Z n v v v b W Q _ _ _ _ ( ^ 7.a.].E.E.W.~././././.!.I.5 5 5         ",
"            %X%X%X*X                                    < + n v v v b N ~ _ _ _ _ ~ ^ o.f.b.W.I.I.T./.^._._.'.(.T.I.5 5         ",
"        %X%X$X%X%X%X%X*X                            5 < Z n v v v b W Q _ _ _ _ ( ^ 7.a.].W.~./././.^._._._._.^./.!.I.4 5 6     ",
"        %X%X%X%X%X%X%X%X                            I.< c v v v b N Q _ _ _ _ _ ^ o.a.v.W.T./.'.|.|.'.^._._._._.'.(.T.I.5 5     ",
"    %X%X%X%X%X%X%X%X%X%X%X*X                        I.< n v v b W Q _ _ _ _ ( ^ 7.a.].W.~./.^.|.#X@X|.^._._._._._._./.!.I.5     ",
"    %X%X%X%X%X%X%X%X%X%X%X*X                        5 2 . A A S ) _ _ ) R R R | i.m.E.I./.'.^.|.@X@X|.^._._._._._._.'.).I.6     ",
"    %X%X%X%X%X%X%X%X%X%X$X*X                    5 5 P.4 3 3 3 % ) ~ ~ T 0 8 8 8 w E.I.I./.^._.'.|.|.'._._._._._._._.'.(.I.4 5 5 ",
"    *X%X%X%X%X%X%X%X%X+XoXOX                    I.9 a a a h I.e U R R +.8 9 a i 5 5 I.R.{.|.'.^.^.^._._._._._._._._._.(.T.I.I.I.",
"        %X%X%X%X%X%X-XoX[.Q.I.5     5 5 P.4 5 5 P.a r.C.C.y.E.4 8 8 8 8 P.i t.s.E.I.~..X#X@X|.^._._._._._._._._._._._._./.!.I.5 ",
"        %X%X%X%X%X+XoXXXg & & e     5 9 a i 5 5 P.a C.J.J.L.l u a a a a a > C.N.E.I./. X:X>X|.^._._._._._._._._._._._._.'.(.I.5 ",
"            %X%X$XoX[.g I ) ) U 8 5 P.a t.p.w 4 P.a C.K.K.D.C.C.Z.Z.Z.Z.C.C.D.d.E.I./. X:X;X|.^._._._._._._._._._._._._.'.(.I.5 ",
"            %X%X*XOXQ.& ) _ ~ T % e 4 a C.L.l i 5 i y.d.n.d.n.c.q.q.w.S.x.n.d.v.E.I./. X:X;X|.^._._._._._._._._._._._._.^.(.I.5 ",
"                    I.& ) ~ _ _ ) U 8 a C.G.C.y.w 5 E.W.E.E.E., %.-.-.5.z E.E.E.5 T./. X:X;X|.^._._._._._._._._._._._._.^.(.I.5 ",
"                    5 e U T _ ~ ^ | 8 h y.L.D.d.W.3 < $ $ 2 4 s >.,.,.3.q 6 a i 5 T./. X:X;X|.^._._._._._._._._._._._._.^.(.I.5 ",
"                        8 % ) ^ 7.i.E.5 w l C.x.E.< Z c c . 3 5 q q q q 5 i t.s.E.I./. X,X>X|.^._._._._._._._._._._._._.^.(.I.5 ",
"                        P.e U  .C.L.l i 5 i s.m.E.$ c v v C @ < & & & & & : C.x.E.I./.|.@X@X}.^._._._._._._._._._._._._.^.(.I.5 ",
"                    5 5 P.4 8 s V.F.C.p.E.5 w E.I.< c v v v c m P ) ) ) ) ] S.d.E.U./.'.|.|.'._._._._._._._._._._._._._.'.(.I.5 ",
"                    5 9 a i I.a V.F.z.u.t e 4 4 5 2 . C v v v b F ! ~ _ ( ] h.u.l h (.).^.^._._._._._._._._._._._._._._.(.!.Y.Y.",
"                5 5 P.i t.s.w u V.z.X.` ) U 8 P.5 5 3 @ c v v v v B ! _ _ _ { ..l.p.W.T./._._._._._._._._._._._._._._.).Q.I.    ",
"                I.9 i > C.N.E.i p.u.` ( ~ T % * * e 5 < c v v v v b F ! _ _ Q ] z.d.E.I./.^._._._._._._._._._._._._.^.).I.5     ",
"            5 I.P.i r.C.D.n.E.5 E.t ) ~ ~ _ ) ) ) U 8 < c v v v v v v B ! _ ( ] e.d.E.I./.'._._._._._._._._._._._._.'.(.I.6     ",
"            5 9 i > C.J.G.x.l i 5 e U R R T _ ~ ~ R 8 2 . C v v v v v b F ! ( ] h.u.l h (.(.^._._._._._._._._._._._.).!.9 6     ",
"        5 5 P.i r.C.H.G.G.F.A.y.E.P.8 8 8 % ) _ _ R 8 5 3 O c v v v v v v B ! _ ' ..9.s.W.T./.'.'._._._._._._.^.'.).T.5         ",
"        I.9 i > C.J.G.G.G.D.w.l.: ; ; s 5 e ) ~ _ R 8 9 i ; K C v v v v v b F ! Q ] h.u.l h (.(.(.)._.^._._._._.(.!.9 6         ",
"    5 I.P.i r.C.F.G.G.G.G.q.;.*.$.$.$.>.q & ) ~ _ R 8 a t.s.q O c v v v v v v B ! _ ' ..9.p.W.I.I.T./.'.^.^.^.(.Q.5             ",
"    5 9 i > C.J.G.G.G.D.q.0.*.&.&.&.&.=.: - U T _ R 8 a C.L.l ; J C v v v v v b F ! Q ] h.u.l a u h (.).(.(.(.!.I.6             ",
"5 5 P.i r.C.H.G.G.G.J.q.;.*.&.&.&.&.&.&.$.<.d % ) R 8 a C.D.C.y.q O c v v v v v v B ! _ ' ..l.C.C.p.W.I.I.I.I.I.I.6             ",
"5 9 i > C.J.G.G.G.D.q.e.*.&.&.&.&.&.&.&.&.,.q & ) R 8 i y.L.G.L.l ; J A A C v v v b F ! W / 8.l.l.i.k a a i 5 5 6 6             ",
"P.a t.C.F.G.G.G.G.q.;.*.&.&.&.&.&.&.&.&.&.1.q & ) R 8 5 E.l C.F.C.y.q 3 3 O c v v v b b b b V V V } 6.C.C.s.E.5                 ",
"5 i p.L.F.G.G.G.G.q.*.&.&.&.&.&.&.&.&.*.1.3.q & ) T % e 4 u 9.q.w.c.l a a ; J A A A A A A A A A M L i.n.x.M.W.4                 ",
"5 5 E.l C.J.G.G.G.q.*.&.&.&.&.&.&.&.&.5.j q P.e ) _ ) U 8 ; %.&.&.:.k.Z.V.y.q 3 3 3 3 3 3 3 3 3 3 7 E.E.E.E.                    ",
"6 5 P.h y.L.F.D.q.e.*.&.&.&.&.*.1.,.,.4.y & e # ) _ ~ T % - <.,.,.1.e.q.w.l.l a a a a a a a a a a i 5 4 5 4                     ",
"    5 5 E.l A.w.;.&.&.&.&.&.&.=.j q q y I ) ) ) _ _ _ _ ) Y d q q : %.-.&.:.k.Z.A.A.A.Z.C.C.C.C.C.p.E.5                         ",
"    6 5 4 i y.c.2.,.,.,.,.,.,.3.q 4 P.& ) _ _ _ _ _ _ _ ~ T % & & - <.,.,.1.e.q.q.q.q.q.q.S.x.n.d.v.t e                         ",
"        5 5 w E.q q q q q q q q I.P.P.e ) _ _ _ _ _ _ _ _ _ ) ) ) U d q q : %.&.&.&.&.&.-.5.z E.W.t I U 8 I.I.5                 ",
"        6 5 5 8 & & & & & & & & * * e # ) _ _ _ _ _ _ _ _ _ ~ _ ~ T % & & - <.,.,.,.,.,.,.3.r $ & # ) T % & * e                 ",
"            5 e I ) ) ) ) ) ) ) ) ) ) ) _ _ _ _ _ _ _ _ _ _ _ _ _ _ ) ) ) U d q q q q q q r Z m P ) _ _ ) ) ) U 8 I.            ",
"            5 * ) _ _ _ _ _ _ _ _ _ _ _ _ _ _ _ _ _ _ _ _ _ _ _ _ ~ ! ! ! E = < < < < < < @ J S G ! ! ! _ _ _ T s a             ",
"        Y.I.P.& ) _ _ _ _ _ _ _ _ _ _ _ _ _ _ _ _ _ _ _ _ _ _ _ _ ! b v b n n c c c c c n A 1 @ n b b B ~ _ ( ] 9.s.E.P.I.5     ",
"        I.9 i - ) _ _ ) R R R T _ _ ! ! ! ! _ _ _ _ _ _ _ _ _ _ ! F v v v v v v v x C A A X 3 < . A A S G ! ] o.S.L.l i e e     ",
"        P.a r.j.` Q ~ R 0 8 8 % ) ! b b v B ! _ _ _ _ _ _ _ _ ! b v v v v v v v v C 1 7 7 7     7 7 7 @ n H 8.S.D.G.A.j.` U 0 I.",
"        P.a A.z...[ R +.0 6 5 e U E A C b N ! _ _ ~ ! ! ! ! ! G b v v x A A A A A X 3 5 5 6     5 5 5 < A L i.n.n.c.z.B.{ R 8 5 ",
"        P.a V.D.S.i.j 0         8 8 3 % P Q _ _ _ ! b v b b b v v v v C 1 7 7 7 7 3                     7 7 E.E.W.t ` { _ R 8 5 ",
"        P.a k.J.J.n.E.5         5 5 P.f U T _ _ ! F v v v v v v v x C o 7 5 5 5 5 6                     5 5 4 5 P.& P ! ! E 8 5 ",
"        P.a k.J.J.d.E.5             5 5 8 % ) ! b v v v v v v v v C 1 7                                         I.< n b b A 3 5 ",
"        P.a V.D.q.a.E.9             6 5 P.e P F b v v v v v v x C X 3 6                                         I.< J A A X 3 5 ",
"        P.a C.w.;.2.q 5                 P.< n v v v v v v v v C 1 3                                                 8 7 7 3     ",
"        4 a s.a.2.3.w 9                 P.< c v v x A A A A A o 3 6                                                 I.5 5 5     ",
"            w E.q w             I.I.I.I.I.< c v v A 1 7 7 7 7 7                                                                 ",
"            6 4 5 9             a a a i < + n v v A 7 5 5 5 5 6                                                                 ",
"                        I.Y.I.a t.A.Z.g.D c v v v A 7 5                                                                         ",
"                        ; ; ; @.9.w.w.7.V v v x C o 3 5                                                                         ",
"                    I.; #.$.$.$.*.&.-.#.H v v C 1 3 5 6                                                                         ",
"                    4 ; <.,.,.,.,.,.1.>.S A A X 7 5 5 6                                                                         ",
"                        q q q q q q q q 7 7 7 7                                                                                 ",
"                        P.P.P.P.P.P.P.I.I.I.I.5                                                                                 "
};
