/* XPM */
static char *eac93f284d6a4f12d2f147951d9ef0b6AE2HsICF1ZV3wZyB[] = {
/* columns rows colors chars-per-pixel */
"64 64 195 2 ",
"   c None",
".  c #7F2522",
"X  c #782B29",
"o  c #76292C",
"O  c #5F3D5E",
"+  c #603C5E",
"@  c #6A3950",
"#  c #7C3859",
"$  c #713955",
"%  c #573F69",
"&  c #6E3E65",
"*  c #663F6B",
"=  c #683F69",
"-  c #653E61",
";  c #694E58",
":  c #784C55",
">  c #6A525D",
",  c #67515E",
"<  c #785B59",
"1  c #77565C",
"2  c #7C655B",
"3  c #7C6A5A",
"4  c #7E6A57",
"5  c #5D4165",
"6  c #5A4169",
"7  c #53406D",
"8  c #4E4376",
"9  c #4C467D",
"0  c #4D497D",
"q  c #4D4976",
"w  c #514475",
"e  c #53467A",
"r  c #514C7B",
"t  c #594877",
"y  c #5B527C",
"u  c #4C517F",
"i  c #65416B",
"p  c #6A4C61",
"a  c #724A6A",
"s  c #714867",
"d  c #655264",
"f  c #665A67",
"g  c #62576E",
"h  c #655A6A",
"j  c #685B69",
"k  c #6A5964",
"l  c #614170",
"z  c #604F75",
"x  c #615D71",
"c  c #66597A",
"v  c #74656C",
"b  c #76686B",
"n  c #786161",
"m  c #6C607B",
"M  c #8F1B06",
"N  c #8F1D09",
"B  c #931A01",
"V  c #9A1A04",
"C  c #911D09",
"Z  c #801F18",
"A  c #A11A09",
"S  c #A21A07",
"D  c #9D2B0B",
"F  c #9A2507",
"G  c #852015",
"H  c #82221A",
"J  c #8B2116",
"K  c #8D311A",
"L  c #A22D03",
"P  c #BB2117",
"I  c #BD2019",
"U  c #A93B14",
"Y  c #802520",
"T  c #8C3125",
"R  c #BB2321",
"E  c #BC262C",
"W  c #AD2A35",
"Q  c #AA2C39",
"!  c #B72731",
"~  c #B22934",
"^  c #B43531",
"/  c #C41F1B",
"(  c #CA1F1E",
")  c #C3211C",
"_  c #CC201F",
"`  c #CB3719",
"'  c #CC1F20",
"]  c #C42326",
"[  c #CC2121",
"{  c #C62F23",
"}  c #D12E26",
"|  c #D12F28",
" . c #C93825",
".. c #D23128",
"X. c #E07F0D",
"o. c #CE4928",
"O. c #D44031",
"+. c #D5402E",
"@. c #D77E28",
"#. c #9B3146",
"$. c #80644E",
"%. c #DE8709",
"&. c #E78904",
"*. c #F08900",
"=. c #ED9104",
"-. c #EF960A",
";. c #FD9C02",
":. c #F19409",
">. c #E59317",
",. c #F69513",
"<. c #FEA004",
"1. c #FBA20B",
"2. c #FAA711",
"3. c #CF8626",
"4. c #D28624",
"5. c #DD8F22",
"6. c #DE9124",
"7. c #DD952B",
"8. c #C7853B",
"9. c #E19525",
"0. c #E09925",
"q. c #EBBB3B",
"w. c #E3B43E",
"e. c #F4BD3A",
"r. c #FAC73D",
"t. c #FBC83C",
"y. c #F6C137",
"u. c #EC9E47",
"i. c #F19E49",
"p. c #D7B246",
"a. c #DAB444",
"s. c #CFAF5D",
"d. c #DAAA5A",
"f. c #CFB15C",
"g. c #D1B15B",
"h. c #DEBD5E",
"j. c #DFB655",
"k. c #DFAB42",
"l. c #EEA642",
"z. c #E6AA46",
"x. c #E7AB48",
"c. c #E5A747",
"v. c #E9B744",
"b. c #F5B64B",
"n. c #E2BD5D",
"m. c #E4BF57",
"M. c #EBAC4D",
"N. c #C8AC6F",
"B. c #CEB068",
"V. c #DFBD60",
"C. c #C8AD70",
"Z. c #DBA760",
"A. c #E0BD60",
"S. c #E7C146",
"D. c #EAC246",
"F. c #E7C048",
"G. c #E9C048",
"H. c #F9CE45",
"J. c #F7CD4A",
"K. c #F9CF49",
"L. c #F5C744",
"P. c #FAD147",
"I. c #FAD049",
"U. c #E3C15A",
"Y. c #F6CD50",
"T. c #4B4780",
"R. c #4C4B82",
"E. c #474F80",
"W. c #514C81",
"Q. c #4B5283",
"!. c #5C5581",
"~. c #5D5983",
"^. c #576F8F",
"/. c #4E7696",
"(. c #4F7B9A",
"). c #4E7798",
"_. c #527396",
"`. c #527498",
"'. c #507B9A",
"]. c #506F94",
"[. c #6D6481",
"{. c #5F87A3",
"}. c #638AA4",
"|. c #6A8CA3",
" X c #6783A0",
".X c #D4E1E6",
"XX c #DDE4E6",
"oX c #C1F2EF",
"OX c #C0F2EE",
"+X c #C2F2EE",
"@X c #C5F1ED",
"#X c #C0F2F0",
"$X c #E6EFF2",
"%X c #EDF1F2",
"&X c #E7F0F3",
/* pixels */
"                            9 T.T.T.T.T.T.T.T.T.R.0                                                         OXOXOXOX            ",
"                            = = i i i i 5 5 5 5 5 5                                                         OXOXOXOX            ",
"                    9 9 T.= E ] ] ] ] R C N N N N Y 8 R.9 0                                             OXOX#XOXOXOXOXOX        ",
"                    j j j : ] _ [ [ [ ) S V B B B G O 5 5 5                                             OXOXOXOXOXOXOXOX        ",
"                T.j a.D.D.c.| ( ' ' [ _ ) I V B B B N N N Y w 0                                     OXOXOXOXOXOXOXOXOXOXOXOX    ",
"                9 g f.A.V.d.o.`  . .[ [ [ ) A V V V B B B G O 5                                     OXOXOXOXOXOXOXOXOXOXOXOX    ",
"        0 0 0 0 9 0 y !.!.v w.e.D.l.} ( [ [ ) / ) I V B B B N . w 0                                 OXOXOXOXOXOXOXOXOXOXOXOX    ",
"        0 0 0 0 Q.Q.Q.E.E.x g.n.h.d.o. .[ [ [ [ [ ) A V B B B G + 5                                 @XOXOXOXOXOXOXOXOXOXOX@X    ",
"        0 0 0 E./.).).).)._.~.!.!.v w.l.| ' [ [ [ [ ( I V B B B N Y w 0                                 OXOXOXOXOXOXOXOX        ",
"        0 0 Q.Q.).'.'.'.'.`.Q.E.E.x g.d.o. .[ [ [ [ [ ) A V B B B G O 5                                 @X@XOXOXOXOX@X@X        ",
"    0 0 9 E./.).(.'.'.'.'.(.).).)._.~.v w.l.| ( [ [ [ [ ) I V B B B N Y w 0                 OXOXOXOX        OXOXOXOX            ",
"    0 R.E.Q.).'.'.'.'.'.(.'.|.|.'.`.Q.x f.d.o. .[ [ [ [ [ ) A V B B B H w 0                 OXOXOXOX        @XOX@X@X            ",
"    0 E./.).(.'.'.'.'.(.(.|.XX.X}.(.)._.~.v v.l..._ [ [ [ [ ( I V B V H w 0                 OXOXOXOX                            ",
"    0 Q.).'.'.'.'.'.'.(.(.|..X.X}.(.'._.E.g f.Z.^ ~ ~ ! [ [ [ R H H H o w 0                 @XOXOX@X                            ",
"0 0 T.Q.).'.'.'.'.'.'.'.(.'.}.{.'.'.(._.R.R.y !.e e e & ] _ _ ~ 7 8 8 9 9 T.0 0                                                 ",
"0 R.E.Q.).'.'.'.'.'.'.'.'.'.(.(.(.'.|. XQ.E.9 r j g 0 i Q ~ ~ #.e r j j j g 0 0                                                 ",
"0 E./.).'.'.'.'.'.'.'.'.'.'.'.'.(.|.XX.X{.].R.j a.g.!.9 e e e e T.h p.D.D.s.!.T.0 R.9 T.0 0                                     ",
"0 Q.).'.'.'.'.'.'.'.'.'.'.'.'.'.(.|.%X&X}._.R.j D.U.b f j j j j j 3 D.I.P.V.!.T.0 r j g 0 0                                     ",
"0 Q.).'.'.'.'.'.'.'.'.'.'.'.'.'.(.|.%X$X}._.R.f D.K.D.D.F.F.F.S.D.D.K.P.P.h.!.T.9 h a.s.!.T.0 0                                 ",
"0 Q.).'.'.'.'.'.'.'.'.'.'.'.'.'.(.|.%X$X}._.R.g s.h.V.m.r.t.t.L.n.V.h.h.h.C.!.r h 3 D.U.b g 0 0                                 ",
"0 Q.).'.'.'.'.'.'.'.'.'.'.'.'.'.(.|.%X$X}._.R.0 !.!.!.2 -.<.<.9.m !.!.~.!.!.R.f a.D.J.J.D.s.!.T.0 0                             ",
"0 Q.).'.'.'.'.'.'.'.'.'.'.'.'.'.(.|.%X$X}._.R.r h g R.d 4.5.5.8.y 9 5 % % 6 9 j D.I.K.K.P.V.!.T.0 0                             ",
"0 Q.).'.'.'.'.'.'.'.'.'.'.'.'.'.(.|.%X&X}._.R.j a.f.y 0 y y y y R.6 J N N . 8 j S.I.K.K.P.V.!.T.T.T.0 0                         ",
"0 Q.).(.'.'.'.'.'.'.'.'.'.'.'.'.(.|..X.X{._.R.j D.n.a = = = = = 6 @ N B B H 8 j S.I.K.K.P.h.!.r j g 0 0                         ",
"0 Q.).'.'.'.'.'.'.'.'.'.'.'.'.'.'.'.}.}.'._.R.j S.b. .] ] ] ] R F C B B V H 8 j F.I.K.K.P.n.!.h a.g.!.T.0 0                     ",
"0 Q._.`.'.'.'.'.'.'.'.'.'.'.'.'.'.'.(.'.`.^.h 2 x.i.} _ [ _ ) P V B B M G X ; $.q.r.r.L.n.C.!.f D.U.b g 0 0                     ",
"    R.Q.).'.'.'.'.'.'.'.'.'.'.'.'.'.'.`.Q.h a.x.+.} [ [ [ ) V V B B V H 7 ; %.=.;.;.;.6.m !.R.j S.J.D.s.!.T.0 0                 ",
"    T.Q.).(.'.'.'.'.'.'.'.'.'.'.'.'.(._.R.j D.b...( [ _ ) P B B B B V H 9 > =.;.;.;.;.5.y q , $.D.I.I.U.b g 0 0                 ",
"    0 Q.).'.'.'.'.'.'.'.'.'.'.'.'.'.'._.R.j S.b...[ [ ) V V B B B B B H 8 > =.;.;.;.;.5.y , %.-.L.I.K.J.D.s.!.T.0 0             ",
"    0 Q._.`.(.'.'.'.'.'.'.'.'.'.'.'.`.^.h 2 x.i.| _ ) P V B B B B M G o 9 d 3.5.5.5.5.8.y > =.1.y.t.J.K.I.U.b g 0 0             ",
"        R.Q.).'.'.'.'.'.'.'.'.(.'.`.Q.h a.x.O.| [ ) V V B B B B B G % 9 9 0 y y y y y y T.> =.;.;.2.H.P.P.K.D.g.!.T.0 0         ",
"        0 u _.`.'.'.'.'.(.'.`._._.^.h 2 x.i.| ( ) P V B B B B C H X d x 0 e = = = = = = = : 4.5.5.7.j.h.h.h.n.B.v g 0 0         ",
"            R.Q.).(.(.(.'.`.Q.R.R.h a.x.O.| [ ) V V B B B B B H % d a.f.!.i E ] ] ] ] ] ] Q z y y y !.!.!.~.!.v a.g.!.T.0 0     ",
"            9 E.]._._._.`.^.h f j 2 x.i.| ( ) P V B B B B M G X d 3 D.A.~.= ] [ [ [ [ [ _ ! & i f j j f i = = 1 g.B.v g 0 0     ",
"            0 0 R.R.R.R.E.h a.G.D.x.O.| [ ) V V B B B B B G % d p.D.K.h.~.= ] [ [ [ [ [ [ [ ]  .a.F.F.c. .] ] Q z v a.g.!.T.0 0 ",
"            0 0 0 r j j j 2 z.v.v.u.{ / ) P V B B M H H H X d 3 D.Y.n.N.!.= ] ] ~ ! ) ) ) ) / ` e.t.t.l...' _ ~ e j D.U.b g 0 0 ",
"                T.j a.D.D.k.U D L D V V V V B B V H 7 8 8 d p.D.K.n.[.!.T.i ] ~ t - C V V V V L =.<.<.,.} [ _ ~ e j S.J.D.g.y 9 ",
"                9 j g.n.h.d.T Z H H H H H H H H H X d j j 4 q.t.t.j.!.e i # ] ~ e 6 . H H H . K 4.5.5.@.^ ~ ~ #.e j F.J.n.C.!.9 ",
"                    !.!.!.!.e 8 8 8 8 8 8 8 8 8 8 d p.S.F.q.1.;.;.7.y i E ] [ ~ e 9 8 8 w w 8 w y y y y e e e e T.j D.U.[.!.R.0 ",
"                    9 0 9 r j j j j j j j j j j j 4 q.t.t.e.9.5.5.8.s # ] _ _ ! & i = i 0 R.T.q > > > > > > > > j 2 g.N.!.9 0 0 ",
"                        9 j a.D.D.D.D.S.F.G.G.D.F.q.1.;.<.9.c y y s E ] [ [ [ [ ] ] ] Q e 0 T.> %.=.=.=.=.=.=.>.q.g.[.!.0 0     ",
"                        9 g g.A.V.m.r.r.r.r.r.r.t.e.9.5.5.8.s = * # ] [ [ [ [ [ [ [ _ ~ e 0 T.d 4.6.5.>.;.;.;.,.m.C.!.9 0 q     ",
"                        0 0 y ~.!.n -.<.;.;.;.;.;.9.c y y s E ] ] ] [ _ [ [ [ [ [ [ [ ~ e T.T.0 y y y < =.;.;.9.c !.R.0         ",
"                        0 R.9 9 % : 3.5.5.5.5.5.5.8.s = * # ] _ [ [ [ [ [ [ [ [ [ [ [ ! & = = = = l T.d 4.5.5.8.y 9 0 q         ",
"                        9 0 R.6 J Y t y y y y y y s E ] ] ] [ [ [ [ [ [ [ [ [ [ [ [ [ [ ] ] ] ] ] Q e 0 y y y y                 ",
"                        9 e 6 @ N G O % 5 5 5 5 5 $ R ) ) ) [ [ [ [ [ [ [ [ [ [ [ [ [ [ [ [ [ [ _ ! & i = i 9 0                 ",
"                        R.6 J N B B N N C N N N N C B V B A ) [ [ [ [ [ [ [ [ [ [ [ [ [ [ [ [ [ [ [ ] ] ] Q e T.0 r             ",
"                        R.5 N B B M H H H G B B B B B B B V I ) [ [ [ [ [ [ [ [ [ _ ) ) ) ) [ [ [ [ _ _ _ ! & l 0 0             ",
"                        T.5 N B B H 7 w 8 O C B B B B B B B V A ( [ [ [ [ [ [ [ [ ) V V V S ( [ _ _ [ _ [ [ ] Q e T.R.R.W.r     ",
"                        T.5 N B B H w 0 0 5 H H H H H G B B B V I ) ) ) ) ) [ [ [ ) A C H J W ~ ~ ! [ _ [ _ ` ^ k j j g 0 0     ",
"                        T.5 N B B H w 0     w w w w 8 + C V B V V B B B B A ) [ [ [ / W w 8 e e e & ] _ _ ` *.-.v.F.D.f.!.T.r W.",
"                        T.5 D L L K w 0     0 0 0 0 9 5 Y G B B B B B B B V I ) [ [ [ ! & l 0 0 9 i Q ~ W ^ 4.0.y.t.P.U.v g 0 R.",
"                        T.> &.*.*.4.y 0                 w O C B B B B B B B V A ) [ [ [ ] Q e 9     t e e e y < -.2.H.J.D.f.!.9 ",
"                        T.d 3.>.;.5.y 0                 0 5 Y G B B B B B B B V I ) [ [ _ ! & i     r 0 0 0 9 > 4.9.y.r.t.j.!.9 ",
"                        T.0 y < =.6.y R.W.r                 9 + N B V V V V B B V A ) [ [ [ ] W t r             y < -.;.;.6.y 9 ",
"                        0 0 9 p X.@.p 6 9 0                 9 5 . H H H H G B B B V I ) ) R ~ #.e 0             R.> 4.5.5.8.y 9 ",
"                            R.5 D F C . w 0                     w w w w e + N B B B V V V H 7 e T.T.R.R.W.r         c y y y 0 0 ",
"                            R.5 N B V H w 0                     0 0 0 0 0 6 . H H G B B B G ; > > > > d 0 0         W.9 0 0 0 0 ",
"                            R.5 C V V H w 0                             0 0 w w w O N B B F &.=.=.=.=.3.y T.R.W.W.r             ",
"                            0 5 H H H o w q                             0 0 0 9 0 5 Y H H K 4.6.6.>.;.>.< > > d 0 0             ",
"                                w w w w                                             w w w w y y y < =.;.=.=.=.4.y 0             ",
"                                0 0 0 r                                             0 0 0 0 0 0 T.d 3.5.5.5.6.8.y 0             ",
"                                                                                                R.0 y y y y y y 0 0             ",
"                                                                                                W.R.9 9 T.T.T.0 0 0             "
};
