/* XPM */
static char *_d373e9424b84393ba3883ade691ad57HAbxdQ3uNHttfW0H[] = {
/* columns rows colors chars-per-pixel */
"64 64 195 2 ",
"   c None",
".  c #74282E",
"X  c #782B29",
"o  c #7E2623",
"O  c #5F3D5E",
"+  c #603C5E",
"@  c #6A3951",
"#  c #7B3759",
"$  c #7C385A",
"%  c #753854",
"&  c #563F6A",
"*  c #6D3E66",
"=  c #673F6B",
"-  c #693F69",
";  c #694E59",
":  c #7A4C56",
">  c #6A535D",
",  c #755A5C",
"<  c #795D5C",
"1  c #7C655B",
"2  c #7C6A5A",
"3  c #5D4166",
"4  c #53406C",
"5  c #5A416A",
"6  c #4E4476",
"7  c #4D4A77",
"8  c #4C467C",
"9  c #4D497D",
"0  c #514575",
"q  c #5B4372",
"w  c #53467A",
"e  c #514B7A",
"r  c #5B527C",
"t  c #5C557E",
"y  c #4C517F",
"u  c #64416C",
"i  c #6A416C",
"p  c #734C6D",
"a  c #655363",
"s  c #665A67",
"d  c #62576E",
"f  c #655A6A",
"g  c #685B69",
"h  c #6A5864",
"j  c #624E76",
"k  c #724C70",
"l  c #615D71",
"z  c #63577A",
"x  c #786960",
"c  c #76686B",
"v  c #766468",
"b  c #6B607C",
"n  c #8F1B07",
"m  c #8F1D09",
"M  c #931A01",
"N  c #9B1B04",
"B  c #931D0A",
"V  c #9A1C0C",
"C  c #801F18",
"Z  c #A11A09",
"A  c #A21A07",
"S  c #BE1F17",
"D  c #9B270B",
"F  c #842016",
"G  c #83221A",
"H  c #8A2217",
"J  c #953311",
"K  c #A12C06",
"L  c #BB2116",
"P  c #B5231B",
"I  c #BD211B",
"U  c #A93B14",
"Y  c #802520",
"T  c #8C3125",
"R  c #BA2421",
"E  c #BC262C",
"W  c #B52C2F",
"Q  c #AB2C39",
"!  c #AB2930",
"~  c #B22934",
"^  c #B23036",
"/  c #CA1F1E",
"(  c #C51F1C",
")  c #C3211C",
"_  c #CC201F",
"`  c #CA3A1F",
"'  c #CC1F20",
"]  c #C42326",
"[  c #CC2121",
"{  c #C52A26",
"}  c #D12F27",
"|  c #D12F28",
" . c #CA3724",
".. c #D13129",
"X. c #CE4928",
"o. c #D44031",
"O. c #D14A28",
"+. c #9C3145",
"@. c #A12F41",
"#. c #835B44",
"$. c #80644D",
"%. c #DE870B",
"&. c #EB8F05",
"*. c #ED9104",
"=. c #EE960A",
"-. c #FB9A01",
";. c #F49404",
":. c #E49318",
">. c #FEA004",
",. c #F7A10C",
"<. c #F8A10B",
"1. c #F9A711",
"2. c #F7A613",
"3. c #CF8626",
"4. c #D28624",
"5. c #DD8F23",
"6. c #D38923",
"7. c #DF9224",
"8. c #DA962D",
"9. c #C88638",
"0. c #E19424",
"q. c #E2B43E",
"w. c #EBB739",
"e. c #F3BF3F",
"r. c #FAC73D",
"t. c #FAC83D",
"y. c #F8C237",
"u. c #EC9E47",
"i. c #F19E49",
"p. c #DDAD42",
"a. c #D9B444",
"s. c #D7B345",
"d. c #CFAF5D",
"f. c #DAAA5A",
"g. c #CFB15D",
"h. c #D2B25B",
"j. c #DEBC5E",
"k. c #EEA642",
"l. c #E6AA46",
"z. c #E7AB48",
"x. c #E7A744",
"c. c #E7B545",
"v. c #F5B64B",
"b. c #E0A75A",
"n. c #E2BD5E",
"m. c #E4BF57",
"M. c #CDAC6B",
"N. c #C7AC6F",
"B. c #DFBD60",
"V. c #C7AC70",
"C. c #D4AC68",
"Z. c #E1BD60",
"A. c #E7C146",
"S. c #E9C246",
"D. c #E7C048",
"F. c #E8C048",
"G. c #F4C343",
"H. c #F6CA43",
"J. c #F9CD44",
"K. c #F6CD4A",
"L. c #F9CF49",
"P. c #FBD147",
"I. c #FAD049",
"U. c #E3C05A",
"Y. c #4B4780",
"T. c #4C4B82",
"R. c #474F80",
"E. c #4B5283",
"W. c #5C5681",
"Q. c #5C5984",
"!. c #504C84",
"~. c #605A85",
"^. c #576F8F",
"/. c #4E7696",
"(. c #4F7B9A",
"). c #4E7798",
"_. c #527396",
"`. c #527498",
"'. c #507B9A",
"]. c #506F94",
"[. c #6A6484",
"{. c #5F87A3",
"}. c #638AA4",
"|. c #6A8CA3",
" X c #6783A0",
".X c #D4E1E6",
"XX c #DDE4E6",
"oX c #C1F2EF",
"OX c #C0F2EF",
"+X c #C2F2EE",
"@X c #C2F2EE",
"#X c #C0F2F0",
"$X c #E6EFF2",
"%X c #EDF1F2",
"&X c #E7F0F3",
/* pixels */
"                            9 Y.Y.Y.Y.Y.Y.Y.Y.Y.T.9                                                                             ",
"                            - = i i i i 3 3 3 3 3 3                                                                             ",
"                    9 9 Y.= E ] ] ] ] R B m m m m Y 6 T.9 9                                                                     ",
"                    g g g : ] _ [ [ [ ) A N M M M F O 3 3 3                                                                     ",
"                Y.g a.S.S.x.| / ' ' [ _ ) L N M M M m m m Y 0 9                             +X+X+X+X                            ",
"                9 d g.Z.B.f.X.`  . .[ [ [ ) Z N N N M M M F O 3                             +X+X+X+X                            ",
"        9 9 9 9 9 9 t W.W.v q.e.S.k.} / [ [ ) ( ) L N M M M m o 0 9                         +X+X+X+X                            ",
"        9 9 9 9 E.E.E.R.R.l h.n.j.f.X. .[ [ [ [ [ ) Z N M M M F + 3                         +X+X+X+X                            ",
"        9 9 9 R./.).).).)._.Q.W.W.v q.k.| ' [ [ [ [ / I N M M M m o 0 9                                     +X+X+X+X            ",
"        9 9 E.E.).'.'.'.'.`.E.R.R.l h.b.X. .[ [ [ [ [ ) Z N M M M F O 3                                     +X+X+X+X            ",
"    9 9 9 R./.).(.'.'.'.'.(.).).)._.Q.v q.k.} / [ [ [ [ ) L N M M M m Y 0 9                             +X+XoXoX+X+X+X+X        ",
"    9 T.R.E.).'.'.'.'.'.(.'.|.|.'.`.E.l g.f.X. .[ [ [ [ [ ) Z N M M M G 0 9                             +X+XoX+X+X+X+X+X        ",
"    9 R./.).(.'.'.'.'.(.(.|.XX.X}.(.)._.Q.v c.k..._ [ [ [ [ / I N M N G 0 9                         +X+X+X+X+XoX+X+X+X+XoX+X    ",
"    9 E.).'.'.'.'.'.'.(.(.|..X.X}.(.'._.R.d g.f.^ ~ ~ ~ [ [ [ R G G G . 0 9                         +X+X+X+X+X+X+X+X+X+XoX+X    ",
"9 9 Y.E.).'.'.'.'.'.'.'.(.'.}.{.'.'.(._.T.9 t W.w w w * ] _ _ ~ q 6 6 8 9 Y.9 9                     +X+X+X+X+X+X+X+X+X+X#X+X    ",
"9 T.R.E.).'.'.'.'.'.'.'.'.'.(.(.(.'.|. XE.R.9 e g d 9 u Q ~ ~ +.w e g g g d 9 9                     +X+X+X+X+X+X+X+X+X+X+X+X    ",
"9 R./.).'.'.'.'.'.'.'.'.'.'.'.'.(.|.XX.X{.].T.g a.h.W.9 w w w w Y.f s.S.S.d.W.Y.9 T.9 Y.9 9             +X+X+X+X+X+X+X+X        ",
"9 E.).'.'.'.'.'.'.'.'.'.'.'.'.'.(.|.%X&X}._.T.g S.U.c s g g g g g 2 S.I.P.B.W.Y.9 e g d 9 9             +X+X+X+X+X+X+X+X        ",
"9 E.).'.'.'.'.'.'.'.'.'.'.'.'.'.(.|.%X$X}._.T.s S.L.S.S.D.D.D.D.S.S.L.P.P.j.W.Y.9 f a.d.W.Y.9 9             +X+X+X+X            ",
"9 E.).'.'.'.'.'.'.'.'.'.'.'.'.'.(.|.%X$X}._.T.d d.j.B.m.r.t.r.G.n.B.j.j.j.V.W.e f 2 S.U.c d 9 9             +X+X+X+X            ",
"9 E.).'.'.'.'.'.'.'.'.'.'.'.'.'.(.|.%X$X}._.T.9 W.W.W.1 =.>.>.0.b W.W.Q.W.W.T.s a.S.K.K.S.d.W.Y.9 9                             ",
"9 E.).'.'.'.'.'.'.'.'.'.'.'.'.'.(.|.%X$X}._.T.e f d T.a 4.5.5.9.r 8 3 & & 5 9 g S.I.L.L.P.B.W.Y.9 9                             ",
"9 E.).'.'.'.'.'.'.'.'.'.'.'.'.'.(.|.%X&X}._.T.g a.g.t 9 r r r r T.5 H m m o 6 g D.I.L.L.P.B.W.Y.Y.Y.9 9                         ",
"9 E.).(.'.'.'.'.'.'.'.'.'.'.'.'.(.|..X.X{._.T.g S.n.p = = = = = 3 @ m M M G 6 g D.I.L.L.P.j.W.e g d 9 9                         ",
"9 E.).'.'.'.'.'.'.'.'.'.'.'.'.'.'.'.}.}.'._.T.g D.v. .] ] ] ] R D B M M N G 6 g D.I.L.L.P.n.W.f a.h.W.Y.9 9                     ",
"9 E._.`.'.'.'.'.'.'.'.'.'.'.'.'.'.'.(.'.`.^.f 1 z.i.} _ [ _ ) L N M M n F X ; $.w.r.r.G.n.N.W.s S.U.c d 9 9                     ",
"    T.E.).'.'.'.'.'.'.'.'.'.'.'.'.'.'.`.E.f a.z...} [ [ [ ) N N M M N G 4 ; %.*.-.-.-.7.b W.T.g D.K.S.d.W.Y.9 9                 ",
"    Y.E.).(.'.'.'.'.'.'.'.'.'.'.'.'.(._.T.g S.v.../ [ _ ) L N M M M N G 8 > *.-.-.-.-.5.r 7 > $.S.I.P.U.c d 9 9                 ",
"    9 E.).'.'.'.'.'.'.'.'.'.'.'.'.'.'._.T.g D.v...[ [ ) N N M M M M M G 6 > &.-.-.-.-.5.r a %.=.H.I.L.K.S.d.W.Y.9 9             ",
"    9 E._.`.(.'.'.'.'.'.'.'.'.'.'.'.`.^.f 1 z.i.| _ ) L N M M M M n F . 8 > &.-.-.=.0.9., #.*.<.y.t.K.L.I.U.c d 9 9             ",
"        T.E.).'.'.'.'.'.'.'.'.(.'.`.E.f a.z.o.| [ ) N N M M M M M F & 6 Y.> *.-.-.7.z , %.*.-.-.-.1.H.L.L.K.S.d.W.Y.9 9         ",
"        9 y _.`.'.'.'.'.(.'.`._._.^.f 1 z.i.| / ) L N M M M M n F X a l 9 a 4.:.-.5.r > *.-.-.-.-.,.H.L.L.L.I.U.c d 9 9         ",
"            T.E.).(.(.(.'.`.E.T.T.f a.z.o.| [ ) N N M M M M M F & a a.h.W.9 r , *.7.r > &.-.-.-.-.,.H.L.L.L.L.K.S.d.W.Y.9 9     ",
"            9 R.]._._._.`.^.f s g 1 z.i.| / ) L N M M M M n F X a x h.M.p = = : 4.9., #.*.-.-.-.-.,.y.t.L.L.L.L.I.U.c d 9 9     ",
"            9 9 T.T.T.T.R.f a.F.S.z.o.| [ ) N N M M M M M F & a a.h.[.p E ] ] Q j , %.*.-.-.-.-.-.-.-.1.H.I.L.L.L.K.S.d.W.Y.9 9 ",
"            9 9 9 e g g g 1 l.c.c.u.{ ( ) L N M M n G G G X a x h.M.k # ] [ _ ~ w > *.-.-.-.-.-.-.-.-.,.y.t.L.L.L.L.I.U.c d 9 9 ",
"                Y.g a.S.S.p.U D K D N N N N M M N G 4 6 6 a a.h.[.p E ] [ [ [ ~ w > *.-.-.-.-.-.-.-.-.-.-.2.H.L.L.L.L.K.S.h.t 9 ",
"                9 g h.n.j.f.T C o o G G G G G G G X a g g x h.M.k # ] [ [ [ [ ~ w a 3.:.-.-.-.-.-.-.-.-.-.,.H.L.L.L.L.K.n.V.W.9 ",
"                    W.W.W.W.w 6 6 6 6 6 6 6 6 6 6 a a.S.S.h.[.k E ] [ _ _ [ [ ~ w 9 r , *.-.-.-.-.-.-.-.-.,.H.L.L.L.P.U.[.W.T.9 ",
"                    8 9 9 e g g g g g g g g g g g 2 h.n.v.b.p # ] ] ~ ~ ~ ~ [ ~ * = = : 4.5.5.:.-.-.-.-.-.,.y.t.L.K.U.N.W.9 9 9 ",
"                        Y.g a.S.S.S.S.D.D.F.F.S.S.h.[.p  ...] ] _ ~ q w w * ] [ ] ] ] Q j r r < *.-.-.-.-.-.-.1.J.n.[.W.9 9     ",
"                        9 g h.n.B.m.r.r.r.r.r.G.U.M.p # ] _ ) I ~ +.w w u $ ] [ [ [ _ ~ w Y.Y.a 4.5.5.5.5.5.5.8.j.V.W.9 9 7     ",
"                            W.W.W.x =.>.-.-.>.0.b p E ] [ ) N H q w Y.u E ] [ _ [ [ [ ~ w Y.Y.9 r r r r r r r r W.W.T.9         ",
"                            8 9 Y.a 3.5.5.5.5.9.p # ] [ ) P H . 8 w u $ ] _ [ [ [ [ [ ~ * = - - = = = = = = = u 9 9 9 7         ",
"                                Y.9 r r r r r p E ] [ ) N H 4 8 Y.u E ] [ [ [ [ [ [ [ [ ] ] ] ] ] ] ] ] ] ] ] Q w 9             ",
"                                i = = u 9 w u $ ] _ ) P H . 8 w u $ ] _ [ [ [ [ [ [ [ [ [ [ [ [ [ [ [ [ [ [ _ ~ w 9             ",
"                            T.i E ] ] Q w u E ] [ ) N H 4 8 9 u E ] [ _ [ [ [ [ [ [ [ [ [ [ [ [ [ [ [ [ [ [ [ ~ w Y.9 e         ",
"                            i $ ] ] ~ @.- $ ] _ ) P H . 8 w 5 % ] _ [ [ [ [ [ [ [ _ ) ) ) ) [ ] ~ ~ ~ ~ [ [ [ W h d 9 9         ",
"                        T.i E ] _ ~ q - E ] [ ) N H 4 8 Y.3 H V ( [ [ [ [ [ [ [ [ ) N N N A / ~ q w w * ] _ /  .q.g.W.9         ",
"                        Y.= R I ~ @.* $ ] _ ) P H . 8 w 3 @ m N I ) ) ) ) ) [ [ [ ) Z B G H ! +.w 9 9 i Q W ` X.G.B.W.9         ",
"                        Y.3 B H q * E ] [ ) N H 4 6 9 3 H B M N N N N N N Z ) [ [ [ / ! 5 6 w w         w h c.G.L.B.W.9         ",
"                        9 3 G . 8 i R ) ) P H . 8 9 9 3 G F M M M M M M M N L ) [ ] ~ +.w 9 9 9         T.g F.I.P.B.W.9         ",
"                            0 6 T.3 B N N H 4 8 9 9     0 O B M M M M M M M N Z / ~ q w 9 9             T.s D.I.P.B.W.9         ",
"                            9 9 9 3 G G G . 6 9 9 7     9 3 Y F M M M M M M M N S ! w 9 9 7             T.s w.t.L.B.W.9         ",
"                                    0 0 0 6 9 9             8 + m M N N M N M M N G 6 9                 T.> =.1.J.j.W.9         ",
"                                    9 9 9 9 8 7             9 3 o G G G G F M M N G 6 9                 T.> 4.8.j.M.t 8         ",
"                                                                0 0 0 0 6 + m M M G 0 T.T.T.T.T.            z r t t             ",
"                                                                9 9 9 9 T.3 m M M F O 3 s g g f             e 9 9 7             ",
"                                                                        T.3 m M M M m J p.F.S.h.~.T.!.T.                        ",
"                                                                        T.5 o F M M M K w.t.t.c.< > > >                         ",
"                                                                        T.9 w + m N M K *.>.-.-.*.*.*.6.z e                     ",
"                                                                        9 9 9 3 Y G o T 4.5.5.5.5.5.5.9.r 7                     ",
"                                                                                0 0 6 0 r r r r r r r r                         ",
"                                                                                T.T.T.T.9 9 9 9 Y.Y.Y.9                         "
};
