/* XPM */
static char *_a3920f94b5e4a8bdeec84ebb9690770AwIwzu90WY73XnX6[] = {
/* columns rows colors chars-per-pixel */
"64 64 198 2 ",
"   c None",
".  c #7F251F",
"X  c #7F2522",
"o  c #792728",
"O  c #74282F",
"+  c #7A2A27",
"@  c #5F3D5E",
"#  c #603C5D",
"$  c #683A54",
"%  c #793958",
"&  c #5D3E63",
"*  c #533F6E",
"=  c #6E3D65",
"-  c #663F6A",
";  c #683F69",
":  c #643E60",
">  c #6A4E56",
",  c #674F5F",
"<  c #784C55",
"1  c #6A525D",
"2  c #765A5B",
"3  c #795C5A",
"4  c #74525C",
"5  c #7C675A",
"6  c #5C4165",
"7  c #55416E",
"8  c #59426A",
"9  c #58486D",
"0  c #56496D",
"q  c #4F4476",
"w  c #4C467C",
"e  c #4D497D",
"r  c #4D4976",
"t  c #504475",
"y  c #53467A",
"u  c #514B7B",
"i  c #584875",
"p  c #5F5176",
"a  c #5B527C",
"s  c #57507D",
"d  c #64416D",
"f  c #68446E",
"g  c #754B6B",
"h  c #655164",
"j  c #665A67",
"k  c #6A5B66",
"l  c #63576E",
"z  c #655A6A",
"x  c #685966",
"c  c #624672",
"v  c #615C71",
"b  c #66587A",
"n  c #75567A",
"m  c #75656B",
"M  c #76686B",
"N  c #786161",
"B  c #6C607B",
"V  c #8F1D09",
"C  c #8F1B07",
"Z  c #931A01",
"A  c #9B1A04",
"S  c #911D09",
"D  c #A21A07",
"F  c #A11A09",
"G  c #852015",
"H  c #8D2013",
"J  c #82221A",
"K  c #8B211B",
"L  c #972710",
"P  c #BC2017",
"I  c #BC211A",
"U  c #802520",
"Y  c #8D3225",
"T  c #AD282E",
"R  c #BB2422",
"E  c #BC252B",
"W  c #B73B2A",
"Q  c #AC2932",
"!  c #AA2C3A",
"~  c #B72731",
"^  c #B32934",
"/  c #B6383D",
"(  c #C91F1E",
")  c #C71F1C",
"_  c #C4211C",
"`  c #CD201F",
"'  c #CD3519",
"]  c #CC1F20",
"[  c #C42326",
"{  c #CC2121",
"}  c #CF2E27",
"|  c #D12F27",
" . c #D12F29",
".. c #CA3624",
"X. c #D23027",
"o. c #CE4928",
"O. c #D5402E",
"+. c #DE7D28",
"@. c #9B3146",
"#. c #835C43",
"$. c #80644D",
"%. c #DD860A",
"&. c #DD880B",
"*. c #EB8F05",
"=. c #F38507",
"-. c #ED9104",
";. c #EF960A",
":. c #FB9A01",
">. c #F69708",
",. c #E2911B",
"<. c #EA9A10",
"1. c #EB9619",
"2. c #FDA005",
"3. c #F7A10C",
"4. c #F8A10B",
"5. c #F9A612",
"6. c #F7A613",
"7. c #CF8626",
"8. c #D18625",
"9. c #DD8F23",
"0. c #DE9224",
"q. c #C4853D",
"w. c #C88838",
"e. c #E09222",
"r. c #E09925",
"t. c #E5B63D",
"y. c #F3BF3F",
"u. c #FBC73D",
"i. c #FAC83D",
"p. c #F7C237",
"a. c #EF9D4A",
"s. c #D9B445",
"d. c #D7B246",
"f. c #CFAF5D",
"g. c #D8AB5A",
"h. c #CFB15C",
"j. c #D0B15C",
"k. c #DEBE5F",
"l. c #DFB655",
"z. c #DDA942",
"x. c #EEA642",
"c. c #E7A947",
"v. c #E5B745",
"b. c #E0A75B",
"n. c #E2BD5D",
"m. c #E4BF57",
"M. c #F3B74B",
"N. c #C8AC6F",
"B. c #DFBD60",
"V. c #C7AC70",
"C. c #DBA760",
"Z. c #E1BD60",
"A. c #E7C146",
"S. c #E9C246",
"D. c #E7C048",
"F. c #F6CA43",
"G. c #F9CD45",
"H. c #F6CD4A",
"J. c #F9CF49",
"K. c #F4C443",
"L. c #FBD147",
"P. c #FAD049",
"I. c #E3C05A",
"U. c #4B4780",
"Y. c #4C4B82",
"T. c #474F80",
"R. c #514C81",
"E. c #4B5283",
"W. c #5C5581",
"Q. c #5C5983",
"!. c #675886",
"~. c #5A698F",
"^. c #516E93",
"/. c #596A90",
"(. c #4E7696",
"). c #4F7B9A",
"_. c #4E7799",
"`. c #527396",
"'. c #527498",
"]. c #507B9A",
"[. c #4F6E93",
"{. c #6A6586",
"}. c #5E87A3",
"|. c #638AA4",
" X c #6A89A3",
".X c #D8D5DE",
"XX c #D1DAE4",
"oX c #D5E1E7",
"OX c #DDE4E6",
"+X c #C1F2EF",
"@X c #C0F2EE",
"#X c #C2F2EE",
"$X c #C5F1ED",
"%X c #C0F2F0",
"&X c #E6EFF2",
"*X c #EDF1F1",
"=X c #E7F0F3",
"-X c #EDEDEF",
/* pixels */
"                            e U.U.U.U.U.U.U.U.U.Y.e                                                         @X@X@X@X            ",
"                            ; ; d d d d 6 6 6 6 6 6                                                         @X@X@X@X            ",
"                    e e U.; E [ [ [ [ R S V V V V U q Y.e e                                             @X@X%X@X@X@X@X@X        ",
"                    x z z < [ ` { { { _ D A Z Z Z G @ 6 6 6                                             @X@X@X@X@X@X@X@X        ",
"                U.k s.S.S.c. .( ] ] { { _ P A Z Z Z V V V U t e                                     @X@X@X@X@X@X@X@X@X@X@X@X    ",
"                e l h.Z.B.g.o.' ....{ { { _ F A A A Z Z Z G @ 6                                     @X@X@X@X@X@X@X@X@X@X@X@X    ",
"        e e e e e e a W.W.m t.y.K.x.| ( { { _ ) _ P A Z Z Z V X t e                                 @X@X@X@X@X@X@X@X@X@X@X@X    ",
"        e e e e E.E.E.T.T.v j.n.k.g.o...{ { { { { _ F A Z Z Z G # 6                                 $X@X@X@X@X@X@X@X@X@X@X$X    ",
"        e e e T.(.(.(.(.(.`.Q.W.W.m t.x. .] { { { { ( I A Z Z Z V U t e                                 @X@X@X@X@X@X@X@X        ",
"        e e E.E.(.].].].].'.E.T.T.v j.b.o...{ { { { { _ F A Z Z Z G @ 6                                 $X$X@X@X@X@X$X$X        ",
"    e e e T.(.(.).].].].].).(.(._.`.Q.m t.x. .( { { { { _ P A Z Z Z V U t e                 @X@X@X@X        @X@X@X@X            ",
"    e Y.T.E.(.].].].].].).]. X X].'.E.v h.g.o...{ { { { { _ F A Z Z Z J t e                 @X@X@X@X        $X@X$X$X            ",
"    e T.(.(.).].].].].).). XOXoX|.).(.`.Q.m v.x.X.` { { { { ( I A Z A J t e                 @X@X@X@X                            ",
"    e E.(.].].].].].].).). XoXoX|.).].`.T.l h.C./ ^ ^ ~ { { { R J J J O t e                 $X@X@X$X                            ",
"e e U.E.(.].].].].].].].).].|.}.].].).`.Y.e a W.y y y = [ ` ` ^ 7 q q w e U.e e                                                 ",
"e Y.T.E.(.].].].].].].].].].).).).]. X XE.T.e u z l e d ! ^ ^ @.y u z z z l e e                                                 ",
"e T.(.(.].].].].].].].].].].].].). XOXoX}.[.Y.z s.j.W.e y y y y U.z d.S.S.f.W.U.e Y.e U.e e                                     ",
"e E.(.].].].].].].].].].].].].].). X*X=X|.`.Y.j S.I.M j z z z z z 5 S.P.L.B.W.U.e u z l e e                                     ",
"e E.(.].].].].].].].].].].].].].). X*X&X|.`.Y.j S.J.S.S.D.D.D.A.S.S.J.L.L.k.W.U.e z s.f.W.U.e e                                 ",
"e E.(.].].].].].].].).].'.`.`.'.). X*X&X|.`.Y.l f.k.B.m.u.u.u.K.n.B.k.k.k.V.W.u z 5 S.I.M l e e                                 ",
"e E.(.].].].].].].].].'.E.Y.Y.E.(. X*X&X|.`.Y.e W.W.W.5 ;.2.2.r.B W.W.Q.W.W.Y.j s.S.H.H.S.f.W.U.e e                             ",
"e E.(.].].].].].].].'./.f ; ; c ^. X*X&X|.`.Y.u z l Y.h 8.9.9.q.a w 6 & & 8 e z S.P.J.J.L.B.W.U.e e                             ",
"e E.(.].].].].).].'.E.f E [ [ ! u {.-X=X|.`.Y.z s.h.a e a a a a Y.8 H V V X q j A.P.J.J.L.B.W.U.U.U.e e                         ",
"e E.(.).].].].].].'.Y.; R _ ` ~ = n .XXX}.`.Y.z S.n.g ; ; ; ; ; 6 $ V Z Z J q z A.P.J.J.L.k.W.u z l e e                         ",
"e E.(.].].].].].).`.Y.6 S F _ { [ ! !.~.].`.Y.z A.M...[ [ [ [ R S S Z Z A J q z D.P.J.J.L.n.W.z s.j.W.U.e e                     ",
"e E.`.'.].].].].).`.Y.6 V A P _ ` ^ y T.^./.z 5 c.a.| ` { { _ P A Z Z C G + > $.t.u.u.K.n.V.W.j S.I.M l e e                     ",
"    Y.E.(.].].].).`.Y.& V Z A F ` ^ y U.T.z s.c.X.| { { { _ A A Z Z A J 7 > %.-.:.:.:.0.B W.Y.z A.H.S.f.W.U.e e                 ",
"    U.E.(.).].].).'.E.9 X G Z A ( ~ = d e v j.b. .( { ` _ P Z Z Z Z A J w 1 -.:.:.:.:.9.a r , $.S.P.L.I.M l e e                 ",
"    U.E.(.].].].].].(.^.u # V A _ { [ ! y Y.W.g [ ` { _ A A Z Z Z Z Z J q 1 *.:.:.:.:.9.a h %.<.F.P.J.H.S.f.W.U.e e             ",
"    & 9 ^.'.).].].].].'.E.9 X K I _ ` ~ = d e d ! ^ ^ T Z Z Z Z Z C G O w 1 *.:.:.>.e.w.2 #.-.4.p.u.H.J.P.I.M l e e             ",
"Y.6 H X u E.(.].].].].]._.^.u # S D _ { [ ! y e y y y : S A Z Z Z G * q U.1 *.:.:.e.b 3 &.-.:.:.:.5.F.J.J.H.S.f.W.U.e e         ",
"U.6 S J q T.^.'.].].].].].'.E.0 X K I _ ` ~ = ; ; d e 8 X G Z S J + h v Y.1 *.>.e.q.s 1 -.:.:.:.:.3.F.J.J.J.P.I.M l e e         ",
"U.6 S J y Y.Y.E.(.).).).).).).^.u # S D _ { [ [ [ ! y e y # V G * x s.h.W.1 -.,.b a U.1 *.:.:.:.:.3.F.J.J.J.J.H.S.f.W.U.e e     ",
"U.6 V G # 8 w T.^.`.`.`.`.`.'.^.Y.8 X K I _ ` { ` ~ = d e 8 U O w z S.n.W.h 8.q.a r h #.-.:.:.:.:.3.p.u.J.J.J.J.P.I.M l e e     ",
"U.6 V Z V X q Y.Y.Y.Y.Y.Y.Y.Y.Y.U.e w # S D _ { { { [ ! y e q w U.z S.n.W.e a a Y.1 %.-.:.:.:.:.:.:.:.5.F.P.J.J.J.H.S.f.W.U.e e ",
"e 6 U G Z G # 8 e u z x z z 6 & 6 6 6 $ . K I _ ` { ` ~ = d ; d - 4 j.N.W.y ; d e 1 -.:.:.:.:.:.:.:.:.4.p.u.J.J.J.J.P.I.M l e e ",
"    t # S Z S X w z s.S.S.z.L V S S S . 7 # S D ) ` { { [ [ [ [ [ ! b W.U.d E ! y 1 -.:.:.:.:.:.:.:.:.:.:.6.F.J.J.J.J.H.S.j.a e ",
"    e 6 J J J o @ 4 j.B.k.g.Y J J J J O w 8 X K Q ~ { ` { { { { ` ~ = ; d % [ ^ y h 7.,.:.:.:.:.:.:.:.:.:.3.F.J.J.J.J.H.n.V.W.e ",
"        t t q @ H U p Q.W.W.y q q q q w e e q t y = [ ` { { { { { { [ [ [ [ { ^ y e s 3 -.:.:.:.:.:.:.:.:.3.F.J.J.J.L.I.{.W.Y.e ",
"        e e Y.8 U o @ 7 e u z z z z z z j z z z z 4 ! ^ ^ ~ { { { { ` { { { ` ~ = ; ; < 8.9.9.,.:.:.:.:.:.4.p.u.J.H.I.N.W.e e e ",
"            e e w @ H X w z s.S.S.S.S.A.D.D.D.D.S.f.b y y = [ ` { { { { { { { { [ [ [ ! c a a 3 -.:.:.:.:.:.:.5.G.n.{.W.e e     ",
"            e e U.6 V G @ 4 j.B.B.m.u.u.u.u.u.u.u.v.3 1 1 < ! ~ { { { { { { { { { { ` ^ y U.U.h 8.9.9.,.:.:.:.3.m.V.W.e e r     ",
"                U.6 V Z V U p Q.W.N ;.2.:.:.:.2.2.:.-.-.-.8.p = [ { { { { { { { { { { ^ y U.U.e a a a 3 -.:.:.e.b W.Y.e         ",
"                e 6 U G Z G @ 6 & < 7.9.9.9.9.9.9.9.9.,.=.+.g % [ { { { { { { { { { { ~ = ; ; ; ; d U.h 8.9.9.w.a w e r         ",
"                    t @ S Z S V S J p a a a a a a a a g } } [ [ { { { { { { { { { { { { [ [ [ [ [ ! y e a a a a                 ",
"                    e 6 J J J J J o & 6 6 6 6 6 6 6 6 % I _ ` { { { { { { { { { { { { { { { { { ` ~ = d ; d e e                 ",
"                        t t t t q & H V V V V V V V V S Z F _ { { { { { { { { { { { { { { { { { { { [ [ [ ! y U.e u             ",
"                        e e e e e 6 U J J G Z Z Z Z Z Z Z A P _ { { { { { { { { { ` _ _ _ _ { { { { ` ` ` ~ = d e e             ",
"                                    t q q @ S Z Z Z Z Z Z Z A F ( { { { { { { { { _ A A A D ( { ` ` { ` { { [ ! y U.Y.Y.R.u     ",
"                                    e e e 6 J J J J J G Z Z Z A I _ _ _ _ _ { { { _ F S J K Q ^ ^ ~ { ` { ` ' W k z z l e e     ",
"                                            t t t t q # S A Z A A Z Z Z Z F _ { { { ) T 7 q y y y = [ ` ` ' =.;.v.D.S.f.W.U.u R.",
"                                            e e e e e 6 J G Z Z Z Z Z Z Z A P _ { { { ^ y U.Y.e e d ! ^ Q W 8.r.p.u.L.I.m l e Y.",
"                                                        t @ S Z Z Z Z Z Z Z A F _ { { ^ y U.e e     i y y y a 3 ;.5.F.H.S.h.W.e ",
"                                                        e 6 U G Z Z Z Z Z Z Z A P _ ` ~ = d e e     u e e e e 1 8.r.p.u.u.l.W.e ",
"                                                            w # V Z A A A A Z Z A F _ { [ ! y e                 a 3 ;.:.:.0.a e ",
"                                                            e 6 . J J J J G Z Z Z A P _ _ Q y e                 Y.1 8.9.9.q.a e ",
"                                                                t t t t y # V Z Z A A A A J q U.Y.Y.Y.Y.R.u         b a a a e e ",
"                                                                e e e e e 8 X J J J J J J + > 1 1 1 1 h e e         R.w e e e e ",
"                                                                        e e t t t t t t q > %.-.-.-.-.7.a U.Y.R.R.u             ",
"                                                                        e e e e e e Y.Y.U.h 8.0.0.,.:.,.3 1 1 h e e             ",
"                                                                                    e e e u a a a 3 -.:.-.-.-.8.a e             ",
"                                                                                    e e e e e e U.h 7.9.9.9.0.q.a e             ",
"                                                                                                Y.e a a a a a a e e             ",
"                                                                                                R.Y.e e U.U.U.e e e             "
};
