/* XPM */
static char *_34c8f820ab04b29efa27af2bdbea69dro6CveIL7Mhv5Ft4[] = {
/* columns rows colors chars-per-pixel */
"64 64 199 2 ",
"   c None",
".  c #7F241F",
"X  c #76282C",
"o  c #7B2626",
"O  c #5F3C5E",
"+  c #693A52",
"@  c #623C5C",
"#  c #7C3859",
"$  c #7D3759",
"%  c #5C3F65",
"&  c #5C3F68",
"*  c #6D3D65",
"=  c #663F6B",
"-  c #683F6A",
";  c #603F63",
":  c #764A53",
">  c #6B525D",
",  c #76585B",
"<  c #714A4F",
"1  c #7C6A5A",
"2  c #7B645B",
"3  c #5D4065",
"4  c #53416D",
"5  c #5A416A",
"6  c #4F4476",
"7  c #4C477D",
"8  c #4D497E",
"9  c #504575",
"0  c #53457A",
"q  c #514B79",
"w  c #594F7D",
"e  c #5C4772",
"r  c #5B527C",
"t  c #5F5177",
"y  c #65406C",
"u  c #694965",
"i  c #744C6D",
"p  c #655266",
"a  c #665967",
"s  c #64576B",
"d  c #655A6A",
"f  c #695C69",
"g  c #6B5765",
"h  c #614F75",
"j  c #615C71",
"k  c #695B76",
"l  c #74656B",
"z  c #76686B",
"x  c #796060",
"c  c #6C607C",
"v  c #8F1B06",
"b  c #8F1D09",
"n  c #931A01",
"m  c #9A1A04",
"M  c #921D0A",
"N  c #9B1C0B",
"B  c #811F19",
"V  c #A31A09",
"C  c #A11A07",
"Z  c #9F2B0A",
"A  c #852116",
"S  c #8C2112",
"D  c #81221A",
"F  c #8D211A",
"G  c #8B2D1F",
"H  c #BC2117",
"J  c #BC221B",
"K  c #A32E08",
"L  c #812621",
"P  c #802822",
"I  c #8B3823",
"U  c #BD2322",
"Y  c #BC262C",
"T  c #B62A2F",
"R  c #AB2A34",
"E  c #AB2C3A",
"W  c #B72730",
"Q  c #B22934",
"!  c #B1312D",
"~  c #C41F1B",
"^  c #CA1E1E",
"/  c #C3211C",
"(  c #CC211F",
")  c #CA391F",
"_  c #C1371D",
"`  c #D03516",
"'  c #CC1E20",
"]  c #C42326",
"[  c #CC2121",
"{  c #C42328",
"}  c #D12F28",
"|  c #D22F27",
" . c #CB3622",
".. c #CA3A20",
"X. c #C7372A",
"o. c #D23027",
"O. c #A64213",
"+. c #B24036",
"@. c #CE4929",
"#. c #C85126",
"$. c #D17F29",
"%. c #9B3146",
"&. c #EB8F05",
"*. c #ED9104",
"=. c #EE960A",
"-. c #FD9C03",
";. c #F89908",
":. c #F08C0D",
">. c #FEA004",
",. c #FDA30B",
"<. c #F7A412",
"1. c #D18624",
"2. c #DD8F22",
"3. c #D38923",
"4. c #DE9323",
"5. c #DE9328",
"6. c #C4853D",
"7. c #CA8439",
"8. c #CF8626",
"9. c #E19424",
"0. c #DDB23E",
"q. c #E7AD3A",
"w. c #E3B33E",
"e. c #EBBA3A",
"r. c #EBB038",
"t. c #F4BC3A",
"y. c #F4AE3F",
"u. c #FBC73D",
"i. c #FBC83C",
"p. c #F6C139",
"a. c #F09E4A",
"s. c #D7B246",
"d. c #DAB344",
"f. c #CFAF5C",
"g. c #DDAA59",
"h. c #D3AD58",
"j. c #CFB15D",
"k. c #DBB256",
"l. c #D2B15B",
"z. c #DEBD5E",
"x. c #D9B259",
"c. c #EEA641",
"v. c #E4A84A",
"b. c #E7BE44",
"n. c #E7B648",
"m. c #F2BC44",
"M. c #E1BE5E",
"N. c #E2BA56",
"B. c #CBAD6D",
"V. c #C7AF6F",
"C. c #CEB16B",
"Z. c #DEBD60",
"A. c #C8AE70",
"S. c #E0BD60",
"D. c #EAC246",
"F. c #E7C048",
"G. c #E8C148",
"H. c #E7C246",
"J. c #F3C443",
"K. c #F9CE46",
"L. c #F7CD49",
"P. c #F9CF49",
"I. c #F7C943",
"U. c #FAD047",
"Y. c #FAD048",
"T. c #E4C059",
"R. c #4B4781",
"E. c #4C4B81",
"W. c #474F83",
"Q. c #4B5383",
"!. c #4A5885",
"~. c #5C5681",
"^. c #5B5A83",
"/. c #525585",
"(. c #504E81",
"). c #615982",
"_. c #526E95",
"`. c #4D7696",
"'. c #4F7B99",
"]. c #4F7B9A",
"[. c #4E7798",
"{. c #527396",
"}. c #527498",
"|. c #507B9A",
" X c #507A99",
".X c #517C9A",
"XX c #507B9A",
"oX c #6B6382",
"OX c #65859F",
"+X c #5F88A4",
"@X c #6389A4",
"#X c #698CA4",
"$X c #6586A0",
"%X c #D4E1E7",
"&X c #DDE3E6",
"*X c #E6EFF2",
"=X c #EEF1F1",
"-X c #E7F0F3",
";X c #F0F2F2",
/* pixels */
"                                                                            R.R.E.E.E.E.E.E.E.E.E.8                             ",
"                                                                            3 3 3 3 3 3 y y y y = y                             ",
"                                                                    8 8 E.3 S b b b b M U ] ] ] ] R 0 R.7                       ",
"                                                                    3 3 3 + M n n n m V ^ [ [ [ ( T g f f f                     ",
"                                                                R.; S b b b n n n m ~ / [ [ ' ' ^ ..w.G.G.x.).                  ",
"                                                                3 + M n n n m m m V / [ [ ( ) ....#.k.Z.M.V.~.8                 ",
"                                                            8 3 S M n n n m ~ ~ ~ / [ [ ' ) r.m.t.k.oX~.~.~.R.7 8 8 8           ",
"                                                            3 + b n n n m V ~ [ [ [ [ [ ) #.x.z.z.V.^.E.E.Q.Q.E.R.8 8 8         ",
"                                                        R.; S M n n n m ~ ^ [ [ [ [ ' ) r.k.oX~.~.^.`.[.[.[.[._.E.8 8 8         ",
"                                                        3 + M n n n m V ( [ [ [ [ ( ) #.x.V.^.E.E.Q.[.XX|.|.XX{.Q.E.8 8         ",
"                                                    8 ; S M n n n m ~ ~ [ [ [ [ ' ) r.k.oX^.`.[.[.[.].|.|.|.|.].[._.E.7 8       ",
"                                                    8 3 b n n n m V ~ [ [ [ [ [ ) #.k.V.^.Q.[..X@X@XXX].|.|.|.|.XX{.Q.E.8 8     ",
"                                                    8 3 M n n m ~ ^ [ [ [ [ [ ) r.k.oX^.`.[.].@X&X%X@X].|.|.|.|.|.|.[._.E.8     ",
"                                                    8 5 o D D F ] [ [ ] Q Q Q +.h.A.~.E.[.XX].@X%X%X@X].|.|.|.|.|.|.XX}.E.8     ",
"                                                8 8 R.7 6 6 6 * ] ( ( W e 0 0 0 r ~.R.E.[.].|.XX@X@X.X|.|.|.|.|.|.|.XX{.E.7 8 8 ",
"                                                R.q f f f j R.y E Q Q %.0 q f s 8 8 E.!.OX@XXX].].].|.|.|.|.|.|.|.|.XX{.Q.E.R.R.",
"                                    8 8 R.7 8 8 R.f s.G.G.f.~.7 0 0 0 0 R.s d.l.~.E.`.$X&X%X@X].|.|.|.|.|.|.|.|.|.|.|.|.[._.E.8 ",
"                                    8 q f s 8 8 R.f G.U.U.T.z a f f f f f 1 D.S.~.E.[.#X=X-X@X].|.|.|.|.|.|.|.|.|.|.|.|.].{.E.8 ",
"                                8 8 R.s d.j.r 7 R.f G.U.U.K.G.G.H.H.H.H.G.G.K.z.~.E.[.#X=X*X@X].|.|.|.|.|.|.|.|.|.|.|.|.].{.(.8 ",
"                                R.q s 1 D.T.z s 8 s f.z.Z.z.Z.N.u.u.i.I.M.Z.z.V.~.E.[.#X=X*X@X].|.|.|.|.|.|.|.|.|.|.|.|.].{.E.8 ",
"                            8 8 R.f s.G.L.L.G.f.r 8 ~.^.~.~.~.2 =.>.>.9.c ~.~.~.8 Q.[.#X=X*X@X].|.|.|.|.|.|.|.|.|.|.|.|.].{.(.8 ",
"                            8 8 R.f G.U.P.P.Y.Z.^.6 3 % % 5 7 p 8.2.2.6.w 8 f s 8 Q.[.#X=X*X@X].|.|.|.|.|.|.|.|.|.|.|.|.].{.E.8 ",
"                        8 8 R.R.R.f b.U.P.P.U.z.~.3 S b b o 6 8 r r r r 8 s d.l.~.E.[.#X;X-X@X].|.|.|.|.|.|.|.|.|.|.|.|.].{.E.8 ",
"                        R.q f s 8 f b.U.P.P.U.z.~.% b n n A @ 3 = = = = = , D.M.~.E.[.@X%X%X+X].|.|.|.|.|.|.|.|.|.|.|.|.].{.E.8 ",
"                    8 8 R.s d.l.~.a G.U.P.P.U.Z.^.% M n n n b N U ] ] ] ] ..J.z.~.W.[.XX@X@XXX|.|.|.|.|.|.|.|.|.|.|.|.|.XX{.E.8 ",
"                    8 q s 1 D.S.~.s f.N.u.u.i.n.2 < L A n n n m H / ( [ '  .c.g.z j {.}.].].|.|.|.|.|.|.|.|.|.|.|.|.|.|.{._.E.R.",
"                8 8 R.s s.G.K.z.~.R.~.x =.-.-.;.*.1.t O b n n n n C / [ [ [ | @.n.j.^.Q.[.|.|.|.|.|.|.|.|.|.|.|.|.|.|.}./.E.    ",
"                R.q s 1 G.U.U.N.2 p 8 > &.-.-.-.-.2.r & M n n n n m H / [ [ ^ ..m.z.~.E.[.].|.|.|.|.|.|.|.|.|.|.|.|.].{.E.R.    ",
"            8 8 R.s s.G.K.P.U.I.=.1.r > *.-.-.-.-.4.r % b n n n n n n C / [ ' ..p.z.~.E.[.XX|.|.|.|.|.|.|.|.|.|.|.|.XX{.E.8     ",
"            8 q s 1 G.P.P.P.u.p.-.2.r p 1.2.2.2.4.6.r 5 o A n n n n n m H / '  .c.g.z j {.{.].|.|.|.|.|.|.|.|.|.|.|.}._.q 8     ",
"        8 8 R.f d.D.K.U.U.i.,.-.-.2.r 8 r r r r r r 8 7 6 O b n n n n n n C / [ } @.w.l.^.Q.[.XXXX|.|.|.|.|.|.].XX}.Q.E.        ",
"        R.q f 2 l.M.z.z.Z.k.5.2.2.7.i = = = = = = y 8 q f > P A n n n n n m H / ^  .c.g.z j {.{.{.}.|.].|.|.|.|.{._.E.8         ",
"    8 8 R.s d.l.oX~.^.~.~.~.r r r i Y ] ] ] ] ] ] E 0 f d.l.r O b n n n n n n C / [ } @.w.j.^.E.E.Q.[.XX].].].{./.(.            ",
"    8 q s 2 l.B.i = = y a f f s y # ] ( [ [ [ [ ( Q 0 f G.T.z > L A n n n n n m H / ^  .c.g.z f a j {.}.{.{.{._.E.7             ",
"8 8 R.s d.l.oXi Y ] ] X.d.H.H.v.X.] [ [ [ [ [ [ [ Q 0 f G.K.G.f.r O b n n n n n n C / [ } @.n.G.G.j.^.E.E.E.E.E.8 8             ",
"8 q s 1 D.M.~.= ] [ ' ) t.u.i.y. ./ / / / U Q W [ Q 0 s f.T.P.T.z > L D D A n n n m H / ~ _ q.n.n.g.l f f s 8 8 8               ",
"R.f d.D.K.Z.^.= ] ( ' ` ;.>.>.:.K m m m m F e * ] Q 0 8 ~.z G.L.G.f.r 6 6 O b n n n m m m m Z Z Z O.0.G.D.l.~.7                 ",
"7 s j.T.P.Z.^.y E Q Q ! 1.2.2.$.G . D D D X 6 - ] W * y 7 a e.u.i.N.z f f > L D D D D D D D D D B I h.Z.M.C.).                  ",
"8 8 ~.z D.M.~.7 0 0 0 0 w r r w 9 6 9 9 6 6 8 y ] [ ] E 0 > =.-.-.<.b.H.H.f.t 6 6 6 6 6 6 6 6 6 6 9 ~.~.~.).                    ",
"8 8 R.s l.C.l a > > > > > > > p 8 R.R.0 y - y # ] [ ( W * : 1.2.2.5.p.u.i.n.z f f f f f f f f f f j 8 7 8                       ",
"    8 8 ~.l d.e.=.&.*.*.*.*.*.1.r 7 R.y Y ] ] ] [ [ [ [ ] E h r r , =.>.-.<.b.H.G.G.G.H.G.G.G.G.G.j.~.8                         ",
"    8 8 7 s j.n.;.-.-.;.9.2.2.6.r 7 E.- ] [ [ [ [ [ [ [ ( W * = = : 1.2.2.5.p.u.u.u.u.u.u.I.M.Z.z.B.i -                         ",
"        8 8 ~., *.-.-.9.k r r r R.E.E.y ] [ [ [ [ [ [ [ [ [ ] ] ] E h r r , =.-.-.-.-.-.>.9.c ~.^.i Y E 0 E.E.E.                ",
"        8 8 7 > 3.2.2.6.r 0 = = - - y # ] [ [ [ [ [ [ [ [ [ ( [ ( W * = % < 1.2.2.2.2.2.2.7.u % = $ ] W * y = -                 ",
"                r r r r E.y Y ] ] ] ] ] [ [ [ [ [ [ [ [ [ [ [ [ [ [ ] U M L t r r r r r r u S N U ] [ [ ] ] ] E 0 R.            ",
"                E.0 = = y # ] ( [ [ [ [ [ [ [ [ [ [ [ [ [ [ [ [ [ ( / H n A O % 3 3 3 3 3 @ L F J / / / [ [ [ T g f             ",
"            8 8 E.y Y ] ] ] [ ( [ [ [ [ [ [ [ [ [ [ [ [ [ [ [ [ [ / N n n n b b b b b b M D 4 @ M m m C ( [ ' ..w.l.~.R.8 8     ",
"            8 8 E.y E W [ [ [ [ [ [ / / / / [ [ [ [ [ [ [ [ [ [ / H n n n n n n n v A D D X 9 3 . D D F J / ..#.J.T.z s y -     ",
"    8 R.R.R.R.R.R.7 0 * ] [ [ [ ( / N n n C / [ [ [ [ [ [ [ [ / N n n n n n n n n A 4 9 6 9     9 9 9 @ M K q.J.K.P.D.v.X.R 0 R.",
"    8 q f f f a > p 8 = ] [ [ ] Q T N m m V / [ [ ( / / / / / H n n n v D D D D D X 6 R.8       8 8 R.3 D I h.Z.Z.N.m.a.o.Q 0 R.",
"8 8 R.s s.G.H.e.=.1.r - ] ( ( Q e * U ~ ~ ( [ [ [ / N n n n n n n n n A 4 9 9 9 9 6                     9 9 ~.~.^.i X.| [ Q 0 R.",
"8 q s 1 e.i.u.t.9.6.r y E Q Q %.0 y { [ / / / / / H n n n n n n n v D X 9 R.8 8 8                       8 8 7 8 E.= U / / R 0 8 ",
"R.s d.e.,.-.>.9.k w 8 R.0 0 0 0 E.y ] / N m m m m n n n n n n n n A 4 9                                         R.3 M m m D 6 R.",
"7 s l.N.5.2.2.6.w 8 f f f s 8 0 y # U H n n n n n v D D D D D D D X 6                                           R.3 L D D X 6 R.",
"8 8 ~.~.r r r r 8 s s.G.G.f.r = Y J N n n n n n n A 4 9 9 9 9 9 9 6                                                 9 9 9 6     ",
"8 q s f f f f f f 1 e.u.i.N.~.y E R D D D D D D D X 9 R.R.R.R.8 8                                                   R.8 8       ",
"R.f s.G.G.G.G.G.G.e.,.-.>.5.r 7 0 0 9 9 9 9 9 9 9 9                                                                             ",
"R.f G.K.u.u.i.I.M.k.5.2.2.6.r 8 8 8 8 8 8 8 8 8 8 8                                                                             ",
"R.f G.i.,.-.>.9.k ~.r r r r 8 8                                                                                                 ",
"R.s j.N.5.2.2.6.r 7 8 R.7 7 E.8                                                                                                 ",
"8 8 ~.~.r r r r 8 8                                                                                                             ",
"8 8 7 7 7 7 7 7 8 8                                                                                                             ",
"                                                                                                                                ",
"                                                                                                                                "
};
