/* XPM */
static char *c658afef74fa4d09c63986fe70943bb2llCWbWkSYJBsz0hl[] = {
/* columns rows colors chars-per-pixel */
"64 64 200 2 ",
"   c None",
".  c #7E2522",
"X  c #76282C",
"o  c #77272B",
"O  c #5E3B5E",
"+  c #693951",
"@  c #603D5D",
"#  c #7D3859",
"$  c #5C3F64",
"%  c #5C3F68",
"&  c #6C3D65",
"*  c #663F6B",
"=  c #683F6A",
"-  c #643E62",
";  c #74494D",
":  c #794A54",
">  c #6A525D",
",  c #67505F",
"<  c #77575A",
"1  c #7C6A5A",
"2  c #7A605F",
"3  c #5D4066",
"4  c #53416D",
"5  c #5A416A",
"6  c #4F4476",
"7  c #4C467D",
"8  c #4D497D",
"9  c #4F4B77",
"0  c #504575",
"q  c #53457A",
"w  c #514C7A",
"e  c #5A4E7B",
"r  c #584774",
"t  c #5B527C",
"y  c #5F557B",
"u  c #65416C",
"i  c #6A4569",
"p  c #734A6C",
"a  c #655265",
"s  c #665967",
"d  c #63576B",
"f  c #655A6A",
"g  c #695967",
"h  c #614F75",
"j  c #615D71",
"k  c #6B5A75",
"l  c #615776",
"z  c #74656B",
"x  c #76686B",
"c  c #796060",
"v  c #6C607C",
"b  c #8F1B06",
"n  c #8F1D09",
"m  c #931A01",
"M  c #9B1A04",
"N  c #911D09",
"B  c #981D0E",
"V  c #811F19",
"C  c #A31A09",
"Z  c #9E2C0A",
"A  c #9E2605",
"S  c #842116",
"D  c #8C2112",
"F  c #82221A",
"G  c #8C291D",
"H  c #8D311A",
"J  c #A22B02",
"K  c #BB2117",
"L  c #B92218",
"P  c #812621",
"I  c #802822",
"U  c #8A3722",
"Y  c #BB262C",
"T  c #BB2527",
"R  c #AA2C3A",
"E  c #AD2B36",
"W  c #B72730",
"Q  c #B22934",
"!  c #B03030",
"~  c #C41F1B",
"^  c #CB1E1E",
"/  c #C3211C",
"(  c #CC211F",
")  c #CA391F",
"_  c #C8341B",
"`  c #D03516",
"'  c #CC1E20",
"]  c #C42326",
"[  c #CC2121",
"{  c #D12E26",
"}  c #CB3622",
"|  c #CA3B20",
" . c #C43A28",
".. c #A64213",
"X. c #B24036",
"o. c #E27F0B",
"O. c #F17C0C",
"+. c #CE4929",
"@. c #C75127",
"#. c #D37F2A",
"$. c #9C3145",
"%. c #845B43",
"&. c #DE8809",
"*. c #E88B05",
"=. c #F08C04",
"-. c #ED9004",
";. c #EE960A",
":. c #FD9C03",
">. c #F69707",
",. c #FEA005",
"<. c #FFA40B",
"1. c #F7A412",
"2. c #D18524",
"3. c #DD8F23",
"4. c #D28427",
"5. c #DE9222",
"6. c #DE9228",
"7. c #C5863C",
"8. c #CA8439",
"9. c #CF8626",
"0. c #E19323",
"q. c #DDB23E",
"w. c #E8AC3A",
"e. c #E8B53B",
"r. c #F3BC3A",
"t. c #F4AE3F",
"y. c #F5C13A",
"u. c #FAC73D",
"i. c #FBC83C",
"p. c #FAC033",
"a. c #D7B246",
"s. c #DAB344",
"d. c #CFAF5C",
"f. c #DDAA59",
"g. c #D3AD58",
"h. c #CFB15D",
"j. c #DBB256",
"k. c #D2B15B",
"l. c #DEBD5E",
"z. c #DAB158",
"x. c #EEA641",
"c. c #E4A74A",
"v. c #E7BE44",
"b. c #E7B648",
"n. c #F2BF40",
"m. c #E0BE5E",
"M. c #E4BE57",
"N. c #C9AD6E",
"B. c #C7AF6F",
"V. c #CDB06B",
"C. c #DEBD60",
"Z. c #C8AE70",
"A. c #E0BD60",
"S. c #EAC246",
"D. c #E7C048",
"F. c #E8C048",
"G. c #E7C246",
"H. c #F9CE46",
"J. c #F7CD49",
"K. c #F9CF49",
"L. c #F5C643",
"P. c #FAD047",
"I. c #FAD048",
"U. c #E4C059",
"Y. c #4B4781",
"T. c #4C4B81",
"R. c #474F83",
"E. c #514C82",
"W. c #4B5383",
"Q. c #4A5885",
"!. c #5C5681",
"~. c #5B5A83",
"^. c #525484",
"/. c #526E94",
"(. c #4D7696",
"). c #4F7B9A",
"_. c #4E7798",
"`. c #527396",
"'. c #527498",
"]. c #507B9A",
"[. c #507A99",
"{. c #507B9A",
"}. c #6B6382",
"|. c #65859F",
" X c #5F88A4",
".X c #6389A4",
"XX c #698CA4",
"oX c #6586A0",
"OX c #D4E1E7",
"+X c #DDE3E6",
"@X c #C1F2EF",
"#X c #C0F2EE",
"$X c #C2F2ED",
"%X c #C4F1ED",
"&X c #C6F0EB",
"*X c #C0F2F0",
"=X c #E6EFF2",
"-X c #EEF1F1",
";X c #E7F0F3",
":X c #F0F2F2",
/* pixels */
"            #X#X#X%X                                                        T.T.T.T.T.T.T.T.T.T.T.7                             ",
"            #X#X#X%X                                                        3 3 3 3 3 3 * i i i * i                             ",
"        #X#X*X#X#X#X#X%X                                            8 T.T.3 D n n n n B T ] ] ] ] E q 7 7 7                     ",
"        #X#X#X#X#X#X#X#X                                            3 3 3 + N m m m M C ^ [ [ [ ^ W g f f g                     ",
"    #X#X#X#X#X#X#X#X#X#X#X%X                                    T.3 D n n n m m m M ~ / [ [ ' ' ^ | e.F.F.k.y 7                 ",
"    #X#X#X#X#X#X#X#X#X#X#X%X                                    3 + N m m m M M M C / [ [ ( ) | | @.j.C.m.B.!.7                 ",
"    #X#X#X#X#X#X#X#X#X#X#X%X                                8 3 D N m m m M ~ ^ ^ / [ [ ' ) w.n.r.j.}.!.!.!.T.7 8 8 8 8         ",
"    %X#X#X#X#X#X#X#X#X#X#X%X                                3 + n m m m M C ^ [ [ [ [ [ ) @.z.l.l.B.~.T.T.W.W.T.T.8 8 8         ",
"        #X#X#X#X#X#X#X%X                                T.3 D N m m m M ~ ^ [ [ [ [ ' ) w.j.}.!.!.~.(._._._._./.T.8 8 8         ",
"        #X%X#X#X#X#X%X%X                                3 + N m m m M C ( [ [ [ [ ( ) @.z.B.~.T.T.W._.).].].{.`.W.T.8 8         ",
"            #X#X#X%X        #X#X#X%X                8 3 D N m m m M ~ ^ [ [ [ [ ' ) w.j.}.~.(._._._.).].].].].)._./.T.7 8 8     ",
"            %X#X%X%X        #X#X#X#X                T.3 n m m m M C ^ [ [ [ [ [ ) @.j.B.~.W._.{..X.X{.).].].].].{.`.W.T.8 8     ",
"                            #X#X#X#X                T.3 N m m M ~ ^ [ [ [ [ [ ) w.j.}.~.(._.)..X+XOX.X).].].].].].]._./.T.8     ",
"                            %X#X#X&X                8 5 . F F D ] [ [ ] Q Q Q X.g.Z.!.T._.{.)..XOXOX.X).].].].].].].{.'.T.8     ",
"                                                8 8 Y.7 6 6 6 & ] ( ( W r q q q y !.T.T._.).].{..X.X{.].].].].].].].{.`.T.7 8 8 ",
"                                                T.w f f f j T.u R Q Q $.q w f d 8 8 T.Q.|..X{.).).).].].].].].].].].{.`.W.T.T.T.",
"                                    8 8 Y.7 8 8 Y.f a.F.F.d.!.7 q q q q Y.d s.k.y T.(.oX+XOX.X).].].].].].].].].].].].]._./.T.8 ",
"                                    8 w f d 8 8 Y.f F.P.P.U.x s f f f f f 1 S.A.y T._.XX-X;X.X).].].].].].].].].].].].].{.`.T.8 ",
"                                8 8 Y.d s.h.t 7 Y.f F.P.P.H.F.F.D.D.D.D.F.F.H.l.!.T._.XX-X=X.X).].].].].].].].].].].].].{.`.T.8 ",
"                                T.w d 1 S.U.x d 8 d d.l.C.l.C.M.u.u.i.L.m.C.l.B.!.T._.XX-X=X.X).].].].].].].].].].].].].).`.T.8 ",
"                            8 8 Y.f a.F.J.J.F.d.t 8 !.~.!.!.!.2 ;.,.,.0.v !.!.!.8 W._.XX-X=X.X).].].].].].].].].].].].].).`.T.8 ",
"                            8 8 Y.f F.P.K.K.I.C.~.6 3 $ $ 5 7 a 9.3.3.7.e 8 f d 8 W._.XX-X=X.X).].].].].].].].].].].].].).`.T.8 ",
"                        8 8 Y.Y.Y.f v.P.K.K.P.l.!.3 D n n . 6 8 t t t t 8 d s.k.!.T._.XX:X;X.X).].].].].].].].].].].].].).`.T.8 ",
"                        T.w f d 8 f v.P.K.K.P.l.!.$ n m m S @ 3 * * * * * < S.m.!.T._..XOXOX X).].].].].].].].].].].].].).`.T.8 ",
"                    8 8 Y.d s.k.!.s F.P.K.K.P.C.~.$ N m m m n B T ] ] ] ]  .L.l.!.R._.{..X.X{.].].].].].].].].].].].].].{.`.T.8 ",
"                    8 w d 1 S.A.!.d d.M.u.u.u.b.2 ; P S m m m M K / ( [ ' } x.f.x j `.'.).).].].].].].].].].].].].].].].`./.E.E.",
"                8 8 Y.d a.F.H.l.!.T.!.c ;.:.:.>.-.2.r O n m m m m C / [ [ [ { +.b.h.~.W._.].].].].].].].].].].].].].].'.^.T.    ",
"                T.w d 1 F.P.P.M.2 a 8 > -.:.:.:.:.3.t % N m m m m M K / [ [ ^ | n.l.!.T._.).].].].].].].].].].].].].).`.T.8     ",
"            8 T.Y.d a.F.H.K.P.L.;.2.t > -.:.:.:.:.5.t $ n m m m m m m C / [ ' | y.l.!.T._.{.].].].].].].].].].].].].{.`.T.8     ",
"            8 w d 1 F.K.K.K.u.p.:.3.t a 2.3.3.3.5.7.t 5 . S m m m m m M K / ' } x.f.x j `.`.).].].].].].].].].].].].'./.w 9     ",
"        8 8 Y.f s.S.H.P.P.i.<.:.:.3.t 8 t t t t t t 8 7 6 O n m m m m m m C / [ { +.e.k.~.W._.{.{.].].].].].].).{.'.W.8         ",
"        T.w f 1 k.m.l.l.C.j.6.3.3.8.p * * * * * * u 8 w f > I S m m m m m M K / ^ } x.f.x j `.`.`.'.].).].].].].`./.w 8         ",
"    8 T.Y.d s.k.}.!.~.!.!.!.t t t p Y ] ] ] ] ] ] R q f s.k.t O n m m m m m m C / [ { +.e.h.~.T.T.W._.{.).).).`.^.8             ",
"    8 w d 1 k.N.p * * i s f f d u # ] ( [ [ [ [ ( Q q f F.U.x > P S m m m m m M K / ^ } x.f.x f s j `.'.`.`.`./.T.8             ",
"8 8 Y.d s.k.}.p Y ] ]  .s.D.D.c. .] [ [ [ [ [ [ [ Q q f F.H.F.d.t O n m m m m m m C / [ { +.b.F.F.h.~.T.T.T.T.T.T.8             ",
"8 w d 1 S.m.!.* ] [ ' ) r.u.u.t.} / / / / T Q W [ Q q d d.U.K.U.x > P F F S m m m M K / ~ _ w.b.b.f.z f g d 8 8 8 8             ",
"Y.f s.S.H.C.~.* ] ( ' ` >.,.,.=.J M M M M S r & ] Q q 8 !.x F.J.F.d.t 6 6 O n m m m M M M M Z Z Z ..q.F.S.k.!.8                 ",
"8 d h.U.K.C.~.u R Q Q ! 2.3.3.#.G F F F F X 6 = ] W & u 7 s e.u.i.b.x f f > P F F F F F F F F F V U g.C.m.V.~.7                 ",
"8 8 !.x S.m.!.7 q q q q e t t e 0 0 0 6 6 6 8 i ] [ ] R q > ;.:.:.1.v.D.G.d.y 6 6 6 6 6 6 6 6 6 6 0 !.!.!.!.                    ",
"8 8 Y.d k.V.z s > > > > > > > a 8 T.T.q u = i # ] [ ( W & : 2.3.3.5.y.u.i.b.x f f f f f f f f f f d 8 7 8 7                     ",
"    8 8 !.z s.e.;.-.-.-.-.-.-.2.t 7 T.* Y ] ] ] [ [ [ [ ] R h t t < ;.,.:.1.v.D.F.F.F.D.F.F.F.F.F.k.t 7                         ",
"    8 8 7 d h.b.>.:.:.>.0.3.5.7.t 7 T.= ] [ [ [ [ [ [ [ ( W & * * : 2.3.3.5.y.u.u.u.u.u.u.L.m.C.m.B.!.7                         ",
"        8 8 !.< -.:.:.0.k t t t T.T.T.i ] [ [ [ [ [ [ [ [ [ ] ] ] R h t t < ;.:.:.:.:.:.,.0.v !.!.!.T.8                         ",
"        8 8 8 > 2.3.3.7.t q * * = = i # ] [ [ [ [ [ [ [ [ [ ( [ ( W & * * : 2.3.3.3.3.3.5.7.i 5 7 8 8 8                         ",
"                t t t t T.i Y ] ] ] ] ] [ [ [ [ [ [ [ [ [ [ [ [ [ [ ] ] ] R h t t t t t t i D . q T.8 8                         ",
"                T.q * * u # ] ( [ [ [ [ [ [ [ [ [ [ [ [ [ [ [ [ [ ( / / / ! - 3 3 3 3 3 3 + N S @ 5 8 8                         ",
"            w 8 T.u Y ] ] ] [ ( [ [ [ [ [ [ [ [ [ [ [ [ [ [ [ [ [ / M m M m N n n n n N n N m m n . 0 8                         ",
"            8 q u # ] ( ( ( [ [ [ [ / / / / [ [ [ [ [ [ [ [ [ [ / L m m m m m m m b S F F S m m m F 0 8                         ",
"    w T.T.T.T.* Y ] [ [ [ [ ( ( [ / M M m C / [ [ [ [ [ [ [ [ / M m m m m m m m m S 4 0 0 @ n m m F 0 8                         ",
"    8 w f f f : _ ` [ [ [ ] Q Q Q E F S M C / [ [ ( / / / / / L M m m b F F F F F o 6 8 T.3 n m m F 0 8                         ",
"E.T.Y.d a.F.D.e.>.O.{ ( ^ Q r q q q 6 & T ( [ [ [ / M m M M M m m m m S 4 0 0 0 0 6     T.3 n m m F 0 8                         ",
"T.w d 1 F.H.u.y.0.#.! Q Q $.r 8 8 q u # ] [ [ [ / L m m m m m m m b S o 0 8 8 8 8 8     T.3 Z J J H 0 8                         ",
"8 f a.S.J.u.<.0.k e q q q e     T.i Y ] [ [ [ / M m m m m m m m m S 4 0                 T.> *.=.=.2.t 8                         ",
"Y.s e.u.u.r.0.7.t 7 8 8 8 w     u # ] [ [ ( / L m m m m m m m b S o 6 8                 T.> -.>.0.7.t 8                         ",
"T.> ;.,.:.0.k y             E.i Y ] [ [ [ / M m m m m m m m m S 4 6                 E.E.T.> -.0.k t 8 8                         ",
"Y.a 2.3.3.7.t 8             T.u R W / / / L m m m b F F F F F o 6 8                 T.q 5 ; o.#.e 7 8 8                         ",
"8 8 t t t l         E.E.T.T.T.Y.q - N M M M m m m F 4 0 0 0 0 0                     T.3 D N A H 0 8                             ",
"8 8 8 8 7 w         8 9 > > > > > ; N m m b F F F X 6 8 8 8 8 8                     T.3 n m m F 0 8                             ",
"            E.E.E.T.Y., &.-.-.-.-.o.A m m S 4 0 0 6 8 8                             T.3 N m m F 0 8                             ",
"            8 9 > > > %.-.>.0.3.5.4.H F F X 0 8 8 8 8 9                             8 3 P F F o 0 8                             ",
"            Y.> &.-.-.-.:.5.k t t e 0 0 0 0                                             0 0 0 0                                 ",
"            Y.a 2.5.3.3.5.7.t 7 8 8 8 8 8 9                                             8 8 8 8                                 ",
"            8 8 t t t t t t 8 8                                                                                                 ",
"            8 8 T.Y.Y.T.7 7 T.w                                                                                                 "
};
