/* XPM */
static char *_f79daab65614f05c8b4a1a37e0d05fcNJOhL2v6ILzImKTs[] = {
/* columns rows colors chars-per-pixel */
"64 64 134 2 ",
"   c None",
".  c #020203",
"X  c #070804",
"o  c #080903",
"O  c #0B0A0F",
"+  c #151502",
"@  c #1E1E02",
"#  c #15150A",
"$  c #18170B",
"%  c #19190A",
"&  c #0D0C15",
"*  c #0F0D18",
"=  c #100E16",
"-  c #100E18",
";  c #131216",
":  c #171816",
">  c #191917",
",  c #14131B",
"<  c #18161E",
"1  c #1C1B1D",
"2  c #201F11",
"3  c #323306",
"4  c #3E3F06",
"5  c #39390A",
"6  c #232210",
"7  c #23241D",
"8  c #343414",
"9  c #393A14",
"0  c #373719",
"q  c #3A3B1B",
"w  c #191721",
"e  c #1B1A22",
"r  c #211F28",
"t  c #222322",
"y  c #2B2C22",
"u  c #23222A",
"i  c #343425",
"p  c #34342B",
"a  c #37392B",
"s  c #383A28",
"d  c #343637",
"f  c #363937",
"g  c #343639",
"h  c #363938",
"j  c #3A3D3C",
"k  c #3F4026",
"l  c #3D403D",
"z  c #474717",
"x  c #43441A",
"c  c #4E4E1C",
"v  c #535413",
"b  c #40402A",
"n  c #47492A",
"m  c #525224",
"M  c #52542A",
"N  c #5A5C2D",
"B  c #4B4B33",
"V  c #4F513D",
"C  c #545631",
"Z  c #555831",
"A  c #52553D",
"S  c #6D6E35",
"D  c #696B3A",
"F  c #3C3F40",
"G  c #3E4140",
"H  c #414442",
"J  c #4B4D47",
"K  c #4E5143",
"L  c #4F524C",
"P  c #535543",
"I  c #575A41",
"U  c #585B41",
"Y  c #51544D",
"T  c #6C6E46",
"R  c #63654E",
"E  c #686A4C",
"W  c #656757",
"Q  c #858700",
"!  c #81810C",
"~  c #959601",
"^  c #979800",
"/  c #97990C",
"(  c #858613",
")  c #939510",
"_  c #969911",
"`  c #ADAF07",
"'  c #AEB101",
"]  c #BEBF21",
"[  c #CDCE01",
"{  c #D4D401",
"}  c #D9DA04",
"|  c #C5C611",
" . c #CBCB15",
".. c #CFD017",
"X. c #DDDD14",
"o. c #D3D41B",
"O. c #E1E200",
"+. c #EFEF02",
"@. c #E8E91A",
"#. c #C4C423",
"$. c #C6C629",
"%. c #CACB2C",
"&. c #E0E130",
"*. c #D4D46F",
"=. c #CFCF79",
"-. c #CFD07D",
";. c #DBDC75",
":. c #D9DA73",
">. c #D3D47A",
",. c #D2D37C",
"<. c #D3D37D",
"1. c #D3D47D",
"2. c #D2D47E",
"3. c #D3D47E",
"4. c #D4D57E",
"5. c #D6D77E",
"6. c #EAEB75",
"7. c #EBED7E",
"8. c #ECED7D",
"9. c #ECED7E",
"0. c #EDED7E",
"q. c #CBCC84",
"w. c #CED088",
"e. c #CFD188",
"r. c #D0D180",
"t. c #D2D386",
"y. c #D2D486",
"u. c #D6D880",
"i. c #D7D880",
"p. c #D7D881",
"a. c #E5E683",
"s. c #E6E78B",
"d. c #E7E88B",
"f. c #E7E88C",
/* pixels */
"                                                                                                                                ",
"                                                                                                                                ",
"                                                                                                                                ",
"                                                                                                                                ",
"                                                                                                                                ",
"                                                                                                                                ",
"                                                , & & & & & & & & & & & & & & ,                                                 ",
"                                                & & & & 2 6 6 6 6 6 6 2 & & & &                                                 ",
"                                    - & * * * & . . . + Q ^ ~ ~ ~ ~ ^ ! # . . . & * * & & ,                                     ",
"                                    & & & & & O . X @ 3 ( ) ) / ' ` _ ( 3 @ X . & & & & & &                                     ",
"                                , & . . . . . . . @ [  .k y y z O.X.b z { | $ . . . . . . . & ;                                 ",
"                                & & . . . . . o @ 4  .$.a t i m o.%.p q  .#.5 @ . . . . . . & &                                 ",
"                            - & . . . . : 1 1 8 [  .n i h A *.<.R K l j i c {  .i 1 1 : . . . . & -                             ",
"                            & O . . . . 1 1 t x @.&.a t j U 9.f.Y j G l s m o.%.a t 1 1 . . . . O &                             ",
"                        - & . . . . : 1 1 t g A 6.a.P j j U 9.d.Y j F A *.<.R K l h t 1 1 : . . . . & ;                         ",
"                        & & . . . . 1 1 t y A T 5.w.Y G l P 1.y.E P G U 9.s.Y j G j t t 1 1 . . . . & &                         ",
"                    - & . . . . : 1 1 t d A :.p.W L H G G H Y E ;.1.L I 7.s.Y j G l j h t 1 1 : . . . . & ,                     ",
"                    & O . . . . 1 1 t y A T p.w.L j G G G G j I 9.s.Y P 1.t.E P H G G j t t 1 1 . . . . O &                     ",
"                , & . . . . : 1 1 t g A :.p.W L H G G G G G G U 9.d.Y G Y E ;.5.Y F F F j h t 1 1 : . . . . & ;                 ",
"                * & . . . . 1 1 1 7 M S >.q.J h j j j j j j h A =.-.D C j V -.r.D N N Z l f t 1 1 1 . . . . & &                 ",
"                * & . . . . 1 1 1 9 { o.B p t t t t t t t t t t p m } ..s t p m } +.+...i e 1 1 1 1 . . . . & &                 ",
"                * & . . . . 1 7 9 v  .#.y : 1 1 1 1 1 1 1 1 1 1 : 8  .#.y 1 : 8 | X.X.#.c 0 7 1 1 1 . . . . & &                 ",
"                * & . . 1 1 1 9 {  .8 $ . . . . . . . . . . . . . X $ $ . . . . $ % $ 5 {  .i 1 1 1 1 : . . & &                 ",
"                & O . . : 1 1 8  .] $ . . . . . . . . . . . . . . . . . . . . . . . . @ | #.y 1 1 1 1 : . . & &                 ",
"            , & . . . . . . . . $ $ . . & & & & & & & & & & & & & & & & & & & & & O . X $ $ . . . . . . . . . . & ,             ",
"            & & . . . . . . . . . . . . & & & & & & & & & & & & & & & & & & & & & & . . . . . . . . . . . . . . & &             ",
"            & & . . . . . . O & & & & & & & & & . . & & & & . . & & . . & & . . & & & & & O . . . . . . . . . . & &             ",
"            & & . . . . . . & & & & & & & & & & . . & & & & . . & & . . & & . . & & & & & & . . . . . . . . . . & &             ",
"            & & & & & & & & & & . . . . & & & & . . & * & & . . & & . . & & . . & & & & . . & & & & & & & & & & & &             ",
"            , , , , , , , , , ; . . . . O & & & . . O & & & . . & & . . & & . . & & & & . . & * , , , , , , , , , ,             ",
"                                & O . . . . & & . . . . & & . . & & . . & & . . & & & & . . & -                                 ",
"                                , ; . . . . & & . . . . & & . . & & . . & & . . & & = & . . , ,                                 ",
"                , , , e             & & 1 1 * & 1 : . . & & . . & & . . & = 1 1 * = 1 1 & =                             e ,     ",
"                , = & 1             : : 1 1 = = 1 1 . . & & . . & & . . & = 1 1 - = 1 1 - =                             1 =     ",
"            , , 1 1 1 1 , e             , ; 1 1 , ; 1 1 & = 1 1 * = 1 1 & = 1 1 - = 1 1 - =                         e , 1 1 , , ",
"            & = 1 1 1 1 * <             - = 1 1 - = 1 1 - = 1 1 - = 1 1 - = 1 1 - = 1 1 - =                         w & 1 1 - & ",
"            & = 1 1 1 1 & <             - = 1 1 - = 1 1 - = 1 1 - = 1 1 - = 1 1 - = 1 1 = -                         w & 1 1 = & ",
"            & = 1 1 1 1 : 1             , ; 1 1 ; ; 1 1 - = 1 1 - = 1 1 - = 1 1 - = 1 1 ; ,                         w & 1 1 = & ",
"            & = 1 1 ; w             , , 1 1 ; ; 1 1 1 1 - = 1 1 - = 1 1 - = 1 1 - = 1 1 1 1 , ,                     w & 1 1 = & ",
"            & = 1 1 & w             - = 1 1 - = 1 1 1 1 - = 1 1 - = 1 1 - = 1 1 - = 1 1 1 1 * =                     w = 1 1 , , ",
"            & = 1 1 & w             - = 1 1 = = 1 1 1 1 - = 1 1 - = 1 1 - = 1 1 - = 1 1 1 1 - =                 e , 1 1 - =     ",
"            & = 1 1 ; w             - = 1 1 = = 1 1 1 1 - = 1 1 - = 1 1 - = 1 1 ; ; 1 1 1 1 ; ,                 w & 1 1 & &     ",
"            & = 1 1 1 1 , e         - = 1 1 = = 1 1 1 1 - = 1 1 - = 1 1 - = 1 1 1 1 , = = ; 1 1 , :             w & . . & &     ",
"            , , 1 1 1 1 & <         - = 1 1 = = 1 1 1 1 - = 1 1 - = 1 1 , ; 1 1 1 1 - & & = 1 1 - ,             w & . . & &     ",
"                - ; 1 1 & <         - = 1 1 = = 1 1 1 1 - = 1 1 = = 1 1 1 1 , , 1 1 = & & = 1 1 1 1 , , , , , < 1 1 . . & &     ",
"                * & 1 1 = 1         , ; 1 1 & = 1 1 1 1 * = 1 1 - = 1 1 1 1 = = 1 1 = & = , 1 1 1 1 & & & & & & 1 : . . & ;     ",
"                * & . . 1 1 < , , < 1 1 ; & & = 1 1 ; & & = 1 1 - & & ; 1 1 = = 1 1 = -     , & . . . . . . . . . . & &         ",
"                - & . . : 1 & & & & > 1 * & & = 1 1 = & & = 1 1 - & & = 1 1 = = 1 1 = -     w & . . . . . . . . . . & -         ",
"                    & & . . . . . . . . & & & = 1 1 = & * = 1 1 - & & = 1 1 = - 1 1 = -         , & & & & & & & & &             ",
"                    ; & . . . . . . . . = = & = 1 1 - * & = 1 1 - & & = 1 1 - - 1 1 = -         < & = = = = = = = =             ",
"                        & & & & & & & ,     - = 1 1 = & & = 1 1 - & & = 1 1 - - 1 1 = -                                         ",
"                        - - - - - - & <     - = 1 1 = & & = 1 1 - & & = 1 1 - = 1 1 ; ,                                         ",
"                                            - = 1 1 = * & = 1 1 - & & = 1 1 - = 1 1 1 1 w w                                     ",
"                                            , ; 1 1 = & & = 1 1 - & = ; 1 1 ; ; 1 1 1 1 & =                                     ",
"            , u             1 w w w w < < 1 1 1 1 1 = & & = 1 1 = ,     : ; 1 1 , ; 1 1 - =             r <                     ",
"            ; w             , & = & & & & & 1 1 1 1 ; = & = 1 1 - ,     , = 1 1 - = 1 1 ; ,             w ;                     ",
"        w 1 1 1 w u     w 1 1 1 1 1 . . & & - , 1 1 1 1 - = 1 1 * ,     , = 1 1 - = 1 1 1 1 1 w w w w w 1 1 w w                 ",
"        & & 1 1 = 1     - & 1 1 1 1 . . & & & & 1 1 1 1 & & 1 1 ; ;     , = 1 1 & & 1 1 1 1 & & & & & & 1 1 & -                 ",
"        & & . . 1 1 w < * & = = = & & & . . . . & - - & . . & :         , = 1 1 . . & = = = & & . . . . . . & - w w w w         ",
"        & & . . 1 1 & & & & & & & & & & . . . . & & & & . . & ,         , ; 1 1 . . & & & & & & . . . . . . & & & & & &         ",
"            & & = & . . . . . . . . . . & & & & . . . . . . & ,             , & & & . . . . . . & & & & & O . . . . . . , w     ",
"            & & & & . . . . . . . . . . & & & & . . . . . . & ,             , & & & . . . . . . & = & & & & . . . . . . & &     ",
"                    & & & & & & & & & ,         & & & & & ;                         , & & & & &     , & & & & & & & & &         ",
"                    - & & & & & & & & ,         , & & & & ,                         , & & & & -     1 & & & & & & & & &         "
};
