/* XPM */
static char *_32c54b32a8044fbd5c53d3339e73d8aSJaMDDGrQLoGnuvO[] = {
/* columns rows colors chars-per-pixel */
"64 64 147 2 ",
"   c None",
".  c #020203",
"X  c #0B0B06",
"o  c #050508",
"O  c #0B0A0F",
"+  c #131404",
"@  c #1E1D04",
"#  c #111109",
"$  c #1F1F0C",
"%  c #0D0C14",
"&  c #0F0D18",
"*  c #100F16",
"=  c #100E18",
"-  c #131217",
";  c #1F1F11",
":  c #14131B",
">  c #18161E",
",  c #1C1B1D",
"<  c #1F211E",
"1  c #252506",
"2  c #282904",
"3  c #21210D",
"4  c #2F3006",
"5  c #222210",
"6  c #21221D",
"7  c #343413",
"8  c #373914",
"9  c #393A15",
"0  c #373718",
"q  c #383718",
"w  c #3A3B1B",
"e  c #191721",
"r  c #1B1A22",
"t  c #201F26",
"y  c #222322",
"u  c #272821",
"i  c #2F2F22",
"p  c #2F3024",
"a  c #333325",
"s  c #383724",
"d  c #363825",
"f  c #3C3C25",
"g  c #33352C",
"h  c #3A3B29",
"j  c #343733",
"k  c #363837",
"l  c #393B35",
"z  c #373A39",
"x  c #3B3D3D",
"c  c #3D403E",
"v  c #484913",
"b  c #454618",
"n  c #4D4E1B",
"m  c #4F501B",
"M  c #545414",
"N  c #50501D",
"B  c #7E7F14",
"V  c #474827",
"C  c #47472A",
"Z  c #4C4C2C",
"A  c #4F5124",
"S  c #535323",
"D  c #494A33",
"F  c #40433D",
"G  c #494D3E",
"H  c #4F523D",
"J  c #535331",
"K  c #53553E",
"L  c #55583F",
"P  c #585B3F",
"I  c #3C3F40",
"U  c #3E4140",
"Y  c #414341",
"T  c #4C4F47",
"R  c #4E5145",
"E  c #4F524B",
"W  c #545742",
"Q  c #575A40",
"!  c #585B41",
"~  c #52554C",
"^  c #666944",
"/  c #6B6E45",
"(  c #63664E",
")  c #686B4C",
"_  c #646656",
"`  c #7F8119",
"'  c #848700",
"]  c #878900",
"[  c #888C01",
"{  c #82840D",
"}  c #85880F",
"|  c #8E900C",
" . c #959700",
".. c #979800",
"X. c #92930C",
"o. c #828417",
"O. c #8B8C10",
"+. c #888918",
"@. c #A3A503",
"#. c #D4D501",
"$. c #CCCD16",
"%. c #CECF16",
"&. c #CFCF16",
"*. c #CFCF17",
"=. c #CCCD15",
"-. c #CBCC15",
";. c #CFD017",
":. c #CED017",
">. c #D0D017",
",. c #D0D017",
"<. c #D0D11A",
"1. c #D3D41C",
"2. c #CBCA25",
"3. c #CACB25",
"4. c #C5C728",
"5. c #C6C628",
"6. c #C6C629",
"7. c #C6C628",
"8. c #C9CB28",
"9. c #CDCE2B",
"0. c #C9CA2C",
"q. c #D1D26E",
"w. c #D1D16D",
"e. c #CFCF78",
"r. c #CDCD7D",
"t. c #CFD07B",
"y. c #D5D570",
"u. c #D7D771",
"i. c #D7D872",
"p. c #DCDC74",
"a. c #D0D27D",
"s. c #D4D57F",
"d. c #D6D77E",
"f. c #D2D37C",
"g. c #EBEC7E",
"h. c #ECEC7D",
"j. c #ECEC7E",
"k. c #CBCC84",
"l. c #CED087",
"z. c #CFD188",
"x. c #D2D486",
"c. c #D0D189",
"v. c #D0D188",
"b. c #E2E387",
"n. c #E7E78B",
"m. c #E6E78B",
"M. c #E7E88B",
/* pixels */
"                                                    : % % % % % % % % % % :                                                     ",
"                                                    % % 5 5 5 5 5 5 5 ; % *                                                     ",
"                                            - % % % . + ' .. . . . ...{ # . % % % -                                             ",
"                                            % % % % + 2 { X.@.@.X.| X.B 1 + % % % %                                             ",
"                                        = % . . . + ' { $ 1 ..X.3 # # 1 ] { # . . . % :                                         ",
"                                        % O . . + 2 } ` # + { o.4 @ o + { o.1 + . . O %                                         ",
"                                    . . . . . + ' } s u , , u b #.-.a , u w [ { # . . . % -                                     ",
"                                    . . . . . + { +.b 8 6 6 8 M =.4.a 6 8 v O.` # . . . % %                                     ",
"                                = % . . . . . o 6 b #.=.a 9 #.=.C p , 9 #.=.f 6 . . . . . . % =                                 ",
"                                % O . . . . . X 7 M >.4.g w <.9.Z s y w =.3.m 7 X . . . . . O %                                 ",
"                            * % . . . . . . : 8 #.>.V a z c R ^ y.t.R l s m #.-.i - . . . . . . % -                             ",
"                            = % . . . . . o , w =.8.Z h c U x Q g.n.~ z y w =.3.N 7 X . . . . . % *                             ",
"                            = % . . . . - , , 6 a Z y.a.~ x x Q j.n.~ x x z a n #.-.a - . . . . % =                             ",
"                            % O . . . o , , , 6 d J d.c.~ F L / d.l.~ c U c h S ;.4.a , X . . . O %                             ",
"                        = % . . . . - , , , , s q.d._ E U L i.d._ E Y c c L y.e.D a < , , > . . . . % -                         ",
"                        & % . . . o , , , 6 s J d.c.E x x ! j.n.~ x c U x P j.b.l , , , , , X . . . % *                         ",
"                        % % . . - , , , , d q.d._ E Y c x ! j.n.~ c U U x ! j.n.E j y , , , , - . . % =                         ",
"                        % % . o , , , 6 9 S d.z.E x U c I ! j.n.~ c U U c W f.x.) K y , , , , , . . % =                         ",
"                        % % . o , , , 9 #.1.( E Y U U c x ! j.M.~ x c U c Y E ) p.a.g , , , , , . . % =                         ",
"                        % % . o , 6 9 M >.0.G z c U U c x W f.x.) W F c c U x W a.r.A q 6 , , , . . % =                         ",
"                        & % . . , 9 #.;.C a y u x U U U U Y ~ ) p.d.~ c U U U c j A #.-.s , , , . . % =                         ",
"                        & % . . , w =.4.a , , y k x x x x x z H a.k.T z x x x k r 0 =.4.a , , , . . % =                         ",
"                        & % . o , 6 a a 6 , , , y y y y y y y y g g y y y y y y , 6 a a 6 , , , . . % =                         ",
"                        & % . . - , , , , , , , , , , , , , , , , , , , , , , , , , , , , , , - . . % =                         ",
"                        & % . . . o , , , , o . . . . . . . . . . . . . . . . . . o , , , , o . . . % %                         ",
"                        : - o . . o , , , - . . . . . . . . . . . . . . . . . . . . - , , , . . . o : :                         ",
"        : : = r             % O . o , , o . . . . . % % % % % % % % % % % O . . . . . o , , . . % %                             ",
"        = * % r             = % . . - - . . . . . . % % % % % % % % % % % % . . . . . . - - . . % =                             ",
"    : : , , , , : r         % % . . . . . . % % % % . . % % . . % % . . % % % % % O . . . . . . % *                             ",
"    % * , , , , * ,         : - o . . . . . % % % % . . % % . . % % . . % % % % % % . . . . . o : :                             ",
"    % * , , - - , , : r         % O . . % % . . % % . . % % . . % % . . % % . . % % % O . . % %                                 ",
"    % * , , % = , , * ,         : - o . % % . . % % . . % % . . % % . . % % . . % % % O . o : :                                 ",
"    % % o o % % % - , , : r         % % % % . . % % . . % % . . % % . . % % . . % % . . % *                                     ",
"    % % . . % = : : , , * ,         : : & % o o % % o o % % . . % % . . % % o o % % o o % *                                     ",
"    % % . . % e     : - , , : r         = % , , & * , , = % . . % % . . % * , , & * , , % *                                     ",
"    % % . . % r     & * , , * ,         = * , , = * , , = % o o % % o o % * , , = * , , = *                                     ",
"    % % . . % r     % % & - , , : r     = * , , = * , , = * , , & * , , % * , , = * , , * *                                     ",
"    - * . o - r     : : % * , , % :     = * , , = * , , = * , , = * , , = * , , = * , , = :                                     ",
"        % >             = * , , = = : : & * , , = * , , = * , , = * , , = * , , = * , , = % : : : : : :                 r :     ",
"        = r             & * , , = % % % * - , , & * , , = * , , = * , , = * , , = * , , = % % * * * * :                 r -     ",
"                        & * , , = % % * , , - & % * , , = * , , = * , , = * , , = * , , = * , , , , , , : :         r : , , : : ",
"                        : : , , % % % % , , % % % * , , = * , , = * , , = * , , = % , , - - , , , , , , - -         e % , , % % ",
"                            : % . . . . % * % % % * , , = * , , = * , , = * , , = % o o , , o o % * * : , , : :     e % , , * % ",
"                            : % . . . . % % % % * - , , = * , , = * , , = * , , = % . o , , o . % : & * , , & =     e % , , % % ",
"                                % % % % % & % * , , , , = * , , = * , , = * , , = % % % % % % %     : * , , * & : e = % o o % % ",
"                                = % % % % % % * , , , , & * , , = * , , = * , , = % - * * * * :     : % , , % % % % % % . . % * ",
"                                            * * , , - % % * , , = * , , = * , , * -                 : % o . . . . . . . % %     ",
"                                            = * , , * % % * , , = * , , = * , , - :                 e * o . . . . . . . % =     ",
"                                            = * , , * % % * , , = * , , = % = : , , > : : e             : % % % % % % %         ",
"                                            = * , , * % * - , , = * , , = % % * , , % % % :             r % * * * * * *         ",
"                                            = * , , * * , , , , = * , , = % % * , , * * , , > >                                 ",
"                                            = * , , * * , , , , & * , , = % % * , , = * , , = :                                 ",
"                            e t             * * , , * * , , : % % * , , = % % * , , = % % - , , e r                             ",
"                            : ,             : * , , * * , , * % * - , , - * % = , , - * % * , , % %                             ",
"                        r , , , r t     r : & * , , * * , , * :     : - , , * % * - , , & * , , = *                             ",
"                        & % , , & :     = % % % , , % * , , % :     : * , , * & % * , , = % , , % *                             ",
"                        & * , , & :     = % . . % = % * , , * :     : * , , * % % * , , = % o o % *                             ",
"                        % - , , % :     : % . . % % % % , , % :     : % , , % % % * , , % O . . % :                             ",
"                            : % . o > > = % . . . . . . . o % :     : % o . . . % % * % . . % % % = > r r ,                     ",
"                            = % . . % % % % . . . . . . . o % :     : % o . . . % % % % . . % % % % % % % %                     ",
"                            * % . . . . . . % % % % % % % -             : % . . . . . . . . % % . . . . . o : r                 ",
"                            * % . . . . . o % % % % % % % :             : % o . . . . . . . % % o . . . . . % %                 ",
"                                % % % % % :                                 : % % % % % % %     : % % % % %                     ",
"                                = % % % % e                                 : % % % % % % :     e % % % % &                     "
};
