/* XPM */
static char *result[] = {
/* columns rows colors chars-per-pixel */
"64 64 195 2 ",
"   c #5C012D",
".  c #5D0634",
"X  c #5B0834",
"o  c #550B3A",
"O  c #5D0C3B",
"+  c #570937",
"@  c #56113F",
"#  c #5D133D",
"$  c #62012E",
"%  c #640231",
"&  c #6D0133",
"*  c #650A3B",
"=  c #6B093E",
"-  c #690738",
";  c #700033",
":  c #730539",
">  c #790339",
",  c #60123C",
"<  c #343652",
"1  c #4F1544",
"2  c #451F44",
"3  c #551241",
"4  c #581140",
"5  c #6A1143",
"6  c #452247",
"7  c #4B3B6F",
"8  c #593365",
"9  c #53376A",
"0  c #533B6D",
"q  c #5A396F",
"w  c #4A3B71",
"e  c #543D72",
"r  c #593C72",
"t  c #5A3F7A",
"y  c #69316B",
"u  c #67346E",
"i  c #7E2E71",
"p  c #653571",
"a  c #6D3675",
"s  c #663B76",
"d  c #683A77",
"f  c #643C78",
"g  c #6A3D7A",
"h  c #773173",
"j  c #793172",
"k  c #3F4E76",
"l  c #4B4276",
"z  c #4D4B77",
"x  c #4C437A",
"c  c #4C497D",
"v  c #534173",
"b  c #54447C",
"n  c #58457D",
"m  c #514D7D",
"M  c #52517F",
"N  c #6A417A",
"B  c #684177",
"V  c #7C467E",
"C  c #800139",
"Z  c #9D125A",
"A  c #A5064C",
"S  c #AD044D",
"D  c #A3084F",
"F  c #B9014E",
"G  c #B3014D",
"H  c #A40F5A",
"J  c #AE0F5F",
"K  c #AA0A55",
"L  c #B50452",
"P  c #BA0454",
"I  c #B10854",
"U  c #B30D5E",
"Y  c #BB0B5D",
"T  c #BE065C",
"R  c #AD105F",
"E  c #BB115F",
"W  c #9C1964",
"Q  c #9F1765",
"!  c #AD0F60",
"~  c #A71462",
"^  c #AB1161",
"/  c #BE1464",
"(  c #B61A66",
")  c #8F2564",
"_  c #912566",
"`  c #95286C",
"'  c #913B7A",
"]  c #983C7B",
"[  c #972C70",
"{  c #A2236A",
"}  c #BB236B",
"|  c #B72672",
" . c #B73B7C",
".. c #A73073",
"X. c #C20154",
"o. c #C90157",
"O. c #C3055A",
"+. c #CA0258",
"@. c #CE0A5F",
"#. c #D2085E",
"$. c #CE0D61",
"%. c #D00B61",
"&. c #C21364",
"*. c #CD1769",
"=. c #C81969",
"-. c #D21668",
";. c #D21969",
":. c #C72672",
">. c #3A5783",
",. c #395882",
"<. c #1D7A86",
"1. c #4C4A80",
"2. c #4C4780",
"3. c #514E82",
"4. c #4A5182",
"5. c #525182",
"6. c #9F3E80",
"7. c #964780",
"8. c #F14993",
"9. c #F44995",
"0. c #F7549B",
"q. c #F8529B",
"w. c #F5589D",
"e. c #EF4B94",
"r. c #E85DA1",
"t. c #FF5EA4",
"y. c #F65DA3",
"u. c #D374AE",
"i. c #C67BB1",
"p. c #D076AD",
"a. c #E569A5",
"s. c #F264A6",
"d. c #FD61A5",
"f. c #FE6BAD",
"g. c #F266A8",
"h. c #EC74AE",
"j. c #E978AF",
"k. c #E879B1",
"l. c #EA76B1",
"z. c #FB78B5",
"x. c #07868D",
"c. c #049297",
"v. c #02999B",
"b. c #0B8F95",
"n. c #2E8397",
"m. c #0C9FA4",
"M. c #01A6A7",
"N. c #01A7A8",
"B. c #21AFBA",
"V. c #5D9DBF",
"C. c #48A1BA",
"Z. c #3BAEC5",
"A. c #28B6C5",
"S. c #39B2C9",
"D. c #38B4C9",
"F. c #36BFD2",
"G. c #3EBFD1",
"H. c #41B9CF",
"J. c #4FB0C9",
"K. c #64B0CC",
"L. c #16CDD6",
"P. c #04D9DB",
"I. c #07D7DA",
"U. c #12C8D0",
"Y. c #2AC7D5",
"T. c #34C1D3",
"R. c #39CCDA",
"E. c #37D1DD",
"W. c #26C2CC",
"Q. c #03E0DF",
"!. c #0DDDE2",
"~. c #02E2E2",
"^. c #03E9E9",
"/. c #0CE4E6",
"(. c #11E1E5",
"). c #28E4E6",
"_. c #48C3D7",
"`. c #C785B8",
"'. c #DB88B8",
"]. c #E783B8",
"[. c #D3BFDD",
"{. c #BDC1D9",
"}. c #AEDCE5",
"|. c #B5E5ED",
" X c #BAE1EE",
".X c #B4F3F6",
"XX c #A5EDF2",
"oX c #C2CBE1",
"OX c #CBC8E2",
"+X c #DACCE7",
"@X c #C9D9EA",
"#X c #C6D6E9",
"$X c #D5D2EA",
"%X c #CAE4F3",
"&X c None",
/* pixels */
"&X&X&X&X&X&X&X&X&X&X&X&X&X&X&X&X&X&X&X&X&X&X&X&X&X&X&X&X&X&X&X&X&X&X&X&X&X&X&X&X&X&X&X&X&X&X&X&X&X&X&X&X&X&X&X&X&X&X&X&X&X&X&X&X",
"&X&X&X&X&X&X&X&X&X&X&X&X&X&X&X&X&X&X&X&X&X&X&X&X&X&X&X&X&X&X&X&X&X&X&X&X&X&X&X&X&X&X&X&X&X&X&X&X&X&X&X&X&X&X&X&X&X&X&X&X&X&X&X&X",
"&X&X&X&X&X&X&X&X&X&X&X&X&X&X&X&X&X&X&X&X&X&X&X&X&X&X&X&X&X&X&X&X&X&X&X&X&X&X&X&X&X&X&X&X&X&X&X&X&X&X&X&X&X&X&X&X&X&X&X&X&X&X&X&X",
"&X&X&X&X&X&X&X&X&X&X&X&X&X&X&X&X&X&X&X&X&X&X&X&X&X&X&X&X&X&X&X&X&X&X&X&X&X&X&X&X&X&X&X&X&X&X&X&X&X&X&X&X&X&X&X&X&X&X&X&X&X&X&X&X",
"&X&X&X&X&X&X&X&X&X&X&X&X&X&X&X&X&X&X&X&X&X&X&X&X&X&X&X&X&X&X&X&X&X&X&X&X&X&X&X&X&X&X&X&X&X&X&X&X&X&X&X&X&X&X&X&X&X&X&X&X&X&X&X&X",
"&X&X&X&X&X&X&X&X&X&X&X&X&X&X&X&X&X&X&X&X&X&X&X&X&X&X&X&X&X&X&X&X&X&X&X&X&X&X&X&X&X&X&X&X&X&X&X&X&X&X&X&X&X&X&X&X&X&X&X&X&X&X&X&X",
"&X&X&X&X&X&X&X&X&X&X&X&X&X&X&X&X&X&X&X&X&X&X&X&X&X&X&X&X&X&X&X&X&X&X&X&X&X&X&X&X&X&X&X&X&X&X&X&X&X&X&X&X&X&X&X&X&X&X&X&X&X&X&X&X",
"&X&X&X&X&X&X&X&X&X&X&X&X&X&X&X&X&X&X&X&X&X&X&X&X&X&X&X&X&X&X&X&X&X&X&X&X&X&X&X&X&X&X&X&X&X&X&X&X&X&X&X&X&X&X&X&X&X&X&X&X&X&X&X&X",
"&X&X&X&X&X&X&X&X&X&X&X&X&X&X&X&X&X&X&X&X&X&X&X&X&X&X&X&X&X&X&X&X&X&X&X&X&X&X&X&X&X&X&X&X&X&X&X&X&X&X&X&X&X&X&X&X&X&X&X&X&X&X&X&X",
"&X&X&X&X&X&X&X&X&X&X&X&X&X&X&X&X&X&X&X&X&X&X&X&X&X&X&X&X&X&X&X&X&X&X&X&X&X&X&X&X&X&X&X&X&X&X&X&X&X&X&X&X&X&X&X&X&X&X&X&X&X&X&X&X",
"&X&X&X&X&X&X&X&X&X&X&X&X&X&X&X&X&X&X&X&X&X&X&X&X&X&X&X&X&X&X&X&X&X&X&X&X&X&X&X&X&X&X&X&X&X&X&X&X&X&X&X&X&X&X&X&X&X&X&X&X&X&X&X&X",
"&X&X&X&X&X&X&X&X&X&X&X&X&X&X&X&X&X&X&X&X&X&X&X&X&X&X&X&X&X&X&X&X&X&X&X&X&X&X&X&X&X&X&X&X&X&X&X&X&X&X&X&X&X&X&X&X&X&X&X&X&X&X&X&X",
"&X&X&X&X&X&X&X&X&X&X&X&X&X&X&X&X&X&X&X&X&X&X1.c 2.2.b 1.2.2.2.b 2.2.2.b 1.1.c c c c &X&X&X&X&X&X&X&X&X&X&X&X&X&X&X&X&X&X&X&X&X&X",
"&X&X&X&X&X&X&X&X&X&X&X&X&X&X&X&X&X&X&X&X&X&Xe w >.>.>.>.>.>.>.>.>.>.>.>.,.4.v v v 0 &X&X&X&X&X&X&X&X&X&X&X&X&X&X&X&X&X&X&X&X&X&X",
"&X&X&X&X&X&X&X&X&X&X&X&X&X&Xc c 1.c c c c r O 2 x.c.c.c.c.c.c.c.c.c.c.c.c.<.# O % 3 l c c c 1.1.c c &X&X&X&X&X&X&X&X&X&X&X&X&X&X",
"&X&X&X&X&X&X&X&X&X&X&X&X&X&Xe e e e 0 l ,.z 2 < v.M.M.M.M.M.M.M.M.M.M.M.M.b.6 6   o 9 v e e e e e 0 &X&X&X&X&X&X&X&X&X&X&X&X&X&X",
"&X&X&X&X&X&X&X&X&X&Xc c c e O X X .   2 x.c.c.v.P.~.Q.P.~.~.Q.Q.~.~.~.~.Q.Q.P.B.#   X . . . . . % @ l c c c &X&X&X&X&X&X&X&X&X&X",
"&X&X&X&X&X&X&X&X&X&Xe e e 8 . $ & - 6 < v.M.n.n.D.Y.^.^.^.^.^.(.T.T.T.T.T.Y.^.W.5 ; ; ; & ; ; &   o 9 v e 0 &X&X&X&X&X&X&X&X&X&X",
"&X&X&X&X&X&Xc c c e O X . .   & F _ U.P.~.A.} Y &.' I.^.^.^.^.T.| &./ &.&.' P.T./ X.X.P X.P X.S $   X X . @ l c c c &X&X&X&X&X&X",
"&X&X&X&X&X&Xe e 0 8 . $ ; ; & : _ V Z.F.T.V.&.o.o.{ G.R.).).E.K.:.$.@.@.@..._.K. .} +.+.+.+.+.L > ; ; ; $ + 9 e e 0 &X&X&X&X&X&X",
"&X&X&X&Xc e O . X X   & F X.X.` U.D.| &.&.&.+.X.o.&.r.'.XX Xh.s.0.q.q.q.q.w.s.u.}.{.=.o.O.o.o.X.P X.X.S $   X X X @ l z &X&X&X&X",
"&X&X&X&Xe 8 . $ ; ; ; C X.o.o.[ I.T.=.@.$.$.$.$.$.;.q.l..X%Xf.t.t.d.d.d.d.t.t.j..X#X:.@.$.$.$.$.+.o.+.L > ; & &   o 9 v &X&X&X&X",
"&X&Xc 0 O .   & F F X.X.o.o.o.` I.R.a.q.q.q.w.w.q.0.t.k..X%Xf.t.t.t.t.d.d.d.w.k..X%Xd.0.0.q.0.8.@.+.+.+.X.P X.S %   % @ l c &X&X",
"&X&Xc e .     ; X.+.+.+.$.&.} ] T.K.s.t.d.t.d.d.t.t.t.h.@X+X].h.d.d.d.w.d.d.j.'.@X+Xf.d.t.d.t.q.;.@.$.$.+.+.+.L %     o l c &X&X",
"&X&X1.e .     ; P o.o.@.8.a.}. Xh.g.d.t.t.t.t.t.t.t.t.d.f.].|.@Xf.t.t.t.t.j.|.@Xz.f.t.t.t.t.t.t.q.0.0.8.$.o.+.L %     o l c &X&X",
"&X&Xc e . $ & > X.o.@.;.q.k..X%Xf.d.t.t.t.t.t.t.t.t.t.t.t.k..X%Xf.t.t.w.t.h.@X$X].h.t.t.t.t.t.t.d.t.t.0.*.$.+.L : &   o l m &X&X",
"&X&Xc e X ; F X.X.$.e.w.t.j..X%Xf.t.t.t.t.t.t.t.t.t.t.t.t.k..X%Xf.t.t.t.t.t.f.].|.@Xf.t.t.t.t.t.t.t.t.t.0.8.$.o.X.S $ o l c &X&X",
"&X&Xm e X ; P o.+.$.w.d.j.'.@X+Xf.t.t.t.q.q.q.q.q.q.q.q.q.a.OXOX`.i.i.u.w.q.9.a.oXOX].h.t.t.t.t.t.t.t.t.t.q.$.X.o.L % o l c &X&X",
"&X&X1.e . ; X.o.X.$.0.j.|.@Xz.f.t.t.t.q.-.%.$.$.$.$.%.$.%.$.-.] L.(.!.H.=.#.%.%.*. .}.@Xf.t.t.t.t.t.t.t.t.q.$.o.+.L % o l c &X&X",
"&X&X2.e . ; P +.+.$.0.k..X%Xf.t.t.t.q.8.$.o.o.o.+.+.o.+.+.+.o.{ Z.F.F.J.' ` o.+.o.} {.OXi.i.i.u.d.t.t.t.t.q.$.o.+.L $ o l b &X&X",
"&X&X1.e . & X.o.+.$.q.k..X%Xf.t.t.q.-.$.+.+.+.+.+.+.+.+.+.+.+.O.&.&.&.' U.S.&.+.o.+.-.6.L.(.!._.g.t.t.d.t.q.@.o.o.P % o l c &X&X",
"&X&X1.e . & S F X.&.p.`.{.OXd.q.q.8.@.X.L L L L L L L L L L L L P L G ) A.C.R L L L L ` Z.Y.^.R.r.q.q.q.q.8.@.o.L A % o l c &X&X",
"&X&Xc e %   % > X.` L.G.:.*.%.$.%.%.+.P & $ % % % % % % % % % % % % % - 4 , % % % % % ; / ' !.T.:.%.$.$.$.$.+.P & %   o l c &X&X",
"&X&Xc v @ o   & S _ S.V./ o.L L L I L D % . o o o o o o o o o o o o o o o o o o o o   & S ) B.C.R F o.o.o.o.L A %   o 1 l z &X&X",
"&X&X&X&Xl 9 .   $ > / &.+.L - % % % % %   o w l l l w x x x w x l l l w l l l l x 9 X   $ % # , % > X.o.o.L - $   o w l &X&X&X&X",
"&X&X&X&X1.v 4 +   & S L L A %   o o o o o 3 0 w 2.1.2.c e e 2.c e v c c e e c 3.v 8 @ o o o o +   & S I L A $     o l c &X&X&X&X",
"&X&X&X&X1.c x 9 X   % % $ $ $ o 7 w l x l 9 O 4 l 1.1.e 4 4 w t O 3 x v * 3 x e * @ w l l l l 9 .   $ $ & - .     + l c &X&X&X&X",
"&X&X&X&Xd f 2.w # +     o @ + 1 x c e e c e . + 9 e 2.e . o x e X o x e X o x e . o x c c m c e 4 o @ +         o 1 v c &X&X&X&X",
"&X&Xc d T ~ b c x 9 . o 7 l l x 1.e O 4 x e .   . 4 x e . o x e . o w e . o x e X o l c &X&X&X&Xx l x 9       + 7 l &X&X&X&X&X&X",
"&X&X1.d T Y a t c v 3 3 l c c c 1.e . + 9 9 4 o   o x e . o x e . o x e . o x e % o l c &X&X&X&Xc c c v 4 o o 3 l z &X&X&X&X&X&X",
"&X&Xz f O.O.O.~ n c w b &X&X&X&X1.e X   . # w 9 . o x e X o x e . o x e . o x e + o x c &X&X&X&X&X&X&X&Xb l l l &X&X5.1.1.c &X&X",
"&X&Xc s ~ Y o.R n c c m &X&X&X&Xc 0 @ o   o x e . o w e X o x e % o x e . o w e . + p s &X&X&X&X&X&X&X&Xm c c m &X&Xg d d s &X&X",
"&X&X&X&Xn a O.^ b m &X&X&X&X&X&X&X&Xl 9 . o x e . o w e X o w e . o x e . o x e . & P ~ n c &X&X&X&X&X&X&X&X&X&X5.N Y T O.~ n 1.",
"&X&X&X&Xc s O.J b M &X&X&X&X&X&X&X&X1.r : * x e : 5 x e % 4 x e . 3 w e : = p u 4 = X.! b c &X&X&X&X&X&X&X&X&X&XN i O.+.o.^ b 1.",
"&X&X&X&X2.s T J b c &X&X&X&X&X&X&X&X1.d P H b d T H n e . o w e . o l f P P O.~ e p O.! n c &X&X&X&X&X&X&X&X5.g Y O.o.o.o.R b c ",
"&X&X&X&Xc f R W a B &X&X&X&X&X&X&X&X2.d O.~ b d O.^ b e = 5 x e : 5 p h ~ U +.! b d O.^ b c &X&X&X&X&X&X&X&XN i O.O.! ! R W b z ",
"&X&Xc 5.&X&Xb a Y ~ n M &X&X&X&X&X&X1.d O.! b d O.! b d P H x d L X.O.~ t a O.^ b d T ^ b c &X&X&X&X&X&X1.g Y O.o.J n n b b &X&X",
"&X&Xd N &X&Xc s O.^ b c &X&X&X&X&X&X1.d T ! b d O.~ b d O.U t t ~ U o.! 2.a O.! b d O.U a d &X&X&X&X&X&X1.s O.O.J W v c z z &X&X",
"1.g Y ~ n 3.c d O.J b c &X&X&X&X&X&X1.s O.^ b d O.^ b d O.! b c n a O.^ b d O.^ b s T o.O.~ n 1.&X&X&X&X1.g O.^ t b &X&X&X&X&X&X",
"c d O.! b c c s R W a N &X&X&X&X&X&Xf i O.^ b d O.^ b d O.! n 2.1.d O.! b d O.U a j ~ U +.U a d &X&X&X&Xg j ^ Q a s &X&X&X&X&X&X",
"c d O.^ b m &X&Xb a Y ~ 3.1.3.c 1.N Y O.o.^ b d O.^ b d O.! b c c d O.^ b d O.+.O.~ n a O.+.O.~ n 1.1.N Y ~ t d Y R n m &X&X&X&X",
"c d @.^ b M &X&Xz d ~ Q h d d d d i O.o.L H b d O.^ b d T ! n 2.2.d O.! a h ~ U o.J b f ~ R ^ Q d s r y I Z x d O.R b c &X&X&X&X",
"c d O.J v 3.&X&X&X&Xb a Y O.O.O.O.O.+.L & 3 l d O.^ b d O.~ b c 2.d O.o.O.~ t a O.J b 1.n b v a Y I * . $ O l f O.R b c &X&X&X&X",
"c s ~ W a N &X&X&X&Xc d ~ R ^ ^ ! ~ ! Z 4 3 p i O.^ b s O.! b 2.1.t ~ U +.! b f ~ W e e c c c f ~ H # + o 3 p i ~ W b c &X&X&X&X",
"&X&Xb a Y ~ 3.M &X&X&X&Xb n b b b b b b x p Y T o.^ n s O.! n c 2.c b a O.! b c n r * 3 l c &X&Xn b l l x p Y ~ n v 1.c &X&X&X&X",
"&X&Xc f I Z b n &X&X&X&Xc 2.d d d f 2.b d i O.o.U Q a i O.! n c x c 1.d O.U a f c w @ 3 9 v &X&X3.c c c 1.f ~ Q a d s s &X&X&X&X",
"&X&Xc e * o x M &X&X&X&X1.d Y T T ~ b f Y O.+.J n a Y X.+.R b c &X&Xc s O.X.O.^ b 2.x 0 * 4 b 3.&X&X&X&X1.c c a U O.O.~ n m &X&X",
"&X&Xc e # 3 9 v &X&X&X&X1.f ~ U o.U a h ~ ! ! W a j I I R W b z &X&Xc s ~ U I H a f 2.w 4 1 l c &X&X&X&Xg d d i O.o.T ~ b z &X&X",
"&X&X&X&Xx 9 O 4 m 3.3.3.1.2.b a O.o.o.~ t n b a Y I & # e b &X&X&X&X&X&Xn q - : P ~ b 1.x l 1.c 3.3.3.g Y O.O.O.+.T &X&X&X&X&X&X",
"&X&X&X&Xc w @ 3 9 e e e e e e u ~ U I Z r e e y I A @ @ l z &X&X&X&X&X&Xc 0 @ = S H e e w e e e e e e y I I J ! Y T &X&X&X&X&X&X",
"&X&X&X&X&X&Xl 9 O . . . . . % 4 e r = % . . . % $ o w l &X&X&X&X&X&X&X&X&X&Xz 9 * % % . . . . . * . . . $ O e n &X&X&X&X&X&X&X&X",
"&X&X&X&X&X&Xc e 3 o o o o o o 1 l w 4 o o o o o o 3 l m &X&X&X&X&X&X&X&X&X&Xc e 4 o o o o o o 3 o o o o o 3 l c c &X&X&X&X&X&X&X",
"&X&X&X&X&X&X&X&Xw x w x x w x x c 2.l x x l x l l v &X&X&X&X&X&X&X&X&X&X&X&X&X&Xl l x l w x x w w x w w l l &X&X&X&X&X&X&X&X&X&X",
"&X&X&X&X&X&X&X&X1.1.1.1.1.c 1.2.c c 2.2.c c c c 1.m &X&X&X&X&X&X&X&X&X&X&X&X&X&X1.1.2.2.1.2.1.1.1.1.1.1.c c &X&X&X&X&X&X&X&X&X&X"
};
