/* XPM */
static char *c48daa16008f47d7d4ff979f8a54096e7RstE2lvJG5SZ4jV[] = {
/* columns rows colors chars-per-pixel */
"64 64 188 2 ",
"   c None",
".  c #5C012D",
"X  c #55062D",
"o  c #5D0634",
"O  c #550B3A",
"+  c #5D0C3B",
"@  c #580A37",
"#  c #56113F",
"$  c #5B133D",
"%  c #61002D",
"&  c #650231",
"*  c #6D0132",
"=  c #670837",
"-  c #650A3C",
";  c #6D0E3F",
":  c #710033",
">  c #780237",
",  c #720639",
"<  c #780238",
"1  c #60123D",
"2  c #392A4B",
"3  c #4F1545",
"4  c #451E43",
"5  c #551241",
"6  c #581040",
"7  c #511D46",
"8  c #660B40",
"9  c #442347",
"0  c #593365",
"q  c #53376A",
"w  c #533D6D",
"e  c #5A386E",
"r  c #4B3B71",
"t  c #543D72",
"y  c #593C71",
"u  c #5B3F79",
"i  c #4B3B6F",
"p  c #67336D",
"a  c #7D2E71",
"s  c #6D3675",
"d  c #663B76",
"f  c #683A77",
"g  c #653B78",
"h  c #6A3C79",
"j  c #773173",
"k  c #4B4276",
"l  c #4C437A",
"z  c #4C4A7D",
"x  c #4D4A77",
"c  c #524073",
"v  c #54447C",
"b  c #59467D",
"n  c #514D7D",
"m  c #41527F",
"M  c #51507E",
"N  c #694077",
"B  c #694178",
"V  c #7C467D",
"C  c #800139",
"Z  c #800137",
"A  c #9F1057",
"S  c #9E115A",
"D  c #A5054B",
"F  c #AD044D",
"G  c #B7014F",
"H  c #B8014F",
"J  c #AF0955",
"K  c #A60F5A",
"L  c #AE0F5F",
"P  c #A00F57",
"I  c #B50452",
"U  c #BA0454",
"Y  c #B30D5E",
"T  c #BC0C5D",
"R  c #B00954",
"E  c #AE105F",
"W  c #B1155E",
"Q  c #9A1A64",
"!  c #971B66",
"~  c #AE0F60",
"^  c #A71461",
"/  c #AB1261",
"(  c #BA1462",
")  c #B31B67",
"_  c #9A266C",
"`  c #952B6D",
"'  c #952567",
"]  c #983A7A",
"[  c #8E2D6C",
"{  c #A2236B",
"}  c #BC256B",
"|  c #A63174",
" . c #B13879",
".. c #AF2871",
"X. c #C20154",
"o. c #CA0157",
"O. c #C2065B",
"+. c #C90258",
"@. c #CE0B5F",
"#. c #D1065D",
"$. c #CE0C61",
"%. c #D00B60",
"&. c #C21465",
"*. c #C61D6C",
"=. c #CB1767",
"-. c #D21669",
";. c #D51F71",
":. c #C12F74",
">. c #3A5782",
",. c #1B7885",
"<. c #2D7386",
"1. c #2E7C90",
"2. c #307C90",
"3. c #386C82",
"4. c #4C4B81",
"5. c #4C4780",
"6. c #514D82",
"7. c #535082",
"8. c #A03E80",
"9. c #964780",
"0. c #BF72AA",
"q. c #EF4D93",
"w. c #F24893",
"e. c #F54A96",
"r. c #F6539B",
"t. c #F8519B",
"y. c #F5589D",
"u. c #E75B9F",
"i. c #FF5EA4",
"p. c #D373AE",
"a. c #DB7EB1",
"s. c #E56AA6",
"d. c #F462A5",
"f. c #FC61A5",
"g. c #FD6BAD",
"h. c #F166A8",
"j. c #EB75AE",
"k. c #E878AF",
"l. c #E879B0",
"z. c #EA76B0",
"x. c #FA78B6",
"c. c #FC77B5",
"v. c #07848A",
"b. c #029598",
"n. c #049499",
"m. c #1E8A95",
"M. c #2A8496",
"N. c #0B9DA2",
"B. c #03A3A5",
"V. c #589FBE",
"C. c #5CA0BF",
"Z. c #47A0BA",
"A. c #3AAFC6",
"S. c #32BACC",
"D. c #38B2C8",
"F. c #3EBED1",
"G. c #25B3C0",
"H. c #57ACC7",
"J. c #4EB6CD",
"K. c #0DCBD3",
"L. c #12C8D1",
"P. c #07D8DE",
"I. c #09D5DA",
"U. c #16CBD5",
"Y. c #35C0D2",
"T. c #39CBDC",
"R. c #0DE1E3",
"E. c #46C5D6",
"W. c #DC8BB9",
"Q. c #C884B6",
"!. c #E784B9",
"~. c #E884B9",
"^. c #E783B5",
"/. c #C2BDD9",
"(. c #ADDCE5",
"). c #BED2E2",
"_. c #B5E5EC",
"`. c #B5E8EE",
"'. c #B3F2F6",
"]. c #C4CADF",
"[. c #C4CCE1",
"{. c #C9C8E1",
"}. c #DACCE7",
"|. c #D9CEE8",
" X c #C9D9EB",
".X c #C8D5E7",
"XX c #D5D2EA",
"oX c #CAE5F3",
/* pixels */
"                                                                                                                                ",
"                                                                                                                                ",
"                                                                                                                                ",
"                                                                                                                                ",
"                                                                                                                                ",
"                                                                                                                                ",
"                                                5.z z z z z z z z z z z z z z z                                                 ",
"                                                t k >.>.>.>.>.>.>.>.>.>.>.m t w                                                 ",
"                                    z z z z 4.t - 4 v.b.b.b.n.n.b.b.b.b.b.,.$ + k 5.z z z z                                     ",
"                                    t t t t t q 4 2 <.1.2.M.B.N.M.1.1.1.1.3.9 4 q t t t t w                                     ",
"                            z z 5.t + o o o o 4 v.<.) T T [ I.S.) T T T T ' v.,.$ o o o o 5 k 5.z z                             ",
"                            t t t 0 o % * : : 7 b.M.T o.o.` P.Y.&.o.o.o.o.' N.m.; : : * . O q t t w                             ",
"                        z t + o o o . * H X.X.' I.S.( o.o.` P.Y.&.o.+.o.o.` K.S.( X.X.F & . o o o # k z                         ",
"                        t 0 o % * : * C X.T _ V D.C.*.$.@.| F.H. .} $.$.$.] P.Y.&.o.o.U < : : * . O q t                         ",
"                    z t + o . * G X.X.X.o._ L.D.} *.q.r.r.y.h.a.(.[.d.t.t.0.R.Y.&.o.o.+.X.U X.F & . o # k z                     ",
"                    z t o % * C X.o.o.+.@.| F.H. .:.y.i.i.i.i.j. XXX~.j.i.p.E.H. .} $.$.o.o.o.U > * . O k z                     ",
"                    5.t o * G X.o.o.o.$.w.y.d.a.(.[.g.i.i.i.i.f.g.~._. Xg.i.h.a.(.[.d.w.@.o.o.+.X.F % O k z                     ",
"                    t 0 o : X.o.o.o.$.*.s.l.l.W. X}.g.i.i.i.i.i.i.l.'.oXg.i.i.l.'.oXg.t.-.$.o.o.o.I & @ q w                     ",
"                z t + o . * X.o.o.$.w.s._.'.'. Xx.g.i.i.i.i.i.i.i.l.'.oXg.i.i.l.'.oXg.i.y.w.@.o.o.I & . o # k z                 ",
"                z t o % * Z X.o.o.&.s.W. XoXoX}.g.i.i.i.i.f.k.l.l.W. X}.g.f.k.W. X}.g.i.f.t.$.o.o.U > * . O k z                 ",
"                z t o * G X.o.o.o.} (. Xx.g.g.g.i.i.i.i.i.k._.'.'. Xx.g.i.k._. Xc.g.i.i.i.t.$.o.o.+.X.F & O k z                 ",
"                z t o : X.o.o.T _ 9.).|.g.i.i.i.i.i.i.f.k.W. XoXoX}.g.i.i.j. XXX!.j.f.i.i.t.$.o.o.o.o.I & O k z                 ",
"                z t o : X.o.o._ L.F.j.g.i.i.i.i.i.i.i.k._. Xc.g.g.g.i.i.i.f.g.~._. Xg.i.i.t.$.o.o.o.o.I & O k z                 ",
"                z t o : U o.o.` I.T.u.t.i.i.i.i.i.i.i.j. XXX^.j.f.i.i.i.i.i.i.j. XXX~.j.r.w.@.o.o.o.o.I & O k z                 ",
"                z t o : X.o.o.` P.Y.*.-.r.i.i.i.i.i.i.f.g.~._. Xg.i.i.i.i.i.i.f.g.~.`.[.;.#.o.o.+.o.o.I & O k z                 ",
"                z t o * F U o.{ A.H.] | q.t.t.t.t.t.t.t.t.s.].{.Q.p.r.t.t.t.t.t.t.s.[./.] ` ` { +.+.I D & O k z                 ",
"                5.t o . & < X.+.&.] L.D.*.%.$.$.$.$.$.$.$.$.-.8.U.J.*.@.$.$.$.$.$.$.-.] L.P.P.D.&.U = & . O k z                 ",
"                z t 5 @ . * F U o.{ D.V.E I I I I I I I I I I ' G.Z.E I I I I I I I G ' A.Y.Y.V.W D & . O 5 k x                 ",
"                    k q o . & > X.+.&.W = & & & & & & & & & & & $ 1 & & & & & & & & & , ( &.&.W = & . O r k                     ",
"                    5.t o . . * F I I D & . O O O O O O O O O O O O O O O O O O O O . * F I I D & . . O k z                     ",
"                    5.t o . . . & & & & . O r k k k k k k k k k k k k k k k k k k q o . & & & & . . . O k z                     ",
"                    z t # @ . . O O O O O 3 k z t t t c z z t c z z t c z z t t z t 5 O O O O O . . O 5 k z                     ",
"            z M         k q o O r k k k k k z t + o o 5 k t + 5 k t + 5 k t + 5 k z k k k k k q o O i k                         ",
"            f N         z w # 3 k z 5.z t t t 0 # @ . O k t o O k t o O k t o O k z t t z z z c 5 5 k z                         ",
"        z h T ^ b n         k k     z t + o o 5 r q o O k t o O k t o O k t o O k t + 5 k z     l k                             ",
"        z f O.L v n         z n     z t 5 O . O k t o O k t o O k t o O k t o O k t o O k z     n n                             ",
"        z f O.E v n                     k q o O k t o O k t o O k t o O k t o O k t o O k z         4.4.5.5.5.5.4.z             ",
"        z f O.E v n                     5.y , - k y , - k t o O k t o O k y , - k y , - k z         h f f f f f f d             ",
"        z f O.E v n                     4.f U K v f U K v t o O k t o O k f U K v f U K v z     4.h T O.O.O.O.O.O.^ b z         ",
"        z d / Q s N                     4.f O./ v f O.E b t , - k y , 8 k f O./ v f O.E v z     4.f O.+.L E / Y o.Y s d         ",
"            v s T ^ b 5.5.M             z f O.E v f O.E v f U K v f U K v f O.E v f O.E v z     4.f O.L u v v s O.+.O.^ b z     ",
"            z h O.Y s f f N             5.f O.E v f O.E v f O./ v f O./ v f O.E v f O.E v z     4.f O.E v z z d ^ Y o.E v z     ",
"            z h O.o.O.O.O.^ b 4.5.5.5.5.4.f O.L v f O.E v f O.E v f O.E v f O.E v f O.E v z     4.f O./ v z     6.s O.E v z     ",
"            z f / E E E L Q s f f f f f f j / ! v f O.E v f O.E v f O.E v f O.E v h O./ v z     h a O.E v z     4.g R A v z     ",
"                v v v v v s T O.O.O.O.O.+./ u v z f O.E v f O.E v f O.E v f O.E v f O.L b z 4.h T +.o.E v z     6.t = + k z     ",
"                z z z z z d ^ E / / / / L ! b z z f O.E v f O.E v f O.E v f O.E v g ^ Q y t t p J I L ! b x     6.t o O k z     ",
"                            v v v v v v v b     4.f O.E v f O.E v f O.E v f O.E v z b y + o o o & + t b         6.t o O k z     ",
"                            z z z z z z z x     h a +./ v f O.E v f O.E v h O./ v z z t 5 O O O O 3 k z         n t 5 5 k z     ",
"                                            4.h T O.o.L v f O.E v f O.E v f O.L v z     k k k k k k                 v k         ",
"                                            z f O.+.L ! v f O.E v f O.E v g ^ Q s d     n z z z z n                 n z         ",
"                z M                 z n     z h O.L u v z f O.E v f O.E v z v s T ^ b z             6.z                         ",
"                f B                 f d     z f O.E v z z f O.E v f O.E v z z f O.L v z             h d                         ",
"            4.h T ^ b 7.        4.h T ^ b 4.4.f O.E v z 4.f O.E v f O.E v z z f O.L v z         6.h T ^ b n     7.z             ",
"            z f O.L v n         z f O.Y s g z f O./ v v f a O.E v h O.E v z z g ^ Q s d         4.f O./ v z     h d             ",
"            z f O./ v z         z f O.o.O.^ v f O./ v f T O.o.L v f O./ v 4.z z v s T ^ b n     4.f O.L v 5.4.h T ^ b z         ",
"            z h O.Y s B         z f / Y o.E v f O./ v f O.O.Y ! v f O.Y s g z z z g J A v z     4.g ^ ! v v f a +.E v z         ",
"            z f O.+.O.^ b 7.        b s O.E v f O.L v h O.Y u v z f O.o.O.^ b z z t = + k z     6.z v v z f T +.o.E v z         ",
"            z f / Y o.~ v n         z h O.Y s j / ! v f J A e c z d ^ Y o.L e t z t # 3 k z     4.v f f f j / E E Q b z         ",
"                v s O./ v 5.6.6.6.6.5.h O.o.O./ b v 4.t = & o @     b s O.I = 5 k 5.k k z 5.6.6.5.f T O.O./ u v v b             ",
"                4.f J A e t t t t t t p ^ Y I P e t t 0 o . . .     z d ^ A & @ q t t t t t t t t p / / ~ Q v z z z             ",
"                z t = & o o o o o o o 6 t y = & o o o o . . . .         b e o . o o o o o o o o o 6 t v v b                     ",
"                z w # O O O O O O O O 3 k t 5 O O O O O O O . X         z w 5 O O O O O O O O O O 3 k z z x                     ",
"                    k k k k k k k k k k z 5.k k k k k k k k                 k k k k k k k k k k k k 5.z                         ",
"                    z 5.z z z z z z z z z 5.5.4.z z z 5.z z                 6.5.5.z z z z z z z 5.z z z                         "
};
