/* XPM */
static char *fb89c0d79dc94b9980ddd1cf242c6d58Jb4UOP09matyNrBf[] = {
/* columns rows colors chars-per-pixel */
"64 64 163 2 ",
"   c None",
".  c #4D4976",
"X  c #4C477E",
"o  c #4D4A7D",
"O  c #514D7C",
"+  c #4E507D",
"@  c #52527E",
"#  c #3A5783",
"$  c #3B5E81",
"%  c #4C4780",
"&  c #4E4A80",
"*  c #514D81",
"=  c #555383",
"-  c #595685",
";  c #575885",
":  c #5A5A85",
">  c #575588",
",  c #595589",
"<  c #5D5C8A",
"1  c #605E8B",
"2  c #5F6F87",
"3  c #4F7E8B",
"4  c #5F7384",
"5  c #507D8A",
"6  c #616187",
"7  c #63648D",
"8  c #636C8A",
"9  c #627586",
"0  c #647A86",
"q  c #637589",
"w  c #667D89",
"e  c #6A7F8C",
"r  c #636391",
"t  c #6D7D91",
"y  c #188B92",
"u  c #049297",
"i  c #0B9196",
"p  c #059599",
"a  c #1E9C9E",
"s  c #3E959B",
"d  c #02A6A6",
"f  c #10A0A4",
"g  c #21A7AA",
"h  c #408C91",
"j  c #518F99",
"k  c #538C96",
"l  c #479199",
"z  c #63858F",
"x  c #6D838F",
"c  c #70858F",
"v  c #638691",
"b  c #6F8590",
"n  c #6A8993",
"m  c #6B8E98",
"M  c #718690",
"N  c #768D96",
"B  c #798C97",
"V  c #768D98",
"C  c #798D98",
"Z  c #72919B",
"A  c #02D9D9",
"S  c #1FD6D8",
"D  c #12DFDF",
"F  c #20CCD1",
"G  c #37CDD2",
"H  c #26D5D7",
"J  c #22D7D8",
"K  c #26D8DB",
"L  c #2FDDDF",
"P  c #31DCDF",
"I  c #3DD9DC",
"U  c #07DFE0",
"Y  c #26DFE0",
"T  c #2BDEE1",
"R  c #31DEE1",
"E  c #03E0E1",
"W  c #0CE6E7",
"Q  c #0EE7E8",
"!  c #04E8E9",
"~  c #0DE8E9",
"^  c #1BE6E7",
"/  c #14EBEB",
"(  c #1CE9EB",
")  c #22E3E4",
"_  c #2CE3E3",
"`  c #21EAEB",
"'  c #36E2E3",
"]  c #3DE5E6",
"[  c #44D7DB",
"{  c #4BDDDD",
"}  c #9FA9BE",
"|  c #A1ACBE",
" . c #A3B3BE",
".. c #AAB5BD",
"X. c #9FA8C1",
"o. c #A0A6C0",
"O. c #A1ABC0",
"+. c #A4B5C0",
"@. c #AAB6C7",
"#. c #A1BDC5",
"$. c #ADBBC6",
"%. c #ABB6C8",
"&. c #A2BFC8",
"*. c #AEBBC8",
"=. c #B0BEC7",
"-. c #B0BFC8",
";. c #8FC7CE",
":. c #9BC0C7",
">. c #91C5CC",
",. c #9EC8CF",
"<. c #8FC9D0",
"1. c #9CCDD4",
"2. c #8AD0D6",
"3. c #80D6DB",
"4. c #95D1D7",
"5. c #94D0D8",
"6. c #99D5DB",
"7. c #A9C0C7",
"8. c #A4C0C9",
"9. c #ABC6CE",
"0. c #ACC8CF",
"q. c #B7C6CE",
"w. c #B8C6CF",
"e. c #B8C8CE",
"r. c #AECCD4",
"t. c #B7C7D0",
"y. c #B9C7D0",
"u. c #B4CCD3",
"i. c #BCCAD2",
"p. c #A2D2D6",
"a. c #A9D0D6",
"s. c #B7D2DA",
"d. c #B6ECED",
"f. c #BEEBEB",
"g. c #AEF5F5",
"h. c #A7F8F8",
"j. c #B6F3F4",
"k. c #BBF4F6",
"l. c #B5F7F8",
"z. c #B7FDFE",
"x. c #B6FCFC",
"c. c #BDF9F9",
"v. c #C1CED3",
"b. c #CBE4E5",
"n. c #C5EAE9",
"m. c #C8E9E9",
"M. c #D4E2E5",
"N. c #DAE4E6",
"B. c #DCE4E6",
"V. c #DBE4E6",
"C. c #D2E7E9",
"Z. c #DCE7E8",
"A. c #D5EDED",
"S. c #DDEAEA",
"D. c #D0F0EF",
"F. c #C4F7F6",
"G. c #C1F9F8",
"H. c #E1E8E7",
"J. c #E1E7E8",
"K. c #E0E8E9",
"L. c #E1E8E9",
"P. c #E2E8E9",
"I. c #E0E8E9",
/* pixels */
"                                                                                                                                ",
"                                                                                                                                ",
"                                                                                                                                ",
"                                                                                                                                ",
"                                                                                                                                ",
"                                                                                                                                ",
"                                                                                                                                ",
"                                                                                                                                ",
"                                                                                                                                ",
"                                                                                                                                ",
"                                                                                                                                ",
"                                                                                                                                ",
"                                            & o o & & & & & & & & & & o o & & & & o                                             ",
"                                            @ + # # # # # # # # # # # # # # + + + @                                             ",
"                            o o o o o o o @ 9 5 i u u u u u u u u u u u u y 4 9 9 9 = o o o o & o .                             ",
"                            @ + + + + + # $ 3 h d d d d d d d d d d d d d f l k w q @ o + + + + + @                             ",
"                    & & & @ 4 9 9 9 9 3 i u p d A E E E E E E E E E E E E E U F z 0 9 9 9 9 9 9 9 9 * & & .                     ",
"                    + + o @ 0 w b n j s d d a g K ) ! ! ! ! ! W Y Y Y Y Y ) ! S m M M M M M M b w q @ + + +                     ",
"            o o o + 9 9 9 9 0 c ..;.D E E J :.7.9.2.Q ! ! ! ! Y ,.9.9.9.9.2.Q Y &.$.*.*.*.*.*.+.x 0 9 9 9 9 = o o .             ",
"            + + o @ 0 w M M M Z <.3.T Y Y [ 9.y.y.1.' _ ) ) _ { u.i.i.i.i.p.' { a.u.t.t.y.y.y.*.C M M c w q @ o + @             ",
"        & @ 4 9 9 9 0 x ..$.=.<.^ T ,.9.9.9.q.q.q.i.b.n.h.g.b.M.V.B.B.B.B.V.b.m.l.j.i.q.q.q.q.q.-.$.=...x 0 9 9 9 9 * o         ",
"        @ @ 0 w c M M C -.y.w.5.Q Y u.i.i.i.i.i.i.v.B.A.z.c.S.L.L.L.L.L.L.L.L.A.z.k.i.i.i.i.i.i.y.y.y.$.C M M b w q @ @         ",
"    o @ 4 0 0 M +.*.*.-.q.w.w.5.Q _ b.B.B.B.B.V.V.B.J.A.z.c.S.L.L.L.L.L.L.L.J.A.z.c.N.V.B.B.B.M.i.q.w.q.*.*.*.+.x 0 0 9 = .     ",
"    o + 9 w 0 M $.i.t.y.i.i.u.6.' { M.L.L.L.L.L.L.L.L.A.c.F.A.A.S.L.L.L.L.S.A.A.c.F.S.L.L.L.L.V.v.i.i.i.i.t.i.$.b 0 w q * .     ",
"    o + 9 w 0 M $.w.q.i.N.C.l.k.b.M.Z.L.L.L.L.L.L.L.L.S.S.A.x.c.S.L.L.L.H.A.x.c.S.S.S.L.L.L.L.S.B.B.B.M.i.q.y.$.x 0 w q * .     ",
"    o + 9 w x C -.w.i.v.B.A.z.c.S.L.L.L.L.L.L.L.L.L.L.L.L.A.z.c.S.L.L.L.H.A.c.F.A.A.S.S.L.L.L.L.L.L.L.V.v.i.w.$.C x w q * .     ",
"    o + 9 M +.-.q.i.M.B.J.A.z.c.S.L.L.L.L.L.L.L.L.L.L.L.L.A.z.c.S.L.L.L.S.L.S.A.z.c.S.H.L.L.L.L.L.L.L.S.B.M.i.q.*. .x q * .     ",
"    o + 9 M $.y.q.i.B.S.A.D.c.F.S.L.L.Z.V.V.V.V.V.V.V.V.V.C.k.j.d.d.d.f.N.V.V.C.k.k.A.A.S.L.L.L.L.L.L.L.L.V.i.q.w.$.b q * .     ",
"    o + 9 M $.w.q.i.B.A.x.c.S.S.L.L.L.V.v.i.i.i.i.i.i.i.i.i.i.6.` / / ' u.i.i.i.i.s.l.G.L.L.L.L.L.L.L.L.L.V.i.q.w.$.b q * .     ",
"    o + 9 M $.y.q.i.B.A.z.c.S.L.L.S.V.M.i.q.w.w.w.w.w.w.w.w.w.1.R Y Y I 2.1.q.q.q.u.j.j.d.d.d.f.S.L.L.L.L.V.i.q.y.$.b q * .     ",
"    o + 9 M $.y.q.i.B.A.z.c.S.L.L.V.v.i.y.y.y.y.y.y.y.y.y.y.y.t.0.0.0.2.( R 0.w.q.e.i.6.` / / ] M.L.L.L.L.V.i.q.y.$.b q * .     ",
"    o + 9 b ..*.q.u.d.d.j.k.V.V.V.M.i.q.$.$.$.$.$.$.$.$.$.$.$.$.$.$.$.>.H G #.$.$.$.$.>.P ) ! _ b.V.V.V.V.M.i.q.*. .b q * .     ",
"    o + 9 w x C -.4.( ' r.i.i.i.i.i.i.*.V b b b b b b b b b b b b b b b v v b b b b b V 8.2.Q Y r.i.i.i.i.i.i.*.V x w q * .     ",
"    O @ 9 q 0 x ..>.L [ 9.q.$.$.$.$.$. .x 0 q q q q q q q q q q q q q q q q q q q q 0 x ..>.H G #.$.q.w.w.q.*. .x 0 q 8 @ O     ",
"        * @ 0 w x N 8.0.y.*.N x x x b x w q = * * * * * * * * * * * * * * * * * * @ 0 w b b v z x B -.y.y.*.B x w q = O         ",
"        % o 9 q 0 b ..$.$. .x 0 q q q q q q = o o o o o o o o o o o o o o o o X o @ 9 q q q q q 0 x  .$.$. .x 0 w q * .         ",
"        X X * @ 0 w x b b b w q = * * * * @ 4 9 * X o o 4 9 * o 4 9 * o 4 9 * o 4 9 = * * * * = 9 w x b b x w w w q & .         ",
"        : ; & o 9 q 0 0 q q q 8 & o o o o + 0 q = o & + 9 q * + 9 q * + 9 q * + 9 q * o O O O @ q q q q 0 w w 0 q 8 @ o         ",
"    O < | | > X * @ 0 q = * * * & o 4 9 & o 9 w 0 9 * + 9 q * + 9 q * + 9 q * + 9 q * o         = * * = 0 w w q = O             ",
"    X : $.*.r > & o 9 8 = o o o o + 0 q = @ 9 q w q * + 9 q * + 9 q * + 9 q * + 9 q * o         = o o @ 9 q q 8 @ @             ",
"    X : $.y.$.} > o & -         & + 9 w 0 9 = = 9 q * + 9 q * + 9 q * + 9 q * + 9 q o .                 > * * O     - * * O     ",
"    . : | *.q.%.> o O @         O @ 9 q w q * + 9 q * + 9 q * + 9 q * + 9 q * + 9 q : :                 = . . @     6 : : :     ",
"        > 7 $.%.> @                 = @ 9 q * + 9 q * + 9 q * + 9 q * + 9 q * o 9 c  .| < @                     - < | $.$.| < * ",
"        X : $.%.> @                 o @ e t * @ x t * + 9 q * + 9 q * @ x b < : 9 t =.%.> .                     1 8 $.e.e.%.- X ",
"        X : $.%.> @                 o :  .O.> :  .O.> + 9 q & o 9 q & >  .-.$.| < < $.%.> .                 = < | $.q.w.i.%.> X ",
"        O : O.O.7 6                 o : $.%.> : $.%.> @ x t * @ e t : 7 | *.q.%.> : $.%.> .                 < 8 $.q.%.@.%.O.: . ",
"    O -     > 7 | O.< -             o : $.%.> : $.%.> :  .O.> :  .$.$.| r 7 $.%.> : $.%.> .             - < | $.w.*.r > > :     ",
"    : 6     o : $.%.- @             o : $.%.> : $.%.> : $.%.> > } *.q.@.- : $.%.> : $.*.r :             * : $.q.%.O.- . . .     ",
"* < | O.1 * o : $.%.> O             o : $.%.> : $.%.> : $.%.> o > r $.%.> : $.%.> : $.q.$.| < O         * : $.*.r -             ",
"X : $.%.> o . : | O.7 6             : 7 $.%.> : $.%.> : $.%.> o X : $.%.> : $.*.7 7 | *.q.*.7 :         1 7 | O.7 :             ",
"X : $.%.> @     > 7  .O.< * * * * < | $.w.%.> : $.%.> : $.%.> o X : $.%.> : $.y.$.| r 7 $.q.$.| < * * 1  .O.r 7 | O.< O         ",
"X : $.%.> =     . : O.O.r : : : : 7 $.q.*.| > : $.%.> : $.%.> o X : $.*.7 7 | *.q.%.> > } @.%.O.7 > + :  .O.= : $.%.> .         ",
"X : $.%.> @         > 7 | $.$.$.$.$.w.*.V t & : $.%.> : $.%.> o X : $.y.$.| r 7 $.%.> o > > > 7 |  .e 0 x t & : $.%.> .         ",
". : O.O.7 6         . : O.%.%.%.%.%.%.| t 8 : 7 $.%.> : $.%.> o o - | *.w.%.> > } X.: o o o . : O.O.t q q 8 : 7 | o.> .         ",
"    > 7 | O.< :         > > > > > > > > & : } $.w.%.> : $.%.> o o & > r $.%.> o > : 9 9 * .     < > * & & : | | r = & .         ",
"    X -  .O.> =         o o ; : : - o o - 7 $.t.%.O.7 7 $.%.> o . o X : $.*.7 > & o 9 q @ @     = . . o o - | O.7 : : :         ",
"    o @ e t * =         o : | $.$.} = ; | $.w.*.r 7 | $.q.%.> O     & : $.q.$.} > X * = 4 q > ;         * o = 7 | $.$.O.< O     ",
"    . @ 9 8 @ :         o - | *.w.*.7 7 O.%.%.O.7 7  .*.%.O.: O     O : | @.$.+.r > & o 9 8 & O         6 : : 7 $.q.*.O.- .     ",
"        * @ 9 9 - * = * o & > r $.q.$.| r > > 7 |  .N t < :             < : x B  .| > o * * & o * = * 6 | $.$.$.w.*.r >         ",
"        . + 9 8 @ o + + + + o : } @.*.O.: o o :  .+.t 8 O O             O @ 4 t +.O.: + + + + + + + o :  .*.%.%.%.O.- .         ",
"            * @ 9 9 9 9 9 9 9 q < : x x 0 9 9 0 x t = =                     = = e x 0 9 9 9 9 9 9 9 9 0 x t < > > -             ",
"            . + q q q q q q q 8 & o 2 q q q q q q 8 O O                     O @ 9 q q q q q q q q q q q q 8 o o . .             ",
"                * * * * * * * * o o * * * * * * & @                             = * * * * * * * * * * * & @                     ",
"                & o o o o o o o o o o o o o o o X O                             * o o o o o o o o o o o o .                     "
};
