/* XPM */
static char *fbeab74b37244ed3ccc606ed819be7b5X8YYFxqAdQdLDEYK[] = {
/* columns rows colors chars-per-pixel */
"64 64 156 2 ",
"   c None",
".  c #020203",
"X  c #070804",
"o  c #0A0B05",
"O  c #060509",
"+  c #0B0A0E",
"@  c #151602",
"#  c #1E1E03",
"$  c #101009",
"%  c #1A1A0B",
"&  c #0D0C14",
"*  c #0F0D18",
"=  c #100E17",
"-  c #100E18",
";  c #131216",
":  c #171816",
">  c #1F1F10",
",  c #14121A",
"<  c #18161E",
"1  c #1C1C1D",
"2  c #201F01",
"3  c #1F2010",
"4  c #1F221D",
"5  c #2D2D00",
"6  c #22220E",
"7  c #343405",
"8  c #373800",
"9  c #222210",
"0  c #23231E",
"q  c #353515",
"w  c #373813",
"e  c #3C3D15",
"r  c #373719",
"t  c #373819",
"y  c #3A3B1B",
"u  c #171620",
"i  c #191720",
"p  c #1B1A21",
"a  c #1F1D28",
"s  c #201F25",
"d  c #1F2021",
"f  c #222222",
"g  c #2E2F21",
"h  c #25242A",
"j  c #28272F",
"k  c #343425",
"l  c #383826",
"z  c #33342C",
"x  c #393A29",
"c  c #2F2D36",
"v  c #302F36",
"b  c #3A3B34",
"n  c #323138",
"m  c #363939",
"M  c #3A3D3C",
"N  c #3D403E",
"B  c #504F1C",
"V  c #4E501C",
"C  c #545515",
"Z  c #52531C",
"A  c #424229",
"S  c #4C4C2B",
"D  c #525224",
"F  c #52542A",
"G  c #5A5C2C",
"H  c #4B4A34",
"J  c #42453E",
"K  c #4B4D3F",
"L  c #4F5035",
"P  c #4F523E",
"I  c #555832",
"U  c #52553E",
"Y  c #55583F",
"T  c #6C6E35",
"R  c #696B3A",
"E  c #3B3F40",
"W  c #3E4140",
"Q  c #414441",
"!  c #4C4F48",
"~  c #4F5142",
"^  c #4F524B",
"/  c #535542",
"(  c #575A41",
")  c #585B42",
"_  c #52544D",
"`  c #676944",
"'  c #6B6D45",
"]  c #63664E",
"[  c #67694C",
"{  c #686B4C",
"}  c #636657",
"|  c #7D800D",
" . c #838501",
".. c #939501",
"X. c #9E9F0A",
"o. c #949711",
"O. c #9D9E11",
"+. c #A2A300",
"@. c #AEB007",
"#. c #B3B400",
"$. c #CECE00",
"%. c #D5D501",
"&. c #D9D904",
"*. c #C5C512",
"=. c #C7C812",
"-. c #CDCD16",
";. c #CECE19",
":. c #D6D617",
">. c #DBDC16",
",. c #D2D31B",
"<. c #DFDF18",
"1. c #E0DF18",
"2. c #E7E701",
"3. c #EBEC01",
"4. c #F6F601",
"5. c #FFFE02",
"6. c #FBFB09",
"7. c #E4E415",
"8. c #E2E219",
"9. c #E7E81C",
"0. c #E8E81D",
"q. c #FBFB1D",
"w. c #C1C224",
"e. c #C9CA24",
"r. c #C5C528",
"t. c #C7C82C",
"y. c #CCCD2C",
"u. c #CCCE30",
"i. c #FAFA20",
"p. c #D4D46F",
"a. c #CCCB77",
"s. c #CECE79",
"d. c #CFD07F",
"f. c #D7D772",
"g. c #DADA72",
"h. c #D3D47E",
"j. c #D6D77F",
"k. c #D3D47D",
"l. c #D7D87F",
"z. c #ECED75",
"x. c #EBEB7E",
"c. c #ECED7E",
"v. c #ECED7E",
"b. c #CACB83",
"n. c #CED087",
"m. c #CED088",
"M. c #D2D386",
"N. c #D1D283",
"B. c #E4E387",
"V. c #E7E881",
"C. c #E7E78B",
"Z. c #E5E68B",
"A. c #E6E78B",
"S. c #E7E88C",
"D. c #C7C6C8",
"F. c #CECECE",
/* pixels */
"                                                                                                                                ",
"                                                                                                                                ",
"                                                                                                                                ",
"                                                                                                                                ",
"                                                                                                                                ",
"                                                                                                                                ",
"                                                                                                                                ",
"                                                                                                                                ",
"                                                                                                                                ",
"                                                                                                                                ",
"                                                                                                                                ",
"                                                                                                                                ",
"                                            , & & & & & & & & & & & & * & & * & * ,                                             ",
"                                            & & 3 9 9 9 9 9 9 9 9 9 9 9 6 > & & & &                                             ",
"                            ; - - - - & & & . @  .........................| $ . . . & = - - - - = ;                             ",
"                            & & & & & & 9 6 @ 5 +.#.#.#.#.#.#.#.#.#.#.#.#.X.7 # . . & & & & & & & &                             ",
"                    - - - & . . . . . @  .....+.3.4.4.4.4.4.4.4.4.4.4.4.4.4.2.*.% . . . . . . . . . & - - -                     ",
"                    & & & + . . . X 2 8 +.@.o.O.:.7.5.5.5.5.5.6.8.<.1.<.<.7.5.>.% . . . . . . . . . + & & &                     ",
"            = - - & . . . . . . , q $.2.4.>.A g k Z 3.5.5.5.5.7.S k k k k Z 3.8.k , 1 1 1 1 1 : . . . . . . & = - ;             ",
"            & & & & . . . . . o q C ;.8.8.r.k 1 1 t ;.9.q.i.0.t.z d f f p y ;.y.S k f 1 1 1 1 1 . . . . . . & & & &             ",
"        - & . . . . . . : 1 1 w %.;.S k k k 0 1 1 f K ' z.V.] ~ N M M M M N ~ ` f.a.z 1 1 1 1 1 1 1 1 : . . . . . . & -         ",
"        & + . . . . . . 1 1 1 e 3.8.x d f f f f f h M ( x.Z._ M W W W W W W E ) c.B.b f f f f f 1 1 1 1 . . . . . . + &         ",
"    ; & . . . . : 1 1 1 1 1 1 e 3.9.P M M M M M M M M ) c.Z._ M W W W W W W E ( c.Z._ M M M M m f 1 1 1 1 1 1 : . . . . & ;     ",
"    & & . . . . 1 1 1 1 f f l D ,.u./ W W W W W W W W / h.M.{ / Q W W W N J Y ' j.n._ N W W W M h f f f 1 1 1 1 . . . . & &     ",
"    & & . . . . 1 1 1 f m U p.k.] ~ Q W W W W W W W W Q _ ] g.h._ N W W W Y g.l.} ^ Q N W W W N M M M m f 1 1 1 . . . . & &     ",
"    & & . . . . 1 1 f h M ) c.S._ M W W W W W W W W W N M ( c.S._ N W W N / j.M.{ / Q W W W W W W W W M h f 1 1 . . . . & &     ",
"    & & . . : 1 1 f m M M ( c.S._ N W W W W W W W W W W W ) c.S._ E E E N Q ^ { g.j.^ M W W W W W W W N M m f 1 1 : . . & &     ",
"    & & . . 1 1 1 f M J Y ' j.m._ N W N M M M M M M M M M U s.d.R G G I N M m P k.N.{ / Q W W W W W W W W M f 1 1 1 . . & &     ",
"    & & . . 1 1 1 f M ( g.j.} ^ Q W W M h f f f f f f f f f z D &.3.3.;.k p f f z L g.j.^ E W W W W W W W M f 1 1 1 . . & &     ",
"    & & . . 1 1 1 f M ) c.Z._ M W N M m f 1 1 1 1 1 1 1 1 1 1 t -.8.8.e.V r 4 1 1 k s.N.R G G I J W W W W M f 1 1 1 . . & &     ",
"    & & . . 1 1 1 f M ( c.S._ N W M h f 1 1 1 1 1 1 1 1 1 1 1 0 k k k B %.;.k 1 1 f z D &.3.3.,./ W W W W M f 1 1 1 . . & &     ",
"    & & . . : 1 1 0 F T k.b.! M M m f 1 1 1 1 1 1 1 1 1 1 1 1 1 1 1 , q =.w.g 1 1 1 , q -.7.5.8.~ M M M M m f 1 1 : . . & &     ",
"    & & . . . . 1 e %.,.H z h f f f 1 1 . . . . . . . . . . . . . . . . % % . . . . . X g Z 3.8.x f f f f f 1 1 . . . . & &     ",
"    , ; . . . . , q ;.r.k 1 1 1 1 1 1 : . . . . . . . . . . . . . . . . . . . . . . . . : q =.w.g 1 1 1 1 1 1 : . . . . ; ;     ",
"        & + . . . o k k f 1 . . . . . . . . & & & & & & & & & & & & & & & & & & & + . . . X % % . . 1 1 1 1 . . . . & &         ",
"        * & . . . . : 1 1 : . . . . . . . . & & & & & & & & & & & & & & & & & & & & . . . . . . . . : 1 1 : . . . . & &         ",
"        & & & & . . . . . . . . & & & & & & . . & & & & . . & & . . & & . . & & . . & & & & & & . . . . . . . . . . & &         ",
"        ; = & & . . . . . . . . & & & & & & . . + & & & . . & & . . & & . . & & . . & & , , , ; . . . . . . . . . . = ;         ",
"    , , 1 1 = & & + . . & & & & & & . . & & . . . . & & . . & & . . & & . . & & . . & ,         , & & + . . . . + &             ",
"    & = 1 1 ; = * & . O , , , , & & . . & & . . . . & & . . & & . . & & . . & & . . & -         p - - , . . . O j v             ",
"    & = 1 1 1 1 - & & <         - & . . . . & & . . & & . . & & . . & & . . & & . . & -                 < & & j F.F.c , , ,     ",
"    ; , 1 1 1 1 - = , p         , & . . . . & & . . & & . . & & . . & & . . & & . . & ,                 p - & n F.D.j & = ;     ",
"        = ; 1 1 & <                 & + . . & & . . & & . . & & . . & & . . & & . . 1 1 < <                     n j 1 1 1 1 < , ",
"        * = 1 1 & 1                 - & . . & & . . & & . . & & . . & & . . & & . . 1 1 * =                     < = 1 1 1 1 * & ",
"        & = 1 1 & i                 - & 1 1 & = 1 1 = & . . & & . . & = 1 1 1 1 & & 1 1 - =                 a < 1 1 1 1 1 1 - & ",
"        < ; 1 1 ; p                 - = 1 1 = = 1 1 - & . O & & . . & ; 1 1 1 1 - = 1 1 - =                 1 ; 1 1 1 1 1 1 ; = ",
"    , h     = ; 1 1 < s             - = 1 1 = = 1 1 = = 1 1 & = 1 1 1 1 , ; 1 1 - = 1 1 - =             a < 1 1 1 1 ; = = =     ",
"    = p     - = 1 1 * <             - = 1 1 = = 1 1 = = 1 1 = = 1 1 1 1 - = 1 1 - = 1 1 , ,             u & 1 1 1 1 , - - =     ",
"< < 1 1 i , & = 1 1 * <             - = 1 1 = = 1 1 = = 1 1 = & * ; 1 1 - = 1 1 = = 1 1 1 1 < i         u & 1 1 , -             ",
"& = 1 1 & & , ; 1 1 ; 1             , ; 1 1 = = 1 1 = = 1 1 = & & = 1 1 - = 1 1 ; ; 1 1 1 1 ; ,         1 ; 1 1 ; ,             ",
"& = 1 1 * 1     = ; 1 1 i < < < < < 1 1 1 1 = = 1 1 = = 1 1 = & & = 1 1 - = 1 1 1 1 ; ; 1 1 1 1 < < < p 1 1 ; ; 1 1 < <         ",
"& = 1 1 * p     - , 1 1 = & = = & ; 1 1 1 1 & = 1 1 = = 1 1 = & & = 1 1 , ; 1 1 1 1 - = 1 1 1 1 = & & & 1 1 * = 1 1 & &         ",
"& = 1 1 * p         - , 1 1 1 1 1 1 1 1 . . & = 1 1 = = 1 1 = & & = 1 1 1 1 , , 1 1 - & - - = ; 1 1 . . . . & = 1 1 = &         ",
"& ; 1 1 = p         = ; 1 1 1 1 1 1 1 1 . . & ; 1 1 = = 1 1 = & & = 1 1 1 1 = = 1 1 & & & & & ; 1 1 . . . . & ; 1 1 = &         ",
"    = ; 1 1 p h         , = = = = = = & & & 1 1 1 1 - = 1 1 = & & & & ; 1 1 = & = & . . & =     < & & & & & 1 1 ; & & &         ",
"    & & 1 1 & p         * & = = = = * & = ; 1 1 1 1 , ; 1 1 - & - - & = 1 1 ; = & & . . & ;     p & & , * = 1 1 , = = ,         ",
"    & & . . & p         & = 1 1 1 1 & = 1 1 1 1 - ; 1 1 1 1 * ,     , = 1 1 1 1 = & & & . . < p         < & * , 1 1 1 1 i <     ",
"    & & . . + <         - = 1 1 1 1 ; ; 1 1 1 1 ; ; 1 1 1 1 ; ,     , ; 1 1 1 1 ; = & & . . & ,         p & = ; 1 1 1 1 = &     ",
"        & & . O < p p i * & = ; 1 1 1 1 , = = , 1 1 . . & ,             < & . . 1 1 = & & & & - i p p p 1 1 1 1 1 1 ; =         ",
"        & & . . & & & & & & & & 1 1 1 1 & & & & 1 : . . & ,             , & . . : 1 & & & & & & & & & & 1 1 1 1 1 1 = &         ",
"            & & . . . . . . . . & & . . . . . . . . & ,                     , & . . . . . . . . . . . . . . & - - =             ",
"            & & . . . . . . . . & & . . . . . . . . & ,                     , & . . . . . . . . . . . . . . & & & &             ",
"                & & & & & & & & & & & & & & & & & ,                             , & & & & & & & & & & & & &                     ",
"                - & & & & & & & & & & & & & & & & <                             , & & & & & & & & & & & & -                     "
};
