/* XPM */
static char *_3d830e4d8d042aac1f17e6dffcdd693U6NMg3AuxwXZwZTA[] = {
/* columns rows colors chars-per-pixel */
"64 64 184 2 ",
"   c None",
".  c #5C012D",
"X  c #56042E",
"o  c #5E0634",
"O  c #570A36",
"+  c #5B0D37",
"@  c #550B3A",
"#  c #5D0D3B",
"$  c #47173B",
"%  c #56113F",
"&  c #5C133D",
"*  c #58193F",
"=  c #61002E",
"-  c #640231",
";  c #6C0132",
":  c #670837",
">  c #640A3C",
",  c #720134",
"<  c #73063A",
"1  c #740639",
"2  c #3A2949",
"3  c #4F1443",
"4  c #441E44",
"5  c #541342",
"6  c #591141",
"7  c #541F46",
"8  c #660B40",
"9  c #422446",
"0  c #4C2F50",
"q  c #4B3B6F",
"w  c #593365",
"e  c #54366A",
"r  c #533C6D",
"t  c #5A396F",
"y  c #533867",
"u  c #4A3C70",
"i  c #543D72",
"p  c #593B71",
"a  c #5B3F79",
"s  c #68326D",
"d  c #7D2F71",
"f  c #6D3675",
"g  c #663B76",
"h  c #683A77",
"j  c #653B78",
"k  c #693B79",
"l  c #793172",
"z  c #276E7D",
"x  c #4C4276",
"c  c #4C4379",
"v  c #4C4A7D",
"b  c #4F4B77",
"n  c #524273",
"m  c #53447C",
"M  c #58467D",
"N  c #514D7D",
"B  c #48517E",
"V  c #53507D",
"C  c #674078",
"Z  c #684077",
"A  c #800139",
"S  c #9E1159",
"D  c #A4074D",
"F  c #AD044D",
"G  c #B7014F",
"H  c #B9014E",
"J  c #AE0A55",
"K  c #A60F5A",
"L  c #AE0F5F",
"P  c #B50452",
"I  c #BA0454",
"U  c #B10955",
"Y  c #B00E5F",
"T  c #BB0B5D",
"R  c #B80856",
"E  c #AE105F",
"W  c #9C1964",
"Q  c #971C66",
"!  c #AE0F60",
"~  c #B00F60",
"^  c #A71461",
"/  c #AB1261",
"(  c #BA1864",
")  c #9D2566",
"_  c #982668",
"`  c #9C3071",
"'  c #893B74",
"]  c #A6266C",
"[  c #AC246C",
"{  c #A5286C",
"}  c #B7246A",
"|  c #BA246A",
" . c #B52E73",
".. c #A43A7B",
"X. c #AB3E7D",
"o. c #B43678",
"O. c #C20154",
"+. c #C90157",
"@. c #C2065B",
"#. c #CA0259",
"$. c #C1095B",
"%. c #CE0A5F",
"&. c #CE0C61",
"*. c #C51465",
"=. c #C81466",
"-. c #CD1B6C",
";. c #D31767",
":. c #D6206F",
">. c #C22B74",
",. c #C62975",
"<. c #D22571",
"1. c #99457F",
"2. c #AF467F",
"3. c #3A5783",
"4. c #1A7682",
"5. c #1A7B87",
"6. c #3A6C82",
"7. c #2C7487",
"8. c #32748A",
"9. c #4D4A80",
"0. c #4D4780",
"q. c #514D81",
"w. c #515181",
"e. c #466A88",
"r. c #914680",
"t. c #A04881",
"y. c #B04880",
"u. c #F04B94",
"i. c #F34894",
"p. c #F6549B",
"a. c #F8529B",
"s. c #F4589E",
"d. c #EF4B93",
"f. c #FE5EA4",
"g. c #F35CA2",
"h. c #F464A4",
"j. c #FD61A5",
"k. c #FD6BAD",
"l. c #F367AA",
"z. c #E777AE",
"x. c #EC75AF",
"c. c #E779AF",
"v. c #FD6EB0",
"b. c #E77AB1",
"n. c #E879B0",
"m. c #F877B5",
"M. c #EE6CA8",
"N. c #04858A",
"B. c #17838C",
"V. c #039499",
"C. c #019497",
"Z. c #72BCD3",
"A. c #6AB9CD",
"S. c #50CED9",
"D. c #50CED7",
"F. c #52D1DA",
"G. c #47CED5",
"H. c #77CADB",
"J. c #DD86B7",
"K. c #E884B8",
"L. c #F483B6",
"P. c #8FABCC",
"I. c #90AACD",
"U. c #88B1CF",
"Y. c #89B8D4",
"T. c #93B5D4",
"R. c #A6D3DB",
"E. c #BBC5DA",
"W. c #AFDCE5",
"Q. c #B6E5ED",
"!. c #B4F2F6",
"~. c #C3CCDF",
"^. c #D3C0DD",
"/. c #EAC0DA",
"(. c #DACDE7",
"). c #DACEE8",
"_. c #C2D2E3",
"`. c #C9D9EA",
"'. c #C8D8EA",
"]. c #D6D2E9",
"[. c #C3CBE0",
"{. c #F5CEE1",
"}. c #CAE4F3",
"|. c #F5E6ED",
/* pixels */
"                                                    v v v v v v v v v v v b                                                     ",
"                                                    i x 3.3.3.3.3.3.3.B i r                                                     ",
"                                            v v 9.i > 4 N.V.V.V.V.V.V.5.& @ x 9.v b                                             ",
"                                            i i i y 4 2 4.B.V.V.B.5.B.z 9 4 e i i r                                             ",
"                                        v i # o - 4 N.4.* 2 C.B.* + + 9 N.4.& o o % x v                                         ",
"                                        i w o X $ 2 7.e.< & 8.6.0 7 , 6 8.6.9 $ . @ e i                                         ",
"                                    . . o o . $ N.7.~ T O.I $.` G.A.( I $._ N.4.+ . o % x b                                     ",
"                                    . . . . . $ 7.e.` [ #.$.] 1.Z.I.=.$.] ' 8.6.+ . . O e i                                     ",
"                                v i o . . . . ; R ` S.Z.=.] S.Z.>.=.#.] S.Z.( J - . . . o % x v                                 ",
"                                i w o . . = ; 1 ) r.Z.P.-. .H.Y.o.| &. .Z.U...) 1 ; . . . @ e i                                 ",
"                            v i # o . . . ; H ) S.Z.>.-.u.s.l.J.W.~.h.d.-...F.Z.*.F - . . . o % x b                             ",
"                            v i o . . = ; A O.[ Z.U.o.>.s.f.f.c.!.}.v.a.;. .Z.U...) 1 ; . . . @ x v                             ",
"                            9.i o . . ; G O.+.#.=.o.R._.k.f.f.c.!.}.k.f.p.u.-...F.Z.( F - . . @ x v                             ",
"                            i w o = ; A O.#.#.$.} 2._.(.k.h.z.J.`.(.k.f.f.s. .1.Z.P.=.I 1 ; . O e r                             ",
"                        v i # o . ; H O.+.#.+.} R._.m.k.f.z.Q.`.m.k.f.f.f.z.W.E.,.=.#.+.O.F - . o % x b                         ",
"                        v i o = ; A O.#.#.$.} y._.).k.f.f.b.!.}.k.f.f.f.f.b.!.'.<.%.#.@.#.I 1 ; . @ x v                         ",
"                        v i o ; G O.+.+.+.} R._.m.k.f.f.f.n.!.}.k.f.f.f.f.b.!.}.h.i.&.+.#.+.O.F - @ x v                         ",
"                        v i o , O.#.#.T ] t._.(.k.f.f.f.f.n.!.}.k.f.f.f.f.x.'.].L.h.&.#.#.#.#.P - @ x v                         ",
"                        v i o , O.#.+.] D.H.m.k.j.f.f.f.f.b.!.}.k.f.f.f.f.j.k.L.|.{.;.+.#.#.#.P - @ x v                         ",
"                        v i o , O.$.] r.Z.T.g.a.f.f.f.f.f.x.'.].K.x.j.f.f.f.f.v.{./.X.[ #.#.#.P - @ x v                         ",
"                        v i o , O.{ S.Z.>.=.&.;.p.f.f.f.f.j.k.K.Q.`.k.f.f.f.f.p.:.X.F.Z.*.+.#.P - @ x v                         ",
"                        v i o , O.[ Z.P.=.+.+.&.i.a.a.a.a.a.a.M.[.^.g.a.a.a.a.i.%.[ Z.P.=.+.#.P - @ x v                         ",
"                        v i o , O.#.*.=.#.#.#.#.&.&.&.&.&.&.&.&.-.-.&.&.&.&.&.%.#.#.*.=.#.#.#.P - @ x v                         ",
"                        v i o ; F I +.+.#.+.P P P P P P P P P P P P P P P P P P P I +.+.#.+.P D - @ x v                         ",
"                        v i o . - 1 O.#.#.P ; - - - - - - - - - - - - - - - - - - , O.#.#.P ; - . @ x v                         ",
"                        v r 6 @ . , O.+.I D - . . . @ @ @ @ @ @ @ @ @ @ @ @ . . . ; F I +.P - . @ 5 x N                         ",
"        v v v N             x e o ; O.I ; - . . . @ u x x x x x x x x x x e o . . . - , O.P - @ q x                             ",
"        h h h Z             9.i o ; F D - . @ @ @ 5 e n v v i n v v i i v i 6 @ @ @ . ; F D = @ x v                             ",
"    v h T @.@.^ m N         v i o . - - . @ u x x e # 6 x i # 6 x i # 6 c v x x x e o . - - . @ x b                             ",
"    v h @.@.Y W f Z         b i % @ . . @ 5 e n v i o @ x i o @ x i o @ x v i i v i 6 O . . @ 3 x b                             ",
"    v h @.~ a f T ^ m v         x e o @ u e # 6 x i o @ x i o @ x i o @ x i # 6 x 0.x e o @ u x                                 ",
"    v j U S m j ^ W f C         v i % 5 c i o @ x i o @ x i o @ x i o @ x i o @ x v i w % 5 x b                                 ",
"    v i : # c v m f T ^ m v         x x v i o @ x i o @ x i o @ x i o @ x i o @ x i # % u x                                     ",
"    v i o @ x v v g ^ W f C         b v 9.p < > c p < > c i o @ x i o @ c p < > c p < > c b                                     ",
"    v i o @ x N     m f T ^ m v         9.j I K m j I K m i o @ x i o @ x j I K m j I K m b                                     ",
"    9.i o @ x N     v j ^ W f C         9.j @./ m h @.E m i < > c p < 8 x h @./ m h @.E m b                                     ",
"    v i o @ x N     v v m f T ^ m N     v h @.E m h @.E m j I K m j I K m h @.E m h @./ m b                                     ",
"    b i % 5 x N     b v v h @./ m v     9.h @./ m h @.E m h @./ m h @./ m h @.E m h @./ m v                                     ",
"        x n             v h @.E m 9.v 9.9.j @.L m h @.E m h @.E m h @.E m h @.E m h @.E m 9.v 9.9.9.9.v                 w.b     ",
"        v N             v h @.E m v v m h l ^ Q m h @.E m h @.E m h @.E m h @.E m j @.E m m h h h h h g                 k j     ",
"                        v h @.L m v 9.h T ^ a m v h @.E m h @.E m h @.E m h @./ m h #.E m j T @.@.@.#.^ m v         q.k T ^ m 9.",
"                        v g ^ W p i i s ^ Q m v v h @.E m h @.E m h @.E m h @./ m g U K f l U P L / L W f g         q.h @.L m v ",
"                            m t # o o 6 i m v v v j @.E m h @.E m h @.E m h @.E m i : , I U ; # i m m f T ^ m v     q.h #./ m v ",
"                            v i % @ @ 5 x 9.v m h d #./ m h @.E m h @.E m h @.E m i 6 > K S # 3 x v v h @.L m v     q.j U S m v ",
"                                x c x c v v 9.h T @.+.L m h @.E m h @.E m h @.E m v c c m m c x     9.h @.E m 9.9.9.9.i : # x 9.",
"                                b v b b b b 9.h @.@.L Q m h @.E m h @.E m h @.E m v b v b b b b     9.j J S t i i i i w % 3 x b ",
"                                            v h @.L a m v h @.E m h @.E m h @.! m v                 q.i : - o o o o o % u x     ",
"                                            v h @.E m v v h @.E m h @.E m j ^ W f g                 N i 6 @ @ @ @ @ @ 5 x b     ",
"                                            v h @.E m v 9.h @.E m h @.E m v m f T ^ M 9.9.v             c x x x c c c x         ",
"                                            v h @./ m m h d @.E m h @.E m v 9.h @.L m m j g             N b b b b b b b         ",
"                                            v h @./ m j T @.+.L m h @.E m v v h @./ m h T ^ m v                                 ",
"                                            v h @./ m h @.@.Y Q m h @.E m v v h @.E m j ^ W f g                                 ",
"                            9.w.            v h @./ m h @.L a m v h @.L m 9.v h @.L m v m f T ^ M N                             ",
"                            h k             v h @./ m h @./ m v v g ^ W f j v j ^ W f j v h @.E m b                             ",
"                        9.k T ^ M V     q.q.9.h #.L m h @./ m v     m f T ^ m v m f T ^ m h @./ m b                             ",
"                        v h @.L m v     v v i s ^ Q m h @./ m v     v h @.L m v v h @.! m j J S m b                             ",
"                        v h @.L m v     9.i # 6 i m v h @.! m v     v h @.E m v v h #.L m i : # x v                             ",
"                        v j ^ W t n     9.i o @ e i i s U S m v     v j J S t i v j ^ W p w % 3 x v                             ",
"                            m p # 6 m q.9.i o . o o o - - # x v     9.i : - o 6 x 9.m p # % u x v 9.q.q.q.N                     ",
"                            v i o @ e i i w % @ @ @ @ @ @ 3 x b     v r % O . O e i i w o @ x v i i i i i i                     ",
"                            v i o . o o o % q x c c c x x x             c e o . o o o o . @ x i # o o o o 6 m q.                ",
"                            b r % @ @ @ @ 5 x v v v v v v b             v r 6 @ @ @ @ @ @ 5 x r % @ @ @ @ 3 x b                 ",
"                                x x x x x x                                 x x x x x x x x     c x x x x x                     ",
"                                v v v v 9.N                                 q.9.v v v v 9.b     q.v v v 9.b                     "
};
