/* XPM */
static char *c60160b5d3fd49ee8a1b293330bf925cOEI1dSLr3nZAYSuT[] = {
/* columns rows colors chars-per-pixel */
"64 64 146 2 ",
"   c None",
".  c #020203",
"X  c #0A0A07",
"o  c #060609",
"O  c #0B0A0D",
"+  c #151503",
"@  c #1C1D02",
"#  c #131309",
"$  c #19190B",
"%  c #0D0C15",
"&  c #0F0D18",
"*  c #100F16",
"=  c #100E18",
"-  c #131216",
";  c #191917",
":  c #14131B",
">  c #18171F",
",  c #1C1C1D",
"<  c #211F11",
"1  c #252507",
"2  c #282904",
"3  c #232210",
"4  c #22221D",
"5  c #333314",
"6  c #3B3B15",
"7  c #3B3B1B",
"8  c #171520",
"9  c #191721",
"0  c #1B1A22",
"q  c #201E27",
"w  c #201E28",
"e  c #1F2122",
"r  c #222222",
"t  c #2C2D22",
"y  c #222029",
"u  c #333424",
"i  c #383723",
"p  c #373826",
"a  c #34342C",
"s  c #373829",
"d  c #393A2A",
"f  c #363731",
"g  c #353837",
"h  c #343638",
"j  c #363939",
"k  c #3A3D3C",
"l  c #3D413E",
"z  c #414218",
"x  c #4C4C1A",
"c  c #4F501B",
"v  c #535515",
"b  c #414227",
"n  c #47472A",
"m  c #4E4E2D",
"M  c #515224",
"N  c #57592A",
"B  c #41443E",
"V  c #4D503E",
"C  c #545632",
"Z  c #555832",
"A  c #52543E",
"S  c #56583F",
"D  c #686C39",
"F  c #3B3E40",
"G  c #3E4140",
"H  c #414341",
"J  c #4D4F45",
"K  c #4F5243",
"L  c #4F524B",
"P  c #535641",
"I  c #575A41",
"U  c #585B41",
"Y  c #51554D",
"T  c #666944",
"R  c #6B6D46",
"E  c #63654E",
"W  c #67694B",
"Q  c #686B4B",
"!  c #636657",
"~  c #7E800B",
"^  c #838600",
"/  c #878A02",
"(  c #80820C",
")  c #959700",
"_  c #969800",
"`  c #96990D",
"'  c #9B9C0E",
"]  c #828512",
"[  c #939510",
"{  c #9E9F11",
"}  c #A3A400",
"|  c #AEB003",
" . c #D4D402",
".. c #D9DA03",
"X. c #C7C812",
"o. c #CDCD16",
"O. c #CFD11A",
"+. c #D0D117",
"@. c #D8D717",
"#. c #D9DA17",
"$. c #D2D31C",
"%. c #E0DF01",
"&. c #E1E100",
"*. c #EAE901",
"=. c #E9E901",
"-. c #EEED00",
";. c #EAEA01",
":. c #E0E117",
">. c #E1E217",
",. c #E1E118",
"<. c #E0E019",
"1. c #E2E319",
"2. c #C4C426",
"3. c #C9C925",
"4. c #C6C629",
"5. c #CCCD2B",
"6. c #CDCE2B",
"7. c #D5D56F",
"8. c #CDCD7C",
"9. c #CFD07B",
"0. c #D7D771",
"q. c #D7D871",
"w. c #D7D872",
"e. c #D8D871",
"r. c #DADB73",
"t. c #DBDB73",
"y. c #D1D17C",
"u. c #D3D57E",
"i. c #D6D77D",
"p. c #D3D47D",
"a. c #D7D87F",
"s. c #D7D87F",
"d. c #ECEC7D",
"f. c #ECED7D",
"g. c #ECEC7E",
"h. c #ECED7E",
"j. c #ECEC7E",
"k. c #CED087",
"l. c #CFD188",
"z. c #CFD188",
"x. c #D3D587",
"c. c #D3D583",
"v. c #D7D880",
"b. c #E7E78B",
"n. c #E7E88B",
"m. c #E7E88C",
/* pixels */
"                                                                                                                                ",
"                                                                                                                                ",
"                                                                                                                                ",
"                                                                                                                                ",
"                                                                                                                                ",
"                                                                                                                                ",
"                                                : % % % % % % % % % % % % % % :                                                 ",
"                                                % % < 3 3 3 3 3 3 3 3 3 3 < % %                                                 ",
"                                    = % & & & % . + ^ _ ) ) ) ) ) ) ) ) _ ( # . % & & % % :                                     ",
"                                    % % % % % O + 2 ] [ [ ` | | [ [ [ [ [ ] 1 + % % % % % %                                     ",
"                            * % % % . . . . . + ^ ] i t t x &.#.b t t t t 7 / ~ # . . . . . % % % -                             ",
"                            % % % O . . . o . @ } { t , , 6 =.<.u , , , , 5 } ' $ . o . . . % % % %                             ",
"                        = % . . . . . . ; , > 6 &.#.u , , 6 =.:.u , , , , 6 %.@.u , , ; . . . . . . % =                         ",
"                        % O . . . o o o , 4 6 v o.4.s r r 7 O.5.m p r r e z =.<.u , , , X o o . . . O %                         ",
"                    * % . . . . ; , , , , 6  .o.n a k k k l K T e.y.J g k N -.:.u , , , , , , ; . . . . % -                     ",
"                    & % . . . o , , , , e 7 O.5.m d l G G l k P u.x.Q P H Z $.5.m p r r e , , , o . . . % %                     ",
"                    & % . . ; , , , , r g k J T e.y.Y l G G l H L Q e.u.Y B K T 0.9.L g r , , , , ; . . % *                     ",
"                    % O . o , , , , r t A U I R a.l.Y l G G G l k I d.m.Y k F I d.n.Y k r r , , , , . . O %                     ",
"                - % . . . o , , , r h A q.d.d.p.! L H l G G G k k I d.n.Y k F I d.n.Y k k g r , , , . . . . % -                 ",
"                & % . . . o , , , r A R v.b.b.k.L k l l G B S U I R p.l.Y B S R p.k.Y l G k r , , , o . . . % %                 ",
"                & % . . ; , , , , p 7.a.! Y Y Y H G G G k S q.j.d.p.! L G S e.a.! L H l G k r , , , , ; . . % %                 ",
"                & % . o , , , 4 6 M p.l.L k l l G G G B S R v.b.b.k.L k l P p.x.W P H G G k r , , , , , . . % %                 ",
"                % % . o , , , 6  .$.E L H G G G G G G S e.v.! Y Y Y H G l H L Q t.u.L k G k r , , , , , . . % %                 ",
"                % % . o , , , 6 =.1.V j l G G G G G G P u.x.W P l l l l l G k P p.x.Q P l g r , , , , , . . % %                 ",
"                & % . . , , , 6 =.<.p r k G G G G G G H Y Q t.u.L F G G l G G H L Q t.y.f 0 , , , , , , . . % %                 ",
"                & % . . ; , , 7 o.3.x 7 k k k k k k k k g A y.c.D C l k k k k k g A y.8.M 6 6 7 4 , , ; . . % %                 ",
"                & % . . . o , 4 u c  .o.s r r r r r r r r r a M ..+.s r r r r r r r a M  .=.=.o.u , o . . . % %                 ",
"                : - o . . . ; , , 6 o.2.t , , , , , , , , , > 5 X.2.t , , , , , , , > 5 o.<.<.2.u ; . . . o : :                 ",
"                    % % . . . o , 4 u u X . . . . . . . . . . o $ $ o . . . . . . . . X u u u u X . . . % %                     ",
"                    & % . . . . ; , , ; . . . . . . . . . . . . . . . . . . . . . . . . ; , , ; . . . . % %                     ",
"                    % % . . . . . . . . . . % % % % % % % % % % % % % % % % % % % O . . . . . . . . . . % %                     ",
"                    : - . . . . . . . . . . % % % % % % % % % % % % % % % % % % % % . . . . . . . . . o : :                     ",
"            : 0         % % . . % % % % % % % % . . . . % % . . % % . . % % . . % % % % % % % % . . % %                         ",
"            * ,         : - . o : : % % % % % % . . . . % % . . % % . . % % . . % % % % % % : - o o - :                         ",
"        : > , , : 0         % >     = % . . . . % O . . % % . . % % . . % % . . % % . . % -     : %                             ",
"        % * , , % >         : 0     : * . . . . % % . . % % . . % % . . % % . . % % . . % *     9 9                             ",
"        % * , , % 9                     = % . . % % . . % % . . % % . . % % . . % % . . % *         0 : : : : : : :             ",
"        % * , , % 9                     = % o o % % o o % % . . % % . . % % o o % % o o % *         > % * * * * * -             ",
"        % * , , % 9                     = % , , & * , , = % . . % % . . % * , , & * , , % *     0 : , , , , , , , , : :         ",
"        : : , , * 9                     = * , , = * , , = % o o % % o o % * , , = * , , = *     : % , , , , , , , , : :         ",
"            = - , , : : : 0             = * , , = * , , = * , , & * , , % * , , = * , , = *     : * , , : = * - , , , , : :     ",
"            % * , , - * % ,             : * , , = * , , = * , , = * , , = * , , = % , , = *     : * , , = % - > , , , , & %     ",
"            % * , , , , , , : : : : : : & * , , = * , , = * , , = * , , = * , , = * , , = *     : % , , = *     9 - , , = %     ",
"            : : , , , , , , * * * * * * * - , , & * , , = * , , = * , , = * , , = * , , = :     > - , , = %     9 % , , % %     ",
"                = = = * * - , , , , , , , , = % % * , , = * , , = * , , = * , , * * , , = & : > , , , , = %     9 % o o % %     ",
"                : * * * * - , , , , , , , , : * % * , , = * , , = * , , = * , , = * , , % % % % , , , , : -     9 % . . % %     ",
"                            : * * * * * % :     = * , , = * , , = * , , = * , , = % * % . . . . . o % :         9 % . . % %     ",
"                            : * = = = * % 9     : - , , = * , , = * , , = * , , = % = * o . . . . . % :         9 * o . % *     ",
"                                            9 > , , , , = * , , = * , , * * , , * =     : % % % % %                 : %         ",
"                                            = % , , , , & * , , = * , , = * , , - >     9 % * * * :                 , %         ",
"                : r                 > 0     = * , , - % % * , , = * , , = % * - , , > 0             q :                         ",
"                : ,                 : >     : * , , * % % * , , = * , , = % % * , , & *             9 :                         ",
"            9 > , , 9 y         9 > , , 9 : & * , , * % % * , , = * , , = % % * , , = =         w , , , 9 >     y :             ",
"            % * , , % >         & % , , - % % * , , * % * - , , = * , , = % % * , , - >         : % , , % -     , -             ",
"            % * , , % 9         = * , , , , % * , , * * , , , , = * , , = % % % * - , , 9 ,     : * , , = % : , , , > >         ",
"            % * , , - 9         = - , , , , * * , , * * , , , , & * , , : * & % % % ; , % *     : % , , = % % - , , & %         ",
"            % * , , , , 9 r         : - , , * * , , * * , , - * % * , , , , * % % % o o % *     : % = & % * , , , , = %         ",
"            % - , , , , % >         : * , , - - , , % % , , % % % - , , , , % % % % . . % :     8 % * * * - , , , , * %         ",
"                * - , , = = 9 , , > & * , , , , - * % % o . . o     : - , , o . % % % % % = > 9 = * , , , , - * * *             ",
"                & % , , % % % % % % % % , , , , % % % % . . . o     : - , , . . % % % % % % % % % % , , , , = % % %             ",
"                & % o . . . . . . . . . % % o . . . . . . . . o         : % . . . . . . . . . . . . % = = -                     ",
"                % % . . . . . . . . . . % % . . . . . . . . . o         : % o . . . . . . . . . . . % % % %                     ",
"                    % % % % % % % % % % % % % % % % % % % -                 : % % % % % % % % % % % % %                         ",
"                    = % % % % % % % % % % % % % % % % % % :                 : % % % % % % % % % % % % %                         "
};
