/* XPM */
static char *result[] = {
/* columns rows colors chars-per-pixel */
"64 64 184 2 ",
"   c #5C002C",
".  c #55082F",
"X  c #5E0634",
"o  c #570937",
"O  c #550B3A",
"+  c #5E0D3B",
"@  c #56103F",
"#  c #5C123D",
"$  c #61002C",
"%  c #650232",
"&  c #6D0132",
"*  c #650A3C",
"=  c #690738",
"-  c #720134",
";  c #740439",
":  c #64143E",
">  c #4F1544",
",  c #441E43",
"<  c #541241",
"1  c #581040",
"2  c #531F45",
"3  c #650C40",
"4  c #641540",
"5  c #631841",
"6  c #4D2246",
"7  c #512045",
"8  c #4B2F51",
"9  c #54395A",
"0  c #403554",
"q  c #682C53",
"w  c #593365",
"e  c #53376A",
"r  c #533B6D",
"t  c #5A396F",
"y  c #583568",
"u  c #4B3C71",
"i  c #543D72",
"p  c #593C71",
"a  c #5B3F79",
"s  c #66346D",
"d  c #69316C",
"f  c #7D2F71",
"g  c #6D3675",
"h  c #663B76",
"j  c #683A77",
"k  c #663B78",
"l  c #693B78",
"z  c #653470",
"x  c #773273",
"c  c #783172",
"v  c #49415F",
"b  c #4B4176",
"n  c #4C437A",
"m  c #4C497D",
"M  c #4E4A77",
"N  c #54447C",
"B  c #59437C",
"V  c #504C7E",
"C  c #514074",
"Z  c #41527F",
"A  c #800139",
"S  c #9E1159",
"D  c #AE044E",
"F  c #A4074E",
"G  c #B6014F",
"H  c #B8014E",
"J  c #AF0854",
"K  c #A60F5A",
"L  c #AE0F5F",
"P  c #A30F57",
"I  c #B40451",
"U  c #BA0555",
"Y  c #B00954",
"T  c #B30D5E",
"R  c #BC0A5D",
"E  c #BF075B",
"W  c #AE105F",
"Q  c #B4165F",
"!  c #9B1A64",
"~  c #AF0F60",
"^  c #A71461",
"/  c #AB1161",
"(  c #BA1B68",
")  c #992666",
"_  c #9A3172",
"`  c #A8266C",
"'  c #B82D72",
"]  c #A83B7B",
"[  c #BA256B",
"{  c #C30154",
"}  c #CA0157",
"|  c #C2065B",
" . c #CA0259",
".. c #CD0A5F",
"X. c #C0095C",
"o. c #CC0C60",
"O. c #D00B61",
"+. c #CF1768",
"@. c #CD1E6D",
"#. c #C61464",
"$. c #D21769",
"%. c #D21868",
"&. c #CB226F",
"*. c #C82874",
"=. c #8E477E",
"-. c #3A5782",
";. c #1B7B89",
":. c #2F788C",
">. c #2E7D90",
",. c #396E85",
"<. c #4C4A80",
"1. c #4C4780",
"2. c #504B81",
"3. c #A14780",
"4. c #F24993",
"5. c #F64C97",
"6. c #F7559C",
"7. c #F8539B",
"8. c #F3589D",
"9. c #FF5DA4",
"0. c #F65CA1",
"q. c #CF6EA7",
"w. c #DE72AC",
"e. c #D57BB2",
"r. c #E767A4",
"t. c #E26EA7",
"y. c #E26EA8",
"u. c #FE60A5",
"i. c #F666A9",
"p. c #FE6AAD",
"a. c #F563A5",
"s. c #EC74AE",
"d. c #E87AB1",
"f. c #E77AB1",
"g. c #F777B4",
"h. c #029598",
"j. c #049296",
"k. c #04888E",
"l. c #298292",
"z. c #149FA4",
"x. c #0CA3A4",
"c. c #5FBDCC",
"v. c #57BCC8",
"b. c #6BAFC0",
"n. c #7BADC5",
"m. c #75B3CA",
"M. c #69BBD0",
"N. c #75BCD3",
"B. c #6AB8CD",
"V. c #3ECBD0",
"C. c #5DC2CF",
"Z. c #49CDD6",
"A. c #5ACAD7",
"S. c #5DD0DA",
"D. c #45D9DE",
"F. c #7AC5DC",
"G. c #77CBDC",
"H. c #67C6D7",
"J. c #59D8E3",
"K. c #57ECF2",
"L. c #62E2E7",
"P. c #D988B9",
"I. c #CD8BB9",
"U. c #E884B7",
"Y. c #E884B8",
"T. c #90ACCD",
"R. c #95B7D5",
"E. c #82CFE0",
"W. c #AEDBE3",
"Q. c #B4E5EC",
"!. c #B4E8EE",
"~. c #AAEFF1",
"^. c #B3F3F6",
"/. c #D3C0DE",
"(. c #C2CBE1",
"). c #CBC8E2",
"_. c #DACDE7",
"`. c #CAD7E9",
"'. c #C8DBEA",
"]. c #C1D1E3",
"[. c #D5D2E9",
"{. c #C1E1ED",
"}. c #CAE4F3",
"|. c None",
/* pixels */
"|.|.|.|.|.|.|.|.|.|.|.|.|.|.|.|.|.|.|.|.|.|.|.|.|.|.|.|.|.|.|.|.|.|.|.|.|.|.|.|.|.|.|.|.|.|.|.|.|.|.|.|.|.|.|.|.|.|.|.|.|.|.|.|.",
"|.|.|.|.|.|.|.|.|.|.|.|.|.|.|.|.|.|.|.|.|.|.|.|.|.|.|.|.|.|.|.|.|.|.|.|.|.|.|.|.|.|.|.|.|.|.|.|.|.|.|.|.|.|.|.|.|.|.|.|.|.|.|.|.",
"|.|.|.|.|.|.|.|.|.|.|.|.|.|.|.|.|.|.|.|.|.|.|.|.|.|.|.|.|.|.|.|.|.|.|.|.|.|.|.|.|.|.|.|.|.|.|.|.|.|.|.|.|.|.|.|.|.|.|.|.|.|.|.|.",
"|.|.|.|.|.|.|.|.|.|.|.|.|.|.|.|.|.|.|.|.|.|.|.|.|.|.|.|.|.|.|.|.|.|.|.|.|.|.|.|.|.|.|.|.|.|.|.|.|.|.|.|.|.|.|.|.|.|.|.|.|.|.|.|.",
"|.|.|.|.|.|.|.|.|.|.|.|.|.|.|.|.|.|.|.|.|.|.|.|.|.|.|.|.|.|.|.|.|.|.|.|.|.|.|.|.|.|.|.|.|.|.|.|.|.|.|.|.|.|.|.|.|.|.|.|.|.|.|.|.",
"|.|.|.|.|.|.|.|.|.|.|.|.|.|.|.|.|.|.|.|.|.|.|.|.|.|.|.|.|.|.|.|.|.|.|.|.|.|.|.|.|.|.|.|.|.|.|.|.|.|.|.|.|.|.|.|.|.|.|.|.|.|.|.|.",
"|.|.|.|.|.|.|.|.|.|.|.|.|.|.|.|.|.|.|.|.|.|.|.|.<.m <.V m V n 1.V m m m V <.2.m |.|.|.|.|.|.|.|.|.|.|.|.|.|.|.|.|.|.|.|.|.|.|.|.",
"|.|.|.|.|.|.|.|.|.|.|.|.|.|.|.|.|.|.|.|.|.|.|.|.i i i b -.-.-.-.-.-.-.Z i i i r |.|.|.|.|.|.|.|.|.|.|.|.|.|.|.|.|.|.|.|.|.|.|.|.",
"|.|.|.|.|.|.|.|.|.|.|.|.|.|.|.|.|.|.V m m m <.i + o % , k.h.h.h.j.j.h.;.# X X @ b <.<.<.V m |.|.|.|.|.|.|.|.|.|.|.|.|.|.|.|.|.|.",
"|.|.|.|.|.|.|.|.|.|.|.|.|.|.|.|.|.|.i i i i i w X . 6 0 :.>.>.l.x.z.>.,.8 7 . X e i i i C r |.|.|.|.|.|.|.|.|.|.|.|.|.|.|.|.|.|.",
"|.|.|.|.|.|.|.|.|.|.|.|.|.|.|.|.<.i + X X X o X   6 V.M.( R o._ D.H.( _ Z.v.:   o X X X X @ b m |.|.|.|.|.|.|.|.|.|.|.|.|.|.|.|.",
"|.|.|.|.|.|.|.|.|.|.|.|.|.|.|.|.r 9 X $ - - - % 6 9 M.T.@.#.[ 3.G.R.&.' N.m.9 2 - & & &   o e i |.|.|.|.|.|.|.|.|.|.|.|.|.|.|.|.",
"|.|.|.|.|.|.|.|.|.|.|.|.|.|.<.i * X   - H { { ) Z.M.*.&.4.y.W.].g.i.8.4.@.] Z.B.( { { D $ . X O b m |.|.|.|.|.|.|.|.|.|.|.|.|.|.",
"|.|.|.|.|.|.|.|.|.|.|.|.|.|.r w X $ & ; { } ..] L.G.&.+.7.f.^.}.p.9.9.8.' 3.G.R.&... .U ; &   o e r |.|.|.|.|.|.|.|.|.|.|.|.|.|.",
"|.|.|.|.|.|.|.|.|.|.|.|.m i + X   & H { { ..4.w.~.{.a.6.9.f.^.}.p.9.9.s.W.(.g.i.6.4...{ { D %   X @ b V |.|.|.|.|.|.|.|.|.|.|.|.",
"|.|.|.|.|.|.|.|.|.|.|.|.i w X $ - ; {  ...&.t.P.'._.p.9.9.g.'.[.Y.s.9.f.^.}.p.0.u.7.+... .U ; &   o e i |.|.|.|.|.|.|.|.|.|.|.|.",
"|.|.|.|.|.|.|.|.|.|.<.r + X   & H { { o.4.t.!.'.g.p.9.9.9.9.p.f.Q.`.p.f.^.}.p.9.9.9.7.4.o. .{ D %   X O b m |.|.|.|.|.|.|.|.|.|.",
"|.|.|.|.|.|.|.|.|.|.i w X $ - ; {  ...@.t.P.'._.p.9.9.9.9.9.9.d.^.}.p.s.`.[.Y.s.9.9.9.7.+.o. .I ; & $ O e r |.|.|.|.|.|.|.|.|.|.",
"|.|.|.|.|.|.|.|.m i + X   & H { { o.4.t.Q.'.g.p.9.9.9.9.9.9.9.d.^.}.p.9.p.Y.!.`.p.9.9.9.8.4.o. .{ D %   . @ b m |.|.|.|.|.|.|.|.",
"|.|.|.|.|.|.|.|.<.i X     & {  . .#.q.I.(./.0.7.7.7.7.7.0.5.7.r.(.).P.w.5.r.(.).P.e.e.w.7.4.o.{  .I %     O b m |.|.|.|.|.|.|.|.",
"|.|.|.|.|.|.|.|.<.i X     - {  . .` J.F.*.+.o...o.o.O.O.O.O.O.o.$.] J.F.@.o.+.] J.K.K.F.@. . . . .I %     O n m |.|.|.|.|.|.|.|.",
"|.|.|.|.|.|.|.|.m i X   & ; { R ` =.C.n.( G I I I I I I I I I I I ) c.n.Q I I ) c.A.A.m.] `  . . .U ; &   O n m |.|.|.|.|.|.|.|.",
"|.|.|.|.|.|.|.|.m i X - H {  .` Z.C.q : % % % % % % % % % % % % % % 4 5 * % % % 4 5 4 9 Z.N.#. . .{ { G % O n m |.|.|.|.|.|.|.|.",
"|.|.|.|.|.|.|.|.i w X & D G I ) C.b.:   O O O O O 1 O O O O O O O O o o O O O o o o   2 v.n.( I I I I F % o e r |.|.|.|.|.|.|.|.",
"|.|.|.|.|.|.<.i * X     % % % % 4 : $ O u i n n b b b b b b b b b b b b b n b b b i X X : 4 % % & % % %     % @ b V |.|.|.|.|.|.",
"|.|.|.|.|.|.<.i X         . o o O O O < n 1.1.1.i i 1.<.1.V i i m 1.i C <.1.i i <.u < o o o             X     O b m |.|.|.|.|.|.",
"|.|.|.|.|.|.m i X $       O u n b n n n n 1.<.i + < b <.m i + < b i + < n i + < n 1.n i b e X         $       O b m |.|.|.|.|.|.",
"|.|.|.|.|.|.<.i 1 O O O O < b m i i i C m V <.i X O b <.<.i X O b i X O b i X O u <.<.m u y < o O O O O O o O < n m |.|.|.|.|.|.",
"|.|.|.|.|.|.m m n b b b b n m i + X X @ n m <.i X o b m <.i X O n i X O b i + o b <.<.i + @ u n b b b b b b b b m m |.|.|.|.|.|.",
"|.|.|.|.|.|.M m m m m m m N m r @ O   o e C m i X o r C m i X O n i X O b i X O b 1.1.i X O n m m m N m m m m m N M |.|.|.|.|.|.",
"|.|.|.|.|.|.|.|.|.|.|.|.|.|.|.|.b e X   X @ n r X   % < n i X O b i X O n i X O b <.m i X O b m |.|.|.|.|.|.|.|.|.|.|.|.|.|.|.|.",
"|.|.|.|.|.|.|.|.|.|.|.|.|.|.|.|.m r @ + & * n C = &   O b i X o n i X O b i ; 3 i V k d @ > n M |.|.|.|.|.|.|.|.|.|.|.|.|.|.|.|.",
"|.|.|.|.|.|.|.|.<.m <.M |.|.|.|.|.|.b z U K 1.k U D % O b i X O b i o o b k U K C k R ^ i n |.|.|.|.|.|.|.|.|.|.|.|.|.|.<.m |.|.",
"|.|.|.|.|.|.|.|.j l l l |.|.|.|.|.|.m h ~ ! g x / P - 3 n a = 3 i i ; 3 b l | / N j | / N m |.|.|.|.|.|.|.|.|.|.|.|.|.|.l l |.|.",
"|.|.|.|.|.|.m j R R | ^ B M |.|.|.|.|.|.N j R / B j U K C k U K 1.l U K N l | / N l | ~ N N |.|.|.|.|.|.|.|.|.|.|.|.m l R ^ N m ",
"|.|.|.|.|.|.m k |  . ./ B m |.|.|.|.|.|.m l { ~ N l  .~ V k | ~ 1.l | ~ N l | ~ N k | ~ N m |.|.|.|.|.|.|.|.|.|.|.|.<.l | W N <.",
"|.|.|.|.|.|.m l |  . .L N V |.|.|.|.|.|.<.k | ~ N k { / C l | ~ N l | ~ N j | ~ C l | ~ V m |.|.|.|.|.|.|.|.|.|.|.|.<.l | W N m ",
"|.|.|.|.|.|.<.k | | L ! N M |.|.|.|.|.|.l x ^ ! j f | ~ N j | ~ N l | / N k | W N j | T g h |.|.|.|.|.|.|.|.|.|.|.|.m l | / N m ",
"|.|.|.|.|.|.m j | L a N |.|.|.|.|.|.m j R ^ a j R E  .~ N j | W N j | ~ V j | / N j | { | ^ B m |.|.|.|.|.|.|.|.|.|.<.h  .T N 1.",
"|.|.|.|.|.|.<.j | Q C m |.|.|.|.|.|.m j { L N j E  . .~ V j | L N j { L N j | L V l |  . .L C m |.|.|.|.|.|.|.|.|.|.l x ^ ! N m ",
"|.|.|.|.|.|.m k | W V m |.|.|.|.|.|.<.k | ^ N j |  . ./ N j | / N j { ~ a k | ~ n k |  .} ~ N m |.|.|.|.|.|.|.|.2.l R W B C |.|.",
"|.|.|.|.|.|.m l E T g j |.|.|.|.|.|.m j | ~ N j |  . .W N j | W V j | ~ 1.j | T g x ^ ~ L ! g k |.|.|.|.|.|.|.|.<.h J S N m |.|.",
"|.|.|.|.|.|.<.k |  . .^ N V |.|.|.|.m j | L N j |  . .~ N j | W N k | / N j |  .| ^ a N N j R ^ N M |.|.|.|.|.|.<.C * # b m |.|.",
"|.|.|.|.|.|.m j ^ T  .^ N m |.|.|.|.<.k | ~ N j E  . .~ N j | W N l | T g x ^ T  .~ N <.m k | T g l |.|.|.|.|.|.l s % @ n m |.|.",
"|.|.|.|.|.|.|.|.N j  .~ V m |.|.|.|.<.k | ~ V j E  . .L N j | L N k {  .| ^ a g | ~ N m m l |  .| ^ N <.<.<.m l R J $ O b m |.|.",
"|.|.|.|.|.|.|.|.m j J P g h |.|.|.|.l x ^ ! N j E { ~ ! V l | L N k ^ T  .~ N j | ~ B m n j K Q I P t C i i C d J F + @ b M |.|.",
"|.|.|.|.|.|.|.|.V i * ; U ^ N m <.l R ^ a n 1.j E L a N m j | ^ N 1.V g | ~ V j | ~ N m |.|.B t = $ % X X X X X % + u b |.|.|.|.",
"|.|.|.|.|.|.|.|.m i O * D P p i i d J S N 1.m j E ~ a 1.m j | L N 1.m j | ~ N j | ^ N m |.|.m C @ O O @ O O O O O > M N |.|.|.|.",
"|.|.|.|.|.|.|.|.|.|.M e % % % + o % % 1 n m <.j | ~ C <.<.k | L N m m j E ~ N j | W N m |.|.|.|.M b b b m b n u b b |.|.|.|.|.|.",
"|.|.|.|.|.|.|.|.|.|.M C < o O o O o o > u m <.j | ~ N <.m j | ~ N 1.1.j E ~ N j | L N m |.|.|.|.m m N m M m m m m M |.|.|.|.|.|.",
"|.|.|.|.|.|.|.|.|.|.|.|.b b b b b b b M |.|.m j | / N 1.<.j | ~ N 1.m k | ~ N j | W N m |.|.|.|.|.|.|.|.|.|.|.|.|.|.|.|.|.|.|.|.",
"|.|.|.|.|.|.|.|.|.|.|.|.m m m m m m m M |.|.<.l | ~ N 1.<.l | ~ N 1.<.k E L N j | T g l |.|.|.|.|.|.|.|.|.|.|.|.|.|.|.|.|.|.|.|.",
"|.|.|.|.|.|.|.|.|.|.|.|.|.|.|.|.|.|.|.|.|.|.<.k | ~ N m 1.j | / N 1.m l | L N j |  .| ^ B m |.|.|.|.|.|.|.|.|.|.|.|.|.|.|.|.|.|.",
"|.|.|.|.|.|.|.|.|.|.|.|.|.|.|.|.|.|.|.|.|.|.k f | / N 1.m k | ~ B m m j ~ ! j c ^ T  .W V n |.|.|.|.|.|.|.|.|.|.|.|.|.|.|.|.|.|.",
"|.|.|.|.|.|.m V |.|.|.|.|.|.m <.<.<.<.<.<.l R |  .~ N <.<.j | ~ N m |.|.V g R K a g | L V m |.|.|.|.|.|.V V |.|.|.|.|.|.|.|.|.|.",
"|.|.|.|.|.|.j h |.|.|.|.|.|.j l l k i i m k ^ T  .T g k m j U ~ N m |.|.<.k | W N j | T x j |.|.|.|.|.|.h h |.|.|.|.|.|.|.|.|.|.",
"|.|.|.|.m l R W N V |.|.<.l R | | J * < i 1.1.x |  .| ^ V k | ~ N M |.|.<.j | W V j {  .{ ^ N 1.<.<.<.l R / B m |.|.|.|.|.|.|.|.",
"|.|.|.|.m j Y P g h |.|.<.k ^ / T S 1 < r i i z ^ ~ ~ ! t s ^ ! N M |.|.<.j | T t s ^ ~ / ! N V i i i d I P V m |.|.|.|.|.|.|.|.",
"|.|.|.|.<.i * ; U ^ V V <.1.B V 2.N n e + X X 1 i 1.N t + 1 i C |.|.|.|.<.l | I * < i B 1.1.1.i + X X X % 1 n <.2.2.2.V |.|.|.|.",
"|.|.|.|.m r @ * W ! t C i i i i i i i e < O o < e p i y X o b m |.|.|.|.m l ^ S + > e i i i p y 1 O O O O < e i i i i i |.|.|.|.",
"|.|.|.|.|.|.b b N p 1 X X X X X X X X < u n b e * X X X   O b m |.|.|.|.|.|.N N n e + X X X X < u n n u b e + o X X % < m V |.|.",
"|.|.|.|.|.|.m m m r 1 O o o O O O o O < b m <.i < o O O O @ b M |.|.|.|.|.|.m m m i @ o O o o < b <.<.<.<.i < o O O O < b M |.|.",
"|.|.|.|.|.|.|.|.|.|.u b n u b b n b b b |.|.|.|.b b u b n M |.|.|.|.|.|.|.|.|.|.|.|.b b b b b b |.|.2.1.1.m b b b b b b |.|.|.|.",
"|.|.|.|.|.|.|.|.|.|.1.<.<.<.<.<.m m m m |.|.|.|.<.<.<.<.m N |.|.|.|.|.|.|.|.|.|.|.|.<.<.<.<.m m |.|.2.1.m <.<.<.<.<.m m |.|.|.|."
};
