/* XPM */
static char *b904a073e7d24408834244766c693fdbazhOX8nEtib8OYuO[] = {
/* columns rows colors chars-per-pixel */
"64 64 164 2 ",
"   c None",
".  c #4D4A77",
"X  c #4C477E",
"o  c #4D4A7D",
"O  c #514D7C",
"+  c #4E517D",
"@  c #4B597D",
"#  c #52537E",
"$  c #58557D",
"%  c #3B5783",
"&  c #4D4780",
"*  c #4E4B81",
"=  c #514D81",
"-  c #555383",
";  c #585685",
":  c #575984",
">  c #595A86",
",  c #575488",
"<  c #595589",
"1  c #5C5A8B",
"2  c #605F87",
"3  c #605E8A",
"4  c #5F6086",
"5  c #5F6F87",
"6  c #5F6089",
"7  c #5F7284",
"8  c #5E7B86",
"9  c #527D8A",
"0  c #5C7E89",
"q  c #606086",
"w  c #616F87",
"e  c #63648D",
"r  c #636E8A",
"t  c #627586",
"y  c #637986",
"u  c #637589",
"i  c #667D88",
"p  c #6A7F8C",
"a  c #636392",
"s  c #6C7D91",
"d  c #178C93",
"f  c #0A9297",
"g  c #039398",
"h  c #0B9699",
"j  c #03999A",
"k  c #139396",
"l  c #199196",
"z  c #139F9F",
"x  c #218F93",
"c  c #2C969A",
"v  c #249B9D",
"b  c #2C989C",
"n  c #31969B",
"m  c #2CA3A7",
"M  c #36A1A5",
"N  c #4C858D",
"B  c #44888F",
"V  c #54838C",
"C  c #478991",
"Z  c #569098",
"A  c #6E838E",
"S  c #6E8590",
"D  c #608C96",
"F  c #718691",
"G  c #778C96",
"H  c #798D97",
"J  c #778C98",
"K  c #7A8E98",
"L  c #76909A",
"P  c #5FE0E3",
"I  c #50E7E9",
"U  c #59EFF1",
"Y  c #59F0F1",
"T  c #68E7EA",
"R  c #67E9EC",
"E  c #6AE9EC",
"W  c #76E4E7",
"Q  c #73E4E9",
"!  c #7BE6EA",
"~  c #7AE8EA",
"^  c #9EA6BF",
"/  c #9FAABE",
"(  c #9FB6BE",
")  c #A1ADBD",
"_  c #A3B4BE",
"`  c #9FA7C1",
"'  c #9FA8C0",
"]  c #8BBDC5",
"[  c #99B8C2",
"{  c #A0A7C1",
"}  c #A2ACC1",
"|  c #A4B4C0",
" . c #ABB6C7",
".. c #ADBAC5",
"X. c #ABB6C8",
"o. c #AEBDC8",
"O. c #B0BFC6",
"+. c #B1BFC8",
"@. c #9DC6CF",
"#. c #95C9CF",
"$. c #9CC8CF",
"%. c #8CCCD1",
"&. c #96C9D0",
"*. c #9AC9D0",
"=. c #95D6DC",
"-. c #9DD3D9",
";. c #A4C3CA",
":. c #A9C1CA",
">. c #B6C5CE",
",. c #B8C6CF",
"<. c #B5C8CF",
"1. c #A5CFD6",
"2. c #AACBD3",
"3. c #B6C7D0",
"4. c #B9C7D0",
"5. c #B3CAD2",
"6. c #BCCBD2",
"7. c #A3D0D6",
"8. c #ACD1D7",
"9. c #A4D5DB",
"0. c #ACD2D8",
"q. c #BBD2D6",
"w. c #B4D5DB",
"e. c #BAD1D9",
"r. c #B0F4F6",
"t. c #B2F2F4",
"y. c #BBF5F5",
"u. c #BBF5F5",
"i. c #B5F8F6",
"p. c #B3F7F8",
"a. c #B9F6F8",
"s. c #B5FDFD",
"d. c #B6FDFC",
"f. c #B5FDFD",
"g. c #BBFAFA",
"h. c #BCFAFA",
"j. c #BCFAFA",
"k. c #C2CED3",
"l. c #C1CED4",
"z. c #CDEBEB",
"x. c #D7E1E3",
"c. c #D3E2E4",
"v. c #D5E1E4",
"b. c #DAE5E5",
"n. c #DBE6E5",
"m. c #DBE5E7",
"M. c #D9E6E6",
"N. c #DCE5E5",
"B. c #DAE4E6",
"V. c #D6E6E8",
"C. c #D2E7EA",
"Z. c #D9E5E8",
"A. c #D7EDED",
"S. c #D5ECED",
"D. c #DFE8E9",
"F. c #DEEAE9",
"G. c #DCE9EA",
"H. c #DEEAEA",
"J. c #DDEAEA",
"K. c #C4F6F6",
"L. c #E1E8E7",
"P. c #E1E8E7",
"I. c #E1E9E9",
"U. c #E0E8E9",
/* pixels */
"                                                    * X X X X X X X X X o O                                                     ",
"                                                    # + % % % % % % % % + #                                                     ",
"                                            o o o + t 9 f g g g g g g d 8 t * o o O                                             ",
"                                            # + o @ 9 B l k j j k k k x N 9 @ o + #                                             ",
"                                        * # 7 t t 9 h l 0 N j k 0 8 8 N h l 8 t t t = o                                         ",
"                                        # # y i V C v n S D v b Z D F D v c N V i u # #                                         ",
"                                    i i y y i V h v [ o.o.o.o.#.I P :.o.o.] z l 0 i y t = o                                     ",
"                                    i i i i i V v M #.1.3.5.7.=.E W 5.3.7.%.m c i i i u # #                                     ",
"                                * # y i i i i A _ &.U T 5.1.U R 2.<.>.7.U R ;.( A i i y y t = o                                 ",
"                                # # y i i i A L $.=.R Q 6.0.E ~ 8.5.6.0.E Q -.@.K A i i i u # #                                 ",
"                            o + 7 y i i i A _ *.U R 2.5.x.b.V.z.p.y.b.x.5.-.Y T :._ A i i i y t = o                             ",
"                            o + t i i i A K +.1.E Q 8.q.b.I.I.A.s.j.G.b.k.0.T Q -.@.K A i i i u = o                             ",
"                            o o t i i A _ +.>.3.5.8.r.y.G.G.L.A.s.g.G.G.N.c.5.-.Y T :._ A i i u = o                             ",
"                            + @ t i A K +.4.,.3.5.w.y.K.G.G.A.S.j.K.G.I.I.Z.e.9.E W 5.o.H A i u # #                             ",
"                        * + t y i A | +.>.,.,.5.r.y.G.G.L.A.g.j.G.G.I.G.I.A.i.t.5.5.>.>.o._ A i t t - o                         ",
"                        o + t i A K +.,.,.<.5.w.y.K.G.I.I.A.s.j.G.I.G.I.I.A.s.a.6.6.>.,.,.o.K A i u * o                         ",
"                        o + t F _ +.>.,.,.5.r.y.G.G.I.I.I.A.s.j.G.I.I.I.L.A.s.j.b.x.6.,.,.>.+._ A u = o                         ",
"                        o + t F o.4.,.3.1.9.y.K.G.I.I.I.I.A.s.j.G.I.I.I.L.A.j.K.A.C.6.>.,.,.4.o.S u = o                         ",
"                        o + t F o.,.,.1.U E C.G.I.I.I.I.I.A.s.j.G.I.I.I.G.G.G.A.d.y.6.,.,.,.4.o.S u = o                         ",
"                        o + t F o.3.1.=.E ! c.b.G.I.I.I.I.A.j.K.A.A.G.G.G.G.L.A.y.t.9.1.3.,.4.o.S u = o                         ",
"                        o + t F o.7.U T 2.5.6.l.N.I.I.I.I.G.G.A.d.j.G.I.I.I.I.b.6.9.Y T 5.,.4.o.S u = o                         ",
"                        o + t F o.1.E W 5.,.>.6.x.b.b.b.b.b.b.C.y.y.V.b.b.b.b.x.6.1.E W 5.,.4.o.S u = o                         ",
"                        o + t F o.<.5.5.,.,.4.4.6.6.6.6.6.6.6.6.6.6.6.6.6.6.6.6.,.<.5.5.,.,.4.o.S u = o                         ",
"                        o + t A _ o.>.,.,.>.o.o.o.o.o.o.o.o.o.o.o.o.o.o.o.o.o.o.o.o.>.,.,.>.o._ A u = o                         ",
"                        * + t i A K o.,.4.o.J S S S S S S S S S S S S S S S S S A H o.,.,.o.J A i u * o                         ",
"                        O # t u i F o.>.o._ A i i y u u u u u u u u u u u u i i i A _ o.>.o.S i u w - O                         ",
"        * * o -             - # t F O.o.J A i i i u - = = = = = = = = = = # y i i i A K >.o.S u - #                             ",
"        > > > q             o o t S _ _ A i u u u w - o o o o o o o o o o o 7 u u u i S _ _ S u = o                             ",
"    * 1 ) ....) 1 -         o + t i A A i u - * = # 7 t * o 7 t * o 7 t * o = = = - y i S A i u = o                             ",
"    X > ..>.X.) e q         O # t u i y u w # o o + y u = + y u = + y u = o o o o o t u i y u w # O                             ",
"    X > ..X.a e ) } 1 -         = # y u - # t t * + t u = + t u = + t u = o 7 t * o = - y u - O                                 ",
"    X > _ } , ; ) } e 2         O # t w * + y u = + t u = + t u = + t u = + y u = o o # t u - O                                 ",
"    o # p s = o , e ) ) 1 #         - * * + t u = + t u = + t u = + t u = + t u = o 7 7 - #                                     ",
"    o + t u = o O > } } e 4         O O o # A s = + A s = o t u = + y u = + A s = + A s = o                                     ",
"    o + t u = -     < e ) } 1 -         * > _ } < : _ } < o t u = o t u * > _ } < : _ } < o                                     ",
"    o + t u = -     X ; ) } e 2         o > ..X.< > ..X.< # A s = # A s = > ..X.< > ..X.< o                                     ",
"    o + y u * -     o o , e ) } 1 -     o > ..X.< > ..X.< : _ } < > _ } < > ..X.< > ..X.< o                                     ",
"    O # t r # $     O O X > ..X.< O     * > ..X.< > ..X.< > ..X.< > ..X.< > ..X.< > ..X.< o                                     ",
"        * ;             o > ..X.< * = = X > ..X.< > ..X.< > ..X.< > ..X.< > ..X.< > ..X.< o = = = = = O                 ; O     ",
"        o $             o > ..X.< X o o ; e } ` , > ..X.< > ..X.< > ..X.< > ..X.< > ..X.< o ; > > > > >                 q >     ",
"                        o > ..X.< X X ; ) } a ; o > ..X.< > ..X.< > ..X.< > ..X.< > .. .; ; ) ........) 1 O         ; 1 ) } 1 = ",
"                        o 1 } ' > o o > ) { ; X X > ..X.< > ..X.< > ..X.< > ..X.< : _ | e e _ o.X.X.X.} e >         = > ..X.< X ",
"                            1 > t y y u 1 ; * o X > ..X.< > ..X.< > ..X.< > ..X.< + p J _ _ J s 1 < < e ) } 1 O     = > ..X.< o ",
"                            o # t u u w * X o o ; e ..X.< > ..X.< > ..X.< > ..X.< o 5 s } } s w # o o > ..X.; o     = > _ } , X ",
"                                = = = = o o X > ) o.,.X.< > ..X.< > ..X.< > ..X.< o = = < < = #     = > ..X.< o = = * + A s * o ",
"                                O o o o o o X > ..>.X.^ , > ..X.< > ..X.< > ..X.< o o o o o o O     = > _ ) > + # o o # t w # o ",
"                                            o > ..X.a , o > ..X.< > ..X.< > ..X.< o                 = # p A y t t t y t - O     ",
"                                            o > .. .< X X > ..X.< > ..X.< ; ) } e 1                 - # t u u u u u u w O .     ",
"                                            o > ..X.< X X > ..X.< > ..X.< * , e ) ) 1 = = #             ; = = = = = = O         ",
"                                            o > ..X.< o ; e ..X.< > ..X.< X X > ..X.< o : 1             - o o o o o o .         ",
"                                            o > ..X.< ; ) ..>.X.< > ..X.< X X > ..X.< ; ) } 1 O                                 ",
"                                            o > ..X.< > ..4.X.` , > ..X.< X X > ..X.< ; ) } e >                                 ",
"                            = ;             o > ..X.< > ..X.a , o > .. .< X X > ..X.< o ; e ) } 1 #                             ",
"                            > q             o > ..X.< > ..X.< o o 1 } } a ; * ; / } e ; o > ..X.< o                             ",
"                        - 6 ) } 3 ;     , = & > ..X.< > ..X.< O     1 e ) ) ; o < e ) / , > ..X.< o                             ",
"                        X > ..X.< O     * o o > ) { , > ..X.< O     * > ..X.< X X > ..X.< : _ } < o                             ",
"                        o > ..X.< O     * o 7 u 1 , o > ..X.< O     = > ..X.< X X > ..X.< + p s = o                             ",
"                        o > } ' > $     * + y u # o o > _ } , O     = > _ ) > o o ; ) { > @ t w = O                             ",
"                            1 > t u ; = o o t i y t t y A s = O     = # p A y w * * , > t t - = * * = , - #                     ",
"                            o o y u # o + # t u u u u u u w # O     O # t t i u # o o # y u * o o + + + + #                     ",
"                            o + t i y t y t - = = = = = * #             - # t i y t t y i u * o 7 t t t y u ; -                 ",
"                            o # t u u u u r # o o o o o o O             O + t u u u u u u w O # u u u u u w o .                 ",
"                                = = = = * ;                                 - * = = = = * #     , = = = * O                     ",
"                                * o o o X #                                 = X o o o o o o     , o o o X o                     "
};
