/* XPM */
static char *_af6025e8f4a4ef8c20e9e7fc862d8aeRuenWVtXZ9dPGwYh[] = {
/* columns rows colors chars-per-pixel */
"64 64 161 2 ",
"   c None",
".  c #4E4A76",
"X  c #4C477D",
"o  c #4D4A7D",
"O  c #514E7D",
"+  c #4F507D",
"@  c #4D587E",
"#  c #52537E",
"$  c #3B5782",
"%  c #4D4780",
"&  c #4E4B80",
"*  c #514D81",
"=  c #555384",
"-  c #595685",
";  c #575884",
":  c #595A86",
">  c #575488",
",  c #595589",
"<  c #5D5C8A",
"1  c #605E8C",
"2  c #5F6F86",
"3  c #5F608B",
"4  c #4F7E8A",
"5  c #5F7284",
"6  c #5C7886",
"7  c #527D8B",
"8  c #616087",
"9  c #63648D",
"0  c #636D8A",
"q  c #627586",
"w  c #637986",
"e  c #697C87",
"r  c #637489",
"t  c #667D88",
"y  c #6B7F8C",
"u  c #636392",
"i  c #6D7D91",
"p  c #198F95",
"a  c #168C93",
"s  c #029397",
"d  c #099197",
"f  c #0C9598",
"g  c #159F9F",
"h  c #1E9D9F",
"j  c #2B979A",
"k  c #219C9E",
"l  c #169EA0",
"z  c #1A9FA0",
"x  c #05A4A6",
"c  c #0FACAE",
"v  c #20A6A9",
"b  c #4E868F",
"n  c #478991",
"m  c #598E97",
"M  c #6D838E",
"N  c #70858F",
"B  c #638691",
"V  c #6F8590",
"C  c #718691",
"Z  c #798D97",
"A  c #758D98",
"S  c #798E98",
"D  c #37CDD2",
"F  c #25D4D7",
"G  c #24D7D9",
"H  c #31DEDF",
"J  c #3CD9DC",
"K  c #26DEE0",
"L  c #2BDFE1",
"P  c #32DFE1",
"I  c #0DE0E1",
"U  c #0EE8E7",
"Y  c #0EE7E8",
"T  c #0DE8EA",
"R  c #10E7E8",
"E  c #1BE7E8",
"W  c #11EAEA",
"Q  c #1FEBEC",
"!  c #2CE1E2",
"~  c #36E3E4",
"^  c #3BE5E4",
"/  c #42D6D9",
"(  c #46DBDC",
")  c #48DCDC",
"_  c #7FD5DA",
"`  c #9EA6BF",
"'  c #9FABBD",
"]  c #A0A7BF",
"[  c #A1ACBE",
"{  c #A3B3BE",
"}  c #9FA6C1",
"|  c #8ABDC5",
" . c #98B9C2",
".. c #A0A6C1",
"X. c #A2ABC1",
"o. c #A5B5C0",
"O. c #ABB6C7",
"+. c #A3BEC6",
"@. c #ADBBC5",
"#. c #ABB6C8",
"$. c #A3BFC8",
"%. c #ADBBC8",
"&. c #B1BEC6",
"*. c #B0BFC8",
"=. c #8EC6CE",
"-. c #87C8CF",
";. c #94C6CE",
":. c #9BC0C8",
">. c #95CFD6",
",. c #9BCCD4",
"<. c #8BD0D6",
"1. c #93D0D6",
"2. c #9CD1D7",
"3. c #95D2D9",
"4. c #99D4DB",
"5. c #A8C0C6",
"6. c #A5C1C9",
"7. c #ABC5CD",
"8. c #B7C6CE",
"9. c #B8C6CF",
"0. c #ABC7D0",
"q. c #ACCBD2",
"w. c #B7C7D0",
"e. c #B9C7D0",
"r. c #B3CBD3",
"t. c #BCCAD2",
"y. c #A1D2D7",
"u. c #BBD2D7",
"i. c #B4EBEC",
"p. c #BEEAEB",
"a. c #B4F4F5",
"s. c #BAF4F5",
"d. c #B2F7F8",
"f. c #B6FDFC",
"g. c #BDF9F9",
"h. c #C2CED3",
"j. c #CBE4E5",
"k. c #C7E9E9",
"l. c #C8E9E9",
"z. c #D0E5E6",
"x. c #D6E1E4",
"c. c #D8E0E2",
"v. c #DAE5E6",
"b. c #DDE4E5",
"n. c #DAE4E6",
"m. c #D2E7E9",
"M. c #D5EEEE",
"N. c #D5EDED",
"B. c #DEE9E9",
"V. c #D9ECED",
"C. c #DDEAEA",
"Z. c #D2F0EF",
"A. c #D0EFF0",
"S. c #C4F6F6",
"D. c #C0F9F8",
"F. c #D1F0F0",
"G. c #E1E8E7",
"H. c #E1E7E9",
"J. c #E0E8E9",
"K. c #E2E9E9",
"L. c #E0E8E9",
/* pixels */
"                                                                                                                                ",
"                                                                                                                                ",
"                                                                                                                                ",
"                                                                                                                                ",
"                                                                                                                                ",
"                                                                                                                                ",
"                                                * o o o o o o o o o o o o o o O                                                 ",
"                                                # + $ $ $ $ $ $ $ $ $ $ $ $ + #                                                 ",
"                                    % o o o o + q 4 d s s s s s s s s s s a 6 q * o o o o o                                     ",
"                                    + + + + o @ 7 n k k k z x x h k k k k j b 7 = o + + + #                                     ",
"                            o o o + q q q q q 4 f k  .5.@.-.I G :.@.@.+.@.| g p 6 q q q q q * o o o                             ",
"                            # + o # q t N C C m x v 6.e.9.1.T K 0.e.e.9.e.;.c l V C C M t r # + + #                             ",
"                        % # 5 q q q w M { %.&.=.I G 7.9.9.1.T K 7.9.8.8.9.>.I G +.%.%.{ M w q q q q * o                         ",
"                        # # w t N C C S *.r.2._ L / r.t.t.y.~ ) q.r.t.t.t.4.W ! 0.e.e.%.S C C V t r # #                         ",
"                    o # 5 w w V o.%.%.*.9.>.E L ,.r.c.v.v.v.j.l.d.s.v.b.b.i.W K 7.9.9.8.%.%.%.o.M w w q * o                     ",
"                    o + q t M S 5.e.w.w.t.y.~ ) q.u.b.K.K.B.K.V.g.S.N.V.K.p.^ ) q.r.t.t.w.w.e.%.S M t r * o                     ",
"                    o O q C { 5.8.9.8.t.c.v.z.l.d.s.B.K.K.K.K.B.B.N.g.g.B.B.z.k.d.s.v.c.w.8.9.8.%.{ V r * o                     ",
"                    + # q C %.w.9.9.t.h.m.N.V.F.g.S.B.K.K.K.K.K.K.N.f.g.B.K.K.N.f.g.B.b.h.t.9.8.w.%.V q # +                     ",
"                % + q w w C %.w.8.t.c.m.f.f.f.g.C.B.K.B.B.B.K.K.H.N.f.g.B.K.H.N.f.g.B.H.b.x.t.8.9.%.V w q q = o                 ",
"                o + w t M S &.8.8.t.m.Z.g.g.g.S.B.K.B.K.B.B.N.N.N.M.g.S.B.B.N.M.g.S.B.K.K.v.t.8.9.%.S M t r & o                 ",
"                o + q C { *.8.9.9.r.d.g.V.B.B.B.K.K.K.K.B.N.g.f.f.g.C.B.K.N.f.g.C.B.B.B.K.v.w.8.9.8.*.{ M r * o                 ",
"                o + q C %.e.9.r.>.4.s.S.B.K.K.K.K.K.K.B.N.A.g.g.g.S.B.K.G.V.g.S.N.V.B.B.K.v.w.8.9.9.e.%.V r * o                 ",
"                o + q C %.e.9.>.E ~ j.B.K.K.K.K.K.K.K.N.g.g.V.B.B.B.K.B.B.B.B.N.f.g.B.G.K.v.w.8.9.9.w.%.V r * o                 ",
"                o + q C %.e.9.1.Y ! j.b.B.K.K.K.K.K.K.N.g.S.M.V.K.K.B.K.B.B.G.V.g.S.N.V.v.x.w.9.9.9.e.%.V r * o                 ",
"                o + q C %.e.9.1.U K q.h.b.K.K.K.K.K.K.B.B.N.f.D.B.K.B.K.K.K.K.B.B.N.f.s.t.t.9.9.9.9.e.%.V r * o                 ",
"                o + q V { %.9.,.H J <.2.c.v.v.v.v.v.v.v.n.m.s.d.i.p.v.v.v.v.v.v.n.m.s.a.4.1.1.,.8.8.%.{ M r * o                 ",
"                o + q t M Z *.w.0.<.E P q.t.t.t.w.w.w.w.w.w.t.4.Q ~ r.t.t.t.t.t.w.w.t.4.E R T P q.%.Z M t r * o                 ",
"                O # q r w M { %.9.,.H / +.%.%.%.@.@.@.@.%.@.%.=.F D +.@.%.%.%.%.%.@.@.;.H K K / $.{ M w r 0 = O                 ",
"                    * = q t M S *.w.q.$.A V V V V V V V V V V V B B V V V V V V M V V A 6.0.0.$.A M t r = O                     ",
"                    o + q t w M o.%.%.{ M w r r r r r r r r r r r r r r r r r r r r w V o.%.%.{ M w t r * o                     ",
"                    o + q t t t M V V M t r = * * * * * * * * * * * * * * * * * * # w t M V M M t t t r * o                     ",
"                    O # q r t t r r r r r 0 * o o + + o o o + o o o o + o o o o o o 5 r r r r r w t r 0 = O                     ",
"            % -         * # w r = * * * * & o o 5 w q q & o 5 q & o 5 q & o 5 q & o * * * * * # w r = O                         ",
"            : 8         O # q r = O % o o + + # q r t r * + w r * + w r * + w r * o o o o o O # r 0 # O                         ",
"        * : [ X.< -         * =     o o 5 w q q = # w r * + q r * + q r * + q r * o 5 q * o     ; #                             ",
"        X : @.#., #         O #     O # r r t r * o w r * + q r * + q r * + q r * + w r * o     = #                             ",
"        X : @.#., #                     * = q r * + q r * + q r * + q r * + q r * + q r * o         = * * * * * * O             ",
"        X : @.#., #                     % + y i * + M i * o q r * + q r * + M i * + M i * o         < : : : : : : :             ",
"        X : @.#., O                     o : { X., ; { X., o q r * o q r & : { X., ; { X., o     = < [ @.@.@.@.@.@.[ < o         ",
"        o : [ X.9 8                     o : @.#., : @.#., # M i * # M i * : @.#., : @.O., o     * : @.8.#.#.#.%.8.%.9 :         ",
"            , 9 [ [ < o * =             o : @.#., : @.#., ; { X., : { X., : @.#., : @.#., o     * : @.#.u , , u @.e.@.[ < O     ",
"            X : @.%.9 ; : 8             % : @.#., : @.#., : @.#., : @.#., : @.#., : @.#., o     * : @.#., X o : [ %.8.#., X     ",
"            X : @.8.@.@.@.X.< * * * * * X : @.#., : @.#., : @.#., : @.#., : @.#., : @.#., o     * : @.#., o     < 9 @.#., o     ",
"            o : [ O.#.O.#.X.9 : : : : : : 9 [ ..> : @.#., : @.#., : @.#., : @.#., : @.#., o     < 0 @.#., o     * ; { X., o     ",
"                , , , , , 9 [ @.@.@.@.@.@.X.u > o : @.#., : @.#., : @.#., : @.#., : @.#., o * < [ @.8.#., o     = # y i * o     ",
"                o o o o o : X.#.#.#.#.#.#.X.: o o : @.#., : @.#., : @.#., : @.#., - [ [ : o o : { %.#.X.: .     = o q r * o     ",
"                            , , , , , , , :     o : @.#., : @.#., : @.#., : @.#., % ; , q w q w M i , :         = o w r * o     ",
"                            o o o o o o o #     < 0 @.#., : @.#., : @.#., : @.#., X X # q r r r r 0 O .         = # r 0 # .     ",
"                                            = < [ %.9.#., : @.#., : @.#., : @.#., X     = * * * * O                 ; O         ",
"                                            o : @.8.#.` > : @.#., : @.#., - [ [ 9 :     = o o o o O                 # o         ",
"                * -                 * -     o : @.%.u , o : @.#., : @.#., % ; u [ X.< =             , O                         ",
"                : 8                 : <     % : @.O., X X : @.#., : @.#., X X : @.#.- o             < :                         ",
"            * < [ X.< -         * < [ X.< * o : @.#., X X : @.#., : @.#., X X : @.#., o         > 3 [ X.< *     , O             ",
"            X : @.#., #         o : @.%.u ; % : @.#., o ; 0 @.#., : @.#., X X - ' X.9 :         * : @.#., o     8 :             ",
"            X : @.#., O         o : @.9.@.[ ; : @.#., - [ @.8.#., : @.#., X o % > 9 [ X.< #     * : @.#., o * 1 [ X.< O         ",
"            X : @.%.9 8         o : [ %.8.#., : @.#., : @.e.#.} = : @.%.9 - % o X : { X., o     * - [ } , o ; 0 %.#.- X         ",
"            o : @.e.@.[ 1 -         , u @.O., : @.#., : @.%.u > X : @.8.@.' , X X # M i * o     * % ; ; o - ' %.8.#., o         ",
"            o : [ %.8.#., #         o : @.%.9 9 [ ..= ; { [ : o o : [ %.8.O.< o % o 5 0 * O     * % ; : : 9 [ #.#.X.: .         ",
"                , 9 @.#., % = = = * % : @.8.@.[ u ; % + y M r w     , 9 @.%.M 2 & o * * o % * = o - [ @.@.[ u - , :             ",
"                X ; { [ : o o o o + o : ' O.%.[ : o o # w t t e     o : X.[ M r # + + + + + + o o : [ #.#.X.- X o .             ",
"                % + y M w q q q q q q r , < M M w q q w t t t e         < : w t w q q q q q q q w r , , , :                     ",
"                o + q r r r r r r r r 0 % o 2 r r r r r r r t e         o + q r r r r r r r r r r 0 & X o .                     ",
"                    & & * * * * * * * * o o * * * * * * * #                 = & * * * * * * * * * * % o                         ",
"                    o % o o o o o o o o o o o o o o o o o O                 * X o o o o o o o o o o o o                         "
};
