/* XPM */
static char *_76d2fa097654a0c9ac562c1da737f558DCV5G450o9ji3Ht[] = {
/* columns rows colors chars-per-pixel */
"64 64 151 2 ",
"   c None",
".  c #4E4B76",
"X  c #4C477E",
"o  c #4D4A7D",
"O  c #514D77",
"+  c #514D7D",
"@  c #4E517D",
"#  c #51537E",
"$  c #3B5782",
"%  c #4D4780",
"&  c #4E4C81",
"*  c #514D82",
"=  c #545383",
"-  c #595685",
";  c #575884",
":  c #5A5A86",
">  c #575488",
",  c #595589",
"<  c #5D5B8A",
"1  c #615F8C",
"2  c #5F6F87",
"3  c #5F608A",
"4  c #4E7D88",
"5  c #5E7384",
"6  c #5B7884",
"7  c #616187",
"8  c #63648D",
"9  c #626E89",
"0  c #617586",
"q  c #637986",
"w  c #637489",
"e  c #667D88",
"r  c #6A7E8B",
"t  c #636391",
"y  c #6C7D91",
"u  c #168C91",
"i  c #039397",
"p  c #099196",
"a  c #1E9D9F",
"s  c #219C9F",
"d  c #2C999D",
"f  c #1B9FA1",
"g  c #0EA5A7",
"h  c #5D8C97",
"j  c #5C8D98",
"k  c #4E949A",
"l  c #569198",
"z  c #638189",
"x  c #6E848F",
"c  c #70858F",
"v  c #678791",
"b  c #6D8590",
"n  c #698892",
"m  c #718590",
"M  c #778C96",
"N  c #798D97",
"B  c #7A8E98",
"V  c #6B929B",
"C  c #579EA5",
"Z  c #5E99A2",
"A  c #57D7DB",
"S  c #61D1D6",
"D  c #6AD9DE",
"F  c #48DFE1",
"G  c #5EDFE3",
"H  c #60DFE3",
"J  c #69DDE1",
"K  c #49E8E9",
"L  c #5CE1E4",
"P  c #51E7E9",
"I  c #51E9EB",
"U  c #5DF3F4",
"Y  c #59F6F8",
"T  c #60E2E5",
"R  c #6DECEE",
"E  c #79E4E8",
"W  c #74EBEE",
"Q  c #7CE8EB",
"!  c #6FEDF0",
"~  c #63F2F5",
"^  c #9EA6BF",
"/  c #9FAABF",
"(  c #A1ACBE",
")  c #A3B4BE",
"_  c #9FA6C0",
"`  c #9FA9C1",
"'  c #A0A6C0",
"]  c #A2ACC0",
"[  c #A4B4C0",
"{  c #ABB5C7",
"}  c #ACBAC5",
"|  c #ABB6C8",
" . c #A7BFC9",
".. c #AEBAC8",
"X. c #B1BFC8",
"o. c #9AC5CD",
"O. c #93C8CF",
"+. c #9BD1D7",
"@. c #92D5DB",
"#. c #A3C1C9",
"$. c #B6C5CD",
"%. c #B8C7CF",
"&. c #B7C8CF",
"*. c #BAC8CF",
"=. c #A5CED6",
"-. c #A8CBD0",
";. c #B9C7D0",
":. c #B5CCD4",
">. c #BBCAD2",
",. c #A3D0D7",
"<. c #A4D5DC",
"1. c #ABD3D8",
"2. c #B9D2D7",
"3. c #ADFAF9",
"4. c #B5F7F6",
"5. c #BAF4F5",
"6. c #B5F7F8",
"7. c #B6FDFD",
"8. c #BDFAF9",
"9. c #C1CED3",
"0. c #C2EDEE",
"q. c #C9EBEC",
"w. c #D6E2E4",
"e. c #DAE4E6",
"r. c #D6E6E8",
"t. c #D4E9EA",
"y. c #D6EDED",
"u. c #D7EDED",
"i. c #D4EEEF",
"p. c #D6EDEE",
"a. c #D2E9E9",
"s. c #DFE8E9",
"d. c #DEE9EA",
"f. c #DFE9EA",
"g. c #DDEAEA",
"h. c #DCEAEA",
"j. c #DEEAEA",
"k. c #DAEBEC",
"l. c #D9EBEC",
"z. c #D8ECEC",
"x. c #D2F0EF",
"c. c #C1EFF0",
"v. c #C2F7F7",
"b. c #C5F6F6",
"n. c #C0F8F8",
"m. c #D1F0F0",
"M. c #E1E7E8",
"N. c #E0E8E9",
"B. c #E1E8E9",
"V. c #E1E9E8",
"C. c #E2E8E9",
/* pixels */
"                                                                                                                                ",
"                                                                                                                                ",
"                                                                                                                                ",
"                                                                                                                                ",
"                                                                                                                                ",
"                                                                                                                                ",
"                                                * o o o o o o o o o o o o o o +                                                 ",
"                                                # @ @ @ $ $ $ $ $ $ $ $ @ @ @ #                                                 ",
"                                    & o o o o # 0 0 0 4 p i i i i i i u 6 0 0 w * o o o o o                                     ",
"                                    @ @ @ @ o # q z j k s s s f g g a d l h z w # o @ @ @ #                                     ",
"                                & @ 0 0 0 0 0 0 q j F L #. . .O.K L #.O.P A v q 0 0 0 0 0 0 & o                                 ",
"                                # @ q e m m m n j C T E :.>.:.<.R Q >.1.R J Z h b m m x e w # #                                 ",
"                            & # 0 q q x ) ....o.P L -.:.w.a.6.5.a.r.e.w.:.+.I H #.....) x q q 0 * o                             ",
"                            @ @ q e x B X.*.>.1.~ W :.9.e.u.7.8.f.N.N.r.2.<.R Q >.>.>...B x e w # @                             ",
"                        & @ 0 q q x [ ..$.>.w.a.3.4.r.e.M.u.7.8.f.N.N.u.6.5.a.r.r.w.>.$...) x q 0 0 * o                         ",
"                        # @ q e x B ..;.>.9.t.x.8.b.f.N.N.z.8.v.u.z.N.u.7.8.f.N.N.r.9.>.>...B x e w # #                         ",
"                    & # 0 q q x ) X.$.>.w.a.8.8.k.f.N.N.N.f.f.u.7.8.f.u.7.8.f.N.N.f.e.w.>.$.X.) x q q 0 * o                     ",
"                    @ @ q e x B X.*.>.9.a.m.8.b.f.N.N.N.N.N.N.u.7.8.f.k.n.v.u.z.f.N.N.r.9.>.>...B x e w # @                     ",
"                & @ 0 q q c [ X.$.>.w.t.8.8.k.f.N.N.N.N.N.N.N.u.7.8.f.N.f.u.7.n.f.N.N.M.e.w.>.$...) x q q 0 = o                 ",
"                o @ 0 e e m ..%.$.>.0.c.5.5.r.r.r.r.r.r.r.r.r.a.5.5.0.q.r.a.5.5.0.0.0.q.r.w.>.$.;...b e e w & o                 ",
"                o @ 0 e q m ..%.%.,.U ! :.:.>.>.>.>.>.>.>.>.>.>.>.<.U R :.>.:.<.~ Y Y ! :.>.%.$.;. .x q e w * o                 ",
"                o @ 0 e x B X.:.=.@.L D  .........................o.G D  .....o.G L L J +.=.$.$.%...N x e w * o                 ",
"                o o 0 b [ $.%.,.U L V v b x x x x x x x x x x b x x n n x x x b n n v Z I R :.%.%.$.$.[ b w * o                 ",
"                @ # 0 b ) ....o.L S v q w w w w w w w w w w w w w w w w w w w w w w q h A D  .........) x w = #                 ",
"            * # 0 q e e x b b b n v e w = * * * * * * * * * * * * * * * * * * & * = q e v n b b b b b x e e q 0 = +             ",
"            o @ 0 e e e e e w w w w w 9 * X o o @ @ o o o o o o o o o o o o @ o o o 0 w w w q q e q q e e e e w * o             ",
"            o @ 0 e e e e w = * * * * * o o o o 5 0 * o X o 5 0 * o 5 0 * @ 5 0 & o * * * # q e e e e e e e e w * o             ",
"            o o 0 w w w w 9 * X o @ @ o o o o + q w * X o @ q w * o q w * o q w * o o X o # 0 w w w w w w w w 9 * o             ",
"            o o * * * * * * o o 5 q 0 w * X o @ 0 w * X o @ 0 w * o 0 w * @ 0 w * o o @ 5 0 = * * * * * * * * & o o             ",
"            + + + + + + + + + # 0 w e w = o & @ q w # o o @ 0 w * @ 0 w * @ 0 w * o X @ 0 w * o + + + + + + + + + +             ",
"                                * # q e q 2 * o 0 q q 0 & @ 0 w * @ 0 w * o 0 w * X X o 0 w * o                                 ",
"                                + # 0 w m y * @ x m e w * @ 0 w * @ 0 w * # x y * o - : w 9 = +                                 ",
"                * & & =             * : ) ] > ; ) [ x w * @ 0 w * @ 0 w & : ) ] , > ( ( < #                             - o     ",
"                : : : 7             + : ] ' 8 8 ' [ M y * @ x y * @ x y * : } | , : } | , o                             7 :     ",
"            + < ( } } ( < #             , 8 ( ] t 8 ) ] , ; ) ] , ; ) ] > : } | , : } | , o                         - < ( ' < * ",
"            X : } >.>.| , +             o : } | , : } | , : } | , : } { , : } | , : } | , o                         * : } | - X ",
"            X : } &.>.| , +             o : } | > ; } | , : } | , : } | , : } | , : } | , o                         * : } | , X ",
"            X : } $.| ' < #             < 8 ( ` 8 8 } | , : } | , : } | , : } | , : } | 8 :                         * : } | , o ",
"            X : } | t <             + < ( ( t 8 ( } $.{ , : } | , : } | , : } | , : } $.} ( < +                     * : } | , X ",
"            X : } { , +             o : } | , : } ;.&.{ , : } | , : } | , : } | , : } %.>.| - o                     1 8 ' ' : o ",
"            X : } { > #             o : } | , : } %.%.{ , : } | , : } | , : } | , : } >.>.| , o                 - < ( ( t -     ",
"            X : } | 8 3             o : } | , : } ;.;.{ , : } | , : } | , : } | 8 8 ( | | ' 8 :                 * ; ) ] > .     ",
"            X : } $.} ( < =         o : } | , : } ;.;.{ , : } | , : } | , : } ;.} ( t , , 8 ( ] < +             * @ r y * o     ",
"            o : ( } %.| , +         o : } | , : } %.%.{ , : } | , : } | 8 8 ( | $.| , X X : } | 8 :             7 : q w * o     ",
"                , 8 } { , +         o : } | , : } &.>.| , : } | , : } ;.} ( t 8 } | , X X : } $.} ' < * * * * < ( ) x w * o     ",
"                X ; ) [ 8 7         : 8 ( ' = : } $.| ^ > : } | , - ( | %.| > : } | , o o : ( { ..( : @ @ @ o : ) ) y 9 # .     ",
"                o @ r M ) ] < * * < ( ] t > & : } | t > o : } | , & > t } | , : } | , o     < : x x e q 0 0 0 q x y = +         ",
"                o # 0 y ) ] : o o : ) ( > X X : } { , X X : } | , X X : } | , : } | , o     + # 0 w w w w w w w w 9 + .         ",
"                    * = r x q 0 0 q x y * o X : } | , o X : } | , X X : } | , : } | , o         = * * * * * * * * +             ",
"                    o # 0 w w w w w w 9 # o X : } | , o X : } | , X X : } | , : } | , o         # o o o o o o o o .             ",
"                        * * * * * * * =     o : } | , o X : } | , X X : } | , : } | , o                                         ",
"                        o o o o o o o #     o : } | , o X : } | , X X : } | , : } | t :                                         ",
"                                            o : } | , o X : } | , X X : } | , : } ;.} ( < #                                     ",
"                                            : 8 } | , o X : } | , o o < ( ' 8 8 ( | $.| , o                                     ",
"            * :             = * * * * * * 7 ( ..%.| , X X : } | , +     < 8 ( ] t 8 } | , o             - +                     ",
"            : 7             : : : : # o X - ( | $.| t - o : } | , +     & : } | - : } | 8 :             3 <                     ",
"        * 7 ( ( < =     = 3 ( } } ) r 0 & o > t } %...( > : } | , +     * : } | , : } $.} ( < = = = * 7 ( ] < =                 ",
"        X ; ) [ 8 7     o - ( | | ] y 9 = @ o : ( | | ` : : ` ' : O     * : } | : : / { | _ > X o o o : ) ] > o                 ",
"        o @ r M ) ] 1 * o & > , , > * = 5 q q w < , , : 0 w < <         * : } ..x w < , , > & o 5 q 0 q x y * o * = = =         ",
"        o @ 0 y ] ` : o @ @ @ o @ o o # 0 w w 9 # o o # q w & +         + : ' ] y 9 = o o @ o # w w w w w 9 = o @ @ @ #         ",
"            * * , : 0 q 0 0 0 0 0 0 0 0 = * * = 0 0 0 q e w & +             < > * # 0 q 0 0 0 0 = * * * * # 5 q 0 0 0 w > =     ",
"            o o o @ 0 w w w w w w w w w + o o # 0 w w w w 9 # +             + o o # 0 w w w w 9 + o & o X o 0 w w w w 9 + .     ",
"                    & & * * * * * * * =         * * * * & #                         = & * * * +     * o o o * * * * * +         ",
"                    o % o o o o o o o #         * o o o X +                         * X o o o o     * o o o o o o o o o         "
};
