/* XPM */
static char *result[] = {
/* columns rows colors chars-per-pixel */
"32 64 5 1 ",
"  c #FEFDFF",
". c #FEFEFF",
"X c #FFFEFF",
"o c white",
"O c None",
/* pixels */
"OOOOOOOOOOOOOOOOOOOOOOOOOOOOOOOO",
"OOOOOOOOOOOOOOOOOOOOOOOOOOOOOOOO",
"OOOOOOOOOOOOOOOOOOOOOOOOOOOOOOOO",
"OOOOOOOOOOOOOOOOOOOOOOOOOOOOOOOO",
"OOOOOOOOOOOOOOOOOOOOOOOOOOOOOOOO",
"OOOOOOOOOOOOOOOOOOOOOOOOOOOOOOOO",
"OOOOOOOOOOOOOOOOOOOOOOOOOOOOOOOO",
"OOOOOOOOOOOOOOOOOOOOOOOOOOOOOOOO",
"OOOOOOOOOOOOOOOOOOOOOOOOOOOOOOOO",
"OOOOOOOOOOOOOOOOOOOOOOOOOOOOOOOO",
"OOOOOOOOOOOOOOOOOOOOOOOOOOOOOOOO",
"OOOOOOOOOOOOOOOOOOOOOOOOOOOOOOOO",
"OOOOOOOOOOOOOOOOOOOOOOOOOOOOOOOO",
"OOOOOOOOOOOOOOOOOOOOOOOOOOOOOOOO",
"OOOOOOOOOOOOOOOOOOOOOOOOOOOOOOOO",
"OOOOOOOOOOOOOOOOOOOOOOOOOOOOOOOO",
"OOOOooooooooooooooooooooOOOOOOOO",
"OOOOooooooooooooooooooooOOOOOOOO",
"OOOOooooooooooooooooooooOOOOOOOO",
"OOOOoooo........ooooooooOOOOOOOO",
"OOOOooo.OOOOOOOOooooooooOOOOOOOO",
"OOOOooo.OOOOOOOOooooooooOOOOOOOO",
"OOOOooo.OOOOOOOOooooooooOOOOOOOO",
"OOOOooo.OOOOOOOOXXXXXXXXOOOOOOOO",
"OOOOooo.OOOOOOOOOOOOOOOOOOOOOOOO",
"OOOOooo.OOOOOOOOOOOOOOOOOOOOOOOO",
"OOOOooo.OOOOOOOOOOOOOOOOOOOOOOOO",
"OOOOXXX OOOOOOOOOOOOOOOOOOOOOOOO",
"OOOOOOOOooooooooooooOOOOOOOOOOOO",
"OOOOOOOOooooooooooooOOOOOOOOOOOO",
"OOOOOOOOooooooooooooOOOOOOOOOOOO",
"OOOOOOOOXXXXXXXoooooOOOOOOOOOOOO",
"OOOOOOOOOOOOOOOOooooooooOOOOOOOO",
"OOOOOOOOOOOOOOOOooooooooOOOOOOOO",
"OOOOOOOOOOOOOOOOooooooooOOOOOOOO",
"OOOOOOOOOOOOOOOOooooooooOOOOOOOO",
"OOOOOOOOOOOOOOOOooooooooOOOOOOOO",
"OOOOOOOOOOOOOOOOooooooooOOOOOOOO",
"OOOOOOOOOOOOOOOOooooooooOOOOOOOO",
"OOOOOOOOOOOOOOOOoooooooXOOOOOOOO",
"OOOOooooooooooooooooOOOOOOOOOOOO",
"OOOOooooooooooooooooOOOOOOOOOOOO",
"OOOOooooooooooooooooOOOOOOOOOOOO",
"OOOOoooooooooooooooXOOOOOOOOOOOO",
"OOOOOOOOOOOOOOOOOOOOOOOOOOOOOOOO",
"OOOOOOOOOOOOOOOOOOOOOOOOOOOOOOOO",
"OOOOOOOOOOOOOOOOOOOOOOOOOOOOOOOO",
"OOOOOOOOOOOOOOOOOOOOOOOOOOOOOOOO",
"OOOOOOOOOOOOOOOOOOOOOOOOOOOOOOOO",
"OOOOOOOOOOOOOOOOOOOOOOOOOOOOOOOO",
"OOOOOOOOOOOOOOOOOOOOOOOOOOOOOOOO",
"OOOOOOOOOOOOOOOOOOOOOOOOOOOOOOOO",
"OOOOOOOOOOOOOOOOOOOOOOOOOOOOOOOO",
"OOOOOOOOOOOOOOOOOOOOOOOOOOOOOOOO",
"OOOOOOOOOOOOOOOOOOOOOOOOOOOOOOOO",
"OOOOOOOOOOOOOOOOOOOOOOOOOOOOOOOO",
"OOOOOOOOOOOOOOOOOOOOOOOOOOOOOOOO",
"OOOOOOOOOOOOOOOOOOOOOOOOOOOOOOOO",
"OOOOOOOOOOOOOOOOOOOOOOOOOOOOOOOO",
"OOOOOOOOOOOOOOOOOOOOOOOOOOOOOOOO",
"OOOOOOOOOOOOOOOOOOOOOOOOOOOOOOOO",
"OOOOOOOOOOOOOOOOOOOOOOOOOOOOOOOO",
"OOOOOOOOOOOOOOOOOOOOOOOOOOOOOOOO",
"OOOOOOOOOOOOOOOOOOOOOOOOOOOOOOOO"
};
