/* XPM */
static char *result[] = {
/* columns rows colors chars-per-pixel */
"32 64 5 1 ",
"  c #FEFEFE",
". c #FEFEFF",
"X c #FFFEFF",
"o c white",
"O c None",
/* pixels */
"OOOOOOOOOOOOOOOOOOOOOOOOOOOOOOOO",
"OOOOOOOOOOOOOOOOOOOOOOOOOOOOOOOO",
"OOOOOOOOOOOOOOOOOOOOOOOOOOOOOOOO",
"OOOOOOOOOOOOOOOOOOOOOOOOOOOOOOOO",
"OOOOOOOOOOOOOOOOOOOOOOOOOOOOOOOO",
"OOOOOOOOOOOOOOOOOOOOOOOOOOOOOOOO",
"OOOOOOOOOOOOOOOOOOOOOOOOOOOOOOOO",
"OOOOOOOOOOOOOOOOOOOOOOOOOOOOOOOO",
"OOOOOOOOOOOOOOOOOOOOOOOOOOOOOOOO",
"OOOOOOOOOOOOOOOOOOOOOOOOOOOOOOOO",
"OOOOOOOOOOOOOOOOOOOOOOOOOOOOOOOO",
"OOOOOOOOOOOOOOOOOOOOOOOOOOOOOOOO",
"OOOOOOOOOOOOOOOOOOOOOOOOOOOOOOOO",
"OOOOOOOOOOOOOOOOOOOOOOOOOOOOOOOO",
"OOOOOOOOOOOOOOOOOOOOOOOOOOOOOOOO",
"OOOOOOOOOOOOOOOOOOOOOOOOOOOOOOOO",
"OOOOOOOOOOOOOOOOooooOOOOOOOOOOOO",
"OOOOOOOOOOOOOOOOooooOOOOOOOOOOOO",
"OOOOOOOOOOOOOOOOooooOOOOOOOOOOOO",
"OOOOOOOOOOOOOOOOooooOOOOOOOOOOOO",
"OOOOOOOOOOOOooooooooooooOOOOOOOO",
"OOOOOOOOOOOOooooooooooooOOOOOOOO",
"OOOOOOOOOOOOooooooooooooOOOOOOOO",
"OOOOOOOOOOOOXXXoooooooooOOOOOOOO",
"OOOOOOOOoooXOOOOooooooooOOOOOOOO",
"OOOOOOOOoooXOOOOooooooooOOOOOOOO",
"OOOOOOOOoooXOOOOooooooooOOOOOOOO",
"OOOOOOOOXXXXOOOOooooooooOOOOOOOO",
"OOOOooo.OOOOOOOOooooooooOOOOOOOO",
"OOOOooo.OOOOOOOOooooooooOOOOOOOO",
"OOOOooo OOOOOOOOooooooooOOOOOOOO",
"OOOOooo.OOOOOOOOooooooooOOOOOOOO",
"OOOOooooooooooooooooooooOOOOOOOO",
"OOOOooooooooooooooooooooOOOOOOOO",
"OOOOooooooooooooooooooooOOOOOOOO",
"OOOOooooooooooooooooooooOOOOOOOO",
"OOOOOOOOOOOOOOOOooooooooOOOOOOOO",
"OOOOOOOOOOOOOOOOooooooooOOOOOOOO",
"OOOOOOOOOOOOOOOOooooooooOOOOOOOO",
"OOOOOOOOOOOOOOOOooooooooOOOOOOOO",
"OOOOOOOOOOOOOOOOooooooooOOOOOOOO",
"OOOOOOOOOOOOOOOOooooooooOOOOOOOO",
"OOOOOOOOOOOOOOOOooooooooOOOOOOOO",
"OOOOOOOOOOOOOOOOoooooooXOOOOOOOO",
"OOOOOOOOOOOOOOOOOOOOOOOOOOOOOOOO",
"OOOOOOOOOOOOOOOOOOOOOOOOOOOOOOOO",
"OOOOOOOOOOOOOOOOOOOOOOOOOOOOOOOO",
"OOOOOOOOOOOOOOOOOOOOOOOOOOOOOOOO",
"OOOOOOOOOOOOOOOOOOOOOOOOOOOOOOOO",
"OOOOOOOOOOOOOOOOOOOOOOOOOOOOOOOO",
"OOOOOOOOOOOOOOOOOOOOOOOOOOOOOOOO",
"OOOOOOOOOOOOOOOOOOOOOOOOOOOOOOOO",
"OOOOOOOOOOOOOOOOOOOOOOOOOOOOOOOO",
"OOOOOOOOOOOOOOOOOOOOOOOOOOOOOOOO",
"OOOOOOOOOOOOOOOOOOOOOOOOOOOOOOOO",
"OOOOOOOOOOOOOOOOOOOOOOOOOOOOOOOO",
"OOOOOOOOOOOOOOOOOOOOOOOOOOOOOOOO",
"OOOOOOOOOOOOOOOOOOOOOOOOOOOOOOOO",
"OOOOOOOOOOOOOOOOOOOOOOOOOOOOOOOO",
"OOOOOOOOOOOOOOOOOOOOOOOOOOOOOOOO",
"OOOOOOOOOOOOOOOOOOOOOOOOOOOOOOOO",
"OOOOOOOOOOOOOOOOOOOOOOOOOOOOOOOO",
"OOOOOOOOOOOOOOOOOOOOOOOOOOOOOOOO",
"OOOOOOOOOOOOOOOOOOOOOOOOOOOOOOOO"
};
