/* XPM */
static char *_c4223affa2f4ee19e6934045b88e7b2mMK6kFBoYoIIxvsk[] = {
/* columns rows colors chars-per-pixel */
"192 96 31 1 ",
"  c None",
". c #E30303",
"X c #E40303",
"o c #E50303",
"O c #EA0202",
"+ c #EB0202",
"@ c #EC0202",
"# c #ED0202",
"$ c #EE0202",
"% c #EF0202",
"& c #F10101",
"* c #F20101",
"= c #F30101",
"- c #F10102",
"; c #F00202",
": c #F40101",
"> c #F50101",
", c #F60101",
"< c #F70101",
"1 c #F90000",
"2 c #F80101",
"3 c #F90101",
"4 c #FA0000",
"5 c #FB0000",
"6 c #FA0100",
"7 c #FA0001",
"8 c #FA0101",
"9 c #FC0000",
"0 c #FD0000",
"q c #FE0000",
"w c red",
/* pixels */
"                                                                                                                                                                                                ",
"                                                                                                                                                                                                ",
"                                                                                                                                                                                                ",
"                                                                                                                                                                                                ",
"                                                                                                                                                                                                ",
"                                                                                                                                                                                                ",
"                                                                                                                                                                                                ",
"                                                                                                                                                                                                ",
"                                                                                                                                                                                                ",
"                                                                                                                                                                                                ",
"                                                                                                                                                                                                ",
"                                                                                                                                                                                                ",
"                                                                                                                                                                                                ",
"                                                                                                                                                                                                ",
"                                                                                                                                                                                                ",
"                                                                                                                                                                                                ",
"                                                                                                                                                                                                ",
"                                                                                                                                                                                                ",
"                                                                                                                                                                                                ",
"                                                                                                                                                                                                ",
"                                                                                                                                                                                                ",
"                                                                                                                                                                                                ",
"                                                                                                                                                                                                ",
"                                                                                                                                                                                                ",
"                                                                                                                                                                                                ",
"                                                                                                                                                                                                ",
"                                                                                                                                                                                                ",
"                                                                                                                                                                                                ",
"                                                                                                                                                                                                ",
"                                                                                                                                                                                                ",
"                                                                                                                                                                                                ",
"                                                                                                                                                                                                ",
"                                                                                                                                                                                                ",
"                                                                                                                                                                                                ",
"                                                                                                                                                                                                ",
"                                                                                                                                                                                                ",
"                                                                                                                                                                                                ",
"                                                                                                                                                                                                ",
"                                                                                                                                                                                                ",
"                                                                                                                                                                                                ",
"                                                                                                                                                                                                ",
"                                                                                                                                                                                                ",
"                                                                                                                                                                                                ",
"                                                                                                                                                                                                ",
"                                                                                                                                                                                                ",
"                                                                                                                                                                                                ",
"                                                                                                                                                                                                ",
"                                                                                                                                                                                                ",
"                                                                                                                                                                                                ",
"                                                                                                                                                                                                ",
"                                                                                                                                                                                                ",
"                                                                                                                                                                                                ",
"                                                                                                                                                                                                ",
"                                                                                                                                                                                                ",
"                                                                                                                                                                                                ",
"                                                                                                                                                                                                ",
"                                                                                                                                                                                                ",
"             qqqqqqqqqqqq        qqqqqqq        qqqq<        qqqq   qqqqqqqqqqqqqqqqq4                         4qqqqqqqqqqq<     qqqq<        qqqq+  qqqqqqqqqqqqqqqqq   qqqqqqqqqqqqqqq        ",
"             qq4qqqqqqqq4        qq444qq        qqqq<        qqqq   qqqqq4qqqqqqqqqqq                          4q44qqqqq4qq=     qqqq<        qqqqo  qqqqq4qqqqqqqqqqq   qqqqq4qqqqqq4qq        ",
"          <<4q4                <4qq   4q44=     qqqqq<<   <<4qqqq   qqqq4                                    4<qq#       4q4<<   qqqq<        qqqqo  qqqq4               qqqqq        4q4<<     ",
"          qqqqq               4qqqq   4qqq4     qqqqqqq   4qqqqqq   qqqq4                                    qqqq=       4qqqq   qqqq<        qqqqo  qqqq4               qqqqq        qqqqq     ",
"          qq<                 4q4       qq4     qqqqqqq< =4qqqqqq   qqqq4                                    qqqq=       4qqqq   qqqq<        qqqqo  qqqq4               qqqqq        qqqqq     ",
"        qqqq                qqqq<        qqqq   qqqqqqqqqqqqqqqqq   qqqq4                                    qqqq=       4qqqq   qqqq<        qqqqo  qqqq4               qqqqq        qqqqq     ",
"        qqqq#               qqqq<        qqqq   qqqqqqqqqqqqqqqqq   qqqq4                                    qqqq=       4qqqq   qqqq<        qqqqo  qqqq4               qqqqq        qqqqq     ",
"        qqqq#     4qqqqq4   qqqq<        qqqq   qqqqqqqqqqqqqqqqq   qqqqq4qqqqqqqq4                          qqqq=       4qqqq   qqqqq4q   <qqqqqqo  qqqqq4qqqqqqqq4     qqqqq      q4qqqqq     ",
"        qqqq#     qqqqqqq   qqqq=        qqqq   qqqqqqqqqqqqqqqqq   qqqqqqqqqqqqqqq                          qqqq=       4qqqq   qqqqqqq   4qqqqqqo  qqqqqqqqqqqqqqq     qqqqq     =qqqqqqq     ",
"        qqqq#      #4qqqq   qqqq<       4qqqq   qqqq4##<q4+ <qqqq   qqqqq= #######                           qqqq=       4qqqq    #<qqqq<  4qqq4##   qqqqq=########      qqqqq#    <q4####      ",
"        qqqq#       qqqqq   qqqqqqqqqqqqqqqqq   qqqq<   q4   qqqq   qqqq4                                    qqqq=       4qqqq      qqqqqqqqqqq4     qqqq4               qqqqqqqqqqqq4          ",
"        qqqq#       qqqqq   qqqqqqqqqqqqqqqqq   qqqq<   q4   qqqq   qqqq4                                    qqqq=       4qqqq      qqqqqqqqqqq4     qqqq4               qqqqq4qqqqqq4          ",
"          qq4q4     qqqqq   qqqq<       4qqqq   qqqq<        qqqq   qqqq4                                    qqqq=       4qqqq        4qqqqqq        qqqq4               qqqqq   qqqqqqq        ",
"          qqqqq     qqqqq   qqqq<        qqqq   qqqq<        qqqq   qqqq4                                    qqqq=       4qqqq        4qqqqqq        qqqq4               qqqqq   qqqqqqq        ",
"            4qq     4qqqq   qqqq<        qqqq   qqqq<        qqqq   qqqq4.                                     qq#       <q4            4q4          qqqq4               qqqqq     4qqqq=       ",
"             qqqqqqqqqqqq   qqqq<        qqqq   qqqq<        qqqq   qqqqqqqqqqqqqqqqq4                         4qqqqqqqqqqq<             q4          qqqqqqqqqqqqqqqqq   qqqqq     =qqqqqqq     ",
"             qqqqqqqqqqq4   qqqq=        qqqq   qqqq<        qqqq   qqqqqqqqqqqqqqqqq<                         4qqqqqqqqqqq<             q4          qqqqqqqqqqqqqqqqq   4qqqq     =qqqqqqq     ",
"                                                                                                                                                                                                ",
"                                                                                                                                                                                                ",
"                                                                                                                                                                                                ",
"                                                                                                                                                                                                ",
"                                                                                                                                                                                                ",
"                                                                                                                                                                                                ",
"                                                                                                                                                                                                ",
"                                                                                                                                                                                                ",
"                                                                                                                                                                                                ",
"                                                                                                                                                                                                ",
"                                                                                                                                                                                                ",
"                                                                                                                                                                                                ",
"                                                                                                                                                                                                ",
"                                                                                                                                                                                                ",
"                                                                                                                                                                                                ",
"                                                                                                                                                                                                ",
"                                                                                                                                                                                                ",
"                                                                                                                                                                                                ",
"                                                                                                                                                                                                ",
"                                                                                                                                                                                                ",
"                                                                                                                                                                                                ",
"                                                                                                                                                                                                "
};
