/* XPM */
static char *result[] = {
/* columns rows colors chars-per-pixel */
"32 64 4 1 ",
"  c #FEFEFF",
". c #FFFEFF",
"X c white",
"o c None",
/* pixels */
"oooooooooooooooooooooooooooooooo",
"oooooooooooooooooooooooooooooooo",
"oooooooooooooooooooooooooooooooo",
"oooooooooooooooooooooooooooooooo",
"oooooooooooooooooooooooooooooooo",
"oooooooooooooooooooooooooooooooo",
"oooooooooooooooooooooooooooooooo",
"oooooooooooooooooooooooooooooooo",
"oooooooooooooooooooooooooooooooo",
"oooooooooooooooooooooooooooooooo",
"oooooooooooooooooooooooooooooooo",
"oooooooooooooooooooooooooooooooo",
"oooooooooooooooooooooooooooooooo",
"oooooooooooooooooooooooooooooooo",
"oooooooooooooooooooooooooooooooo",
"oooooooooooooooooooooooooooooooo",
"ooooXXXXXXXXXXXXXXXXXXXXoooooooo",
"ooooXXXXXXXXXXXXXXXXXXXXoooooooo",
"ooooXXXXXXXXXXXXXXXXXXXXoooooooo",
"ooooXXXXXXXX        XXXXoooooooo",
"ooooXXXXXXX.ooooooooXXXXoooooooo",
"ooooXXXXXXX.ooooooooXXXXoooooooo",
"ooooXXXXXXX.ooooooooXXXXoooooooo",
"oooo........oooooooo....oooooooo",
"ooooooooooooooooXXXXoooooooooooo",
"ooooooooooooooooXXXXoooooooooooo",
"ooooooooooooooooXXXXoooooooooooo",
"oooooooooooooooo....oooooooooooo",
"ooooooooooooXXX.oooooooooooooooo",
"ooooooooooooXXX.oooooooooooooooo",
"ooooooooooooXXX.oooooooooooooooo",
"ooooooooooooXXX.oooooooooooooooo",
"ooooooooXXXXXXX.oooooooooooooooo",
"ooooooooXXXXXXX.oooooooooooooooo",
"ooooooooXXXXXXX.oooooooooooooooo",
"ooooooooXXXXXXX.oooooooooooooooo",
"ooooooooXXXXXXX.oooooooooooooooo",
"ooooooooXXXXXXX.oooooooooooooooo",
"ooooooooXXXXXXX.oooooooooooooooo",
"ooooooooXXXXXXX.oooooooooooooooo",
"ooooooooXXXXXXX.oooooooooooooooo",
"ooooooooXXXXXXX.oooooooooooooooo",
"ooooooooXXXXXXX.oooooooooooooooo",
"ooooooooXXXXXXX.oooooooooooooooo",
"oooooooooooooooooooooooooooooooo",
"oooooooooooooooooooooooooooooooo",
"oooooooooooooooooooooooooooooooo",
"oooooooooooooooooooooooooooooooo",
"oooooooooooooooooooooooooooooooo",
"oooooooooooooooooooooooooooooooo",
"oooooooooooooooooooooooooooooooo",
"oooooooooooooooooooooooooooooooo",
"oooooooooooooooooooooooooooooooo",
"oooooooooooooooooooooooooooooooo",
"oooooooooooooooooooooooooooooooo",
"oooooooooooooooooooooooooooooooo",
"oooooooooooooooooooooooooooooooo",
"oooooooooooooooooooooooooooooooo",
"oooooooooooooooooooooooooooooooo",
"oooooooooooooooooooooooooooooooo",
"oooooooooooooooooooooooooooooooo",
"oooooooooooooooooooooooooooooooo",
"oooooooooooooooooooooooooooooooo",
"oooooooooooooooooooooooooooooooo"
};
