/* XPM */
static char *result[] = {
/* columns rows colors chars-per-pixel */
"32 64 6 1 ",
"  c #FEFDFF",
". c #FEFEFE",
"X c #FEFEFF",
"o c #FFFEFF",
"O c white",
"+ c None",
/* pixels */
"++++++++++++++++++++++++++++++++",
"++++++++++++++++++++++++++++++++",
"++++++++++++++++++++++++++++++++",
"++++++++++++++++++++++++++++++++",
"++++++++++++++++++++++++++++++++",
"++++++++++++++++++++++++++++++++",
"++++++++++++++++++++++++++++++++",
"++++++++++++++++++++++++++++++++",
"++++++++++++++++++++++++++++++++",
"++++++++++++++++++++++++++++++++",
"++++++++++++++++++++++++++++++++",
"++++++++++++++++++++++++++++++++",
"++++++++++++++++++++++++++++++++",
"++++++++++++++++++++++++++++++++",
"++++++++++++++++++++++++++++++++",
"++++++++++++++++++++++++++++++++",
"++++++++OOOOOOOOOOOOOOOO++++++++",
"++++++++OOOOOOOOOOOOOOOO++++++++",
"++++++++OOOOOOOOOOOOOOOO++++++++",
"++++++++XXXXXXXXOOOOOOOO++++++++",
"++++OOO.++++++++OOOOOOOO++++++++",
"++++OOOX++++++++OOOOOOOO++++++++",
"++++OOOX++++++++OOOOOOOO++++++++",
"++++OOOX++++++++oooooooo++++++++",
"++++OOOX++++++++++++++++++++++++",
"++++OOOX++++++++++++++++++++++++",
"++++OOO.++++++++++++++++++++++++",
"++++OOOX++++++++++++++++++++++++",
"++++OOOOOOOOOOOOOOOO++++++++++++",
"++++OOOOOOOOOOOOOOOO++++++++++++",
"++++OOOOOOOOOOOOOOOO++++++++++++",
"++++OOOOoooooooOOOOO++++++++++++",
"++++OOOX++++++++OOOOOOOO++++++++",
"++++OOO.++++++++OOOOOOOO++++++++",
"++++OOOX++++++++OOOOOOOO++++++++",
"++++OOOX++++++++OOOOOOOO++++++++",
"++++OOOX++++++++OOOOOOOO++++++++",
"++++OOOX++++++++OOOOOOOO++++++++",
"++++OOOX++++++++OOOOOOOO++++++++",
"++++OOO ++++++++OOOOOOOo++++++++",
"++++++++OOOOOOOOOOOO++++++++++++",
"++++++++OOOOOOOOOOOO++++++++++++",
"++++++++OOOOOOOOOOOO++++++++++++",
"++++++++OOOOOOOOOOOo++++++++++++",
"++++++++++++++++++++++++++++++++",
"++++++++++++++++++++++++++++++++",
"++++++++++++++++++++++++++++++++",
"++++++++++++++++++++++++++++++++",
"++++++++++++++++++++++++++++++++",
"++++++++++++++++++++++++++++++++",
"++++++++++++++++++++++++++++++++",
"++++++++++++++++++++++++++++++++",
"++++++++++++++++++++++++++++++++",
"++++++++++++++++++++++++++++++++",
"++++++++++++++++++++++++++++++++",
"++++++++++++++++++++++++++++++++",
"++++++++++++++++++++++++++++++++",
"++++++++++++++++++++++++++++++++",
"++++++++++++++++++++++++++++++++",
"++++++++++++++++++++++++++++++++",
"++++++++++++++++++++++++++++++++",
"++++++++++++++++++++++++++++++++",
"++++++++++++++++++++++++++++++++",
"++++++++++++++++++++++++++++++++"
};
