/* XPM */
static char *result[] = {
/* columns rows colors chars-per-pixel */
"32 64 6 1 ",
"  c #FEFDFF",
". c #FEFEFE",
"X c #FEFEFF",
"o c #FFFEFF",
"O c white",
"+ c None",
/* pixels */
"++++++++++++++++++++++++++++++++",
"++++++++++++++++++++++++++++++++",
"++++++++++++++++++++++++++++++++",
"++++++++++++++++++++++++++++++++",
"++++++++++++++++++++++++++++++++",
"++++++++++++++++++++++++++++++++",
"++++++++++++++++++++++++++++++++",
"++++++++++++++++++++++++++++++++",
"++++++++++++++++++++++++++++++++",
"++++++++++++++++++++++++++++++++",
"++++++++++++++++++++++++++++++++",
"++++++++++++++++++++++++++++++++",
"++++++++++++++++++++++++++++++++",
"++++++++++++++++++++++++++++++++",
"++++++++++++++++++++++++++++++++",
"++++++++++++++++++++++++++++++++",
"++++++++OOOOOOOOOOOO++++++++++++",
"++++++++OOOOOOOOOOOO++++++++++++",
"++++++++OOOOOOOOOOOO++++++++++++",
"++++++++XXXXXXXXOOOO++++++++++++",
"++++OOO.++++++++OOOOOOOO++++++++",
"++++OOOX++++++++OOOOOOOO++++++++",
"++++OOOX++++++++OOOOOOOO++++++++",
"++++ooo ++++++++OOOOOOOO++++++++",
"++++++++++++++++OOOOOOOO++++++++",
"++++++++++++++++OOOOOOOO++++++++",
"++++++++++++++++OOOOOOOO++++++++",
"++++++++++++++++OOOOoooo++++++++",
"++++++++++++OOOOOOOO++++++++++++",
"++++++++++++OOOOOOOO++++++++++++",
"++++++++++++OOOOOOOO++++++++++++",
"++++++++++++oooOOOOO++++++++++++",
"++++++++++++++++OOOOOOOO++++++++",
"++++++++++++++++OOOOOOOO++++++++",
"++++++++++++++++OOOOOOOO++++++++",
"++++++++++++++++OOOOOOOO++++++++",
"++++OOOX++++++++OOOOOOOO++++++++",
"++++OOOX++++++++OOOOOOOO++++++++",
"++++OOOX++++++++OOOOOOOO++++++++",
"++++OOO ++++++++OOOOOOOo++++++++",
"++++++++OOOOOOOOOOOO++++++++++++",
"++++++++OOOOOOOOOOOO++++++++++++",
"++++++++OOOOOOOOOOOO++++++++++++",
"++++++++OOOOOOOOOOOo++++++++++++",
"++++++++++++++++++++++++++++++++",
"++++++++++++++++++++++++++++++++",
"++++++++++++++++++++++++++++++++",
"++++++++++++++++++++++++++++++++",
"++++++++++++++++++++++++++++++++",
"++++++++++++++++++++++++++++++++",
"++++++++++++++++++++++++++++++++",
"++++++++++++++++++++++++++++++++",
"++++++++++++++++++++++++++++++++",
"++++++++++++++++++++++++++++++++",
"++++++++++++++++++++++++++++++++",
"++++++++++++++++++++++++++++++++",
"++++++++++++++++++++++++++++++++",
"++++++++++++++++++++++++++++++++",
"++++++++++++++++++++++++++++++++",
"++++++++++++++++++++++++++++++++",
"++++++++++++++++++++++++++++++++",
"++++++++++++++++++++++++++++++++",
"++++++++++++++++++++++++++++++++",
"++++++++++++++++++++++++++++++++"
};
